<?xml version="1.0" encoding="utf-8"?>
<svg width="47px" height="62px" viewBox="0 0 47 62" version="1.1" xmlns:xlink="http://www.w3.org/1999/xlink" xmlns="http://www.w3.org/2000/svg">
  <defs>
    <path d="M0 0L46.02 0L46.02 61.74L0 61.74L0 0Z" id="path_1" />
    <clipPath id="mask_1">
      <use xlink:href="#path_1" />
    </clipPath>
  </defs>
  <g id="actualite">
    <path d="M0 0L46.02 0L46.02 61.74L0 61.74L0 0Z" id="Background" fill="none" fill-rule="evenodd" stroke="none" />
    <g clip-path="url(#mask_1)">
      <path d="M45.53 4.88L43.53 4.88L43.53 2.88C43.53 2.60939 43.3107 2.39001 43.04 2.39001L41.04 2.39L41.04 0.489998C41.04 0.219391 40.8207 1.52588e-05 40.55 7.62939e-06L0.490021 0C0.219391 0 0 0.219383 0 0.490005L1.52588e-05 56.38C0 56.51 0.0516357 56.6346 0.143524 56.7265C0.235428 56.8184 0.360062 56.87 0.490021 56.87L2.49002 56.87L2.49002 58.73C2.49002 58.86 2.54166 58.9846 2.63354 59.0765C2.72545 59.1684 2.85008 59.22 2.98004 59.22L4.98003 59.22L4.98003 61.22C4.98001 61.35 5.03165 61.4746 5.12354 61.5665C5.21544 61.6584 5.34007 61.71 5.47003 61.71L45.53 61.71C45.8007 61.71 46.02 61.4906 46.02 61.22L46.02 5.37C46.02 5.24004 45.9684 5.1154 45.8765 5.02351C45.7846 4.93161 45.66 4.87999 45.53 4.88L45.53 4.88ZM45.0409 60.7704L5.96094 60.7704L5.96094 59.1904L42.9609 59.1904C43.2316 59.1904 43.4509 58.971 43.4509 58.7004L43.4509 5.86035L45.0009 5.86035L45.0009 60.7704L45.0409 60.7704ZM0.970703 0.980469L40.0507 0.980469L40.0507 55.8905L0.980713 55.8905L0.980713 0.980469L0.970703 0.980469ZM3.42969 56.8699L40.5497 56.8699C40.8203 56.8699 41.0397 56.6505 41.0397 56.3799L41.0397 3.37988L42.5197 3.37988L42.5197 58.1899L3.42969 58.1899L3.42969 56.8199L3.42969 56.8699Z" id="Shape" fill="#002153" fill-rule="evenodd" stroke="none" />
      <path d="M4.49023 9.61035L17.2502 9.61035C17.5264 9.61035 17.7502 9.3865 17.7502 9.11035C17.7502 8.83421 17.5264 8.61035 17.2502 8.61035L4.49023 8.61035C4.2141 8.61035 3.99023 8.83421 3.99023 9.11035C3.99023 9.38649 4.2141 9.61035 4.49023 9.61035L4.49023 9.61035Z" id="Shape" fill="#002153" fill-rule="evenodd" stroke="none" />
      <path d="M4.49023 13.4902L17.2502 13.4902C17.5264 13.4902 17.7502 13.2664 17.7502 12.9902C17.7502 12.7141 17.5264 12.4902 17.2502 12.4902L4.49023 12.4902C4.2141 12.4902 3.99023 12.7141 3.99023 12.9902C3.99023 13.2664 4.2141 13.4902 4.49023 13.4902L4.49023 13.4902Z" id="Shape" fill="#002153" fill-rule="evenodd" stroke="none" />
      <path d="M4.49023 17.3701L17.2502 17.3701C17.5264 17.3701 17.7502 17.1463 17.7502 16.8701C17.7502 16.594 17.5264 16.3701 17.2502 16.3701L4.49023 16.3701C4.2141 16.3701 3.99023 16.594 3.99023 16.8701C3.99023 17.1463 4.2141 17.3701 4.49023 17.3701L4.49023 17.3701Z" id="Shape" fill="#002153" fill-rule="evenodd" stroke="none" />
      <path d="M4.49023 21.2598L17.2502 21.2598C17.5264 21.2598 17.7502 21.0359 17.7502 20.7598C17.7502 20.4836 17.5264 20.2598 17.2502 20.2598L4.49023 20.2598C4.2141 20.2598 3.99023 20.4836 3.99023 20.7598C3.99023 21.0359 4.2141 21.2598 4.49023 21.2598L4.49023 21.2598Z" id="Shape" fill="#002153" fill-rule="evenodd" stroke="none" />
      <path d="M4.49023 25.1904L17.2502 25.1904C17.5264 25.1904 17.7502 24.9666 17.7502 24.6904C17.7502 24.4143 17.5264 24.1904 17.2502 24.1904L4.49023 24.1904C4.2141 24.1904 3.99023 24.4143 3.99023 24.6904C3.99023 24.9666 4.2141 25.1904 4.49023 25.1904L4.49023 25.1904Z" id="Shape" fill="#002153" fill-rule="evenodd" stroke="none" />
      <path d="M4.49023 29.0303L17.2502 29.0303C17.5264 29.0303 17.7502 28.8064 17.7502 28.5303C17.7502 28.2541 17.5264 28.0303 17.2502 28.0303L4.49023 28.0303C4.2141 28.0303 3.99023 28.2541 3.99023 28.5303C3.99023 28.8064 4.2141 29.0303 4.49023 29.0303L4.49023 29.0303Z" id="Shape" fill="#002153" fill-rule="evenodd" stroke="none" />
      <path d="M22.3008 29.0303L36.0108 29.0303C36.2869 29.0303 36.5108 28.8064 36.5108 28.5303C36.5108 28.2541 36.2869 28.0303 36.0108 28.0303L22.3008 28.0303C22.0246 28.0303 21.8008 28.2541 21.8008 28.5303C21.8008 28.8064 22.0246 29.0303 22.3008 29.0303L22.3008 29.0303Z" id="Shape" fill="#002153" fill-rule="evenodd" stroke="none" />
      <path d="M22.3002 24.0602L36.0102 24.0602C36.2809 24.0602 36.5003 23.8408 36.5003 23.5702L36.5003 5.19019C36.4949 4.92181 36.2786 4.70551 36.0102 4.7002L22.3002 4.7002C22.0318 4.70551 21.8155 4.92181 21.8102 5.1902L21.8102 23.5302C21.799 23.6669 21.8457 23.8021 21.9388 23.9028C22.0319 24.0036 22.163 24.0607 22.3002 24.0602L22.3002 24.0602ZM22.791 5.84972L22.791 5.71973L35.521 5.71973L35.521 23.0897L22.791 23.0897L22.791 5.85972L22.791 5.84972Z" id="Shape" fill="#002153" fill-rule="evenodd" stroke="none" />
      <path d="M4.00954 52.3298L17.7195 52.3298C17.8495 52.3298 17.9742 52.2781 18.066 52.1862C18.1579 52.0944 18.2096 51.9697 18.2096 51.8398L18.2095 33.4998C18.2096 33.3698 18.1579 33.2452 18.066 33.1533C17.9741 33.0614 17.8495 33.0098 17.7195 33.0098L4.00954 33.0098C3.87958 33.0098 3.75494 33.0614 3.66306 33.1533C3.57117 33.2452 3.51953 33.3698 3.51953 33.4998L3.51953 51.8398C3.51953 51.9697 3.57117 52.0944 3.66306 52.1862C3.75496 52.2782 3.87959 52.3298 4.00955 52.3298L4.00954 52.3298ZM4.50002 33.9902L17.23 33.9902L17.23 51.3502L4.5 51.3502L4.5 33.9902L4.50002 33.9902Z" id="Shape" fill="#002153" fill-rule="evenodd" stroke="none" />
      <path d="M22.3008 32.9102L36.0108 32.9102C36.2869 32.9102 36.5108 32.6863 36.5108 32.4102C36.5108 32.134 36.2869 31.9102 36.0108 31.9102L22.3008 31.9102C22.0246 31.9102 21.8008 32.134 21.8008 32.4102C21.8008 32.6863 22.0246 32.9102 22.3008 32.9102L22.3008 32.9102Z" id="Shape" fill="#002153" fill-rule="evenodd" stroke="none" />
      <path d="M22.3008 36.79L36.0108 36.79C36.2869 36.79 36.5108 36.5662 36.5108 36.29C36.5108 36.0139 36.2869 35.79 36.0108 35.79L22.3008 35.79C22.0246 35.79 21.8008 36.0139 21.8008 36.29C21.8008 36.5662 22.0246 36.79 22.3008 36.79L22.3008 36.79Z" id="Shape" fill="#002153" fill-rule="evenodd" stroke="none" />
      <path d="M22.3008 40.6797L36.0108 40.6797C36.2869 40.6797 36.5108 40.4558 36.5108 40.1797C36.5108 39.9035 36.2869 39.6797 36.0108 39.6797L22.3008 39.6797C22.0246 39.6797 21.8008 39.9035 21.8008 40.1797C21.8008 40.4558 22.0246 40.6797 22.3008 40.6797L22.3008 40.6797Z" id="Shape" fill="#002153" fill-rule="evenodd" stroke="none" />
      <path d="M22.3008 44.5596L36.0108 44.5596C36.2869 44.5596 36.5108 44.3357 36.5108 44.0596C36.5108 43.7834 36.2869 43.5596 36.0108 43.5596L22.3008 43.5596C22.0246 43.5596 21.8008 43.7834 21.8008 44.0596C21.8008 44.3357 22.0246 44.5596 22.3008 44.5596L22.3008 44.5596Z" id="Shape" fill="#002153" fill-rule="evenodd" stroke="none" />
      <path d="M22.3008 48.4502L36.0108 48.4502C36.2869 48.4502 36.5108 48.2263 36.5108 47.9502C36.5108 47.6741 36.2869 47.4502 36.0108 47.4502L22.3008 47.4502C22.0246 47.4502 21.8008 47.6741 21.8008 47.9502C21.8008 48.2263 22.0246 48.4502 22.3008 48.4502L22.3008 48.4502Z" id="Shape" fill="#002153" fill-rule="evenodd" stroke="none" />
      <path d="M22.3008 52.3301L36.0108 52.3301C36.2869 52.3301 36.5108 52.1062 36.5108 51.8301C36.5108 51.5539 36.2869 51.3301 36.0108 51.3301L22.3008 51.3301C22.0246 51.3301 21.8008 51.5539 21.8008 51.8301C21.8008 52.1062 22.0246 52.3301 22.3008 52.3301L22.3008 52.3301Z" id="Shape" fill="#002153" fill-rule="evenodd" stroke="none" />
    </g>
  </g>
</svg>