<?xml version="1.0" encoding="utf-8"?>
<svg width="121px" height="62px" viewBox="0 0 121 62" version="1.1" xmlns:xlink="http://www.w3.org/1999/xlink" xmlns="http://www.w3.org/2000/svg">
  <defs>
    <path d="M0 0L120.71 0L120.71 61.36L0 61.36L0 0Z" id="path_1" />
    <clipPath id="mask_1">
      <use xlink:href="#path_1" />
    </clipPath>
  </defs>
  <g id="entreprise">
    <path d="M0 0L120.71 0L120.71 61.36L0 61.36L0 0Z" id="Background" fill="none" fill-rule="evenodd" stroke="none" />
    <g clip-path="url(#mask_1)">
      <path d="M80.1293 38.2796C75.7393 37.4196 70.9393 36.1196 69.6493 35.4396L68.8993 35.0396L68.8993 35.0396L67.0093 34.0396L67.0093 31.5696C69.3017 28.8587 70.9131 25.6393 71.7093 22.1796C73.3549 22.1528 74.6825 20.8252 74.7093 19.1796L74.7093 16.6096C74.7042 15.1182 73.6213 13.8492 72.1493 13.6096L72.1493 13.2996C72.1493 6.24957 66.3393 0.0595703 59.7193 0.0595703C53.0993 0.0595703 47.2893 6.24957 47.2893 13.2996L47.2893 13.5696C46.4781 13.5452 45.6918 13.8505 45.1095 14.4158C44.5273 14.981 44.1989 15.7581 44.1993 16.5696L44.1993 19.1396C44.2096 20.0279 44.6041 20.8682 45.281 21.4436C45.958 22.0189 46.851 22.2727 47.7293 22.1396C48.4734 25.4008 49.9355 28.4549 52.0093 31.0796L52.0093 34.2796L50.2593 35.1996L50.2593 35.1996L49.8193 35.4296C48.5193 36.1095 43.7193 37.4296 39.3393 38.2695C34.6193 39.1895 30.7793 44.4095 30.7793 49.8996L30.7793 59.4496C30.7793 59.7257 31.0031 59.9496 31.2793 59.9496C31.5555 59.9496 31.7793 59.7257 31.7793 59.4496L31.7793 49.8896C31.7793 44.8396 35.2693 40.0496 39.5493 39.2096C43.1955 38.5748 46.7744 37.6005 50.2393 36.2996C56.5693 54.5796 58.3493 59.3996 58.9093 60.7196L59.0193 61.0096C59.0412 61.0465 59.0681 61.0801 59.0993 61.1096C59.1219 61.1602 59.1561 61.2048 59.1993 61.2396L59.1993 61.2396C59.2457 61.2463 59.2929 61.2463 59.3393 61.2396C59.3824 61.2457 59.4262 61.2457 59.4693 61.2396L59.4693 61.2396L59.6193 61.2396C59.657 61.2281 59.6914 61.2075 59.7193 61.1796C59.8092 61.1267 59.8794 61.0459 59.9193 60.9496L59.9993 60.7296C60.6493 59.4196 62.4993 54.5696 68.9493 36.0696L69.2193 36.2096C70.6093 36.9396 75.4293 38.2096 79.9693 39.1496C79.9726 39.1502 79.9758 39.1509 79.9791 39.1515C84.2646 39.9969 87.7393 44.7834 87.7393 49.8296L87.7393 59.4496C87.7393 59.7257 87.9631 59.9496 88.2393 59.9496C88.5154 59.9496 88.7393 59.7257 88.7393 59.4496L88.7393 49.8896C88.6893 44.4496 84.8493 39.2095 80.1293 38.2796L80.1293 38.2796ZM52.9688 32.1895C54.6677 34.1662 57.0967 35.3681 59.6988 35.5195C62.1032 35.3923 64.3647 34.3385 66.0088 32.5795L66.0088 34.3295L59.4987 40.7094L52.9987 34.3794L52.9987 32.1994L52.9688 32.1895ZM62.0689 52.5993L59.4389 59.4493L57.0389 52.9293L58.2589 46.7693C58.2903 46.615 58.2457 46.455 58.1389 46.3393L56.6289 44.7193L59.6789 41.8193L62.4889 44.5393L60.7989 46.3293C60.6856 46.4495 60.6405 46.6187 60.6789 46.7793L62.0689 52.5993ZM60.4297 41.1695L66.7497 35.0195L68.0497 35.6995L64.7597 44.9195L60.4297 41.1695ZM52.4291 35.1699L58.7491 41.3199L54.4091 45.0799L51.1191 35.8599L52.4291 35.1699ZM55.7595 45.1699L57.2995 46.8099L56.4495 51.1099L54.6895 46.1099L55.7595 45.1699ZM61.7598 46.7993L63.4598 44.9893L64.4598 45.8993L62.6898 50.8993L61.7598 46.7993ZM48.3885 21.0599C48.315 21.0197 48.2323 20.9991 48.1485 20.9999L47.9885 20.9999C47.3555 21.2142 46.6581 21.1129 46.1123 20.7273C45.5665 20.3416 45.238 19.7182 45.2285 19.0499L45.2285 16.4799C45.2396 15.8611 45.5256 15.2794 46.0088 14.8928C46.4921 14.5062 47.1224 14.3549 47.7285 14.4799C47.873 14.51 48.0233 14.4735 48.1377 14.3803C48.2522 14.2872 48.3186 14.1475 48.3185 13.9999L48.3185 13.1799C48.3185 6.64993 53.6685 0.919922 59.7685 0.919922C65.8685 0.919922 71.2185 6.64993 71.2185 13.1799L71.2185 13.9399C71.2185 14.2105 71.4379 14.4299 71.7085 14.4299C72.8517 14.4299 73.7785 15.3567 73.7785 16.4999L73.7785 19.0699C73.7785 20.2132 72.8517 21.1399 71.7085 21.1399L71.4285 21.1399C71.1707 21.1031 70.9291 21.2744 70.8785 21.5299C70.2061 24.7398 68.8146 27.7554 66.8085 30.3499C66.7345 30.3 66.6478 30.2723 66.5585 30.2699C66.2879 30.2699 66.0685 30.4893 66.0685 30.7599L66.0685 31.2099C64.2386 33.2099 62.0685 34.5199 59.7585 34.5199C57.2686 34.5199 54.9286 32.9899 53.0186 30.7199C52.9994 30.5179 52.8553 30.3498 52.6586 30.2999C50.6683 27.6783 49.3004 24.6383 48.6586 21.4099C48.6011 21.2603 48.4741 21.1483 48.3185 21.1099L48.3885 21.0599Z" id="Shape" fill="#002153" fill-rule="evenodd" stroke="none" />
      <path d="M76.1109 50.2002L67.4509 50.2002C67.1803 50.2002 66.9609 50.4196 66.9609 50.6902L66.9609 53.5502C66.9609 53.8208 67.1803 54.0402 67.4509 54.0402L76.1109 54.0402C76.3816 54.0402 76.6009 53.8208 76.6009 53.5502L76.6009 50.6902C76.6009 50.4196 76.3816 50.2002 76.1109 50.2002L76.1109 50.2002ZM75.6216 53.0607L67.9316 53.0607L67.9316 51.1807L75.6216 51.1807L75.6216 53.0607L75.6216 53.0607Z" id="Shape" fill="#002153" fill-rule="evenodd" stroke="none" />
      <path d="M113.5 41.9405C110.524 41.4249 107.601 40.6349 104.77 39.5805L104.14 39.2505L104.14 39.2505L102.61 38.4405L102.61 36.4405C104.503 34.1865 105.836 31.5173 106.5 28.6505C107.906 28.5916 109.016 27.4372 109.02 26.0305L109.02 23.8805C109.019 22.6185 108.12 21.5357 106.88 21.3005L106.88 21.1105C106.88 15.1805 101.99 9.98047 96.4304 9.98047C90.8704 9.98047 85.9804 15.1805 85.9804 21.1105L85.9804 21.2605C84.5513 21.2876 83.4055 22.4512 83.4004 23.8805L83.4004 26.0305C83.4081 26.7896 83.741 27.509 84.3147 28.0063C84.8884 28.5035 85.6478 28.7308 86.4004 28.6305C87.0288 31.3288 88.2443 33.8554 89.9604 36.0305L89.9604 38.6305L88.5504 39.3805L88.5004 39.3805L88.4404 39.3805L88.3804 39.4605L88.3804 39.5205C88.3762 39.557 88.3762 39.5939 88.3804 39.6305C88.3792 39.6504 88.3792 39.6705 88.3804 39.6905C88.3716 39.7435 88.3716 39.7975 88.3804 39.8505C88.3804 39.8505 88.3804 39.8505 88.3804 39.8505L88.3804 39.8505C93.7404 55.3405 95.2704 59.5005 95.7704 60.6605L95.8604 60.9105C95.8799 60.9433 95.9034 60.9735 95.9304 61.0005C95.9537 61.059 95.9915 61.1107 96.0404 61.1505L96.0404 61.1505C96.0901 61.1583 96.1407 61.1583 96.1904 61.1505C96.2303 61.1557 96.2706 61.1557 96.3104 61.1505L96.3104 61.1505L96.4604 61.1505C96.498 61.1386 96.5323 61.1181 96.5604 61.0905C96.6503 61.0376 96.7205 60.9568 96.7604 60.8605L96.8504 60.6205C97.4404 59.4005 99.0404 55.1705 104.27 40.1705L104.41 40.2405C107.325 41.3472 110.339 42.171 113.41 42.7005C116.95 43.3905 119.83 47.3505 119.83 51.5305L119.83 59.5305C119.83 59.8066 120.054 60.0305 120.33 60.0305C120.607 60.0305 120.83 59.8066 120.83 59.5305L120.83 51.5305C120.7 47.1105 117.5 42.7205 113.5 41.9405L113.5 41.9405ZM90.9004 38.7201L90.9004 37.1201C92.3158 38.7164 94.3102 39.6812 96.4404 39.8001C98.4025 39.7016 100.254 38.8617 101.62 37.4501L101.62 38.6901L96.2404 43.9301L92.5004 40.2801L90.9004 38.7201ZM98.3304 53.9706L96.2104 59.4506L94.2904 54.2306L95.2904 49.1106C95.3218 48.9563 95.2772 48.7964 95.1704 48.6806L93.9805 47.4506L96.4105 45.1406L98.6405 47.3006L97.2905 48.7406C97.1772 48.8608 97.132 49.03 97.1705 49.1906L98.3304 53.9706ZM97.1504 44.4502L102.32 39.4502L103.32 39.9602L100.61 47.4502L97.1504 44.4502ZM93.1006 47.9404L94.3006 49.2204L93.6606 52.4504L92.3105 48.6004L93.1006 47.9404ZM98.1797 49.2208L99.5197 47.8008L100.29 48.4708L98.9197 52.3208L98.1797 49.2208ZM86.9711 27.6409C86.8976 27.6008 86.8149 27.5801 86.7311 27.5809C86.6782 27.572 86.6241 27.572 86.5711 27.5809C86.0671 27.7544 85.5106 27.6753 85.0749 27.3683C84.6392 27.0614 84.3774 26.5639 84.3711 26.031L84.3711 23.8809C84.3718 23.3824 84.598 22.9108 84.9864 22.5981C85.3748 22.2854 85.8838 22.1652 86.3711 22.2709C86.5155 22.3011 86.6659 22.2645 86.7803 22.1714C86.8948 22.0782 86.9612 21.9385 86.9611 21.7909L86.9611 21.1109C86.9611 15.7009 91.3911 10.9609 96.4411 10.9609C101.491 10.9609 105.921 15.7009 105.921 21.1109L105.921 21.7509C105.921 22.0216 106.14 22.2409 106.411 22.2409C107.322 22.2409 108.061 22.9797 108.061 23.8909L108.061 26.0409C108.05 26.5127 107.841 26.9581 107.485 27.2682C107.13 27.5783 106.66 27.7244 106.191 27.6709C105.932 27.6286 105.687 27.8024 105.641 28.0609C105.086 30.7036 103.944 33.188 102.301 35.3309C102.15 35.2674 101.977 35.2836 101.841 35.374C101.704 35.4644 101.622 35.6171 101.621 35.781L101.621 36.131C100.347 37.7164 98.4699 38.6986 96.4411 38.841C94.4411 38.841 92.4411 37.551 90.8711 35.641C90.8341 35.51 90.7432 35.401 90.6211 35.341C88.9357 33.1712 87.7723 30.6426 87.2211 27.951C87.1934 27.8057 87.1015 27.6808 86.9711 27.611L86.9711 27.6409ZM90.3103 39.5508L95.4803 44.5508L92.0103 47.5508L89.3203 40.0308L90.3103 39.5508Z" id="Shape" fill="#002153" fill-rule="evenodd" stroke="none" />
      <path d="M110.13 51.8799L102.9 51.8799C102.63 51.8799 102.41 52.0993 102.41 52.3699L102.41 54.7499C102.41 55.0205 102.63 55.2399 102.9 55.2399L110.13 55.2399C110.401 55.2399 110.62 55.0205 110.62 54.7499L110.62 52.3699C110.62 52.0993 110.401 51.8799 110.13 51.8799L110.13 51.8799ZM109.641 54.2596L103.391 54.2596L103.391 52.8496L109.641 52.8496L109.641 54.2596L109.641 54.2596Z" id="Shape" fill="#002153" fill-rule="evenodd" stroke="none" />
      <path d="M32.1491 39.8802L32.1491 39.8802L32.1491 39.8802C32.159 39.824 32.159 39.7665 32.1491 39.7102C32.1504 39.6902 32.1504 39.6702 32.1491 39.6502C32.1533 39.6137 32.1533 39.5768 32.1491 39.5402L32.1491 39.4802L32.0891 39.3902L32.0291 39.3902L31.9791 39.3902L30.3991 38.4502L30.3991 36.4502C32.2985 34.1982 33.6383 31.5289 34.3091 28.6602C35.7146 28.6014 36.825 27.447 36.8291 26.0403L36.8291 23.8902C36.8272 22.6283 35.9291 21.5454 34.6892 21.3102L34.6891 21.1202C34.6891 15.1902 29.7991 9.99023 24.2391 9.99023C18.6791 9.99023 13.7891 15.1902 13.7891 21.1202L13.7891 21.2702C12.36 21.2974 11.2142 22.4609 11.2091 23.8902L11.2091 26.0402C11.2135 26.8005 11.5455 27.522 12.12 28.0199C12.6945 28.5179 13.4559 28.7439 14.2091 28.6402C14.8348 31.3376 16.0468 33.8641 17.7591 36.0403L17.7591 38.6402L16.3491 39.3902L16.3491 39.3902L15.9791 39.5902C13.1481 40.6447 10.2256 41.4347 7.24902 41.9502C3.24905 42.7302 0.0390625 47.1202 0.0390625 51.7402L0.0390625 59.7402C0.0390625 60.0164 0.262909 60.2402 0.539063 60.2402C0.815216 60.2402 1.03906 60.0164 1.03906 59.7402L1.03906 51.7402C1.03906 47.5602 3.91907 43.6002 7.45908 42.9102C10.4777 42.379 13.4428 41.5791 16.3191 40.5202C21.5291 55.5702 23.0291 59.6602 23.5291 60.8102L23.619 61.0602C23.6386 61.093 23.6621 61.1233 23.6891 61.1502C23.7123 61.2088 23.7502 61.2604 23.799 61.3002L23.799 61.3002C23.8488 61.3081 23.8994 61.3081 23.9491 61.3002C23.9889 61.3055 24.0292 61.3055 24.0691 61.3002L24.069 61.3002L24.219 61.3002C24.2566 61.2884 24.2909 61.2678 24.319 61.2402C24.4089 61.1873 24.4792 61.1066 24.519 61.0103L24.609 60.7702C25.1591 59.5802 26.7791 55.2802 32.1491 39.8802L32.1491 39.8802ZM18.6995 37.1301C20.1149 38.7265 22.1093 39.6913 24.2395 39.8101C26.2016 39.7117 28.0531 38.8717 29.4195 37.4601L29.4195 38.7001L24.0395 43.9301L18.6895 38.7201L18.6895 37.1201L18.6995 37.1301ZM26.129 53.9706L24.019 59.4506L22.099 54.2306L23.099 49.1106C23.1304 48.9563 23.0858 48.7964 22.979 48.6806L21.7891 47.4506L24.2191 45.1406L26.4491 47.3006L25.0991 48.7406C24.9858 48.8608 24.9406 49.03 24.9791 49.1906L26.129 53.9706ZM18.1287 39.5303L23.2987 44.5303L19.8287 47.5303L17.1387 40.0103L18.1287 39.5303ZM20.9184 47.9199L22.1184 49.1999L21.4984 52.4499L20.1484 48.5999L20.9184 47.9199ZM26 49.2003L27.34 47.7803L28.1 48.4503L26.73 52.3003L26 49.2003ZM28.4188 47.4307L24.9688 44.4307L30.1388 39.4307L31.1388 39.9407L28.4188 47.4307ZM14.7797 27.6204C14.7061 27.5802 14.6235 27.5596 14.5397 27.5604C14.4867 27.5515 14.4326 27.5515 14.3797 27.5604C13.8757 27.7338 13.3192 27.6547 12.8835 27.3478C12.4478 27.0408 12.186 26.5434 12.1797 26.0105L12.1797 23.8604C12.1841 23.3631 12.4113 22.894 12.7987 22.5821C13.1861 22.2703 13.6929 22.1486 14.1797 22.2504C14.3242 22.2805 14.4745 22.244 14.5889 22.1508C14.7034 22.0577 14.7698 21.918 14.7697 21.7704L14.7697 21.0904C14.7697 15.6804 19.1997 10.9404 24.2497 10.9404C29.2997 10.9404 33.7297 15.6804 33.7297 21.0904L33.7297 21.7304C33.7297 22.001 33.9491 22.2204 34.2197 22.2204C35.131 22.2204 35.8697 22.9592 35.8697 23.8704L35.8697 26.0204C35.8587 26.4922 35.6498 26.9376 35.2941 27.2477C34.9383 27.5578 34.4686 27.7039 33.9997 27.6504C33.7406 27.6081 33.4955 27.7819 33.4497 28.0404C32.8958 30.6836 31.7543 33.1683 30.1097 35.3104C29.9587 35.2469 29.7859 35.2631 29.6493 35.3535C29.5127 35.4439 29.4303 35.5966 29.4297 35.7605L29.4297 36.1104C28.1559 37.6959 26.2785 38.6781 24.2497 38.8204C22.2497 38.8204 20.2497 37.5305 18.6797 35.6205C18.6402 35.4933 18.5497 35.3883 18.4297 35.3305C16.7446 33.1605 15.5812 30.632 15.0297 27.9404C14.9992 27.7989 14.9077 27.6781 14.7797 27.6105L14.7797 27.6204Z" id="Shape" fill="#002153" fill-rule="evenodd" stroke="none" />
    </g>
  </g>
</svg>