<?xml version="1.0" encoding="utf-8"?>
<svg width="77px" height="84px" viewBox="0 0 77 84" version="1.1" xmlns:xlink="http://www.w3.org/1999/xlink" xmlns="http://www.w3.org/2000/svg">
  <defs>
    <path d="M0 0L76.25 0L76.25 83.91L0 83.91L0 0Z" id="path_1" />
    <clipPath id="mask_1">
      <use xlink:href="#path_1" />
    </clipPath>
  </defs>
  <g id="envirenment">
    <path d="M0 0L76.25 0L76.25 83.91L0 83.91L0 0Z" id="Background" fill="none" fill-rule="evenodd" stroke="none" />
    <g clip-path="url(#mask_1)">
      <path d="M40.6593 52.9799C40.4433 52.822 40.1406 52.8665 39.9793 53.0799L39.7593 53.3699L36.3993 57.8399L33.0393 53.3699L32.8194 53.0799L32.8194 53.0799L32.8194 53.0299L32.8194 53.0299L32.7293 53.0299L32.6393 53.0299L32.4493 53.0299L32.3693 53.0299L32.2693 53.0299L32.2693 53.0299L32.2693 53.0799L32.2193 53.0799L31.9994 53.3699L28.4593 57.8499L26.9893 55.8499L26.1493 54.7299L25.3092 53.6099L25.0992 53.3399L24.8792 53.0499C24.7786 52.8976 24.6017 52.8139 24.4202 52.8327C24.2387 52.8514 24.0826 52.9695 24.0152 53.139C23.9477 53.3086 23.9801 53.5016 24.0992 53.6399L26.0992 56.3099L26.9392 57.4299L27.7793 58.5499L28.0593 58.9198C28.1519 59.0417 28.2962 59.1132 28.4493 59.1132C28.6024 59.1132 28.7467 59.0417 28.8393 58.9198L32.4193 54.1498L35.9994 58.9198C36.092 59.0417 36.2363 59.1132 36.3894 59.1132C36.5424 59.1132 36.6867 59.0417 36.7794 58.9198L40.7794 53.6298C40.9135 53.4147 40.8614 53.1328 40.6593 52.9799L40.6593 52.9799Z" id="Shape" fill="#002153" fill-rule="evenodd" stroke="none" />
      <path d="M73.4598 54.7598C76.1429 49.9457 75.0405 43.9056 70.8298 40.3498C71.7136 38.949 72.1818 37.3261 72.1797 35.6698C72.1763 32.6691 70.6512 29.8752 68.1294 28.2496C69.1391 26.4119 69.3074 24.228 68.5912 22.2573C67.8749 20.2866 66.3438 18.7204 64.3898 17.9598C64.5826 17.3415 64.6804 16.6975 64.6797 16.0498C64.629 13.596 63.19 11.3836 60.9675 10.3423C58.7449 9.30112 56.124 9.6115 54.2062 11.1431C52.2883 12.6746 51.4059 15.1619 51.9298 17.5597C48.9363 18.6744 46.9453 21.5255 46.9297 24.7198C46.9276 26.0451 47.2723 27.3483 47.9296 28.4995C46.9223 29.0484 46.0377 29.7971 45.3298 30.6998L36.3298 0.279785C36.2502 0.0907135 36.0649 -0.0322266 35.8598 -0.0322266C35.6547 -0.0322266 35.4694 0.0907135 35.3898 0.279785L22.9398 42.1698L16.2698 19.7198C16.1901 19.5307 16.0049 19.4078 15.7997 19.4078C15.5946 19.4078 15.4094 19.5307 15.3297 19.7198L0.049747 71.1198C0.00549655 71.2681 0.0339389 71.4287 0.126529 71.5528C0.21912 71.6769 0.364872 71.7499 0.519718 71.7498L13.8097 71.7498L13.8097 82.7498C13.8097 83.0204 14.0291 83.2398 14.2997 83.2398L17.1897 83.2398C17.4603 83.2398 17.6797 83.0204 17.6797 82.7498L17.6797 71.7498L31.0797 71.7498C31.2346 71.7499 31.3803 71.6769 31.4729 71.5528C31.5655 71.4287 31.5939 71.2681 31.5497 71.1198L30.7397 68.3998L33.3997 68.3998L33.3997 82.9498C33.3997 83.2204 33.619 83.4398 33.8897 83.4398L37.6896 83.4398C37.9603 83.4398 38.1796 83.2204 38.1796 82.9498L38.1796 68.4298L41.8796 68.4298C44.8196 71.7098 49.7896 74.0198 55.5696 74.4298L55.5696 83.3798C55.5696 83.6504 55.789 83.8698 56.0596 83.8698L59.8596 83.8698C60.1303 83.8698 60.3496 83.6504 60.3496 83.3798L60.3496 74.3798C69.3496 73.4698 76.2896 68.0898 76.2896 61.5898C76.2317 59.0397 75.2223 56.6035 73.4598 54.7598L73.4598 54.7598ZM59.359 82.9297L56.459 82.9297L56.459 74.6797L59.279 74.6797L59.279 82.9297L59.359 82.9297ZM57.6593 73.5803C51.6593 73.5803 46.3693 71.5803 43.1793 68.4303C43.0193 68.2703 42.8693 68.1103 42.7193 67.9403C42.5693 67.7703 42.4193 67.6203 42.2793 67.4503C40.864 65.8299 40.067 63.7614 40.0293 61.6103C40.0293 61.4203 40.0293 61.2403 40.0293 61.0503C40.0293 60.8603 40.0293 60.5803 40.1093 60.3403L40.1093 60.1903C40.1093 60.0503 40.1093 59.9003 40.1893 59.7603C40.7223 57.6719 41.8933 55.8017 43.5393 54.4103C43.6382 54.3203 43.696 54.1939 43.6993 54.0603C43.7013 53.9247 43.647 53.7943 43.5493 53.7003C41.6439 51.8781 40.7377 49.2469 41.1169 46.6379C41.4962 44.0289 43.114 41.7646 45.4593 40.5603C45.5793 40.4972 45.6679 40.3873 45.7039 40.2565C45.7399 40.1257 45.7202 39.9859 45.6492 39.8703C44.3575 37.866 44.126 35.3571 45.0294 33.1503C45.1193 32.9203 45.2293 32.7003 45.3393 32.4803C45.4493 32.2603 45.5493 32.0703 45.6693 31.8803C46.4371 30.6857 47.53 29.7352 48.8193 29.1403C48.95 29.0799 49.0475 28.9652 49.086 28.8266C49.1245 28.6879 49.1002 28.5394 49.0193 28.4203C48.2808 27.3241 47.8872 26.032 47.8893 24.7103C47.9037 21.7747 49.83 19.1915 52.6394 18.3403C52.7646 18.3012 52.8689 18.2137 52.929 18.0972C52.9891 17.9806 53.0001 17.8449 52.9594 17.7203C52.2073 15.4253 53.0493 12.9088 55.0309 11.5284C57.0126 10.1481 59.6649 10.2307 61.5569 11.7316C63.4489 13.2325 64.1327 15.7965 63.2394 18.0402C63.1886 18.1672 63.1932 18.3097 63.2521 18.4331C63.3109 18.5566 63.4187 18.6498 63.5494 18.6903C65.4307 19.2736 66.9309 20.7032 67.6042 22.5542C68.2775 24.4052 68.0463 26.4646 66.9793 28.1203C66.9069 28.2334 66.884 28.3713 66.9162 28.5018C66.9484 28.6322 67.0327 28.7438 67.1494 28.8103C69.075 29.8966 70.4515 31.7463 70.9391 33.9027C71.4268 36.0591 70.9801 38.3211 69.7094 40.1303C69.5581 40.3444 69.6021 40.6396 69.8093 40.8003C74.0132 44.0747 75.1119 49.9716 72.3693 54.5403C72.2546 54.7281 72.2791 54.9694 72.4294 55.1303C74.1646 56.8353 75.1687 59.1483 75.2293 61.5803C75.2693 68.2103 67.3593 73.5603 57.6293 73.5603L57.6593 73.5803ZM37.1891 82.4897L34.3691 82.4897L34.3691 68.4297L37.1891 68.4297L37.1891 82.4897L37.1891 82.4897ZM37.679 67.4902L16.459 67.4902L17.799 62.9902L18.199 61.6401L18.5991 60.3001L18.5991 60.2402L18.5991 60.2402L22.9291 45.6702L23.1791 44.8102L23.4391 43.9501L24.1991 41.3902L28.0791 46.5501C28.1718 46.672 28.316 46.7435 28.4691 46.7435C28.6222 46.7435 28.7665 46.672 28.8591 46.5501L32.8591 41.2601C32.9782 41.1219 33.0106 40.9289 32.9432 40.7593C32.8757 40.5897 32.7197 40.4717 32.5381 40.453C32.3566 40.4342 32.1797 40.5179 32.0791 40.6702L31.8591 40.9602L28.459 45.4002L25.099 40.9302L24.879 40.6402C24.7806 40.5093 24.6223 40.4377 24.4591 40.4501L35.829 2.16016L42.389 24.2202C42.31 24.2512 42.2408 24.303 42.189 24.3702L41.969 24.6602L38.609 29.1302L35.249 24.6602L35.0291 24.3702C34.9284 24.2179 34.7515 24.1342 34.57 24.153C34.3885 24.1717 34.2324 24.2897 34.165 24.4593C34.0975 24.6289 34.1299 24.8219 34.249 24.9602L38.249 30.2502C38.3417 30.372 38.486 30.4435 38.639 30.4435C38.7921 30.4435 38.9364 30.372 39.0291 30.2502L42.7391 25.3102L44.6691 31.7902C43.2119 34.3237 43.1891 37.4356 44.609 39.9902C42.2592 41.404 40.6703 43.8002 40.2825 46.5149C39.8947 49.2297 40.7491 51.9749 42.6091 53.9902C40.4335 55.9179 39.1581 58.6641 39.0891 61.5702C39.1127 63.6808 39.8138 65.728 41.089 67.4101L37.699 67.4101L37.679 67.4902ZM16.6797 82.2893L14.7598 82.2893L14.7598 71.7793L16.6797 71.7793L16.6797 82.2493L16.6797 82.2893ZM17.1699 70.8396L1.16992 70.8396L6.96991 51.3396L9.77991 55.0796C9.87256 55.2014 10.0168 55.2729 10.1699 55.2729C10.323 55.2729 10.4673 55.2014 10.5599 55.0796L13.5599 51.0796C13.679 50.9413 13.7114 50.7483 13.644 50.5787C13.5765 50.4092 13.4205 50.2911 13.239 50.2724C13.0574 50.2537 12.8806 50.3373 12.7799 50.4896L12.5599 50.7796L10.15 53.9896L7.73999 50.7796L7.52002 50.4896C7.45459 50.4057 7.36316 50.3459 7.26001 50.3196L15.7699 21.5596L20.6299 37.8996C20.5883 37.927 20.5511 37.9607 20.5199 37.9996L20.2999 38.2896L17.8799 41.5596L15.4599 38.3396L15.2399 38.0496C15.1393 37.8973 14.9624 37.8137 14.7809 37.8324C14.5994 37.8511 14.4433 37.9692 14.3759 38.1387C14.3084 38.3083 14.3408 38.5013 14.4599 38.6396L17.4599 42.6396C17.5526 42.7614 17.6968 42.8329 17.8499 42.8329C18.003 42.8329 18.1473 42.7614 18.2399 42.6396L20.9299 39.0596L22.3699 43.8996L17.5299 60.1796L16.8399 62.4896L16.1599 63.3896L13.7499 60.1796L13.53 59.8896L13.53 59.8896L13.53 59.8396L13.53 59.8396L13.4399 59.8396L13.3499 59.8396L13.1599 59.8396L13.0799 59.8396L12.9799 59.8396L12.9799 59.8396L12.9799 59.8896L12.9299 59.8896L12.71 60.1796L10.3 63.3896L7.89001 60.1796L7.67004 59.8896C7.5694 59.7373 7.39252 59.6536 7.211 59.6724C7.02948 59.6911 6.87341 59.8092 6.80597 59.9787C6.73853 60.1483 6.77094 60.3413 6.89001 60.4796L9.89001 64.4796C9.98267 64.6014 10.127 64.6729 10.28 64.6729C10.4331 64.6729 10.5774 64.6014 10.67 64.4796L13.3 60.9696L15.9301 64.4796C16.0213 64.6039 16.1658 64.678 16.3201 64.6796L16.3201 64.6796L15.4001 67.7796C15.3558 67.9279 15.3843 68.0885 15.4769 68.2125C15.5695 68.3366 15.7152 68.4097 15.8701 68.4096L20.7101 68.4096L21.7101 69.6896C21.8027 69.8114 21.947 69.8829 22.1001 69.8829C22.2532 69.8829 22.3975 69.8114 22.4901 69.6896L23.4901 68.4096L29.8601 68.4096L30.5701 70.7796L17.1499 70.7796L17.1699 70.8396ZM21.8496 68.4697L22.8496 68.4697L22.3681 69.4697L21.8496 68.4697Z" id="Shape" fill="#002153" fill-rule="evenodd" stroke="none" />
      <path d="M58.8503 38.0998L58.3403 38.0998C55.6973 37.8329 53.6072 35.7428 53.3403 33.0998C53.3403 32.9298 53.3403 32.7598 53.3403 32.5898C53.3403 32.3137 53.1165 32.0898 52.8403 32.0898C52.5642 32.0898 52.3403 32.3137 52.3403 32.5898C52.3398 34.1655 52.9114 35.6899 53.949 36.8783C53.8045 37.1244 53.6411 37.359 53.4603 37.5798C52.6583 38.5516 51.5521 39.2246 50.3203 39.4898C49.992 39.5669 49.6572 39.6138 49.3204 39.6298C49.0442 39.6298 48.8203 39.8537 48.8203 40.1298C48.8203 40.406 49.0441 40.6298 49.3203 40.6298L49.3203 40.6298C51.4891 40.573 53.4906 39.4507 54.6703 37.6298C55.8542 38.6436 57.3616 39.2005 58.9203 39.1998C59.2239 39.1804 59.4544 38.9186 59.4351 38.6149C59.4158 38.3112 59.1541 38.0806 58.8503 38.0998L58.8503 38.0998Z" id="Shape" fill="#002153" fill-rule="evenodd" stroke="none" />
      <path d="M64.3501 22.7499C64.268 22.649 64.1491 22.585 64.0197 22.5718C63.8903 22.5587 63.7609 22.5976 63.6602 22.6799C63.3855 22.8973 63.0908 23.0882 62.7801 23.2499C61.6687 23.8428 60.3898 24.0436 59.1502 23.8199C58.8091 23.7614 58.4743 23.671 58.1501 23.5499C57.9075 23.4838 57.6543 23.6121 57.564 23.8468C57.4737 24.0815 57.5758 24.3464 57.8001 24.4599C59.9842 25.3031 62.4519 24.9223 64.2801 23.4599C64.3871 23.3774 64.4552 23.2544 64.4684 23.12C64.4817 22.9856 64.4389 22.8517 64.3501 22.7499L64.3501 22.7499Z" id="Shape" fill="#002153" fill-rule="evenodd" stroke="none" />
      <path d="M69.6397 54.9504C69.5311 54.8786 69.3983 54.8529 69.2706 54.8792C69.1431 54.9055 69.0311 54.9815 68.9597 55.0904C68.8597 55.2404 68.7297 55.3704 68.6197 55.5104C66.9728 57.6076 64.0536 58.2117 61.7097 56.9404C61.5497 56.8604 61.3797 56.7904 61.2297 56.6904C61.0033 56.5413 60.6989 56.604 60.5497 56.8304C60.4006 57.0569 60.4633 57.3613 60.6897 57.5104C61.7546 58.2147 63.0031 58.5902 64.2798 58.5904C64.5541 58.5874 64.828 58.5674 65.0999 58.5304C65.0778 60.7027 66.1292 62.7458 67.9097 63.9904C68.0518 64.1088 68.2484 64.1371 68.4181 64.0637C68.5878 63.9902 68.7017 63.8275 68.7126 63.643C68.7235 63.4584 68.6296 63.2834 68.4698 63.1904C68.1857 62.9892 67.9211 62.7615 67.6798 62.5104C66.7982 61.6117 66.2451 60.4421 66.1098 59.1904C66.088 58.9075 66.088 58.6233 66.1098 58.3404C67.6259 57.9162 68.9368 56.957 69.7999 55.6404C69.8732 55.5285 69.8975 55.3915 69.8672 55.2612C69.837 55.1309 69.7548 55.0186 69.6397 54.9504L69.6397 54.9504Z" id="Shape" fill="#002153" fill-rule="evenodd" stroke="none" />
    </g>
  </g>
</svg>