<?xml version="1.0" encoding="utf-8"?>
<svg width="75px" height="75px" viewBox="0 0 75 75" version="1.1" xmlns:xlink="http://www.w3.org/1999/xlink" xmlns="http://www.w3.org/2000/svg">
  <g id="Group-15">
    <path d="M0 0L75 0L75 75L0 75L0 0Z" id="Rectangle-2" fill="none" fill-rule="evenodd" stroke="none" />
    <g id="Group-14" transform="translate(11 6)">
      <path d="M52.8165 56.5351L42.1466 31.6751C42.6391 31.2805 43.176 30.9449 43.7465 30.6751C45.4312 30.0181 46.6491 28.5271 46.9565 26.7451C47.564 25.1106 47.2513 23.2761 46.1366 21.9351C45.401 20.9919 44.9531 19.8565 44.8465 18.6651C44.7274 17.3818 44.822 16.0875 45.1266 14.8351C45.5959 13.3324 45.4558 11.7055 44.7366 10.3051C43.7366 8.36515 42.3266 7.95515 40.8166 7.52515C39.6262 7.25551 38.5012 6.75247 37.5065 6.04515C36.6014 5.3367 35.8753 4.42557 35.3867 3.38514C34.7175 1.72867 33.2448 0.531688 31.4866 0.215145C29.8664 -0.253621 28.1204 0.0527531 26.7566 1.04515C24.695 2.42902 22.1036 2.7659 19.7566 1.95515C18.2095 1.30801 16.4384 1.50059 15.0666 2.46516C13.8009 3.11631 12.9261 4.33721 12.7166 5.74515C12.409 7.1833 11.7685 8.52929 10.8466 9.67517C10.0445 10.8602 8.92519 11.7959 7.61666 12.3751C6.55666 12.8852 5.61666 13.3751 5.02663 15.6752C4.49013 17.3037 4.80959 19.0929 5.8766 20.4352C6.59462 21.3999 7.02767 22.5466 7.1266 23.7452C7.21114 24.8679 7.05782 25.9958 6.67659 27.0552C5.99776 28.7375 6.21602 30.6491 7.25661 32.1352C7.73891 33.1355 8.54622 33.9428 9.54653 34.4251L0.0365772 56.5951C-0.0398388 56.7817 0.00581548 56.996 0.151689 57.1352C0.297502 57.2744 0.513689 57.3101 0.696489 57.2251L10.3466 52.6651L13.4266 63.0151C13.485 63.2127 13.6608 63.3526 13.8665 63.3652L13.8666 63.3652C14.0632 63.3645 14.2404 63.2464 14.3166 63.0652L22.9066 42.6051L22.9066 42.6051C23.8961 42.6142 24.8449 42.2122 25.5266 41.4952C26.3524 40.7147 27.4011 40.2113 28.5266 40.0552L28.9466 39.9951L38.4666 62.9951C38.5429 63.1764 38.72 63.2945 38.9166 63.2951L38.9166 63.2951C39.1224 63.2826 39.2982 63.1427 39.3567 62.9451L42.5065 52.5951L52.1566 57.1551C52.3372 57.2367 52.5493 57.2014 52.6937 57.0657C52.8382 56.93 52.8867 56.7205 52.8165 56.5351L52.8165 56.5351ZM13.3247 39.6361C13.204 39.5868 13.0686 39.5875 12.9485 39.6381C12.8285 39.6888 12.7335 39.7853 12.6847 39.9061L10.6847 44.9061C10.6185 45.0687 10.6441 45.2542 10.7519 45.3928C10.8596 45.5314 11.0331 45.6019 11.2069 45.5779C11.3808 45.5538 11.5287 45.4388 11.5947 45.2762L13.5946 40.2761C13.644 40.1555 13.6433 40.0201 13.5926 39.9C13.542 39.7799 13.4455 39.685 13.3247 39.6361L13.3247 39.6361ZM11.0834 37.6377C10.8349 37.5337 10.549 37.6498 10.4434 37.8977L6.70344 46.7177C6.6186 46.8813 6.63276 47.0787 6.74006 47.2285C6.84736 47.3784 7.02961 47.4553 7.21186 47.4277C7.39405 47.4001 7.54535 47.2726 7.60346 47.0977L11.3435 38.2777C11.4475 38.0292 11.3313 37.7433 11.0834 37.6377L11.0834 37.6377ZM28.387 39.1349C27.0953 39.3257 25.8921 39.9046 24.937 40.7949C24.4833 41.2631 23.8838 41.5629 23.237 41.6449C23.2237 41.5928 23.2363 41.6445 23.2363 41.6445C23.2363 41.6445 22.6758 41.6816 22.4961 41.6445C22.4961 41.6445 21.2506 41.3923 20.727 41.2349C17.907 40.4149 17.607 39.6949 17.167 38.5949C16.7486 37.4298 16.0313 36.3952 15.087 35.5949C14.0265 34.6227 12.6861 34.0103 11.257 33.8449C9.8672 33.766 8.64247 32.9056 8.09706 31.6249C7.18965 30.3734 7.00374 28.7381 7.60707 27.3149C8.02559 26.1393 8.19252 24.889 8.09706 23.6449C7.98518 22.285 7.49696 20.983 6.68703 19.8849C5.75874 18.772 5.4817 17.2539 5.95704 15.8849C6.45704 13.9749 7.04707 13.6849 8.02705 13.2149C9.47853 12.5667 10.7214 11.5281 11.6171 10.2149C12.6076 8.96321 13.2924 7.49769 13.6171 5.93488C13.7722 4.77275 14.4959 3.76416 15.5471 3.24488C16.1693 2.79773 16.9111 2.54699 17.6771 2.52488C18.2766 2.55626 18.869 2.67068 19.4371 2.86487C20.7544 3.31339 22.1579 3.45031 23.5371 3.26487C24.8628 3.07486 26.1298 2.5933 27.2471 1.85487C28.3892 0.990605 29.8753 0.723134 31.2471 1.13487C32.7299 1.39876 33.9665 2.41917 34.5071 3.82487C35.0564 4.99916 35.8753 6.02707 36.8971 6.82487C37.9871 7.60569 39.2208 8.16306 40.5271 8.46486C41.9971 8.88487 43.0571 9.18487 43.8471 10.7449C44.4664 11.9479 44.578 13.3489 44.1571 14.6349C43.8325 15.9826 43.7345 17.375 43.8671 18.7549C43.9885 20.1119 44.4951 21.406 45.3272 22.4849C46.2778 23.5891 46.5395 25.1286 46.0072 26.4849C45.7634 27.9946 44.7291 29.258 43.2971 29.7949C42.5385 30.1436 41.8371 30.6056 41.2171 31.1649L41.2171 31.1649C40.9032 31.4709 40.6185 31.8057 40.3671 32.1649C39.637 33.1719 39.1539 34.3366 38.9572 35.5649C38.7865 37.1122 37.8248 38.4601 36.4171 39.1249C34.5172 40.2748 33.6972 39.9749 32.5572 39.5548C31.5334 39.1269 30.4244 38.9421 29.3172 39.0149L29.3172 39.0149C29.0052 39.0378 28.6947 39.0779 28.3871 39.1349L28.387 39.1349Z" id="Shape" fill="#0A4E85" fill-rule="evenodd" stroke="none" />
    </g>
    <g id="Group-15" transform="translate(20.998047 11)">
      <path d="M22.3521 9.00005C22.2214 8.99819 22.0954 9.04859 22.0021 9.14005L14.7921 16.35L12.0421 13.6C11.8511 13.4107 11.5431 13.4107 11.3521 13.6L9.14204 15.85C8.95265 16.0411 8.95265 16.349 9.14204 16.5401L14.452 21.85C14.6431 22.0394 14.9511 22.0394 15.142 21.85L24.9121 12.08C25.1015 11.889 25.1015 11.5811 24.9121 11.39L22.6621 9.14005C22.5788 9.05787 22.4688 9.00821 22.352 9.00005L22.3521 9.00005ZM14.8016 20.7797L10.1816 16.1597L11.7117 14.6397L14.4617 17.3897C14.6548 17.5738 14.9585 17.5738 15.1516 17.3897L22.3617 10.1797L23.8817 11.6997L14.8016 20.7797Z" id="Shape-2" fill="#64717C" fill-rule="evenodd" stroke="none" />
      <path d="M15.83 4C9.29651 4.00002 4 9.29648 4 15.83C4 22.3635 9.29645 27.66 15.83 27.66C22.3635 27.66 27.66 22.3636 27.66 15.8301C27.655 9.29958 22.3621 4.00594 15.8308 4L15.83 4ZM15.8308 26.6798C11.4424 26.6798 7.48608 24.0363 5.8067 19.982C4.12732 15.9276 5.0556 11.2608 8.15869 8.15773C11.2617 5.05464 15.9285 4.12634 19.9829 5.8057C24.0372 7.48505 26.6808 11.4413 26.6808 15.8298C26.6754 21.8197 21.8209 26.6743 15.8309 26.6798L15.8308 26.6798Z" id="Shape-3" fill="#64717C" fill-rule="evenodd" stroke="none" />
      <path d="M30.9439 19.73C32.6556 13.2199 30.0352 6.34209 24.4255 2.62137C18.8159 -1.09936 11.4605 -0.838255 6.12879 3.27086C0.79706 7.37998 -1.3291 14.4263 0.839968 20.7986C3.00897 27.171 8.99243 31.457 15.7238 31.46C22.8698 31.4528 29.1165 26.6384 30.9438 19.73L30.9439 19.73ZM11.9447 29.9902C6.16482 28.4807 1.86477 23.6361 1.05184 17.7179C0.238914 11.7998 3.07333 5.97513 8.23208 2.963C13.3908 -0.0491428 19.8565 0.345213 24.6109 3.96198C29.3653 7.57874 31.4709 13.7047 29.9447 19.4802C28.9701 23.2679 26.5221 26.5092 23.1455 28.483C19.7689 30.4568 15.7435 30.9994 11.9647 29.9902L11.9447 29.9902Z" id="Shape-4" fill="#64717C" fill-rule="evenodd" stroke="none" />
    </g>
  </g>
</svg>