<svg id="Calque_1" data-name="Calque 1" xmlns="http://www.w3.org/2000/svg" viewBox="0 0 77.84 137.91"><defs><style>.cls-1,.cls-2{fill:#fff;}.cls-1,.cls-3{stroke:#FF4500;stroke-linecap:round;stroke-linejoin:round;stroke-width:1.71px;}.cls-3{fill:none;}</style></defs><title>conseils</title><path class="cls-1" d="M545.13,356.95c0,18.32-15.26,25.4-15.26,38.48,0,7.35-12.8,0-20.38,0-7.38,0-20.69,7.16-20.69,0,0-10.33-15-19.22-15-38.48A35.64,35.64,0,1,1,545.13,356.95Z" transform="translate(-470.39 -320.45)"/><path class="cls-1" d="M501.46,328.83a35.76,35.76,0,0,0-19.27,19.71" transform="translate(-470.39 -320.45)"/><rect class="cls-1" x="23.22" y="83.37" width="31.43" height="31.85"/><rect class="cls-1" x="491.11" y="410.19" width="36.76" height="4" transform="translate(-516.15 -256.37) rotate(-6.89)"/><rect class="cls-1" x="491.11" y="417.45" width="36.76" height="4" transform="translate(-517.02 -256.32) rotate(-6.89)"/><rect class="cls-1" x="491.11" y="424.72" width="36.76" height="4" transform="translate(-517.89 -256.27) rotate(-6.89)"/><rect class="cls-1" x="27.12" y="115.22" width="23.63" height="4.88"/><rect class="cls-1" x="18.4" y="74.98" width="41.07" height="8.39"/><rect class="cls-1" x="33.43" y="57.89" width="11.04" height="17.09"/><line class="cls-1" x1="44.48" y1="57.89" x2="51.13" y2="39.55"/><line class="cls-1" x1="33.83" y1="57.89" x2="27.18" y2="39.55"/><rect class="cls-1" x="36.26" y="49.13" width="5.47" height="8.47"/><line class="cls-1" x1="41.74" y1="49.13" x2="45.03" y2="40.05"/><line class="cls-1" x1="36.46" y1="49.13" x2="33.16" y2="40.05"/><path class="cls-2" d="M498,360.5c0.94,0,.94,1.28,1.89,1.28s0.94-1.28,1.89-1.28,0.94,1.28,1.89,1.28,0.94-1.28,1.89-1.28,0.94,1.28,1.89,1.28,0.94-1.28,1.88-1.28,0.94,1.28,1.89,1.28,0.94-1.28,1.89-1.28,0.94,1.28,1.89,1.28,0.95-1.28,1.89-1.28,0.95,1.28,1.89,1.28,0.95-1.28,1.89-1.28" transform="translate(-470.39 -320.45)"/><path class="cls-3" d="M498,360.5c0.94,0,.94,1.28,1.89,1.28s0.94-1.28,1.89-1.28,0.94,1.28,1.89,1.28,0.94-1.28,1.89-1.28,0.94,1.28,1.89,1.28,0.94-1.28,1.88-1.28,0.94,1.28,1.89,1.28,0.94-1.28,1.89-1.28,0.94,1.28,1.89,1.28,0.95-1.28,1.89-1.28,0.95,1.28,1.89,1.28,0.95-1.28,1.89-1.28" transform="translate(-470.39 -320.45)"/><line class="cls-1" x1="0.86" y1="137.05" x2="76.98" y2="137.05"/></svg>