<?xml version="1.0" encoding="utf-8"?>
<svg width="77px" height="77px" viewBox="0 0 77 77" version="1.1" xmlns:xlink="http://www.w3.org/1999/xlink" xmlns="http://www.w3.org/2000/svg">
  <defs>
    <path d="M0 0L46.4325 0L46.4325 28.8392L0 28.8392L0 0Z" id="path_1" />
    <clipPath id="mask_1">
      <use xlink:href="#path_1" />
    </clipPath>
  </defs>
  <g id="Group-6-Copy-5" transform="translate(1 1)">
    <path d="M0 0L75 0L75 75L0 75L0 0Z" id="Rectangle" fill="none" fill-rule="evenodd" stroke="none" />
    <g id="Group-37" transform="translate(6.3398438 11.043945)">
      <g id="Group-37">
        <path d="M60.4472 6.67449L60.4666 48.9128Q60.4666 48.9238 60.4665 48.9347L60.4562 50.4404Q60.4557 50.515 60.4479 50.5892Q60.4401 50.6634 60.4251 50.7365Q60.4101 50.8095 60.3881 50.8808Q60.366 50.9521 60.3371 51.0208Q60.3082 51.0896 60.2727 51.1552Q60.2373 51.2209 60.1956 51.2827Q60.1538 51.3446 60.1063 51.402Q60.0588 51.4595 60.0058 51.5121Q59.9529 51.5647 59.8951 51.6118Q59.8373 51.659 59.7752 51.7002Q59.713 51.7415 59.6472 51.7766Q59.5813 51.8116 59.5123 51.84Q59.4434 51.8684 59.3719 51.89Q59.3005 51.9116 59.2274 51.9261Q59.1542 51.9405 59.0799 51.9478Q59.0057 51.9551 58.9311 51.9551L55.3867 51.9551L55.2921 11.5823L8.24128 11.5823L8.33607 51.9551L4.89118 51.9551Q4.81677 51.9551 4.74271 51.9478Q4.66866 51.9405 4.59567 51.926Q4.52269 51.9115 4.45148 51.8899Q4.38027 51.8683 4.31152 51.8398Q4.24277 51.8113 4.17714 51.7763Q4.11151 51.7412 4.04964 51.6998Q3.98776 51.6585 3.93024 51.6113Q3.87271 51.5641 3.82009 51.5115Q3.76747 51.4589 3.72026 51.4013Q3.67305 51.3438 3.6317 51.2819Q3.59035 51.2201 3.55527 51.1545Q3.52019 51.0888 3.4917 51.0201Q3.46322 50.9513 3.44161 50.8801Q3.42001 50.8089 3.40548 50.7359Q3.39096 50.663 3.38366 50.5889Q3.37636 50.5148 3.37635 50.4404L3.37618 48.9238L3.35684 6.67724Q3.35677 6.52986 3.37116 6.38319Q3.38554 6.23652 3.41423 6.09197Q3.44293 5.94741 3.48565 5.80637Q3.52838 5.66533 3.58473 5.52915Q3.64108 5.39297 3.71051 5.26298Q3.77994 5.13299 3.86179 5.01043Q3.94363 4.88786 4.03709 4.77392Q4.13055 4.65997 4.23474 4.55574Q4.33892 4.45151 4.45283 4.35799Q4.56673 4.26447 4.68925 4.18258Q4.81177 4.10068 4.94174 4.03119Q5.0717 3.9617 5.20785 3.90528Q5.344 3.84887 5.48502 3.80608Q5.62605 3.76328 5.77059 3.73452Q5.91513 3.70576 6.06179 3.69131Q6.20846 3.67686 6.35583 3.67686L31.1429 3.67676L57.4482 3.67687Q57.5955 3.67687 57.7421 3.6913Q57.8887 3.70573 58.0331 3.73446Q58.1776 3.76319 58.3186 3.80593Q58.4595 3.84867 58.5956 3.90502Q58.7317 3.96137 58.8616 4.03078Q58.9915 4.1002 59.114 4.18201Q59.2364 4.26381 59.3503 4.35723Q59.4642 4.45065 59.5684 4.55477Q59.6725 4.6589 59.766 4.77273Q59.8595 4.88656 59.9413 5.009Q60.0232 5.13144 60.0927 5.26132Q60.1621 5.39119 60.2185 5.52725Q60.275 5.6633 60.3178 5.80423Q60.3606 5.94516 60.3894 6.08961Q60.4182 6.23406 60.4327 6.38063Q60.4472 6.5272 60.4472 6.67449Z" id="New-shape-2" fill="#CFD3D5" fill-rule="evenodd" stroke="none" />
        <path d="M0.999 0L63.2915 0Q63.3899 0 63.4864 0.0191955Q63.5829 0.038391 63.6738 0.0760443Q63.7647 0.113698 63.8465 0.168362Q63.9283 0.223026 63.9979 0.2926Q64.0674 0.362175 64.1221 0.443985Q64.1768 0.525796 64.2144 0.616699Q64.2521 0.707602 64.2713 0.804105Q64.2905 0.900607 64.2905 0.999L64.2905 5.1068Q64.2905 5.2052 64.2713 5.3017Q64.2521 5.3982 64.2144 5.4891Q64.1768 5.58001 64.1221 5.66182Q64.0675 5.74363 63.9979 5.8132Q63.9283 5.88278 63.8465 5.93744Q63.7647 5.9921 63.6738 6.02976Q63.5829 6.06741 63.4864 6.08661Q63.3899 6.1058 63.2915 6.1058L0.999 6.1058Q0.900607 6.1058 0.804105 6.08661Q0.707602 6.06741 0.616699 6.02976Q0.525796 5.9921 0.443985 5.93744Q0.362175 5.88278 0.2926 5.8132Q0.223026 5.74363 0.168362 5.66182Q0.113698 5.58001 0.0760443 5.4891Q0.038391 5.3982 0.0191955 5.3017Q0 5.2052 0 5.1068L0 0.999Q0 0.900607 0.0191955 0.804105Q0.038391 0.707602 0.0760443 0.616699Q0.113698 0.525796 0.168362 0.443985Q0.223026 0.362175 0.2926 0.2926Q0.362175 0.223026 0.443985 0.168362Q0.525796 0.113698 0.616699 0.0760443Q0.707602 0.038391 0.804105 0.0191955Q0.900607 0 0.999 0L0.999 0Z" id="Rectangle" fill="#1976D2" fill-rule="evenodd" stroke="none" />
      </g>
      <g id="Group-38" transform="translate(8.744141 12.075195)">
        <path d="M0 0L46.4325 0L46.4325 39.4L0 39.4L0 0Z" id="Rectangle-6" fill="none" fill-rule="evenodd" stroke="#64717C" stroke-width="1" />
        <g id="New-shape-Mask" transform="translate(0 0.40722656)">
          <g id="Mask">
            <g clip-path="url(#mask_1)">
              <use xlink:href="#path_1" fill="none" stroke="#64717C" stroke-width="2" />
            </g>
          </g>
          <g clip-path="url(#mask_1)">
            <path d="M41.5463 -5.32129L-2.03516 27.3766L-2.03516 20.8777L25.8651 -0.243968L15.4789 -0.243968L0.408661 10.3169L0.408661 7.06738L37.6769 33.0633L47.2485 33.0633L0.408661 0.771495L4.07439 -3.89964L47.2485 27.3767L47.2485 20.8777L12.8314 -3.89964L22.6067 -3.89964L47.2485 14.5818L47.2485 8.28593L34.0111 -1.86871L45.212 -1.86871L-2.03516 34.0787L6.31455 34.0787L48.8777 2.80242L48.8777 8.28593L14.0533 34.0787L29.1235 34.0787L-0.813248 11.9416" id="New-shape" fill="none" fill-rule="evenodd" stroke="#64717C" stroke-width="1" />
          </g>
        </g>
        <path d="M46.6364 16.3008L30.1406 28.6894L38.694 28.6894L46.6364 21.9874" id="New-shape" fill="none" fill-rule="evenodd" stroke="#64717C" stroke-width="1" />
        <path d="M0.015625 25.8641L3.885 28.7074L12.2347 28.7074L0.015625 18.7559" id="New-shape-2" fill="none" fill-rule="evenodd" stroke="#64717C" stroke-width="1" />
        <path d="M0 4.87527L5.29494 0.407227" id="New-shape-3" fill="none" fill-rule="evenodd" stroke="#64717C" stroke-width="2" />
      </g>
    </g>
  </g>
</svg>