<?xml version="1.0" encoding="utf-8"?>
<svg width="75px" height="75px" viewBox="0 0 75 75" version="1.1" xmlns:xlink="http://www.w3.org/1999/xlink" xmlns="http://www.w3.org/2000/svg">
  <g id="Group-6-Copy-4" transform="matrix(1.0000001 -3.254292E-09 3.254292E-09 1.0000001 0 0)">
    <path d="M0 0L75 -2.68225e-06L75 75L2.68225e-06 75L0 0Z" id="Rectangle" fill="none" fill-rule="evenodd" stroke="none" />
    <g id="Group-5" transform="matrix(1 -3.5763353E-08 3.5763353E-08 1 6.6796875 17.083984)">
      <path d="M59.8216 6.63738L59.8408 48.4077Q59.8408 48.4187 59.8407 48.4297L59.8305 49.9197Q59.83 49.9935 59.8223 50.0669Q59.8146 50.1403 59.7997 50.2127Q59.7849 50.285 59.7631 50.3555Q59.7413 50.426 59.7127 50.4941Q59.6841 50.5622 59.6489 50.6271Q59.6138 50.692 59.5726 50.7533Q59.5313 50.8145 59.4842 50.8713Q59.4372 50.9282 59.3848 50.9803Q59.3324 51.0323 59.2752 51.0789Q59.218 51.1256 59.1565 51.1665Q59.095 51.2073 59.0298 51.242Q58.9647 51.2766 58.8964 51.3048Q58.8281 51.3329 58.7575 51.3543Q58.6868 51.3756 58.6144 51.3899Q58.542 51.4043 58.4685 51.4115Q58.395 51.4187 58.3212 51.4187L54.8134 51.4187L54.7198 11.4634L8.1556 11.4634L8.24941 51.4187L4.84013 51.4187Q4.76649 51.4187 4.6932 51.4115Q4.61991 51.4042 4.54768 51.3899Q4.47545 51.3755 4.40498 51.3541Q4.3345 51.3328 4.26647 51.3046Q4.19843 51.2764 4.13348 51.2417Q4.06853 51.207 4.00729 51.1661Q3.94606 51.1251 3.88913 51.0784Q3.8322 51.0317 3.78012 50.9796Q3.72805 50.9276 3.68133 50.8706Q3.6346 50.8137 3.59368 50.7525Q3.55277 50.6913 3.51805 50.6263Q3.48333 50.5614 3.45514 50.4933Q3.42695 50.4253 3.40557 50.3548Q3.38418 50.2844 3.36981 50.2121Q3.35543 50.1399 3.34821 50.0666Q3.34098 49.9933 3.34097 49.9197L3.34081 48.4187L3.32169 6.64012Q3.32162 6.49275 3.336 6.34608Q3.35038 6.19941 3.37908 6.05486Q3.40777 5.9103 3.4505 5.76926Q3.49323 5.62821 3.54958 5.49204Q3.60593 5.35586 3.67536 5.22587Q3.74479 5.09588 3.82663 4.97331Q3.90847 4.85075 4.00193 4.73681Q4.0954 4.62286 4.19958 4.51863Q4.30377 4.4144 4.41767 4.32088Q4.53157 4.22736 4.6541 4.14547Q4.77662 4.06357 4.90658 3.99408Q5.03654 3.92459 5.17269 3.86817Q5.30884 3.81176 5.44987 3.76897Q5.59089 3.72617 5.73543 3.69741Q5.87997 3.66865 6.02664 3.6542Q6.1733 3.63975 6.32067 3.63975L30.8203 3.63965L56.8226 3.63975Q56.9699 3.63976 57.1165 3.65419Q57.2631 3.66862 57.4076 3.69735Q57.552 3.72607 57.693 3.76882Q57.8339 3.81156 57.97 3.86791Q58.1061 3.92426 58.236 3.99367Q58.3659 4.06309 58.4884 4.1449Q58.6108 4.2267 58.7247 4.32012Q58.8386 4.41354 58.9428 4.51766Q59.0469 4.62178 59.1404 4.73562Q59.2339 4.84945 59.3157 4.97189Q59.3976 5.09433 59.4671 5.22421Q59.5365 5.35408 59.593 5.49014Q59.6494 5.62619 59.6922 5.76712Q59.735 5.90805 59.7638 6.0525Q59.7926 6.19695 59.8071 6.34352Q59.8216 6.49009 59.8216 6.63738L59.8216 6.63738Z" id="New-shape-2" fill="#CFD3D5" fill-rule="evenodd" stroke="none" />
      <g id="Group-18" transform="translate(8.1640625 11.4296875)">
        <g id="Group-17" transform="translate(0 0.08886719)">
          <path d="M0.0442055 -5.99254e-17L22.8992 -3.10424e-14L22.8992 39.9408L17.5624 39.9408L5.41443e-14 39.9409L0.0442055 -5.99254e-17Z" id="Rectangle-2" fill="#64717C" fill-rule="evenodd" stroke="none" />
          <path d="M4.80078 4.91699L7.97187 4.91699L7.97187 16.1882L4.80078 16.1882L4.80078 4.91699Z" id="Rectangle-3" fill="#889097" fill-rule="evenodd" stroke="none" />
          <path d="M10.2617 4.91699L13.4328 4.91699L13.4328 16.1882L10.2617 16.1882L10.2617 4.91699Z" id="Rectangle-3-Copy" fill="#889097" fill-rule="evenodd" stroke="none" />
          <path d="M15.7227 4.91699L18.8937 4.91699L18.8937 16.1882L15.7227 16.1882L15.7227 4.91699Z" id="Rectangle-3-Copy-2" fill="#889097" fill-rule="evenodd" stroke="none" />
          <path d="M4.80078 23.7529L7.97187 23.7529L7.97187 35.0241L4.80078 35.0241L4.80078 23.7529Z" id="Rectangle-3-Copy-3" fill="#889097" fill-rule="evenodd" stroke="none" />
          <path d="M10.2617 23.7529L13.4328 23.7529L13.4328 35.0241L10.2617 35.0241L10.2617 23.7529Z" id="Rectangle-3-Copy-4" fill="#889097" fill-rule="evenodd" stroke="none" />
          <path d="M15.7227 23.7529L18.8937 23.7529L18.8937 35.0241L15.7227 35.0241L15.7227 23.7529Z" id="Rectangle-3-Copy-5" fill="#889097" fill-rule="evenodd" stroke="none" />
          <path d="M17.1973 19.905C17.1973 19.231 17.7437 18.6846 18.4177 18.6846C19.0917 18.6846 19.6381 19.231 19.6381 19.905C19.6381 20.579 19.0917 21.1254 18.4177 21.1254C17.7437 21.1254 17.1973 20.579 17.1973 19.905Z" id="Ellipse" fill="#889097" fill-rule="evenodd" stroke="none" />
        </g>
        <g id="Group-17-Copy" transform="matrix(-1 -1.3556097E-15 -1.3556097E-15 1 46.64258 3.0382072E-14)">
          <path d="M9.66609e-05 1.31034e-19L22.4112 0.0443493L22.4121 39.9866L-5.42043e-14 39.9852L9.66609e-05 1.31034e-19Z" id="Rectangle-2" fill="#64717C" fill-rule="evenodd" stroke="none" />
          <path d="M4.75586 4.96094L7.92695 4.96094L7.92695 16.2321L4.75586 16.2321L4.75586 4.96094Z" id="Rectangle-3" fill="#889097" fill-rule="evenodd" stroke="none" />
          <path d="M10.2168 4.96094L13.3879 4.96094L13.3879 16.2321L10.2168 16.2321L10.2168 4.96094Z" id="Rectangle-3-Copy" fill="#889097" fill-rule="evenodd" stroke="none" />
          <path d="M15.6777 4.96094L18.8488 4.96094L18.8488 16.2321L15.6777 16.2321L15.6777 4.96094Z" id="Rectangle-3-Copy-2" fill="#889097" fill-rule="evenodd" stroke="none" />
          <path d="M4.75586 23.7969L7.92695 23.7969L7.92695 35.0681L4.75586 35.0681L4.75586 23.7969Z" id="Rectangle-3-Copy-3" fill="#889097" fill-rule="evenodd" stroke="none" />
          <path d="M10.2168 23.7969L13.3879 23.7969L13.3879 35.0681L10.2168 35.0681L10.2168 23.7969Z" id="Rectangle-3-Copy-4" fill="#889097" fill-rule="evenodd" stroke="none" />
          <path d="M15.6777 23.7969L18.8488 23.7969L18.8488 35.0681L15.6777 35.0681L15.6777 23.7969Z" id="Rectangle-3-Copy-5" fill="#889097" fill-rule="evenodd" stroke="none" />
          <path d="M17.2871 20.1706C17.2871 19.4966 17.8335 18.9502 18.5075 18.9502C19.1815 18.9502 19.7279 19.4966 19.7279 20.1706C19.7279 20.8446 19.1815 21.391 18.5075 21.391C17.8335 21.391 17.2871 20.8446 17.2871 20.1706Z" id="Ellipse" fill="#889097" fill-rule="evenodd" stroke="none" />
        </g>
      </g>
      <path d="M0.999 3.77698e-08L62.6266 2.36776e-06Q62.725 2.37148e-06 62.8215 0.0191979Q62.918 0.0383934 63.0089 0.0760467Q63.0998 0.1137 63.1816 0.168364Q63.2634 0.223028 63.333 0.292603Q63.4025 0.362177 63.4572 0.443988Q63.5119 0.525798 63.5495 0.616702Q63.5872 0.707605 63.6064 0.804107Q63.6256 0.900609 63.6256 0.999002L63.6256 5.04366Q63.6256 5.14205 63.6064 5.23855Q63.5872 5.33505 63.5495 5.42596Q63.5119 5.51686 63.4572 5.59867Q63.4025 5.68048 63.333 5.75006Q63.2634 5.81963 63.1816 5.8743Q63.0998 5.92896 63.0089 5.96661Q62.918 6.00427 62.8215 6.02346Q62.725 6.04266 62.6266 6.04266L0.999 6.04265Q0.900607 6.04265 0.804105 6.02346Q0.707602 6.00426 0.616699 5.96661Q0.525796 5.92896 0.443985 5.87429Q0.362174 5.81963 0.2926 5.75005Q0.223026 5.68048 0.168362 5.59867Q0.113697 5.51686 0.0760441 5.42595Q0.0383908 5.33505 0.0191953 5.23855Q-1.94409e-07 5.14205 -1.90689e-07 5.04365L-3.77698e-08 0.999Q-3.40498e-08 0.900607 0.0191955 0.804105Q0.038391 0.707602 0.0760443 0.616699Q0.113698 0.525796 0.168362 0.443985Q0.223026 0.362175 0.2926 0.2926Q0.362175 0.223026 0.443985 0.168362Q0.525796 0.113698 0.616699 0.0760444Q0.707602 0.038391 0.804105 0.0191955Q0.900607 3.40498e-08 0.999 3.77698e-08L0.999 3.77698e-08Z" id="Rectangle" fill="#1976D2" fill-rule="evenodd" stroke="none" />
    </g>
  </g>
</svg>