<?xml version="1.0" encoding="utf-8"?>
<svg width="81px" height="81px" viewBox="0 0 81 81" version="1.1" xmlns:xlink="http://www.w3.org/1999/xlink" xmlns="http://www.w3.org/2000/svg">
  <defs>
    <path d="M0 0L66.8611 0L66.8611 54.0032L0 54.0032L0 0Z" id="path_1" />
    <path d="M0 0L36.3125 0L36.3125 54.0032L0 54.0032L0 0Z" id="path_2" />
    <clipPath id="clip_1">
      <use xlink:href="#path_2" />
    </clipPath>
  </defs>
  <g id="Group-24-Copy-2" transform="translate(3 3)">
    <g id="Group-4-Copy">
      <path d="M0 0L75 0L75 75L0 75L0 0Z" id="Rectangle" fill="none" fill-rule="evenodd" stroke="none" />
    </g>
    <g id="Group-28" transform="translate(4 11)">
      <g id="Rectangle-6">
        <use xlink:href="#path_1" fill="none" stroke="#CFD3D5" stroke-width="6" />
        <use stroke="none" fill="#1976D2" xlink:href="#path_1" fill-rule="evenodd" />
      </g>
      <g id="Group-27" transform="translate(3.7246094 3.1152344)">
        <path d="M20.4844 0L37.244 0L37.244 14.8974L20.4844 14.8974L20.4844 0Z" id="Rectangle-7" fill="#E3F2FD" fill-rule="evenodd" stroke="none" />
        <path d="M40.9688 0L57.7284 0L57.7284 14.8974L40.9688 14.8974L40.9688 0Z" id="Rectangle-7-Copy-4" fill="#E3F2FD" fill-rule="evenodd" stroke="none" />
        <path d="M20.4844 17.6904L37.244 17.6904L37.244 46.5542L20.4844 46.5542L20.4844 17.6904Z" id="Rectangle-7-Copy-5" fill="#E3F2FD" fill-rule="evenodd" stroke="none" />
        <path d="M0 0L16.7596 0L16.7596 14.8974L0 14.8974L0 0Z" id="Rectangle-7-Copy-6" fill="#E3F2FD" fill-rule="evenodd" stroke="none" />
        <path d="M40.9688 17.6904L57.7284 17.6904L57.7284 46.5542L40.9688 46.5542L40.9688 17.6904Z" id="Rectangle-7-Copy-7" fill="#E3F2FD" fill-rule="evenodd" stroke="none" />
        <path d="M0 17.6904L16.7596 17.6904L16.7596 46.5542L0 46.5542L0 17.6904Z" id="Rectangle-7-Copy-8" fill="#E3F2FD" fill-rule="evenodd" stroke="none" />
      </g>
      <g id="Group-26" transform="translate(0 0.04296875)">
        <g id="Rectangle-8">
          <use stroke="none" fill="#E1E1E1" xlink:href="#path_2" fill-rule="evenodd" />
          <g clip-path="url(#clip_1)">
            <use xlink:href="#path_2" fill="none" stroke="#808080" stroke-width="2" />
          </g>
        </g>
        <g id="Group-25" transform="translate(2.4199219 2.7929688)">
          <path d="M0 0L20.3636 0L20.3636 1.39663L0 1.39663L0 0Z" id="Rectangle-9" fill="#889097" fill-rule="evenodd" stroke="none" />
          <path d="M0 4.65527L20.3636 4.65527L20.3636 6.05191L0 6.05191L0 4.65527Z" id="Rectangle-9-Copy" fill="#889097" fill-rule="evenodd" stroke="none" />
          <path d="M0 9.31055L20.3636 9.31055L20.3636 10.7072L0 10.7072L0 9.31055Z" id="Rectangle-9-Copy-2" fill="#889097" fill-rule="evenodd" stroke="none" />
          <path d="M0 13.9668L20.3636 13.9668L20.3636 15.3634L0 15.3634L0 13.9668Z" id="Rectangle-9-Copy-3" fill="#889097" fill-rule="evenodd" stroke="none" />
          <path d="M0 18.6221L20.3636 18.6221L20.3636 20.0187L0 20.0187L0 18.6221Z" id="Rectangle-9-Copy-4" fill="#889097" fill-rule="evenodd" stroke="none" />
          <path d="M0 23.2773L20.3636 23.2773L20.3636 24.674L0 24.674L0 23.2773Z" id="Rectangle-9-Copy-5" fill="#889097" fill-rule="evenodd" stroke="none" />
          <path d="M0 27.9326L20.3636 27.9326L20.3636 29.3293L0 29.3293L0 27.9326Z" id="Rectangle-9-Copy-6" fill="#889097" fill-rule="evenodd" stroke="none" />
          <path d="M0 32.5879L20.3636 32.5879L20.3636 33.9845L0 33.9845L0 32.5879Z" id="Rectangle-9-Copy-7" fill="#889097" fill-rule="evenodd" stroke="none" />
          <path d="M0 37.2432L20.3636 37.2432L20.3636 38.6398L0 38.6398L0 37.2432Z" id="Rectangle-9-Copy-8" fill="#889097" fill-rule="evenodd" stroke="none" />
          <path d="M0 41.8994L20.3636 41.8994L20.3636 43.296L0 43.296L0 41.8994Z" id="Rectangle-9-Copy-9" fill="#889097" fill-rule="evenodd" stroke="none" />
          <path d="M0 46.5547L20.3636 46.5547L20.3636 47.9513L0 47.9513L0 46.5547Z" id="Rectangle-9-Copy-10" fill="#889097" fill-rule="evenodd" stroke="none" />
          <path d="M22.9082 0L27.9991 0L27.9991 1.39663L22.9082 1.39663L22.9082 0Z" id="Rectangle-9-Copy-12" fill="#889097" fill-rule="evenodd" stroke="none" />
          <path d="M22.9082 4.65527L27.9991 4.65527L27.9991 6.05191L22.9082 6.05191L22.9082 4.65527Z" id="Rectangle-9-Copy-13" fill="#889097" fill-rule="evenodd" stroke="none" />
          <path d="M22.9082 9.31055L27.9991 9.31055L27.9991 10.7072L22.9082 10.7072L22.9082 9.31055Z" id="Rectangle-9-Copy-14" fill="#889097" fill-rule="evenodd" stroke="none" />
          <path d="M22.9082 13.9668L27.9991 13.9668L27.9991 15.3634L22.9082 15.3634L22.9082 13.9668Z" id="Rectangle-9-Copy-15" fill="#889097" fill-rule="evenodd" stroke="none" />
          <path d="M22.9082 18.6221L27.9991 18.6221L27.9991 20.0187L22.9082 20.0187L22.9082 18.6221Z" id="Rectangle-9-Copy-16" fill="#889097" fill-rule="evenodd" stroke="none" />
          <path d="M22.9082 23.2773L27.9991 23.2773L27.9991 24.674L22.9082 24.674L22.9082 23.2773Z" id="Rectangle-9-Copy-17" fill="#889097" fill-rule="evenodd" stroke="none" />
          <path d="M22.9082 27.9326L27.9991 27.9326L27.9991 29.3293L22.9082 29.3293L22.9082 27.9326Z" id="Rectangle-9-Copy-18" fill="#889097" fill-rule="evenodd" stroke="none" />
          <path d="M22.9082 32.5879L27.9991 32.5879L27.9991 33.9845L22.9082 33.9845L22.9082 32.5879Z" id="Rectangle-9-Copy-19" fill="#889097" fill-rule="evenodd" stroke="none" />
          <path d="M22.9082 37.2432L27.9991 37.2432L27.9991 38.6398L22.9082 38.6398L22.9082 37.2432Z" id="Rectangle-9-Copy-20" fill="#889097" fill-rule="evenodd" stroke="none" />
          <path d="M22.9082 41.8994L27.9991 41.8994L27.9991 43.296L22.9082 43.296L22.9082 41.8994Z" id="Rectangle-9-Copy-21" fill="#889097" fill-rule="evenodd" stroke="none" />
          <path d="M22.9082 46.5547L27.9991 46.5547L27.9991 47.9513L22.9082 47.9513L22.9082 46.5547Z" id="Rectangle-9-Copy-22" fill="#889097" fill-rule="evenodd" stroke="none" />
        </g>
        <path d="M34.2988 21.999L34.2988 32.001Q34.2988 32.0994 34.2796 32.1959Q34.2604 32.2924 34.2228 32.3833Q34.1851 32.4742 34.1305 32.556Q34.0758 32.6378 34.0062 32.7074Q33.9367 32.777 33.8549 32.8316Q33.773 32.8863 33.6821 32.924Q33.5912 32.9616 33.4947 32.9808Q33.3982 33 33.2998 33L33.2978 33Q33.1994 33 33.1029 32.9808Q33.0064 32.9616 32.9155 32.924Q32.8246 32.8863 32.7428 32.8316Q32.661 32.777 32.5914 32.7074Q32.5219 32.6378 32.4672 32.556Q32.4125 32.4742 32.3749 32.3833Q32.3372 32.2924 32.318 32.1959Q32.2988 32.0994 32.2988 32.001L32.2988 21.999Q32.2988 21.9006 32.318 21.8041Q32.3372 21.7076 32.3749 21.6167Q32.4125 21.5258 32.4672 21.444Q32.5219 21.3622 32.5914 21.2926Q32.661 21.223 32.7428 21.1684Q32.8246 21.1137 32.9155 21.076Q33.0064 21.0384 33.1029 21.0192Q33.1994 21 33.2978 21L33.2998 21Q33.3982 21 33.4947 21.0192Q33.5912 21.0384 33.6821 21.076Q33.773 21.1137 33.8548 21.1684Q33.9366 21.223 34.0062 21.2926Q34.0758 21.3622 34.1305 21.444Q34.1851 21.5258 34.2228 21.6167Q34.2604 21.7076 34.2796 21.8041Q34.2988 21.9006 34.2988 21.999Z" id="Rectangle-9" fill="#949292" fill-rule="evenodd" stroke="none" />
      </g>
    </g>
  </g>
</svg>