<?xml version="1.0" encoding="utf-8"?>
<svg width="75px" height="75px" viewBox="0 0 75 75" version="1.1" xmlns:xlink="http://www.w3.org/1999/xlink" xmlns="http://www.w3.org/2000/svg">
  <defs>
    <path d="M7.47266 3.52344L55.2801 3.52344L55.2801 59.8873L7.47266 59.8873L7.47266 3.52344Z" id="path_1" />
    <clipPath id="clip_1">
      <use xlink:href="#path_1" />
    </clipPath>
  </defs>
  <g id="Group-24">
    <g id="Group-4-Copy">
      <path d="M0 0L75 0L75 75L0 75L0 0Z" id="Rectangle" fill="none" fill-rule="evenodd" stroke="none" />
      <g id="Group-25" transform="translate(6 6)">
        <g id="Rectangle-6">
          <use xlink:href="#path_1" fill="none" stroke="#CFD3D5" stroke-width="6" />
          <use stroke="none" fill="#37474F" xlink:href="#path_1" fill-rule="evenodd" />
          <g clip-path="url(#clip_1)">
            <use xlink:href="#path_1" fill="none" stroke="#0A4E85" stroke-width="10" />
          </g>
        </g>
        <g id="Group-24" transform="translate(47.810547 0)">
          <path d="M14.1928 0L14.1928 62.0002L0 52.8411L0 8.80685L14.1928 0Z" id="New-shape" fill="#0860A8" fill-rule="evenodd" stroke="none" />
          <path d="M11.9511 23.25L11.9511 6.34082L2.24023 11.9772L2.24023 23.25L11.9511 23.25Z" id="New-shape-2" fill="#E3F2FD" fill-rule="evenodd" stroke="none" />
          <path d="M11.9511 26.0684L11.9511 57.0685L2.24023 51.0798L2.24023 26.0684L11.9511 26.0684Z" id="New-shape-3" fill="#E3F2FD" fill-rule="evenodd" stroke="none" />
        </g>
        <g id="Group-24-Copy" transform="matrix(-1 0 0 1 14.193359 0)">
          <path d="M14.1928 0L14.1928 62.0002L0 52.8411L0 8.80685L14.1928 0Z" id="New-shape" fill="#0860A8" fill-rule="evenodd" stroke="none" />
          <path d="M11.9511 23.25L11.9511 6.34082L2.24023 11.9772L2.24023 23.25L11.9511 23.25Z" id="New-shape-2" fill="#E3F2FD" fill-rule="evenodd" stroke="none" />
          <path d="M11.9511 26.0684L11.9511 57.0685L2.24023 51.0798L2.24023 26.0684L11.9511 26.0684Z" id="New-shape-3" fill="#E3F2FD" fill-rule="evenodd" stroke="none" />
        </g>
      </g>
    </g>
  </g>
</svg>