<?xml version="1.0" encoding="utf-8"?>
<svg width="75px" height="75px" viewBox="0 0 75 75" version="1.1" xmlns:xlink="http://www.w3.org/1999/xlink" xmlns="http://www.w3.org/2000/svg">
  <g id="Group-11">
    <path d="M0 0L75 0L75 75L0 75L0 0Z" id="Rectangle-2" fill="none" fill-rule="evenodd" stroke="none" />
    <g id="Group-10" transform="translate(8 8.5)">
      <g id="Group-10" transform="translate(1.609375 22.245117)">
        <g id="Group">
          <path d="M42.6953 23.042L45.112 23.042L45.112 25.4256L42.6953 25.4256L42.6953 23.042Z" id="Rectangle-2" fill="#64717C" fill-rule="evenodd" stroke="none" />
          <path d="M0 2.38356C0 2.38356 2.08699 2.97945 3.89949 2.38356C5.71199 1.78767 7.25 0 7.25 0C7.25 0 8.25694 1.78767 10.0694 2.38356C10.9087 2.65947 13.2547 2.70355 14.0972 2.38356C15.6661 1.78767 17.3194 0 17.3194 0C17.3194 0 18.5278 1.78767 20.1389 2.38356C20.7934 2.62564 22.7475 2.73737 23.7639 2.38356C25.4757 1.78767 26.9861 0 26.9861 0C26.9861 0 28.8993 1.78767 30.6111 2.38356C31.3966 2.65699 32.9615 2.70602 33.8333 2.38356C35.4444 1.78767 37.0555 0 37.0555 0C37.0555 0 38.5434 1.78767 40.2597 2.38356C41.0286 2.65052 42.6042 2.71249 43.5 2.38356C45.1228 1.78767 46.7222 0 46.7222 0C47.4884 0.465539 48.2681 1.78767 50.1813 2.38356C52.0945 2.97945 54.7778 2.38356 54.7778 2.38356L54.7778 35.7534L49.1367 35.7534L49.1367 17.1138C49.1367 13.384 45.8908 10.3604 41.8867 10.3604C37.8827 10.3604 34.6367 13.384 34.6367 17.1138L34.6367 35.7534L0 35.7534L0 2.38356ZM34.6367 35.7534L34.6367 35.7547L49.1367 35.7547L49.1367 35.7534L34.6367 35.7534ZM42.291 6.95213C42.291 6.40363 42.7418 5.95898 43.298 5.95898C43.8541 5.95898 44.3049 6.40363 44.3049 6.95213C44.3049 7.50064 43.8541 7.94528 43.298 7.94528C42.7418 7.94528 42.291 7.50064 42.291 6.95213ZM46.6278 7.0899C46.697 7.1062 46.798 7.14281 46.7232 7.15084C46.5213 7.07761 46.5586 7.0736 46.6278 7.0899ZM46.7232 7.15084L46.7233 7.15087C50.4852 8.5149 52.3622 12.7125 52.3622 12.7125L50.7511 13.507C50.7511 13.507 50.7848 13.7346 49.9446 12.3155C49.1044 10.8963 45.9177 8.73991 45.9177 8.73991L45.92 7.94551C45.8504 7.62541 46.2532 7.19536 46.7208 7.15109L46.7232 7.15084ZM4.02734 21.4526L4.02734 12.7129L15.3051 12.7129L15.3051 21.4526L4.02734 21.4526ZM16.9121 21.4526L16.9121 12.7129L28.1899 12.7129L28.1899 21.4526L16.9121 21.4526ZM4.02734 31.7817L4.02734 23.042L15.3051 23.042L15.3051 31.7817L4.02734 31.7817ZM16.9121 31.7817L16.9121 23.042L28.1899 23.042L28.1899 31.7817L16.9121 31.7817Z" id="Group-10-Xor-Xor" fill="#64717C" fill-rule="evenodd" stroke="none" />
        </g>
      </g>
      <path d="M49.1406 19.0687C49.1406 17.8158 49.1406 15.8906 49.1406 15.8906L57.1962 15.8906C57.1962 15.8906 57.1962 16.8747 57.1962 19.0687C57.1962 21.2627 55.3929 23.0413 53.1684 23.0413C50.9439 23.0413 49.1406 21.2627 49.1406 19.0687Z" id="Ellipse" fill="#0A4E85" fill-rule="evenodd" stroke="none" />
      <path d="M39.4727 19.0687C39.4727 17.8158 39.4727 15.8906 39.4727 15.8906L47.5282 15.8906C47.5282 15.8906 47.5282 16.8747 47.5282 19.0687C47.5282 21.2627 45.7249 23.0413 43.5004 23.0413C41.276 23.0413 39.4727 21.2627 39.4727 19.0687Z" id="Ellipse-Copy" fill="#269FFF" fill-rule="evenodd" stroke="none" />
      <path d="M29.8047 19.0687C29.8047 17.8158 29.8047 15.8906 29.8047 15.8906L37.8602 15.8906C37.8602 15.8906 37.8602 16.8747 37.8602 19.0687C37.8602 21.2627 36.0569 23.0413 33.8325 23.0413C31.608 23.0413 29.8047 21.2627 29.8047 19.0687Z" id="Ellipse-Copy-2" fill="#0A4E85" fill-rule="evenodd" stroke="none" />
      <path d="M19.334 19.0687C19.334 17.8158 19.334 15.8906 19.334 15.8906L27.3895 15.8906C27.3895 15.8906 27.3895 16.8747 27.3895 19.0687C27.3895 21.2627 25.5862 23.0413 23.3618 23.0413C21.1373 23.0413 19.334 21.2627 19.334 19.0687Z" id="Ellipse-Copy-3" fill="#269FFF" fill-rule="evenodd" stroke="none" />
      <path d="M9.66602 19.0687C9.66602 17.8158 9.66602 15.8906 9.66602 15.8906L17.7216 15.8906C17.7216 15.8906 17.7216 16.8747 17.7216 19.0687C17.7216 21.2627 15.9183 23.0413 13.6938 23.0413C11.4693 23.0413 9.66602 21.2627 9.66602 19.0687Z" id="Ellipse-Copy-4" fill="#0A4E85" fill-rule="evenodd" stroke="none" />
      <path d="M0 19.0687C0 17.8158 0 15.8906 0 15.8906L8.05555 15.8906C8.05555 15.8906 8.05555 16.8747 8.05555 19.0687C8.05555 21.2627 6.25226 23.0413 4.02778 23.0413C1.8033 23.0413 0 21.2627 0 19.0687Z" id="Ellipse-Copy-5" fill="#269FFF" fill-rule="evenodd" stroke="none" />
      <path d="M0 14.3008L2.01389 4.7666L9.26389 4.7666L8.05555 14.3008L0 14.3008Z" id="New-shape" fill="#269FFF" fill-rule="evenodd" stroke="none" />
      <path d="M10.0703 14.3008L11.2786 4.7666L18.1259 4.7666L17.3203 14.3008L10.0703 14.3008Z" id="New-shape-Copy" fill="#0A4E85" fill-rule="evenodd" stroke="none" />
      <path d="M19.7344 14.3008L20.1372 4.7666L27.7899 4.7666L27.7899 14.3008L19.7344 14.3008Z" id="New-shape-Copy-2" fill="#269FFF" fill-rule="evenodd" stroke="none" />
      <path d="M29.8047 14.3008L29.8047 4.7666L36.6519 4.7666L37.4575 14.3008L29.8047 14.3008Z" id="New-shape-Copy-3" fill="#0A4E85" fill-rule="evenodd" stroke="none" />
      <path d="M39.4716 14.3008L38.666 4.7666L46.3188 4.7666L47.5271 14.3008L39.4716 14.3008Z" id="New-shape-Copy-4" fill="#269FFF" fill-rule="evenodd" stroke="none" />
      <path d="M50.349 14.3008L49.1406 4.7666L55.9878 4.7666L58.0017 14.3008L50.349 14.3008Z" id="New-shape-Copy-5" fill="#0A4E85" fill-rule="evenodd" stroke="none" />
      <path d="M0 0L9.26389 0L9.26389 1.58904L0 1.58904L0 0Z" id="Rectangle-2" fill="#269FFF" fill-rule="evenodd" stroke="none" />
      <path d="M10.875 0L14.0972 0L14.0972 1.58904L10.875 1.58904L10.875 0Z" id="Rectangle-2-Copy" fill="#0A4E85" fill-rule="evenodd" stroke="none" />
    </g>
  </g>
</svg>