<?xml version="1.0" encoding="utf-8"?>
<svg width="75px" height="75px" viewBox="0 0 75 75" version="1.1" xmlns:xlink="http://www.w3.org/1999/xlink" xmlns="http://www.w3.org/2000/svg">
  <g id="Group-6-Copy-2" transform="matrix(1.0000001 -3.254292E-09 3.254292E-09 1.0000001 0 0)">
    <path d="M0 0L75 -2.68225e-06L75 75L2.68225e-06 75L0 0Z" id="Rectangle" fill="none" fill-rule="evenodd" stroke="none" />
    <g id="Group-5" transform="matrix(1 -3.5763353E-08 3.5763353E-08 1 6.6796875 17.083984)">
      <path d="M54.8496 43.0221L54.8496 19.9973Q54.8496 19.7447 54.8004 19.4969Q54.7513 19.2491 54.6548 19.0156Q54.5583 18.7821 54.4183 18.5719Q54.2782 18.3617 54.0999 18.1827L54.0993 18.1821Q53.9211 18.0032 53.7113 17.8627Q53.5016 17.7221 53.2684 17.6253Q53.0352 17.5284 52.7876 17.4791Q52.5399 17.4297 52.2874 17.4297L10.8522 17.4297Q10.6098 17.4297 10.3705 17.4686Q10.1312 17.5076 9.90133 17.5844Q9.67143 17.6613 9.45685 17.774Q9.24228 17.8868 9.04861 18.0326L8.84921 18.1827Q8.61637 18.358 8.42993 18.582Q8.24349 18.8059 8.11338 19.0667Q7.98328 19.3275 7.91644 19.6112Q7.84961 19.8948 7.84961 20.1863L7.84961 43.0221L24.8496 43.0221L30.1246 43.0221L38.3496 43.0221L54.8496 43.0221Z" id="New-shape-3" fill="#64717C" fill-rule="evenodd" stroke="none" />
      <path d="M28.6895 40.6064L33.6658 40.6064L33.6658 41.6728L28.6895 41.6728L28.6895 40.6064Z" id="Rectangle-2" fill="#D3D3D3" fill-rule="evenodd" stroke="none" />
      <path d="M7.84961 20.4297L54.8496 20.4297L54.8496 23.4297L7.84961 23.4297L7.84961 20.4297Z" id="New-shape-4" fill="#889097" fill-rule="evenodd" stroke="none" />
      <path d="M7.84961 26.4297L54.8496 26.4297L54.8496 29.4297L7.84961 29.4297L7.84961 26.4297Z" id="New-shape-4-Copy" fill="#889097" fill-rule="evenodd" stroke="none" />
      <path d="M7.99219 31.5771L54.9922 31.5771L54.9922 34.0653L7.99219 34.0653L7.99219 31.5771Z" id="New-shape-4-Copy-2" fill="#889097" fill-rule="evenodd" stroke="none" />
      <path d="M7.84961 36.6963L54.8496 36.6963L54.8496 39.1844L7.84961 39.1844L7.84961 36.6963Z" id="New-shape-4-Copy-3" fill="#889097" fill-rule="evenodd" stroke="none" />
      <path d="M59.8216 6.63738L59.8408 48.4077Q59.8408 48.4187 59.8407 48.4297L59.8305 49.9197Q59.83 49.9935 59.8223 50.0669Q59.8146 50.1403 59.7997 50.2127Q59.7849 50.285 59.7631 50.3555Q59.7413 50.426 59.7127 50.4941Q59.6841 50.5622 59.6489 50.6271Q59.6138 50.692 59.5726 50.7532Q59.5313 50.8145 59.4842 50.8713Q59.4372 50.9282 59.3848 50.9803Q59.3324 51.0323 59.2752 51.0789Q59.218 51.1256 59.1565 51.1665Q59.095 51.2073 59.0298 51.242Q58.9647 51.2766 58.8964 51.3048Q58.8281 51.3329 58.7575 51.3543Q58.6868 51.3756 58.6144 51.3899Q58.542 51.4043 58.4685 51.4115Q58.395 51.4187 58.3212 51.4187L54.8134 51.4187L54.8134 18.7662L8.24941 18.7662L8.24941 51.4187L4.84013 51.4187Q4.76649 51.4187 4.6932 51.4115Q4.61991 51.4042 4.54768 51.3899Q4.47545 51.3755 4.40498 51.3541Q4.3345 51.3328 4.26647 51.3046Q4.19843 51.2764 4.13348 51.2417Q4.06853 51.207 4.00729 51.1661Q3.94606 51.1251 3.88913 51.0784Q3.8322 51.0317 3.78012 50.9796Q3.72805 50.9276 3.68133 50.8706Q3.6346 50.8137 3.59368 50.7525Q3.55277 50.6913 3.51805 50.6263Q3.48333 50.5614 3.45514 50.4933Q3.42695 50.4253 3.40557 50.3548Q3.38418 50.2844 3.36981 50.2121Q3.35543 50.1399 3.34821 50.0666Q3.34098 49.9933 3.34097 49.9197L3.34081 48.4187L3.32169 6.64012Q3.32162 6.49275 3.336 6.34608Q3.35038 6.19941 3.37908 6.05486Q3.40777 5.9103 3.4505 5.76926Q3.49323 5.62821 3.54958 5.49204Q3.60593 5.35586 3.67536 5.22587Q3.74479 5.09588 3.82663 4.97331Q3.90847 4.85075 4.00193 4.73681Q4.0954 4.62286 4.19958 4.51863Q4.30377 4.4144 4.41767 4.32088Q4.53157 4.22736 4.6541 4.14547Q4.77662 4.06357 4.90658 3.99408Q5.03654 3.92459 5.17269 3.86817Q5.30884 3.81176 5.44987 3.76897Q5.59089 3.72617 5.73543 3.69741Q5.87997 3.66865 6.02664 3.6542Q6.1733 3.63975 6.32067 3.63975L30.8203 3.63965L56.8226 3.63975Q56.9699 3.63976 57.1165 3.65419Q57.2631 3.66862 57.4076 3.69735Q57.552 3.72607 57.693 3.76882Q57.8339 3.81156 57.97 3.86791Q58.1061 3.92426 58.236 3.99367Q58.3659 4.06309 58.4884 4.1449Q58.6108 4.2267 58.7247 4.32012Q58.8386 4.41354 58.9428 4.51766Q59.0469 4.62178 59.1404 4.73562Q59.2339 4.84945 59.3157 4.97189Q59.3976 5.09433 59.4671 5.22421Q59.5365 5.35408 59.593 5.49014Q59.6494 5.62619 59.6922 5.76712Q59.735 5.90805 59.7638 6.0525Q59.7926 6.19695 59.8071 6.34352Q59.8216 6.49009 59.8216 6.63738L59.8216 6.63738Z" id="New-shape-2" fill="#CFD3D5" fill-rule="evenodd" stroke="none" />
      <path d="M2.999 1.13385e-07L60.6266 2.29215e-06Q60.7739 2.29772e-06 60.9205 0.0144433Q61.0672 0.0288843 61.2117 0.0576273Q61.3562 0.0863702 61.4971 0.129138Q61.6381 0.171906 61.7742 0.228288Q61.9104 0.284669 62.0403 0.35412Q62.1702 0.423572 62.2927 0.505425Q62.4152 0.587278 62.5291 0.680744Q62.643 0.77421 62.7472 0.878389Q62.8514 0.982568 62.9448 1.09646Q63.0383 1.21035 63.1202 1.33285Q63.202 1.45535 63.2715 1.58528Q63.3409 1.71522 63.3973 1.85133Q63.4537 1.98745 63.4964 2.12844Q63.5392 2.26943 63.5679 2.41393Q63.5967 2.55843 63.6111 2.70505Q63.6256 2.85167 63.6256 2.999L63.6256 3.04366Q63.6256 3.19099 63.6111 3.33761Q63.5967 3.48423 63.568 3.62873Q63.5392 3.77323 63.4964 3.91422Q63.4537 4.05521 63.3973 4.19132Q63.3409 4.32744 63.2715 4.45738Q63.202 4.58731 63.1202 4.70981Q63.0383 4.83231 62.9448 4.9462Q62.8514 5.06009 62.7472 5.16427Q62.643 5.26845 62.5291 5.36191Q62.4152 5.45538 62.2927 5.53723Q62.1702 5.61909 62.0403 5.68854Q61.9104 5.75799 61.7743 5.81437Q61.6381 5.87075 61.4972 5.91352Q61.3562 5.95629 61.2117 5.98503Q61.0672 6.01377 60.9205 6.02822Q60.7739 6.04266 60.6266 6.04266L2.999 6.04265Q2.85167 6.04265 2.70505 6.02821Q2.55842 6.01377 2.41392 5.98503Q2.26942 5.95629 2.12844 5.91352Q1.98745 5.87075 1.85133 5.81437Q1.71522 5.75799 1.58528 5.68854Q1.45535 5.61908 1.33284 5.53723Q1.21034 5.45538 1.09645 5.36191Q0.982566 5.26845 0.878387 5.16427Q0.774208 5.06009 0.680741 4.9462Q0.587275 4.83231 0.505422 4.70981Q0.42357 4.58731 0.354118 4.45737Q0.284666 4.32744 0.228285 4.19132Q0.171904 4.05521 0.129136 3.91422Q0.0863677 3.77323 0.0576248 3.62873Q0.0288819 3.48423 0.0144409 3.33761Q-1.20644e-07 3.19099 -1.15073e-07 3.04365L-1.13385e-07 2.999Q-1.07815e-07 2.85167 0.0144409 2.70505Q0.0288819 2.55842 0.0576248 2.41392Q0.0863678 2.26942 0.129136 2.12844Q0.171904 1.98745 0.228285 1.85133Q0.284667 1.71522 0.354118 1.58528Q0.42357 1.45535 0.505423 1.33284Q0.587276 1.21034 0.680742 1.09645Q0.774208 0.982566 0.878387 0.878387Q0.982566 0.774208 1.09645 0.680742Q1.21034 0.587276 1.33284 0.505423Q1.45535 0.42357 1.58528 0.354118Q1.71522 0.284667 1.85133 0.228285Q1.98745 0.171904 2.12844 0.129136Q2.26942 0.0863679 2.41392 0.057625Q2.55842 0.0288821 2.70505 0.0144411Q2.85167 1.07815e-07 2.999 1.13385e-07Z" id="Rectangle" fill="#1976D2" fill-rule="evenodd" stroke="none" />
    </g>
  </g>
</svg>