<?xml version="1.0" encoding="utf-8"?>
<svg width="566px" height="246px" viewBox="0 0 566 246" version="1.1" xmlns:xlink="http://www.w3.org/1999/xlink" xmlns="http://www.w3.org/2000/svg">
  <defs>
    <path d="M0 0L564.34 0L564.34 243.77L0 243.77L0 0Z" id="path_1" />
    <clipPath id="mask_1">
      <use xlink:href="#path_1" />
    </clipPath>
  </defs>
  <g id="Group-39" transform="translate(0.75 0.75)">
    <g id="visuelST">
      <path d="M0 0L564.34 0L564.34 243.77L0 243.77L0 0Z" id="Background" fill="none" fill-rule="evenodd" stroke="none" />
      <g clip-path="url(#mask_1)">
        <path d="M25.3594 45.9102L168.629 45.9102L168.629 78.8302L25.3594 78.8302L25.3594 45.9102Z" id="Rectangle" fill="#FFFFFF" fill-rule="evenodd" stroke="#0860A8" stroke-width="1.5" stroke-linecap="round" stroke-linejoin="round" />
        <path d="M25.6797 49.4199C30.7797 49.4199 30.7797 52.7199 35.8797 52.7199C40.9797 52.7199 40.9797 49.4199 46.0797 49.4199C51.1797 49.4199 51.1797 52.7199 56.2797 52.7199C61.3797 52.7199 61.3797 49.4199 66.4797 49.4199C71.5797 49.4199 71.5797 52.7199 76.6797 52.7199C81.7798 52.7199 81.7798 49.4199 86.8798 49.4199C91.9798 49.4199 91.9798 52.7199 97.0798 52.7199C102.18 52.7199 102.18 49.4199 107.28 49.4199C112.38 49.4199 112.38 52.7199 117.48 52.7199C122.58 52.7199 122.58 49.4199 127.68 49.4199C132.78 49.4199 132.78 52.7199 137.89 52.7199C143 52.7199 142.99 49.4199 148.09 49.4199C153.19 49.4199 153.2 52.7199 158.3 52.7199C163.4 52.7199 163.41 49.4199 168.51 49.4199" id="Shape" fill="#FFFFFF" fill-rule="evenodd" stroke="#0860A8" stroke-width="1.5" stroke-linecap="round" stroke-linejoin="round" />
        <path d="M25.6797 49.4199C30.7797 49.4199 30.7797 52.7199 35.8797 52.7199C40.9797 52.7199 40.9797 49.4199 46.0797 49.4199C51.1797 49.4199 51.1797 52.7199 56.2797 52.7199C61.3797 52.7199 61.3797 49.4199 66.4797 49.4199C71.5797 49.4199 71.5797 52.7199 76.6797 52.7199C81.7798 52.7199 81.7798 49.4199 86.8798 49.4199C91.9798 49.4199 91.9798 52.7199 97.0798 52.7199C102.18 52.7199 102.18 49.4199 107.28 49.4199C112.38 49.4199 112.38 52.7199 117.48 52.7199C122.58 52.7199 122.58 49.4199 127.68 49.4199C132.78 49.4199 132.78 52.7199 137.89 52.7199C143 52.7199 142.99 49.4199 148.09 49.4199C153.19 49.4199 153.2 52.7199 158.3 52.7199C163.4 52.7199 163.41 49.4199 168.51 49.4199" id="Shape" fill="#FFFFFF" fill-rule="evenodd" stroke="#0860A8" stroke-width="1.5" stroke-linecap="round" stroke-linejoin="round" />
        <path d="M25.6797 56.5596C30.7797 56.5596 30.7797 59.8596 35.8797 59.8596C40.9797 59.8596 40.9797 56.5596 46.0797 56.5596C51.1797 56.5596 51.1797 59.8596 56.2797 59.8596C61.3797 59.8596 61.3797 56.5596 66.4797 56.5596C71.5797 56.5596 71.5797 59.8596 76.6797 59.8596C81.7798 59.8596 81.7798 56.5596 86.8798 56.5596C91.9798 56.5596 91.9798 59.8596 97.0798 59.8596C102.18 59.8596 102.18 56.5596 107.28 56.5596C112.38 56.5596 112.38 59.8596 117.48 59.8596C122.58 59.8596 122.58 56.5596 127.68 56.5596C132.78 56.5596 132.78 59.8596 137.89 59.8596C143 59.8596 142.99 56.5596 148.09 56.5596C153.19 56.5596 153.2 59.8596 158.3 59.8596C163.4 59.8596 163.41 56.5596 168.51 56.5596" id="Shape" fill="#FFFFFF" fill-rule="evenodd" stroke="#0860A8" stroke-width="1.5" stroke-linecap="round" stroke-linejoin="round" />
        <path d="M25.6797 56.5596C30.7797 56.5596 30.7797 59.8596 35.8797 59.8596C40.9797 59.8596 40.9797 56.5596 46.0797 56.5596C51.1797 56.5596 51.1797 59.8596 56.2797 59.8596C61.3797 59.8596 61.3797 56.5596 66.4797 56.5596C71.5797 56.5596 71.5797 59.8596 76.6797 59.8596C81.7798 59.8596 81.7798 56.5596 86.8798 56.5596C91.9798 56.5596 91.9798 59.8596 97.0798 59.8596C102.18 59.8596 102.18 56.5596 107.28 56.5596C112.38 56.5596 112.38 59.8596 117.48 59.8596C122.58 59.8596 122.58 56.5596 127.68 56.5596C132.78 56.5596 132.78 59.8596 137.89 59.8596C143 59.8596 142.99 56.5596 148.09 56.5596C153.19 56.5596 153.2 59.8596 158.3 59.8596C163.4 59.8596 163.41 56.5596 168.51 56.5596" id="Shape" fill="#FFFFFF" fill-rule="evenodd" stroke="#0860A8" stroke-width="1.5" stroke-linecap="round" stroke-linejoin="round" />
        <path d="M25.6797 63.71C30.7797 63.71 30.7797 67.0099 35.8797 67.0099C40.9797 67.0099 40.9797 63.71 46.0797 63.71C51.1797 63.71 51.1797 67.0099 56.2797 67.0099C61.3797 67.0099 61.3797 63.71 66.4797 63.71C71.5797 63.71 71.5797 67.0099 76.6797 67.0099C81.7798 67.0099 81.7798 63.71 86.8798 63.71C91.9798 63.71 91.9798 67.0099 97.0798 67.0099C102.18 67.0099 102.18 63.71 107.28 63.71C112.38 63.71 112.38 67.0099 117.48 67.0099C122.58 67.0099 122.58 63.71 127.68 63.71C132.78 63.71 132.78 67.0099 137.89 67.0099C143 67.0099 142.99 63.71 148.09 63.71C153.19 63.71 153.2 67.0099 158.3 67.0099C163.4 67.0099 163.41 63.71 168.51 63.71" id="Shape" fill="#FFFFFF" fill-rule="evenodd" stroke="#0860A8" stroke-width="1.5" stroke-linecap="round" stroke-linejoin="round" />
        <path d="M25.6797 63.71C30.7797 63.71 30.7797 67.0099 35.8797 67.0099C40.9797 67.0099 40.9797 63.71 46.0797 63.71C51.1797 63.71 51.1797 67.0099 56.2797 67.0099C61.3797 67.0099 61.3797 63.71 66.4797 63.71C71.5797 63.71 71.5797 67.0099 76.6797 67.0099C81.7798 67.0099 81.7798 63.71 86.8798 63.71C91.9798 63.71 91.9798 67.0099 97.0798 67.0099C102.18 67.0099 102.18 63.71 107.28 63.71C112.38 63.71 112.38 67.0099 117.48 67.0099C122.58 67.0099 122.58 63.71 127.68 63.71C132.78 63.71 132.78 67.0099 137.89 67.0099C143 67.0099 142.99 63.71 148.09 63.71C153.19 63.71 153.2 67.0099 158.3 67.0099C163.4 67.0099 163.41 63.71 168.51 63.71" id="Shape" fill="#FFFFFF" fill-rule="evenodd" stroke="#0860A8" stroke-width="1.5" stroke-linecap="round" stroke-linejoin="round" />
        <path d="M25.6797 70.8604C30.7797 70.8604 30.7797 74.1603 35.8797 74.1603C40.9797 74.1603 40.9797 70.8604 46.0797 70.8604C51.1797 70.8604 51.1797 74.1603 56.2797 74.1603C61.3797 74.1603 61.3797 70.8604 66.4797 70.8604C71.5797 70.8604 71.5797 74.1603 76.6797 74.1603C81.7798 74.1603 81.7798 70.8604 86.8798 70.8604C91.9798 70.8604 91.9798 74.1603 97.0798 74.1603C102.18 74.1603 102.18 70.8604 107.28 70.8604C112.38 70.8604 112.38 74.1603 117.48 74.1603C122.58 74.1603 122.58 70.8604 127.68 70.8604C132.78 70.8604 132.78 74.1603 137.89 74.1603C143 74.1603 142.99 70.8604 148.09 70.8604C153.19 70.8604 153.2 74.1603 158.3 74.1603C163.4 74.1603 163.41 70.8604 168.51 70.8604" id="Shape" fill="#FFFFFF" fill-rule="evenodd" stroke="#0860A8" stroke-width="1.5" stroke-linecap="round" stroke-linejoin="round" />
        <path d="M25.6797 70.8604C30.7797 70.8604 30.7797 74.1603 35.8797 74.1603C40.9797 74.1603 40.9797 70.8604 46.0797 70.8604C51.1797 70.8604 51.1797 74.1603 56.2797 74.1603C61.3797 74.1603 61.3797 70.8604 66.4797 70.8604C71.5797 70.8604 71.5797 74.1603 76.6797 74.1603C81.7798 74.1603 81.7798 70.8604 86.8798 70.8604C91.9798 70.8604 91.9798 74.1603 97.0798 74.1603C102.18 74.1603 102.18 70.8604 107.28 70.8604C112.38 70.8604 112.38 74.1603 117.48 74.1603C122.58 74.1603 122.58 70.8604 127.68 70.8604C132.78 70.8604 132.78 74.1603 137.89 74.1603C143 74.1603 142.99 70.8604 148.09 70.8604C153.19 70.8604 153.2 74.1603 158.3 74.1603C163.4 74.1603 163.41 70.8604 168.51 70.8604" id="Shape" fill="#FFFFFF" fill-rule="evenodd" stroke="#0860A8" stroke-width="1.5" stroke-linecap="round" stroke-linejoin="round" />
        <path d="M0.570313 178.64L195.62 178.64" id="Line" fill="none" fill-rule="evenodd" stroke="#0860A8" stroke-width="1.5" stroke-linecap="round" stroke-linejoin="round" />
        <path d="M25.7402 83.7803L168.55 83.7803L168.55 178.65L25.7402 178.65L25.7402 83.7803Z" id="Rectangle" fill="#FFFFFF" fill-rule="evenodd" stroke="#0860A8" stroke-width="1.5" stroke-linecap="round" stroke-linejoin="round" />
        <path d="M22.4609 77.7402L172.351 77.7402L172.351 83.7902L22.4609 83.7902L22.4609 77.7402Z" id="Rectangle" fill="#FFFFFF" fill-rule="evenodd" stroke="#0860A8" stroke-width="1.5" stroke-linecap="round" stroke-linejoin="round" />
        <path d="M48.3496 83.7902L48.3496 77.7402" id="Line" fill="none" fill-rule="evenodd" stroke="#0860A8" stroke-width="1.5" stroke-linecap="round" stroke-linejoin="round" />
        <path d="M51.4395 77.7402L51.4395 83.7802" id="Line" fill="none" fill-rule="evenodd" stroke="#0860A8" stroke-width="1.5" stroke-linecap="round" stroke-linejoin="round" />
        <path d="M144.77 83.7902L144.77 77.7402" id="Line" fill="none" fill-rule="evenodd" stroke="#0860A8" stroke-width="1.5" stroke-linecap="round" stroke-linejoin="round" />
        <path d="M147.869 77.7402L147.869 83.7802" id="Line" fill="none" fill-rule="evenodd" stroke="#0860A8" stroke-width="1.5" stroke-linecap="round" stroke-linejoin="round" />
        <path d="M96.2305 83.7902L96.2305 77.7402" id="Line" fill="none" fill-rule="evenodd" stroke="#0860A8" stroke-width="1.5" stroke-linecap="round" stroke-linejoin="round" />
        <path d="M99.3203 77.7402L99.3203 83.7802" id="Line" fill="none" fill-rule="evenodd" stroke="#0860A8" stroke-width="1.5" stroke-linecap="round" stroke-linejoin="round" />
        <path d="M37.5898 172.45L113.9 172.45L113.9 178.41L37.5898 178.41L37.5898 172.45Z" id="Rectangle" fill="#FFFFFF" fill-rule="evenodd" stroke="#0860A8" stroke-width="1.5" stroke-linecap="round" stroke-linejoin="round" />
        <path d="M125.99 111.73L154.21 111.73L154.21 177.99L125.99 177.99L125.99 111.73Z" id="Rectangle" fill="#FFFFFF" fill-rule="evenodd" stroke="#0860A8" stroke-width="1.5" stroke-linecap="round" stroke-linejoin="round" />
        <path d="M129.051 148.19L151.321 148.19L151.321 175.43L129.051 175.43L129.051 148.19Z" id="Rectangle" fill="#FFFFFF" fill-rule="evenodd" stroke="#0860A8" stroke-width="1.5" stroke-linecap="round" stroke-linejoin="round" />
        <path d="M141.391 152.84L143.861 156.39" id="Line" fill="none" fill-rule="evenodd" stroke="#0860A8" stroke-width="1.5" stroke-linecap="round" stroke-linejoin="round" />
        <path d="M144.689 152.84L147.159 156.39" id="Line" fill="none" fill-rule="evenodd" stroke="#0860A8" stroke-width="1.5" stroke-linecap="round" stroke-linejoin="round" />
        <path d="M129.051 115.11L151.321 115.11L151.321 140.7L129.051 140.7L129.051 115.11Z" id="Rectangle" fill="#FFFFFF" fill-rule="evenodd" stroke="#0860A8" stroke-width="1.5" stroke-linecap="round" stroke-linejoin="round" />
        <path d="M129.051 144.03L133.181 144.03" id="Line" fill="none" fill-rule="evenodd" stroke="#0860A8" stroke-width="1.5" stroke-linecap="round" stroke-linejoin="round" />
        <path d="M40.6191 111.73L110.849 111.73L110.849 172.45L40.6191 172.45L40.6191 111.73Z" id="Rectangle" fill="#FFFFFF" fill-rule="evenodd" stroke="#0860A8" stroke-width="1.5" stroke-linecap="round" stroke-linejoin="round" />
        <path d="M45.1191 116.01L106.359 116.01L106.359 172.44L45.1191 172.44L45.1191 116.01Z" id="Rectangle" fill="#FFFFFF" fill-rule="evenodd" stroke="#0860A8" stroke-width="1.5" stroke-linecap="round" stroke-linejoin="round" />
        <path d="M51.8906 165.08L99.5906 165.08" id="Line" fill="none" fill-rule="evenodd" stroke="#0860A8" stroke-width="1.5" stroke-linecap="round" stroke-linejoin="round" />
        <path d="M51.8906 158.61L99.5906 158.61" id="Line" fill="none" fill-rule="evenodd" stroke="#0860A8" stroke-width="1.5" stroke-linecap="round" stroke-linejoin="round" />
        <path d="M51.8906 152.15L99.5906 152.15" id="Line" fill="none" fill-rule="evenodd" stroke="#0860A8" stroke-width="1.5" stroke-linecap="round" stroke-linejoin="round" />
        <path d="M51.8906 145.68L99.5906 145.68" id="Line" fill="none" fill-rule="evenodd" stroke="#0860A8" stroke-width="1.5" stroke-linecap="round" stroke-linejoin="round" />
        <path d="M51.8906 139.22L99.5906 139.22" id="Line" fill="none" fill-rule="evenodd" stroke="#0860A8" stroke-width="1.5" stroke-linecap="round" stroke-linejoin="round" />
        <path d="M51.8906 132.75L99.5906 132.75" id="Line" fill="none" fill-rule="evenodd" stroke="#0860A8" stroke-width="1.5" stroke-linecap="round" stroke-linejoin="round" />
        <path d="M51.8906 126.28L99.5906 126.28" id="Line" fill="none" fill-rule="evenodd" stroke="#0860A8" stroke-width="1.5" stroke-linecap="round" stroke-linejoin="round" />
        <path d="M33.8203 116.76C37.7403 116.76 37.7403 121.71 41.6603 121.71C45.5803 121.71 45.5803 116.76 49.5003 116.76C53.4203 116.76 53.4203 121.71 57.3403 121.71C61.2603 121.71 61.2603 116.76 65.1803 116.76C69.1003 116.76 69.1003 121.71 73.0203 121.71C76.9403 121.71 76.9403 116.76 80.8603 116.76C84.7803 116.76 84.7803 121.71 88.7003 121.71C92.6203 121.71 92.6203 116.76 96.5403 116.76C100.46 116.76 100.46 121.71 104.38 121.71C108.3 121.71 108.3 116.76 112.22 116.76C116.14 116.76 116.14 121.71 120.06 121.71C123.98 121.71 123.98 116.76 127.9 116.76C131.82 116.76 131.82 121.71 135.75 121.71C139.68 121.71 139.67 116.76 143.59 116.76C147.51 116.76 147.51 121.71 151.44 121.71C155.37 121.71 155.36 116.76 159.29 116.76L159.29 95.9805L33.8203 95.9805L33.8203 116.76L33.8203 116.76Z" id="Shape" fill="#FFFFFF" fill-rule="evenodd" stroke="#0860A8" stroke-width="1.5" stroke-linecap="round" stroke-linejoin="round" />
        <path d="M116.33 119.26L116.33 149.92" id="Line" fill="none" fill-rule="evenodd" stroke="#0860A8" stroke-width="1.5" stroke-linecap="round" stroke-linejoin="round" />
        <path d="M173.721 178.4L168.631 178.4L168.631 84.4404L173.721 84.4404L173.721 178.4Z" id="Rectangle" fill="#FFFFFF" fill-rule="evenodd" stroke="#0860A8" stroke-width="1.5" stroke-linecap="round" stroke-linejoin="round" />
        <path d="M173.721 90.2199L176.061 84.1699L168.631 84.1699L168.631 90.2199L173.721 90.2199L173.721 90.2199Z" id="Polygon" fill="#FFFFFF" fill-rule="evenodd" stroke="#0860A8" stroke-width="1.5" stroke-linecap="round" stroke-linejoin="round" />
        <path d="M173.721 106.39L168.631 106.39L168.631 102.33L173.721 102.33L173.721 106.39Z" id="Rectangle" fill="#FFFFFF" fill-rule="evenodd" stroke="#0860A8" stroke-width="1.5" stroke-linecap="round" stroke-linejoin="round" />
        <path d="M173.721 153.6L168.631 153.6L168.631 149.54L173.721 149.54L173.721 153.6Z" id="Rectangle" fill="#FFFFFF" fill-rule="evenodd" stroke="#0860A8" stroke-width="1.5" stroke-linecap="round" stroke-linejoin="round" />
        <path d="M406.91 87.9198L406.91 82.0898" id="Line" fill="none" fill-rule="evenodd" stroke="#0860A8" stroke-width="1.5" stroke-linecap="round" stroke-linejoin="round" />
        <path d="M409.891 82.0898L409.891 87.9099" id="Line" fill="none" fill-rule="evenodd" stroke="#0860A8" stroke-width="1.5" stroke-linecap="round" stroke-linejoin="round" />
        <path d="M453.09 87.9198L453.09 82.0898" id="Line" fill="none" fill-rule="evenodd" stroke="#0860A8" stroke-width="1.5" stroke-linecap="round" stroke-linejoin="round" />
        <path d="M456.07 82.0898L456.07 87.9099" id="Line" fill="none" fill-rule="evenodd" stroke="#0860A8" stroke-width="1.5" stroke-linecap="round" stroke-linejoin="round" />
        <path d="M152.801 178.38L390.401 178.38" id="Line" fill="none" fill-rule="evenodd" stroke="#0860A8" stroke-width="1.5" stroke-linecap="round" stroke-linejoin="round" />
        <path d="M188.551 8.0498L339.751 8.0498L339.751 178.39L188.551 178.39L188.551 8.0498Z" id="Rectangle" fill="#FFFFFF" fill-rule="evenodd" stroke="#0860A8" stroke-width="1.5" stroke-linecap="round" stroke-linejoin="round" />
        <path d="M184.49 0.570313L344.46 0.570313L344.46 8.06031L184.49 8.06031L184.49 0.570313Z" id="Rectangle" fill="#FFFFFF" fill-rule="evenodd" stroke="#0860A8" stroke-width="1.5" stroke-linecap="round" stroke-linejoin="round" />
        <path d="M212.48 8.07031L212.48 0.570313" id="Line" fill="none" fill-rule="evenodd" stroke="#0860A8" stroke-width="1.5" stroke-linecap="round" stroke-linejoin="round" />
        <path d="M216.311 0.570313L216.311 8.05031" id="Line" fill="none" fill-rule="evenodd" stroke="#0860A8" stroke-width="1.5" stroke-linecap="round" stroke-linejoin="round" />
        <path d="M314.381 8.07031L314.381 0.570313" id="Line" fill="none" fill-rule="evenodd" stroke="#0860A8" stroke-width="1.5" stroke-linecap="round" stroke-linejoin="round" />
        <path d="M318.221 0.570313L318.221 8.05031" id="Line" fill="none" fill-rule="evenodd" stroke="#0860A8" stroke-width="1.5" stroke-linecap="round" stroke-linejoin="round" />
        <path d="M263.43 8.07031L263.43 0.570313" id="Line" fill="none" fill-rule="evenodd" stroke="#0860A8" stroke-width="1.5" stroke-linecap="round" stroke-linejoin="round" />
        <path d="M267.26 0.570313L267.26 8.05031" id="Line" fill="none" fill-rule="evenodd" stroke="#0860A8" stroke-width="1.5" stroke-linecap="round" stroke-linejoin="round" />
        <path d="M223.43 104.24L307.96 104.24L307.96 154.08L223.43 154.08L223.43 104.24Z" id="Rectangle" fill="#FFFFFF" fill-rule="evenodd" stroke="#0860A8" stroke-width="1.5" stroke-linecap="round" stroke-linejoin="round" />
        <path d="M218.109 153.96L312.879 153.96L312.879 161.35L218.109 161.35L218.109 153.96Z" id="Rectangle" fill="#FFFFFF" fill-rule="evenodd" stroke="#0860A8" stroke-width="1.5" stroke-linecap="round" stroke-linejoin="round" />
        <path d="M248.4 113.37L251.47 117.77" id="Line" fill="none" fill-rule="evenodd" stroke="#0860A8" stroke-width="1.5" stroke-linecap="round" stroke-linejoin="round" />
        <path d="M252.49 113.37L255.56 117.77" id="Line" fill="none" fill-rule="evenodd" stroke="#0860A8" stroke-width="1.5" stroke-linecap="round" stroke-linejoin="round" />
        <path d="M291.73 113.37L294.8 117.77" id="Line" fill="none" fill-rule="evenodd" stroke="#0860A8" stroke-width="1.5" stroke-linecap="round" stroke-linejoin="round" />
        <path d="M295.82 113.37L298.88 117.77" id="Line" fill="none" fill-rule="evenodd" stroke="#0860A8" stroke-width="1.5" stroke-linecap="round" stroke-linejoin="round" />
        <path d="M227.221 107.6L264.001 107.6L264.001 150.9L227.221 150.9L227.221 107.6Z" id="Rectangle" fill="#FFFFFF" fill-rule="evenodd" stroke="#0860A8" stroke-width="1.5" stroke-linecap="round" stroke-linejoin="round" />
        <path d="M267.391 107.6L304.171 107.6L304.171 150.9L267.391 150.9L267.391 107.6Z" id="Rectangle" fill="#FFFFFF" fill-rule="evenodd" stroke="#0860A8" stroke-width="1.5" stroke-linecap="round" stroke-linejoin="round" />
        <path d="M201.76 154.99L223.19 151.93L223.19 105.26L201.76 102.19L201.76 154.99L201.76 154.99Z" id="Polygon" fill="#FFFFFF" fill-rule="evenodd" stroke="#0860A8" stroke-width="1.5" stroke-linecap="round" stroke-linejoin="round" />
        <path d="M210.32 110.57L210.32 146.42" id="Line" fill="none" fill-rule="evenodd" stroke="#0860A8" stroke-width="1.5" stroke-linecap="round" stroke-linejoin="round" />
        <path d="M217.189 112.28L217.189 144.71" id="Line" fill="none" fill-rule="evenodd" stroke="#0860A8" stroke-width="1.5" stroke-linecap="round" stroke-linejoin="round" />
        <path d="M328.93 154.99L307.5 151.93L307.5 105.26L328.93 102.19L328.93 154.99L328.93 154.99Z" id="Polygon" fill="#FFFFFF" fill-rule="evenodd" stroke="#0860A8" stroke-width="1.5" stroke-linecap="round" stroke-linejoin="round" />
        <path d="M320.381 110.57L320.381 146.42" id="Line" fill="none" fill-rule="evenodd" stroke="#0860A8" stroke-width="1.5" stroke-linecap="round" stroke-linejoin="round" />
        <path d="M313.51 112.28L313.51 144.71" id="Line" fill="none" fill-rule="evenodd" stroke="#0860A8" stroke-width="1.5" stroke-linecap="round" stroke-linejoin="round" />
        <path d="M215.061 18.9697L259.211 18.9697L259.211 68.8097L215.061 68.8097L215.061 18.9697Z" id="Rectangle" fill="#FFFFFF" fill-rule="evenodd" stroke="#0860A8" stroke-width="1.5" stroke-linecap="round" stroke-linejoin="round" />
        <path d="M211.33 68.5703L263.31 68.5703L263.31 75.9603L211.33 75.9603L211.33 68.5703Z" id="Rectangle" fill="#FFFFFF" fill-rule="evenodd" stroke="#0860A8" stroke-width="1.5" stroke-linecap="round" stroke-linejoin="round" />
        <path d="M240.029 28.1104L243.099 32.5103" id="Line" fill="none" fill-rule="evenodd" stroke="#0860A8" stroke-width="1.5" stroke-linecap="round" stroke-linejoin="round" />
        <path d="M244.119 28.1104L247.179 32.5103" id="Line" fill="none" fill-rule="evenodd" stroke="#0860A8" stroke-width="1.5" stroke-linecap="round" stroke-linejoin="round" />
        <path d="M218.84 22.3398L255.62 22.3398L255.62 65.6398L218.84 65.6398L218.84 22.3398Z" id="Rectangle" fill="#FFFFFF" fill-rule="evenodd" stroke="#0860A8" stroke-width="1.5" stroke-linecap="round" stroke-linejoin="round" />
        <path d="M272.33 18.9697L316.48 18.9697L316.48 68.8097L272.33 68.8097L272.33 18.9697Z" id="Rectangle" fill="#FFFFFF" fill-rule="evenodd" stroke="#0860A8" stroke-width="1.5" stroke-linecap="round" stroke-linejoin="round" />
        <path d="M268.609 68.5703L320.589 68.5703L320.589 75.9603L268.609 75.9603L268.609 68.5703Z" id="Rectangle" fill="#FFFFFF" fill-rule="evenodd" stroke="#0860A8" stroke-width="1.5" stroke-linecap="round" stroke-linejoin="round" />
        <path d="M297.311 28.1104L300.371 32.5103" id="Line" fill="none" fill-rule="evenodd" stroke="#0860A8" stroke-width="1.5" stroke-linecap="round" stroke-linejoin="round" />
        <path d="M301.391 28.1104L304.461 32.5103" id="Line" fill="none" fill-rule="evenodd" stroke="#0860A8" stroke-width="1.5" stroke-linecap="round" stroke-linejoin="round" />
        <path d="M276.119 22.3398L312.899 22.3398L312.899 65.6398L276.119 65.6398L276.119 22.3398Z" id="Rectangle" fill="#FFFFFF" fill-rule="evenodd" stroke="#0860A8" stroke-width="1.5" stroke-linecap="round" stroke-linejoin="round" />
        <path d="M214.891 88.7998L223.431 88.7998L223.431 97.3398L214.891 97.3398L214.891 88.7998Z" id="Rectangle" fill="#FFFFFF" fill-rule="evenodd" stroke="#0860A8" stroke-width="1.5" stroke-linecap="round" stroke-linejoin="round" />
        <path d="M324.66 15.8896L333.2 15.8896L333.2 24.4296L324.66 24.4296L324.66 15.8896Z" id="Rectangle" fill="#FFFFFF" fill-rule="evenodd" stroke="#0860A8" stroke-width="1.5" stroke-linecap="round" stroke-linejoin="round" />
        <path d="M242.029 28.1104L245.099 32.5103" id="Line" fill="none" fill-rule="evenodd" stroke="#0860A8" stroke-width="1.5" stroke-linecap="round" stroke-linejoin="round" />
        <path d="M246.119 28.1104L249.179 32.5103" id="Line" fill="none" fill-rule="evenodd" stroke="#0860A8" stroke-width="1.5" stroke-linecap="round" stroke-linejoin="round" />
        <path d="M300.59 28.1104L303.66 32.5103" id="Line" fill="none" fill-rule="evenodd" stroke="#0860A8" stroke-width="1.5" stroke-linecap="round" stroke-linejoin="round" />
        <path d="M304.68 28.1104L307.74 32.5103" id="Line" fill="none" fill-rule="evenodd" stroke="#0860A8" stroke-width="1.5" stroke-linecap="round" stroke-linejoin="round" />
        <path d="M324.381 162.71L330.771 162.71L330.771 178.22L324.381 178.22L324.381 162.71Z" id="Rectangle" fill="#FFFFFF" fill-rule="evenodd" stroke="#0860A8" stroke-width="1.5" stroke-linecap="round" stroke-linejoin="round" />
        <path d="M352.639 130.16C357.459 122.126 355.528 111.759 348.139 106C350.405 102.767 351.201 98.7283 350.33 94.878C349.46 91.0277 347.005 87.7236 343.569 85.7796C345.502 82.7799 345.92 79.0488 344.699 75.6958C343.478 72.3428 340.758 69.7542 337.349 68.6997C338.964 64.6008 337.706 59.9283 334.251 57.1942C330.797 54.4601 325.961 54.3085 322.342 56.8208C318.723 59.3332 317.175 63.9177 318.529 68.1096C314.877 69.1976 311.959 71.9556 310.666 75.5407C309.374 79.1258 309.861 83.1116 311.979 86.2797C308.478 87.8764 305.84 90.9125 304.749 94.6028C303.658 98.2931 304.219 102.275 306.289 105.52C302.146 107.673 299.29 111.688 298.617 116.309C297.943 120.93 299.533 125.593 302.889 128.84C298.959 132.37 296.619 136.77 296.619 141.55C296.619 153.11 310.259 162.49 327.079 162.49C343.899 162.49 357.539 153.12 357.539 141.55C357.442 137.262 355.686 133.178 352.639 130.16L352.639 130.16Z" id="Shape" fill="#FFFFFF" fill-rule="evenodd" stroke="#0860A8" stroke-width="1.5" stroke-linecap="round" stroke-linejoin="round" />
        <path d="M312.99 105.28C316.634 105.193 319.954 103.169 321.7 99.9697" id="Shape" fill="#FFFFFF" fill-rule="evenodd" stroke="#0860A8" stroke-width="1.5" stroke-linecap="round" stroke-linejoin="round" />
        <path d="M329.12 102.86C323.487 102.86 318.92 98.2935 318.92 92.6602" id="Shape" fill="#FFFFFF" fill-rule="evenodd" stroke="#0860A8" stroke-width="1.5" stroke-linecap="round" stroke-linejoin="round" />
        <path d="M337.75 76.7598C334.917 79.0566 331.074 79.6667 327.67 78.3598" id="Shape" fill="#FFFFFF" fill-rule="evenodd" stroke="#0860A8" stroke-width="1.5" stroke-linecap="round" stroke-linejoin="round" />
        <path d="M332.711 133.97C334.972 135.457 337.731 135.985 340.381 135.437C343.031 134.89 345.355 133.311 346.841 131.05" id="Shape" fill="#FFFFFF" fill-rule="evenodd" stroke="#0860A8" stroke-width="1.5" stroke-linecap="round" stroke-linejoin="round" />
        <path d="M182.32 8.38965L188.62 8.38965L188.62 177.97L182.32 177.97L182.32 8.38965Z" id="Rectangle" fill="#FFFFFF" fill-rule="evenodd" stroke="#0860A8" stroke-width="1.5" stroke-linecap="round" stroke-linejoin="round" />
        <path d="M182.32 15.5398L179.43 8.0498L188.63 8.0498L188.63 15.5398L182.32 15.5398L182.32 15.5398Z" id="Polygon" fill="#FFFFFF" fill-rule="evenodd" stroke="#0860A8" stroke-width="1.5" stroke-linecap="round" stroke-linejoin="round" />
        <path d="M182.32 89.7598L188.62 89.7598L188.62 94.7898L182.32 94.7898L182.32 89.7598Z" id="Rectangle" fill="#FFFFFF" fill-rule="evenodd" stroke="#0860A8" stroke-width="1.5" stroke-linecap="round" stroke-linejoin="round" />
        <path d="M182.32 42.2998L188.62 42.2998L188.62 47.3298L182.32 47.3298L182.32 42.2998Z" id="Rectangle" fill="#FFFFFF" fill-rule="evenodd" stroke="#0860A8" stroke-width="1.5" stroke-linecap="round" stroke-linejoin="round" />
        <path d="M182.32 140.38L188.62 140.38L188.62 145.41L182.32 145.41L182.32 140.38Z" id="Rectangle" fill="#FFFFFF" fill-rule="evenodd" stroke="#0860A8" stroke-width="1.5" stroke-linecap="round" stroke-linejoin="round" />
        <path d="M398.52 48.8604L537.58 48.8604L537.58 80.8103L398.52 80.8103L398.52 48.8604Z" id="Rectangle" fill="#FFFFFF" fill-rule="evenodd" stroke="#0860A8" stroke-width="1.5" stroke-linecap="round" stroke-linejoin="round" />
        <path d="M398.83 52.2803C403.83 52.2803 403.83 55.4803 408.73 55.4803C413.63 55.4803 413.73 52.2803 418.63 52.2803C423.53 52.2803 423.63 55.4803 428.53 55.4803C433.43 55.4803 433.53 52.2803 438.43 52.2803C443.33 52.2803 443.43 55.4803 448.33 55.4803C453.23 55.4803 453.33 52.2803 458.23 52.2803C463.13 52.2803 463.23 55.4803 468.13 55.4803C473.03 55.4803 473.13 52.2803 478.03 52.2803C482.93 52.2803 483.03 55.4803 487.93 55.4803C492.83 55.4803 492.93 52.2803 497.83 52.2803C502.73 52.2803 502.83 55.4803 507.74 55.4803C512.65 55.4803 512.74 52.2803 517.64 52.2803C522.54 52.2803 522.64 55.4803 527.55 55.4803C532.46 55.4803 532.55 52.2803 537.46 52.2803" id="Shape" fill="#FFFFFF" fill-rule="evenodd" stroke="#0860A8" stroke-width="1.5" stroke-linecap="round" stroke-linejoin="round" />
        <path d="M398.83 52.2803C403.83 52.2803 403.83 55.4803 408.73 55.4803C413.63 55.4803 413.73 52.2803 418.63 52.2803C423.53 52.2803 423.63 55.4803 428.53 55.4803C433.43 55.4803 433.53 52.2803 438.43 52.2803C443.33 52.2803 443.43 55.4803 448.33 55.4803C453.23 55.4803 453.33 52.2803 458.23 52.2803C463.13 52.2803 463.23 55.4803 468.13 55.4803C473.03 55.4803 473.13 52.2803 478.03 52.2803C482.93 52.2803 483.03 55.4803 487.93 55.4803C492.83 55.4803 492.93 52.2803 497.83 52.2803C502.73 52.2803 502.83 55.4803 507.74 55.4803C512.65 55.4803 512.74 52.2803 517.64 52.2803C522.54 52.2803 522.64 55.4803 527.55 55.4803C532.46 55.4803 532.55 52.2803 537.46 52.2803" id="Shape" fill="#FFFFFF" fill-rule="evenodd" stroke="#0860A8" stroke-width="1.5" stroke-linecap="round" stroke-linejoin="round" />
        <path d="M398.83 59.2002C403.83 59.2002 403.83 62.4002 408.73 62.4002C413.63 62.4002 413.73 59.2002 418.63 59.2002C423.53 59.2002 423.63 62.4002 428.53 62.4002C433.43 62.4002 433.53 59.2002 438.43 59.2002C443.33 59.2002 443.43 62.4002 448.33 62.4002C453.23 62.4002 453.33 59.2002 458.23 59.2002C463.13 59.2002 463.23 62.4002 468.13 62.4002C473.03 62.4002 473.13 59.2002 478.03 59.2002C482.93 59.2002 483.03 62.4002 487.93 62.4002C492.83 62.4002 492.93 59.2002 497.83 59.2002C502.73 59.2002 502.83 62.4002 507.74 62.4002C512.65 62.4002 512.74 59.2002 517.64 59.2002C522.54 59.2002 522.64 62.4002 527.55 62.4002C532.46 62.4002 532.55 59.2002 537.46 59.2002" id="Shape" fill="#FFFFFF" fill-rule="evenodd" stroke="#0860A8" stroke-width="1.5" stroke-linecap="round" stroke-linejoin="round" />
        <path d="M398.83 59.2002C403.83 59.2002 403.83 62.4002 408.73 62.4002C413.63 62.4002 413.73 59.2002 418.63 59.2002C423.53 59.2002 423.63 62.4002 428.53 62.4002C433.43 62.4002 433.53 59.2002 438.43 59.2002C443.33 59.2002 443.43 62.4002 448.33 62.4002C453.23 62.4002 453.33 59.2002 458.23 59.2002C463.13 59.2002 463.23 62.4002 468.13 62.4002C473.03 62.4002 473.13 59.2002 478.03 59.2002C482.93 59.2002 483.03 62.4002 487.93 62.4002C492.83 62.4002 492.93 59.2002 497.83 59.2002C502.73 59.2002 502.83 62.4002 507.74 62.4002C512.65 62.4002 512.74 59.2002 517.64 59.2002C522.54 59.2002 522.64 62.4002 527.55 62.4002C532.46 62.4002 532.55 59.2002 537.46 59.2002" id="Shape" fill="#FFFFFF" fill-rule="evenodd" stroke="#0860A8" stroke-width="1.5" stroke-linecap="round" stroke-linejoin="round" />
        <path d="M398.83 66.1396C403.83 66.1396 403.83 69.3397 408.73 69.3397C413.63 69.3397 413.73 66.1396 418.63 66.1396C423.53 66.1396 423.63 69.3397 428.53 69.3397C433.43 69.3397 433.53 66.1396 438.43 66.1396C443.33 66.1396 443.43 69.3397 448.33 69.3397C453.23 69.3397 453.33 66.1396 458.23 66.1396C463.13 66.1396 463.23 69.3397 468.13 69.3397C473.03 69.3397 473.13 66.1396 478.03 66.1396C482.93 66.1396 483.03 69.3397 487.93 69.3397C492.83 69.3397 492.93 66.1396 497.83 66.1396C502.73 66.1396 502.83 69.3397 507.74 69.3397C512.65 69.3397 512.74 66.1396 517.64 66.1396C522.54 66.1396 522.64 69.3397 527.55 69.3397C532.46 69.3397 532.55 66.1396 537.46 66.1396" id="Shape" fill="#FFFFFF" fill-rule="evenodd" stroke="#0860A8" stroke-width="1.5" stroke-linecap="round" stroke-linejoin="round" />
        <path d="M398.83 66.1396C403.83 66.1396 403.83 69.3397 408.73 69.3397C413.63 69.3397 413.73 66.1396 418.63 66.1396C423.53 66.1396 423.63 69.3397 428.53 69.3397C433.43 69.3397 433.53 66.1396 438.43 66.1396C443.33 66.1396 443.43 69.3397 448.33 69.3397C453.23 69.3397 453.33 66.1396 458.23 66.1396C463.13 66.1396 463.23 69.3397 468.13 69.3397C473.03 69.3397 473.13 66.1396 478.03 66.1396C482.93 66.1396 483.03 69.3397 487.93 69.3397C492.83 69.3397 492.93 66.1396 497.83 66.1396C502.73 66.1396 502.83 69.3397 507.74 69.3397C512.65 69.3397 512.74 66.1396 517.64 66.1396C522.54 66.1396 522.64 69.3397 527.55 69.3397C532.46 69.3397 532.55 66.1396 537.46 66.1396" id="Shape" fill="#FFFFFF" fill-rule="evenodd" stroke="#0860A8" stroke-width="1.5" stroke-linecap="round" stroke-linejoin="round" />
        <path d="M398.83 73.0801C403.83 73.0801 403.83 76.2801 408.73 76.2801C413.63 76.2801 413.73 73.0801 418.63 73.0801C423.53 73.0801 423.63 76.2801 428.53 76.2801C433.43 76.2801 433.53 73.0801 438.43 73.0801C443.33 73.0801 443.43 76.2801 448.33 76.2801C453.23 76.2801 453.33 73.0801 458.23 73.0801C463.13 73.0801 463.23 76.2801 468.13 76.2801C473.03 76.2801 473.13 73.0801 478.03 73.0801C482.93 73.0801 483.03 76.2801 487.93 76.2801C492.83 76.2801 492.93 73.0801 497.83 73.0801C502.73 73.0801 502.83 76.2801 507.74 76.2801C512.65 76.2801 512.74 73.0801 517.64 73.0801C522.54 73.0801 522.64 76.2801 527.55 76.2801C532.46 76.2801 532.55 73.0801 537.46 73.0801" id="Shape" fill="#FFFFFF" fill-rule="evenodd" stroke="#0860A8" stroke-width="1.5" stroke-linecap="round" stroke-linejoin="round" />
        <path d="M398.83 73.0801C403.83 73.0801 403.83 76.2801 408.73 76.2801C413.63 76.2801 413.73 73.0801 418.63 73.0801C423.53 73.0801 423.63 76.2801 428.53 76.2801C433.43 76.2801 433.53 73.0801 438.43 73.0801C443.33 73.0801 443.43 76.2801 448.33 76.2801C453.23 76.2801 453.33 73.0801 458.23 73.0801C463.13 73.0801 463.23 76.2801 468.13 76.2801C473.03 76.2801 473.13 73.0801 478.03 73.0801C482.93 73.0801 483.03 76.2801 487.93 76.2801C492.83 76.2801 492.93 73.0801 497.83 73.0801C502.73 73.0801 502.83 76.2801 507.74 76.2801C512.65 76.2801 512.74 73.0801 517.64 73.0801C522.54 73.0801 522.64 76.2801 527.55 76.2801C532.46 76.2801 532.55 73.0801 537.46 73.0801" id="Shape" fill="#FFFFFF" fill-rule="evenodd" stroke="#0860A8" stroke-width="1.5" stroke-linecap="round" stroke-linejoin="round" />
        <path d="M374.461 177.69L563.771 177.69" id="Line" fill="none" fill-rule="evenodd" stroke="#0860A8" stroke-width="1.5" stroke-linecap="round" stroke-linejoin="round" />
        <path d="M398.881 85.6104L537.491 85.6104L537.491 177.7L398.881 177.7L398.881 85.6104Z" id="Rectangle" fill="#FFFFFF" fill-rule="evenodd" stroke="#0860A8" stroke-width="1.5" stroke-linecap="round" stroke-linejoin="round" />
        <path d="M395.699 79.7598L541.179 79.7598L541.179 85.6298L395.699 85.6298L395.699 79.7598Z" id="Rectangle" fill="#FFFFFF" fill-rule="evenodd" stroke="#0860A8" stroke-width="1.5" stroke-linecap="round" stroke-linejoin="round" />
        <path d="M420.83 85.6298L420.83 79.7598" id="Line" fill="none" fill-rule="evenodd" stroke="#0860A8" stroke-width="1.5" stroke-linecap="round" stroke-linejoin="round" />
        <path d="M423.83 79.7598L423.83 85.6098" id="Line" fill="none" fill-rule="evenodd" stroke="#0860A8" stroke-width="1.5" stroke-linecap="round" stroke-linejoin="round" />
        <path d="M514.42 85.6298L514.42 79.7598" id="Line" fill="none" fill-rule="evenodd" stroke="#0860A8" stroke-width="1.5" stroke-linecap="round" stroke-linejoin="round" />
        <path d="M517.42 79.7598L517.42 85.6098" id="Line" fill="none" fill-rule="evenodd" stroke="#0860A8" stroke-width="1.5" stroke-linecap="round" stroke-linejoin="round" />
        <path d="M467.301 85.6298L467.301 79.7598" id="Line" fill="none" fill-rule="evenodd" stroke="#0860A8" stroke-width="1.5" stroke-linecap="round" stroke-linejoin="round" />
        <path d="M470.301 79.7598L470.301 85.6098" id="Line" fill="none" fill-rule="evenodd" stroke="#0860A8" stroke-width="1.5" stroke-linecap="round" stroke-linejoin="round" />
        <path d="M410.381 171.68L484.441 171.68L484.441 177.47L410.381 177.47L410.381 171.68Z" id="Rectangle" fill="#FFFFFF" fill-rule="evenodd" stroke="#0860A8" stroke-width="1.5" stroke-linecap="round" stroke-linejoin="round" />
        <path d="M496.189 112.74L523.579 112.74L523.579 177.05L496.189 177.05L496.189 112.74Z" id="Rectangle" fill="#FFFFFF" fill-rule="evenodd" stroke="#0860A8" stroke-width="1.5" stroke-linecap="round" stroke-linejoin="round" />
        <path d="M499.16 148.13L520.77 148.13L520.77 174.57L499.16 174.57L499.16 148.13Z" id="Rectangle" fill="#FFFFFF" fill-rule="evenodd" stroke="#0860A8" stroke-width="1.5" stroke-linecap="round" stroke-linejoin="round" />
        <path d="M511.131 152.65L513.531 156.1" id="Line" fill="none" fill-rule="evenodd" stroke="#0860A8" stroke-width="1.5" stroke-linecap="round" stroke-linejoin="round" />
        <path d="M514.33 152.65L516.74 156.1" id="Line" fill="none" fill-rule="evenodd" stroke="#0860A8" stroke-width="1.5" stroke-linecap="round" stroke-linejoin="round" />
        <path d="M499.16 116.03L520.77 116.03L520.77 140.87L499.16 140.87L499.16 116.03Z" id="Rectangle" fill="#FFFFFF" fill-rule="evenodd" stroke="#0860A8" stroke-width="1.5" stroke-linecap="round" stroke-linejoin="round" />
        <path d="M499.16 144.1L503.16 144.1" id="Line" fill="none" fill-rule="evenodd" stroke="#0860A8" stroke-width="1.5" stroke-linecap="round" stroke-linejoin="round" />
        <path d="M413.33 112.74L481.5 112.74L481.5 171.67L413.33 171.67L413.33 112.74Z" id="Rectangle" fill="#FFFFFF" fill-rule="evenodd" stroke="#0860A8" stroke-width="1.5" stroke-linecap="round" stroke-linejoin="round" />
        <path d="M417.699 117.4L477.129 117.4L477.129 172.17L417.699 172.17L417.699 117.4Z" id="Rectangle" fill="#FFFFFF" fill-rule="evenodd" stroke="#0860A8" stroke-width="1.5" stroke-linecap="round" stroke-linejoin="round" />
        <path d="M406.721 117.63C410.521 117.63 410.521 122.43 414.331 122.43C418.141 122.43 418.141 117.63 421.941 117.63C425.741 117.63 425.751 122.43 429.551 122.43C433.351 122.43 433.361 117.63 437.161 117.63C440.961 117.63 440.971 122.43 444.771 122.43C448.571 122.43 448.581 117.63 452.381 117.63C456.181 117.63 456.191 122.43 459.991 122.43C463.791 122.43 463.801 117.63 467.601 117.63C471.401 117.63 471.411 122.43 475.211 122.43C479.011 122.43 479.021 117.63 482.821 117.63C486.621 117.63 486.631 122.43 490.431 122.43C494.231 122.43 494.241 117.63 498.041 117.63C501.841 117.63 501.851 122.43 505.661 122.43C509.471 122.43 509.471 117.63 513.271 117.63C517.07 117.63 517.081 122.43 520.891 122.43C524.701 122.43 524.701 117.63 528.51 117.63L528.51 97.46L406.721 97.46L406.721 117.63L406.721 117.63Z" id="Shape" fill="#FFFFFF" fill-rule="evenodd" stroke="#0860A8" stroke-width="1.5" stroke-linecap="round" stroke-linejoin="round" />
        <path d="M542.51 177.471L537.57 177.471L537.57 86.2705L542.51 86.2705L542.51 177.471Z" id="Rectangle" fill="#FFFFFF" fill-rule="evenodd" stroke="#0860A8" stroke-width="1.5" stroke-linecap="round" stroke-linejoin="round" />
        <path d="M542.51 91.87L544.78 86L537.58 86L537.58 91.87L542.51 91.87L542.51 91.87Z" id="Polygon" fill="#FFFFFF" fill-rule="evenodd" stroke="#0860A8" stroke-width="1.5" stroke-linecap="round" stroke-linejoin="round" />
        <path d="M542.51 107.55L537.57 107.55L537.57 103.61L542.51 103.61L542.51 107.55Z" id="Rectangle" fill="#FFFFFF" fill-rule="evenodd" stroke="#0860A8" stroke-width="1.5" stroke-linecap="round" stroke-linejoin="round" />
        <path d="M542.51 153.38L537.57 153.38L537.57 149.44L542.51 149.44L542.51 153.38Z" id="Rectangle" fill="#FFFFFF" fill-rule="evenodd" stroke="#0860A8" stroke-width="1.5" stroke-linecap="round" stroke-linejoin="round" />
        <path d="M462.58 129.94L464.98 133.38" id="Line" fill="none" fill-rule="evenodd" stroke="#0860A8" stroke-width="1.5" stroke-linecap="round" stroke-linejoin="round" />
        <path d="M465.779 129.94L468.189 133.38" id="Line" fill="none" fill-rule="evenodd" stroke="#0860A8" stroke-width="1.5" stroke-linecap="round" stroke-linejoin="round" />
        <path d="M428.529 129.94L430.929 133.38" id="Line" fill="none" fill-rule="evenodd" stroke="#0860A8" stroke-width="1.5" stroke-linecap="round" stroke-linejoin="round" />
        <path d="M431.73 129.94L434.14 133.38" id="Line" fill="none" fill-rule="evenodd" stroke="#0860A8" stroke-width="1.5" stroke-linecap="round" stroke-linejoin="round" />
        <path d="M416.211 97.6396L416.211 122.44" id="Line" fill="none" fill-rule="evenodd" stroke="#0860A8" stroke-width="1.5" stroke-linecap="round" stroke-linejoin="round" />
        <path d="M425.58 97.5498L423.58 117.63" id="Line" fill="none" fill-rule="evenodd" stroke="#0860A8" stroke-width="1.5" stroke-linecap="round" stroke-linejoin="round" />
        <path d="M440.91 97.5498L438.91 117.63" id="Line" fill="none" fill-rule="evenodd" stroke="#0860A8" stroke-width="1.5" stroke-linecap="round" stroke-linejoin="round" />
        <path d="M454.6 97.5498L452.6 117.63" id="Line" fill="none" fill-rule="evenodd" stroke="#0860A8" stroke-width="1.5" stroke-linecap="round" stroke-linejoin="round" />
        <path d="M469.93 97.5498L467.93 117.63" id="Line" fill="none" fill-rule="evenodd" stroke="#0860A8" stroke-width="1.5" stroke-linecap="round" stroke-linejoin="round" />
        <path d="M485.26 97.5498L483.26 117.63" id="Line" fill="none" fill-rule="evenodd" stroke="#0860A8" stroke-width="1.5" stroke-linecap="round" stroke-linejoin="round" />
        <path d="M500.59 97.5498L498.59 117.63" id="Line" fill="none" fill-rule="evenodd" stroke="#0860A8" stroke-width="1.5" stroke-linecap="round" stroke-linejoin="round" />
        <path d="M515.92 97.5498L513.92 117.63" id="Line" fill="none" fill-rule="evenodd" stroke="#0860A8" stroke-width="1.5" stroke-linecap="round" stroke-linejoin="round" />
        <path d="M431.369 97.6396L431.369 122.44" id="Line" fill="none" fill-rule="evenodd" stroke="#0860A8" stroke-width="1.5" stroke-linecap="round" stroke-linejoin="round" />
        <path d="M444.891 97.6396L444.891 122.44" id="Line" fill="none" fill-rule="evenodd" stroke="#0860A8" stroke-width="1.5" stroke-linecap="round" stroke-linejoin="round" />
        <path d="M460.051 97.6396L460.051 122.44" id="Line" fill="none" fill-rule="evenodd" stroke="#0860A8" stroke-width="1.5" stroke-linecap="round" stroke-linejoin="round" />
        <path d="M475.211 97.6396L475.211 122.44" id="Line" fill="none" fill-rule="evenodd" stroke="#0860A8" stroke-width="1.5" stroke-linecap="round" stroke-linejoin="round" />
        <path d="M490.369 97.6396L490.369 122.44" id="Line" fill="none" fill-rule="evenodd" stroke="#0860A8" stroke-width="1.5" stroke-linecap="round" stroke-linejoin="round" />
        <path d="M505.529 97.6396L505.529 122.44" id="Line" fill="none" fill-rule="evenodd" stroke="#0860A8" stroke-width="1.5" stroke-linecap="round" stroke-linejoin="round" />
        <path d="M520.68 97.6396L520.68 122.44" id="Line" fill="none" fill-rule="evenodd" stroke="#0860A8" stroke-width="1.5" stroke-linecap="round" stroke-linejoin="round" />
      </g>
    </g>
    <g id="Group-38" transform="translate(206.99805 42.76953)">
      <path d="M24.1953 31.999L153.195 31.999L157.695 54.499L156.195 58.999L156.195 67.499L154.695 71.6886L154.695 79.5149L154.695 158.999L22.6953 158.999L23.1953 79.999L22.6953 72.999L19.6953 67.499L19.6953 58.999L19.6953 53.499L24.1953 31.999Z" id="Rectangle-6" fill="#000000" fill-opacity="0.91764706" fill-rule="evenodd" stroke="none" />
      <g id="Group-37">
        <path d="M0 0L180 0L180 180L0 180L0 0Z" id="Rectangle-2" fill="none" fill-rule="evenodd" stroke="none" />
        <g id="Group-10" transform="translate(19.199219 20.40039)">
          <g id="Group-10" transform="translate(3.8632812 53.38867)">
            <g id="Group">
              <path d="M102.469 55.3008L108.269 55.3008L108.269 61.0213L102.469 61.0213L102.469 55.3008Z" id="Rectangle-2" fill="#64717C" fill-rule="evenodd" stroke="none" />
              <path d="M0 5.72055C0 5.72055 5.00878 7.15068 9.35878 5.72055C13.7088 4.29041 17.4 0 17.4 0C17.4 0 19.8167 4.29041 24.1667 5.72055C26.1808 6.38272 31.8114 6.48851 33.8333 5.72055C37.5987 4.29041 41.5667 0 41.5667 0C41.5667 0 44.4667 4.29041 48.3333 5.72055C49.9042 6.30154 54.594 6.56969 57.0333 5.72055C61.1417 4.29041 64.7667 0 64.7667 0C64.7667 0 69.3583 4.29041 73.4667 5.72055C75.3518 6.37678 79.1076 6.49445 81.2 5.72055C85.0667 4.29041 88.9333 0 88.9333 0C88.9333 0 92.5041 4.29041 96.6233 5.72055C98.4687 6.36124 102.25 6.50998 104.4 5.72055C108.295 4.29041 112.133 0 112.133 0C113.972 1.11729 115.844 4.29041 120.435 5.72055C125.027 7.15068 131.467 5.72055 131.467 5.72055L131.467 85.8082L117.929 85.8082L117.929 41.0735C117.929 32.1219 110.139 24.8652 100.529 24.8652C90.9192 24.8652 83.1289 32.1219 83.1289 41.0735L83.1289 85.8082L0 85.8082L0 5.72055ZM83.1289 85.8082L83.1289 85.8118L117.929 85.8118L117.929 85.8082L83.1289 85.8082ZM101.498 16.6853C101.498 15.3689 102.58 14.3018 103.915 14.3018C105.249 14.3018 106.331 15.3689 106.331 16.6853C106.331 18.0017 105.249 19.0689 103.915 19.0689C102.58 19.0689 101.498 18.0017 101.498 16.6853ZM111.907 17.0159C112.073 17.0551 112.315 17.1429 112.136 17.1622C111.651 16.9865 111.741 16.9768 111.907 17.0159ZM112.136 17.1622L112.136 17.1623C121.165 20.436 125.67 30.5102 125.67 30.5102L121.803 32.4171C121.803 32.4171 121.884 32.9632 119.867 29.5573C117.851 26.1514 110.203 20.976 110.203 20.976L110.208 19.0694C110.041 18.3012 111.008 17.2691 112.13 17.1628L112.136 17.1622ZM9.66602 51.4871L9.66602 30.5117L36.7327 30.5117L36.7327 51.4871L9.66602 51.4871ZM40.5898 51.4871L40.5898 30.5117L67.6565 30.5117L67.6565 51.4871L40.5898 51.4871ZM9.66602 76.2761L9.66602 55.3008L36.7327 55.3008L36.7327 76.2761L9.66602 76.2761ZM40.5898 76.2761L40.5898 55.3008L67.6565 55.3008L67.6565 76.2761L40.5898 76.2761Z" id="Group-10-Xor-Xor" fill="#64717C" fill-rule="evenodd" stroke="none" />
            </g>
          </g>
          <path d="M117.938 45.7651C117.938 42.7582 117.938 38.1377 117.938 38.1377L137.271 38.1377C137.271 38.1377 137.271 40.4995 137.271 45.7651C137.271 51.0307 132.943 55.2993 127.604 55.2993C122.265 55.2993 117.938 51.0307 117.938 45.7651Z" id="Ellipse" fill="#0A4E85" fill-rule="evenodd" stroke="none" />
          <path d="M94.7344 45.7651C94.7344 42.7582 94.7344 38.1377 94.7344 38.1377L114.068 38.1377C114.068 38.1377 114.068 40.4995 114.068 45.7651C114.068 51.0307 109.74 55.2993 104.401 55.2993C99.0623 55.2993 94.7344 51.0307 94.7344 45.7651Z" id="Ellipse-Copy" fill="#269FFF" fill-rule="evenodd" stroke="none" />
          <path d="M71.5313 45.7651C71.5313 42.7582 71.5313 38.1377 71.5313 38.1377L90.8646 38.1377C90.8646 38.1377 90.8646 40.4995 90.8646 45.7651C90.8646 51.0307 86.5367 55.2993 81.1979 55.2993C75.8592 55.2993 71.5313 51.0307 71.5313 45.7651Z" id="Ellipse-Copy-2" fill="#0A4E85" fill-rule="evenodd" stroke="none" />
          <path d="M46.4023 45.7651C46.4023 42.7582 46.4023 38.1377 46.4023 38.1377L65.7357 38.1377C65.7357 38.1377 65.7357 40.4995 65.7357 45.7651C65.7357 51.0307 61.4078 55.2993 56.069 55.2993C50.7303 55.2993 46.4023 51.0307 46.4023 45.7651Z" id="Ellipse-Copy-3" fill="#269FFF" fill-rule="evenodd" stroke="none" />
          <path d="M23.1992 45.7651C23.1992 42.7582 23.1992 38.1377 23.1992 38.1377L42.5325 38.1377C42.5325 38.1377 42.5325 40.4995 42.5325 45.7651C42.5325 51.0307 38.2046 55.2993 32.8659 55.2993C27.5271 55.2993 23.1992 51.0307 23.1992 45.7651Z" id="Ellipse-Copy-4" fill="#0A4E85" fill-rule="evenodd" stroke="none" />
          <path d="M0 45.7651C0 42.7582 0 38.1377 0 38.1377L19.3333 38.1377C19.3333 38.1377 19.3333 40.4995 19.3333 45.7651C19.3333 51.0307 15.0054 55.2993 9.66666 55.2993C4.32791 55.2993 0 51.0307 0 45.7651Z" id="Ellipse-Copy-5" fill="#269FFF" fill-rule="evenodd" stroke="none" />
          <path d="M0 34.3216L4.83333 11.4395L22.2333 11.4395L19.3333 34.3216L0 34.3216Z" id="New-shape" fill="#269FFF" fill-rule="evenodd" stroke="none" />
          <path d="M24.168 34.3216L27.068 11.4395L43.5013 11.4395L41.568 34.3216L24.168 34.3216Z" id="New-shape-Copy" fill="#0A4E85" fill-rule="evenodd" stroke="none" />
          <path d="M47.3633 34.3216L48.3299 11.4395L66.6966 11.4395L66.6966 34.3216L47.3633 34.3216Z" id="New-shape-Copy-2" fill="#269FFF" fill-rule="evenodd" stroke="none" />
          <path d="M71.5313 34.3216L71.5313 11.4395L87.9646 11.4395L89.8979 34.3216L71.5313 34.3216Z" id="New-shape-Copy-3" fill="#0A4E85" fill-rule="evenodd" stroke="none" />
          <path d="M94.7322 34.3216L92.7988 11.4395L111.165 11.4395L114.065 34.3216L94.7322 34.3216Z" id="New-shape-Copy-4" fill="#269FFF" fill-rule="evenodd" stroke="none" />
          <path d="M120.838 34.3216L117.938 11.4395L134.371 11.4395L139.204 34.3216L120.838 34.3216Z" id="New-shape-Copy-5" fill="#0A4E85" fill-rule="evenodd" stroke="none" />
          <path d="M0 0L22.2333 0L22.2333 3.8137L0 3.8137L0 0Z" id="Rectangle-2" fill="#269FFF" fill-rule="evenodd" stroke="none" />
          <path d="M26.0996 0L33.8329 0L33.8329 3.8137L26.0996 3.8137L26.0996 0Z" id="Rectangle-2-Copy" fill="#0A4E85" fill-rule="evenodd" stroke="none" />
        </g>
      </g>
    </g>
  </g>
</svg>