<?xml version="1.0" encoding="utf-8"?>
<svg width="471px" height="228px" viewBox="0 0 471 228" version="1.1" xmlns:xlink="http://www.w3.org/1999/xlink" xmlns="http://www.w3.org/2000/svg">
  <defs>
    <path d="M0 0L469.46 0L469.46 226.36L0 226.36L0 0Z" id="path_1" />
    <clipPath id="mask_1">
      <use xlink:href="#path_1" />
    </clipPath>
  </defs>
  <g id="Group-17" transform="translate(0.5 0.5)">
    <g id="visuelPG-Copy">
      <path d="M0 0L469.46 0L469.46 226.36L0 226.36L0 0Z" id="Background" fill="none" fill-rule="evenodd" stroke="none" />
      <g clip-path="url(#mask_1)">
        <path d="M257.684 158.07L455.484 158.07" id="Line" fill="none" fill-rule="evenodd" stroke="#269FFF" stroke-width="1" stroke-linecap="round" stroke-linejoin="round" />
        <path d="M305.594 84.9102L423.284 84.9102L423.284 158.08L305.594 158.08L305.594 84.9102Z" id="Rectangle" fill="#FFFFFF" fill-rule="evenodd" stroke="#269FFF" stroke-width="1" stroke-linecap="round" stroke-linejoin="round" />
        <path d="M320.344 97.6699L408.824 97.6699L408.824 158.08L320.344 158.08L320.344 97.6699Z" id="Rectangle" fill="#FFFFFF" fill-rule="evenodd" stroke="#269FFF" stroke-width="1" stroke-linecap="round" stroke-linejoin="round" />
        <path d="M305.594 78.6699L427.254 78.6699L427.254 84.9099L305.594 84.9099L305.594 78.6699Z" id="Rectangle" fill="#FFFFFF" fill-rule="evenodd" stroke="#269FFF" stroke-width="1" stroke-linecap="round" stroke-linejoin="round" />
        <path d="M305.594 38.96L423.284 38.96L423.284 78.66L305.594 78.66L305.594 38.96Z" id="Rectangle" fill="#FFFFFF" fill-rule="evenodd" stroke="#269FFF" stroke-width="1" stroke-linecap="round" stroke-linejoin="round" />
        <path d="M305.924 41.8398C310.114 41.8398 310.114 45.2398 314.314 45.2398C318.514 45.2398 318.504 41.8398 322.694 41.8398C326.884 41.8398 326.884 45.2398 331.074 45.2398C335.264 45.2398 335.264 41.8398 339.464 41.8398C343.664 41.8398 343.654 45.2398 347.854 45.2398C352.054 45.2398 352.044 41.8398 356.244 41.8398C360.444 41.8398 360.434 45.2398 364.634 45.2398C368.834 45.2398 368.824 41.8398 373.014 41.8398C377.204 41.8398 377.204 45.2398 381.394 45.2398C385.584 45.2398 385.584 41.8398 389.784 41.8398C393.984 41.8398 393.974 45.2398 398.174 45.2398C402.374 45.2398 402.364 41.8398 406.564 41.8398C410.764 41.8398 410.764 45.2398 414.954 45.2398C419.144 45.2398 419.154 41.8398 423.344 41.8398" id="Shape" fill="#FFFFFF" fill-rule="evenodd" stroke="#269FFF" stroke-width="1" stroke-linecap="round" stroke-linejoin="round" />
        <path d="M305.924 41.8398C310.114 41.8398 310.114 45.2398 314.314 45.2398C318.514 45.2398 318.504 41.8398 322.694 41.8398C326.884 41.8398 326.884 45.2398 331.074 45.2398C335.264 45.2398 335.264 41.8398 339.464 41.8398C343.664 41.8398 343.654 45.2398 347.854 45.2398C352.054 45.2398 352.044 41.8398 356.244 41.8398C360.444 41.8398 360.434 45.2398 364.634 45.2398C368.834 45.2398 368.824 41.8398 373.014 41.8398C377.204 41.8398 377.204 45.2398 381.394 45.2398C385.584 45.2398 385.584 41.8398 389.784 41.8398C393.984 41.8398 393.974 45.2398 398.174 45.2398C402.374 45.2398 402.364 41.8398 406.564 41.8398C410.764 41.8398 410.764 45.2398 414.954 45.2398C419.144 45.2398 419.154 41.8398 423.344 41.8398" id="Shape" fill="#FFFFFF" fill-rule="evenodd" stroke="#269FFF" stroke-width="1" stroke-linecap="round" stroke-linejoin="round" />
        <path d="M305.924 49.1699C310.114 49.1699 310.114 52.5699 314.314 52.5699C318.514 52.5699 318.504 49.1699 322.694 49.1699C326.884 49.1699 326.884 52.5699 331.074 52.5699C335.264 52.5699 335.264 49.1699 339.464 49.1699C343.664 49.1699 343.654 52.5699 347.854 52.5699C352.054 52.5699 352.044 49.1699 356.244 49.1699C360.444 49.1699 360.434 52.5699 364.634 52.5699C368.834 52.5699 368.824 49.1699 373.014 49.1699C377.204 49.1699 377.204 52.5699 381.394 52.5699C385.584 52.5699 385.584 49.1699 389.784 49.1699C393.984 49.1699 393.974 52.5699 398.174 52.5699C402.374 52.5699 402.364 49.1699 406.564 49.1699C410.764 49.1699 410.764 52.5699 414.954 52.5699C419.144 52.5699 419.154 49.1699 423.344 49.1699" id="Shape" fill="#FFFFFF" fill-rule="evenodd" stroke="#269FFF" stroke-width="1" stroke-linecap="round" stroke-linejoin="round" />
        <path d="M305.924 49.1699C310.114 49.1699 310.114 52.5699 314.314 52.5699C318.514 52.5699 318.504 49.1699 322.694 49.1699C326.884 49.1699 326.884 52.5699 331.074 52.5699C335.264 52.5699 335.264 49.1699 339.464 49.1699C343.664 49.1699 343.654 52.5699 347.854 52.5699C352.054 52.5699 352.044 49.1699 356.244 49.1699C360.444 49.1699 360.434 52.5699 364.634 52.5699C368.834 52.5699 368.824 49.1699 373.014 49.1699C377.204 49.1699 377.204 52.5699 381.394 52.5699C385.584 52.5699 385.584 49.1699 389.784 49.1699C393.984 49.1699 393.974 52.5699 398.174 52.5699C402.374 52.5699 402.364 49.1699 406.564 49.1699C410.764 49.1699 410.764 52.5699 414.954 52.5699C419.144 52.5699 419.154 49.1699 423.344 49.1699" id="Shape" fill="#FFFFFF" fill-rule="evenodd" stroke="#269FFF" stroke-width="1" stroke-linecap="round" stroke-linejoin="round" />
        <path d="M305.924 56.54C310.114 56.54 310.114 59.94 314.314 59.94C318.514 59.94 318.504 56.54 322.694 56.54C326.884 56.54 326.884 59.94 331.074 59.94C335.264 59.94 335.264 56.54 339.464 56.54C343.664 56.54 343.654 59.94 347.854 59.94C352.054 59.94 352.044 56.54 356.244 56.54C360.444 56.54 360.434 59.94 364.634 59.94C368.834 59.94 368.824 56.54 373.014 56.54C377.204 56.54 377.204 59.94 381.394 59.94C385.584 59.94 385.584 56.54 389.784 56.54C393.984 56.54 393.974 59.94 398.174 59.94C402.374 59.94 402.364 56.54 406.564 56.54C410.764 56.54 410.764 59.94 414.954 59.94C419.144 59.94 419.154 56.54 423.344 56.54" id="Shape" fill="#FFFFFF" fill-rule="evenodd" stroke="#269FFF" stroke-width="1" stroke-linecap="round" stroke-linejoin="round" />
        <path d="M305.924 56.54C310.114 56.54 310.114 59.94 314.314 59.94C318.514 59.94 318.504 56.54 322.694 56.54C326.884 56.54 326.884 59.94 331.074 59.94C335.264 59.94 335.264 56.54 339.464 56.54C343.664 56.54 343.654 59.94 347.854 59.94C352.054 59.94 352.044 56.54 356.244 56.54C360.444 56.54 360.434 59.94 364.634 59.94C368.834 59.94 368.824 56.54 373.014 56.54C377.204 56.54 377.204 59.94 381.394 59.94C385.584 59.94 385.584 56.54 389.784 56.54C393.984 56.54 393.974 59.94 398.174 59.94C402.374 59.94 402.364 56.54 406.564 56.54C410.764 56.54 410.764 59.94 414.954 59.94C419.144 59.94 419.154 56.54 423.344 56.54" id="Shape" fill="#FFFFFF" fill-rule="evenodd" stroke="#269FFF" stroke-width="1" stroke-linecap="round" stroke-linejoin="round" />
        <path d="M305.924 63.9199C310.114 63.9199 310.114 67.3199 314.314 67.3199C318.514 67.3199 318.504 63.9199 322.694 63.9199C326.884 63.9199 326.884 67.3199 331.074 67.3199C335.264 67.3199 335.264 63.9199 339.464 63.9199C343.664 63.9199 343.654 67.3199 347.854 67.3199C352.054 67.3199 352.044 63.9199 356.244 63.9199C360.444 63.9199 360.434 67.3199 364.634 67.3199C368.834 67.3199 368.824 63.9199 373.014 63.9199C377.204 63.9199 377.204 67.3199 381.394 67.3199C385.584 67.3199 385.584 63.9199 389.784 63.9199C393.984 63.9199 393.974 67.3199 398.174 67.3199C402.374 67.3199 402.364 63.9199 406.564 63.9199C410.764 63.9199 410.764 67.3199 414.954 67.3199C419.144 67.3199 419.154 63.9199 423.344 63.9199" id="Shape" fill="#FFFFFF" fill-rule="evenodd" stroke="#269FFF" stroke-width="1" stroke-linecap="round" stroke-linejoin="round" />
        <path d="M305.924 63.9199C310.114 63.9199 310.114 67.3199 314.314 67.3199C318.514 67.3199 318.504 63.9199 322.694 63.9199C326.884 63.9199 326.884 67.3199 331.074 67.3199C335.264 67.3199 335.264 63.9199 339.464 63.9199C343.664 63.9199 343.654 67.3199 347.854 67.3199C352.054 67.3199 352.044 63.9199 356.244 63.9199C360.444 63.9199 360.434 67.3199 364.634 67.3199C368.834 67.3199 368.824 63.9199 373.014 63.9199C377.204 63.9199 377.204 67.3199 381.394 67.3199C385.584 67.3199 385.584 63.9199 389.784 63.9199C393.984 63.9199 393.974 67.3199 398.174 67.3199C402.374 67.3199 402.364 63.9199 406.564 63.9199C410.764 63.9199 410.764 67.3199 414.954 67.3199C419.144 67.3199 419.154 63.9199 423.344 63.9199" id="Shape" fill="#FFFFFF" fill-rule="evenodd" stroke="#269FFF" stroke-width="1" stroke-linecap="round" stroke-linejoin="round" />
        <path d="M305.924 71.29C310.114 71.29 310.114 74.69 314.314 74.69C318.514 74.69 318.504 71.29 322.694 71.29C326.884 71.29 326.884 74.69 331.074 74.69C335.264 74.69 335.264 71.29 339.464 71.29C343.664 71.29 343.654 74.69 347.854 74.69C352.054 74.69 352.044 71.29 356.244 71.29C360.444 71.29 360.434 74.69 364.634 74.69C368.834 74.69 368.824 71.29 373.014 71.29C377.204 71.29 377.204 74.69 381.394 74.69C385.584 74.69 385.584 71.29 389.784 71.29C393.984 71.29 393.974 74.69 398.174 74.69C402.374 74.69 402.364 71.29 406.564 71.29C410.764 71.29 410.764 74.69 414.954 74.69C419.144 74.69 419.154 71.29 423.344 71.29" id="Shape" fill="#FFFFFF" fill-rule="evenodd" stroke="#269FFF" stroke-width="1" stroke-linecap="round" stroke-linejoin="round" />
        <path d="M305.924 71.29C310.114 71.29 310.114 74.69 314.314 74.69C318.514 74.69 318.504 71.29 322.694 71.29C326.884 71.29 326.884 74.69 331.074 74.69C335.264 74.69 335.264 71.29 339.464 71.29C343.664 71.29 343.654 74.69 347.854 74.69C352.054 74.69 352.044 71.29 356.244 71.29C360.444 71.29 360.434 74.69 364.634 74.69C368.834 74.69 368.824 71.29 373.014 71.29C377.204 71.29 377.204 74.69 381.394 74.69C385.584 74.69 385.584 71.29 389.784 71.29C393.984 71.29 393.974 74.69 398.174 74.69C402.374 74.69 402.364 71.29 406.564 71.29C410.764 71.29 410.764 74.69 414.954 74.69C419.144 74.69 419.154 71.29 423.344 71.29" id="Shape" fill="#FFFFFF" fill-rule="evenodd" stroke="#269FFF" stroke-width="1" stroke-linecap="round" stroke-linejoin="round" />
        <path d="M320.344 154.45L408.374 154.45" id="Line" fill="none" fill-rule="evenodd" stroke="#269FFF" stroke-width="1" stroke-linecap="round" stroke-linejoin="round" />
        <path d="M320.344 151.1L408.374 151.1" id="Line" fill="none" fill-rule="evenodd" stroke="#269FFF" stroke-width="1" stroke-linecap="round" stroke-linejoin="round" />
        <path d="M320.344 147.75L408.374 147.75" id="Line" fill="none" fill-rule="evenodd" stroke="#269FFF" stroke-width="1" stroke-linecap="round" stroke-linejoin="round" />
        <path d="M320.344 144.39L408.374 144.39" id="Line" fill="none" fill-rule="evenodd" stroke="#269FFF" stroke-width="1" stroke-linecap="round" stroke-linejoin="round" />
        <path d="M320.344 141.04L408.374 141.04" id="Line" fill="none" fill-rule="evenodd" stroke="#269FFF" stroke-width="1" stroke-linecap="round" stroke-linejoin="round" />
        <path d="M320.344 137.69L408.374 137.69" id="Line" fill="none" fill-rule="evenodd" stroke="#269FFF" stroke-width="1" stroke-linecap="round" stroke-linejoin="round" />
        <path d="M320.344 134.33L408.374 134.33" id="Line" fill="none" fill-rule="evenodd" stroke="#269FFF" stroke-width="1" stroke-linecap="round" stroke-linejoin="round" />
        <path d="M320.344 130.98L408.374 130.98" id="Line" fill="none" fill-rule="evenodd" stroke="#269FFF" stroke-width="1" stroke-linecap="round" stroke-linejoin="round" />
        <path d="M320.344 127.63L408.374 127.63" id="Line" fill="none" fill-rule="evenodd" stroke="#269FFF" stroke-width="1" stroke-linecap="round" stroke-linejoin="round" />
        <path d="M320.344 124.271L408.374 124.271" id="Line" fill="none" fill-rule="evenodd" stroke="#269FFF" stroke-width="1" stroke-linecap="round" stroke-linejoin="round" />
        <path d="M320.344 120.92L408.374 120.92" id="Line" fill="none" fill-rule="evenodd" stroke="#269FFF" stroke-width="1" stroke-linecap="round" stroke-linejoin="round" />
        <path d="M320.344 117.57L408.374 117.57" id="Line" fill="none" fill-rule="evenodd" stroke="#269FFF" stroke-width="1" stroke-linecap="round" stroke-linejoin="round" />
        <path d="M320.344 114.21L408.374 114.21" id="Line" fill="none" fill-rule="evenodd" stroke="#269FFF" stroke-width="1" stroke-linecap="round" stroke-linejoin="round" />
        <path d="M320.344 110.86L408.374 110.86" id="Line" fill="none" fill-rule="evenodd" stroke="#269FFF" stroke-width="1" stroke-linecap="round" stroke-linejoin="round" />
        <path d="M320.344 107.51L408.374 107.51" id="Line" fill="none" fill-rule="evenodd" stroke="#269FFF" stroke-width="1" stroke-linecap="round" stroke-linejoin="round" />
        <path d="M320.344 104.15L408.374 104.15" id="Line" fill="none" fill-rule="evenodd" stroke="#269FFF" stroke-width="1" stroke-linecap="round" stroke-linejoin="round" />
        <path d="M320.344 100.8L408.374 100.8" id="Line" fill="none" fill-rule="evenodd" stroke="#269FFF" stroke-width="1" stroke-linecap="round" stroke-linejoin="round" />
        <path d="M320.344 84.9099L320.344 78.6699" id="Line" fill="none" fill-rule="evenodd" stroke="#269FFF" stroke-width="1" stroke-linecap="round" stroke-linejoin="round" />
        <path d="M323.533 78.6699L323.533 84.8899" id="Line" fill="none" fill-rule="evenodd" stroke="#269FFF" stroke-width="1" stroke-linecap="round" stroke-linejoin="round" />
        <path d="M405.184 84.9099L405.184 78.6699" id="Line" fill="none" fill-rule="evenodd" stroke="#269FFF" stroke-width="1" stroke-linecap="round" stroke-linejoin="round" />
        <path d="M408.373 78.6699L408.373 84.8899" id="Line" fill="none" fill-rule="evenodd" stroke="#269FFF" stroke-width="1" stroke-linecap="round" stroke-linejoin="round" />
        <path d="M362.764 84.9099L362.764 78.6699" id="Line" fill="none" fill-rule="evenodd" stroke="#269FFF" stroke-width="1" stroke-linecap="round" stroke-linejoin="round" />
        <path d="M365.953 78.6699L365.953 84.8899" id="Line" fill="none" fill-rule="evenodd" stroke="#269FFF" stroke-width="1" stroke-linecap="round" stroke-linejoin="round" />
        <path d="M429.164 158.08L423.914 158.08L423.914 84.9102L429.164 84.9102L429.164 158.08Z" id="Rectangle" fill="#FFFFFF" fill-rule="evenodd" stroke="#269FFF" stroke-width="1" stroke-linecap="round" stroke-linejoin="round" />
        <path d="M429.164 90.8601L431.574 84.6201L423.914 84.6201L423.914 90.8601L429.164 90.8601L429.164 90.8601Z" id="Polygon" fill="#FFFFFF" fill-rule="evenodd" stroke="#269FFF" stroke-width="1" stroke-linecap="round" stroke-linejoin="round" />
        <path d="M429.164 120.64L423.914 120.64L423.914 116.45L429.164 116.45L429.164 120.64Z" id="Rectangle" fill="#FFFFFF" fill-opacity="0.68" fill-rule="evenodd" stroke="#269FFF" stroke-opacity="0.68" stroke-width="1" stroke-linecap="round" stroke-linejoin="round" />
        <path d="M-0.976563 159.8L199.703 159.8" id="Line" fill="none" fill-rule="evenodd" stroke="#269FFF" stroke-width="1" stroke-linecap="round" stroke-linejoin="round" />
        <path d="M27.043 85.5703L146.443 85.5703L146.443 159.8L27.043 159.8L27.043 85.5703Z" id="Rectangle" fill="#FFFFFF" fill-rule="evenodd" stroke="#269FFF" stroke-width="1" stroke-linecap="round" stroke-linejoin="round" />
        <path d="M42.0039 98.5205L131.774 98.5205L131.774 159.801L42.0039 159.801L42.0039 98.5205Z" id="Rectangle" fill="#FFFFFF" fill-rule="evenodd" stroke="#269FFF" stroke-width="1" stroke-linecap="round" stroke-linejoin="round" />
        <path d="M27.043 79.2402L150.473 79.2402L150.473 85.5702L27.043 85.5702L27.043 79.2402Z" id="Rectangle" fill="#FFFFFF" fill-rule="evenodd" stroke="#269FFF" stroke-width="1" stroke-linecap="round" stroke-linejoin="round" />
        <path d="M27.043 38.96L146.443 38.96L146.443 79.24L27.043 79.24L27.043 38.96Z" id="Rectangle" fill="#FFFFFF" fill-rule="evenodd" stroke="#269FFF" stroke-width="1" stroke-linecap="round" stroke-linejoin="round" />
        <path d="M27.3828 41.8398C31.6328 41.8398 31.6328 45.2899 35.8928 45.2899C40.1528 45.2899 40.1428 41.8398 44.4028 41.8398C48.6628 41.8398 48.6528 45.2899 52.9128 45.2899C57.1729 45.2899 57.1628 41.8398 61.4228 41.8398C65.6829 41.8398 65.6729 45.2899 69.9329 45.2899C74.1929 45.2899 74.1829 41.8398 78.4429 41.8398C82.7029 41.8398 82.6929 45.2899 86.9529 45.2899C91.2129 45.2899 91.2029 41.8398 95.4629 41.8398C99.7229 41.8398 99.7129 45.2899 103.973 45.2899C108.233 45.2899 108.223 41.8398 112.483 41.8398C116.743 41.8398 116.743 45.2899 120.993 45.2899C125.243 45.2899 125.243 41.8398 129.503 41.8398C133.763 41.8398 133.763 45.2899 138.013 45.2899C142.263 45.2899 142.273 41.8398 146.523 41.8398" id="Shape" fill="#FFFFFF" fill-rule="evenodd" stroke="#269FFF" stroke-width="1" stroke-linecap="round" stroke-linejoin="round" />
        <path d="M27.3828 41.8398C31.6328 41.8398 31.6328 45.2899 35.8928 45.2899C40.1528 45.2899 40.1428 41.8398 44.4028 41.8398C48.6628 41.8398 48.6528 45.2899 52.9128 45.2899C57.1729 45.2899 57.1628 41.8398 61.4228 41.8398C65.6829 41.8398 65.6729 45.2899 69.9329 45.2899C74.1929 45.2899 74.1829 41.8398 78.4429 41.8398C82.7029 41.8398 82.6929 45.2899 86.9529 45.2899C91.2129 45.2899 91.2029 41.8398 95.4629 41.8398C99.7229 41.8398 99.7129 45.2899 103.973 45.2899C108.233 45.2899 108.223 41.8398 112.483 41.8398C116.743 41.8398 116.743 45.2899 120.993 45.2899C125.243 45.2899 125.243 41.8398 129.503 41.8398C133.763 41.8398 133.763 45.2899 138.013 45.2899C142.263 45.2899 142.273 41.8398 146.523 41.8398" id="Shape" fill="#FFFFFF" fill-rule="evenodd" stroke="#269FFF" stroke-width="1" stroke-linecap="round" stroke-linejoin="round" />
        <path d="M27.3828 49.3203C31.6328 49.3203 31.6328 52.7703 35.8928 52.7703C40.1528 52.7703 40.1428 49.3203 44.4028 49.3203C48.6628 49.3203 48.6528 52.7703 52.9128 52.7703C57.1729 52.7703 57.1628 49.3203 61.4228 49.3203C65.6829 49.3203 65.6729 52.7703 69.9329 52.7703C74.1929 52.7703 74.1829 49.3203 78.4429 49.3203C82.7029 49.3203 82.6929 52.7703 86.9529 52.7703C91.2129 52.7703 91.2029 49.3203 95.4629 49.3203C99.7229 49.3203 99.7129 52.7703 103.973 52.7703C108.233 52.7703 108.223 49.3203 112.483 49.3203C116.743 49.3203 116.743 52.7703 120.993 52.7703C125.243 52.7703 125.243 49.3203 129.503 49.3203C133.763 49.3203 133.763 52.7703 138.013 52.7703C142.263 52.7703 142.273 49.3203 146.523 49.3203" id="Shape" fill="#FFFFFF" fill-rule="evenodd" stroke="#269FFF" stroke-width="1" stroke-linecap="round" stroke-linejoin="round" />
        <path d="M27.3828 49.3203C31.6328 49.3203 31.6328 52.7703 35.8928 52.7703C40.1528 52.7703 40.1428 49.3203 44.4028 49.3203C48.6628 49.3203 48.6528 52.7703 52.9128 52.7703C57.1729 52.7703 57.1628 49.3203 61.4228 49.3203C65.6829 49.3203 65.6729 52.7703 69.9329 52.7703C74.1929 52.7703 74.1829 49.3203 78.4429 49.3203C82.7029 49.3203 82.6929 52.7703 86.9529 52.7703C91.2129 52.7703 91.2029 49.3203 95.4629 49.3203C99.7229 49.3203 99.7129 52.7703 103.973 52.7703C108.233 52.7703 108.223 49.3203 112.483 49.3203C116.743 49.3203 116.743 52.7703 120.993 52.7703C125.243 52.7703 125.243 49.3203 129.503 49.3203C133.763 49.3203 133.763 52.7703 138.013 52.7703C142.263 52.7703 142.273 49.3203 146.523 49.3203" id="Shape" fill="#FFFFFF" fill-rule="evenodd" stroke="#269FFF" stroke-width="1" stroke-linecap="round" stroke-linejoin="round" />
        <path d="M27.3828 56.8398C31.6328 56.8398 31.6328 60.2899 35.8928 60.2899C40.1528 60.2899 40.1428 56.8398 44.4028 56.8398C48.6628 56.8398 48.6528 60.2899 52.9128 60.2899C57.1729 60.2899 57.1628 56.8398 61.4228 56.8398C65.6829 56.8398 65.6729 60.2899 69.9329 60.2899C74.1929 60.2899 74.1829 56.8398 78.4429 56.8398C82.7029 56.8398 82.6929 60.2899 86.9529 60.2899C91.2129 60.2899 91.2029 56.8398 95.4629 56.8398C99.7229 56.8398 99.7129 60.2899 103.973 60.2899C108.233 60.2899 108.223 56.8398 112.483 56.8398C116.743 56.8398 116.743 60.2899 120.993 60.2899C125.243 60.2899 125.243 56.8398 129.503 56.8398C133.763 56.8398 133.763 60.2899 138.013 60.2899C142.263 60.2899 142.273 56.8398 146.523 56.8398" id="Shape" fill="#FFFFFF" fill-rule="evenodd" stroke="#269FFF" stroke-width="1" stroke-linecap="round" stroke-linejoin="round" />
        <path d="M27.3828 56.8398C31.6328 56.8398 31.6328 60.2899 35.8928 60.2899C40.1528 60.2899 40.1428 56.8398 44.4028 56.8398C48.6628 56.8398 48.6528 60.2899 52.9128 60.2899C57.1729 60.2899 57.1628 56.8398 61.4228 56.8398C65.6829 56.8398 65.6729 60.2899 69.9329 60.2899C74.1929 60.2899 74.1829 56.8398 78.4429 56.8398C82.7029 56.8398 82.6929 60.2899 86.9529 60.2899C91.2129 60.2899 91.2029 56.8398 95.4629 56.8398C99.7229 56.8398 99.7129 60.2899 103.973 60.2899C108.233 60.2899 108.223 56.8398 112.483 56.8398C116.743 56.8398 116.743 60.2899 120.993 60.2899C125.243 60.2899 125.243 56.8398 129.503 56.8398C133.763 56.8398 133.763 60.2899 138.013 60.2899C142.263 60.2899 142.273 56.8398 146.523 56.8398" id="Shape" fill="#FFFFFF" fill-rule="evenodd" stroke="#269FFF" stroke-width="1" stroke-linecap="round" stroke-linejoin="round" />
        <path d="M27.3828 64.2803C31.6328 64.2803 31.6328 67.7303 35.8928 67.7303C40.1528 67.7303 40.1428 64.2803 44.4028 64.2803C48.6628 64.2803 48.6528 67.7303 52.9128 67.7303C57.1729 67.7303 57.1628 64.2803 61.4228 64.2803C65.6829 64.2803 65.6729 67.7303 69.9329 67.7303C74.1929 67.7303 74.1829 64.2803 78.4429 64.2803C82.7029 64.2803 82.6929 67.7303 86.9529 67.7303C91.2129 67.7303 91.2029 64.2803 95.4629 64.2803C99.7229 64.2803 99.7129 67.7303 103.973 67.7303C108.233 67.7303 108.223 64.2803 112.483 64.2803C116.743 64.2803 116.743 67.7303 120.993 67.7303C125.243 67.7303 125.243 64.2803 129.503 64.2803C133.763 64.2803 133.763 67.7303 138.013 67.7303C142.263 67.7303 142.273 64.2803 146.523 64.2803" id="Shape" fill="#FFFFFF" fill-rule="evenodd" stroke="#269FFF" stroke-width="1" stroke-linecap="round" stroke-linejoin="round" />
        <path d="M27.3828 64.2803C31.6328 64.2803 31.6328 67.7303 35.8928 67.7303C40.1528 67.7303 40.1428 64.2803 44.4028 64.2803C48.6628 64.2803 48.6528 67.7303 52.9128 67.7303C57.1729 67.7303 57.1628 64.2803 61.4228 64.2803C65.6829 64.2803 65.6729 67.7303 69.9329 67.7303C74.1929 67.7303 74.1829 64.2803 78.4429 64.2803C82.7029 64.2803 82.6929 67.7303 86.9529 67.7303C91.2129 67.7303 91.2029 64.2803 95.4629 64.2803C99.7229 64.2803 99.7129 67.7303 103.973 67.7303C108.233 67.7303 108.223 64.2803 112.483 64.2803C116.743 64.2803 116.743 67.7303 120.993 67.7303C125.243 67.7303 125.243 64.2803 129.503 64.2803C133.763 64.2803 133.763 67.7303 138.013 67.7303C142.263 67.7303 142.273 64.2803 146.523 64.2803" id="Shape" fill="#FFFFFF" fill-rule="evenodd" stroke="#269FFF" stroke-width="1" stroke-linecap="round" stroke-linejoin="round" />
        <path d="M27.3828 71.7598C31.6328 71.7598 31.6328 75.2098 35.8928 75.2098C40.1528 75.2098 40.1428 71.7598 44.4028 71.7598C48.6628 71.7598 48.6528 75.2098 52.9128 75.2098C57.1729 75.2098 57.1628 71.7598 61.4228 71.7598C65.6829 71.7598 65.6729 75.2098 69.9329 75.2098C74.1929 75.2098 74.1829 71.7598 78.4429 71.7598C82.7029 71.7598 82.6929 75.2098 86.9529 75.2098C91.2129 75.2098 91.2029 71.7598 95.4629 71.7598C99.7229 71.7598 99.7129 75.2098 103.973 75.2098C108.233 75.2098 108.223 71.7598 112.483 71.7598C116.743 71.7598 116.743 75.2098 120.993 75.2098C125.243 75.2098 125.243 71.7598 129.503 71.7598C133.763 71.7598 133.763 75.2098 138.013 75.2098C142.263 75.2098 142.273 71.7598 146.523 71.7598" id="Shape" fill="#FFFFFF" fill-rule="evenodd" stroke="#269FFF" stroke-width="1" stroke-linecap="round" stroke-linejoin="round" />
        <path d="M27.3828 71.7598C31.6328 71.7598 31.6328 75.2098 35.8928 75.2098C40.1528 75.2098 40.1428 71.7598 44.4028 71.7598C48.6628 71.7598 48.6528 75.2098 52.9128 75.2098C57.1729 75.2098 57.1628 71.7598 61.4228 71.7598C65.6829 71.7598 65.6729 75.2098 69.9329 75.2098C74.1929 75.2098 74.1829 71.7598 78.4429 71.7598C82.7029 71.7598 82.6929 75.2098 86.9529 75.2098C91.2129 75.2098 91.2029 71.7598 95.4629 71.7598C99.7229 71.7598 99.7129 75.2098 103.973 75.2098C108.233 75.2098 108.223 71.7598 112.483 71.7598C116.743 71.7598 116.743 75.2098 120.993 75.2098C125.243 75.2098 125.243 71.7598 129.503 71.7598C133.763 71.7598 133.763 75.2098 138.013 75.2098C142.263 75.2098 142.273 71.7598 146.523 71.7598" id="Shape" fill="#FFFFFF" fill-rule="evenodd" stroke="#269FFF" stroke-width="1" stroke-linecap="round" stroke-linejoin="round" />
        <path d="M46.3125 112.17C46.3125 108.127 49.5898 104.85 53.6325 104.85C57.6752 104.85 60.9525 108.127 60.9525 112.17C60.9525 116.212 57.6752 119.49 53.6325 119.49C49.5898 119.49 46.3125 116.212 46.3125 112.17Z" id="Circle" fill="#FFFFFF" fill-rule="evenodd" stroke="#269FFF" stroke-width="1" stroke-linecap="round" stroke-linejoin="round" />
        <path d="M68.6934 112.17C68.6934 108.127 71.9706 104.85 76.0134 104.85C80.0561 104.85 83.3334 108.127 83.3334 112.17C83.3334 116.212 80.0561 119.49 76.0134 119.49C71.9706 119.49 68.6934 116.212 68.6934 112.17Z" id="Circle" fill="#FFFFFF" fill-rule="evenodd" stroke="#269FFF" stroke-width="1" stroke-linecap="round" stroke-linejoin="round" />
        <path d="M91.0625 112.17C91.0625 108.127 94.3398 104.85 98.3825 104.85C102.425 104.85 105.702 108.127 105.702 112.17C105.702 116.212 102.425 119.49 98.3825 119.49C94.3398 119.49 91.0625 116.212 91.0625 112.17Z" id="Circle" fill="#FFFFFF" fill-rule="evenodd" stroke="#269FFF" stroke-width="1" stroke-linecap="round" stroke-linejoin="round" />
        <path d="M113.443 112.17C113.443 108.127 116.721 104.85 120.763 104.85C124.806 104.85 128.083 108.127 128.083 112.17C128.083 116.212 124.806 119.49 120.763 119.49C116.721 119.49 113.443 116.212 113.443 112.17Z" id="Circle" fill="#FFFFFF" fill-rule="evenodd" stroke="#269FFF" stroke-width="1" stroke-linecap="round" stroke-linejoin="round" />
        <path d="M64.7324 98.5205L64.7324 159.801" id="Line" fill="none" fill-rule="evenodd" stroke="#269FFF" stroke-width="1" stroke-linecap="round" stroke-linejoin="round" />
        <path d="M86.7441 98.5205L86.7441 159.801" id="Line" fill="none" fill-rule="evenodd" stroke="#269FFF" stroke-width="1" stroke-linecap="round" stroke-linejoin="round" />
        <path d="M109.334 98.5205L109.334 159.801" id="Line" fill="none" fill-rule="evenodd" stroke="#269FFF" stroke-width="1" stroke-linecap="round" stroke-linejoin="round" />
        <path d="M21.7227 85.5703L27.0427 85.5703L27.0427 159.8L21.7227 159.8L21.7227 85.5703Z" id="Rectangle" fill="#FFFFFF" fill-rule="evenodd" stroke="#269FFF" stroke-width="1" stroke-linecap="round" stroke-linejoin="round" />
        <path d="M176.133 160.04L159.023 160.04L155.713 136.3L179.453 136.3L176.133 160.04L176.133 160.04Z" id="Polygon" fill="#FFFFFF" fill-rule="evenodd" stroke="#269FFF" stroke-width="1" stroke-linecap="round" stroke-linejoin="round" />
        <path d="M178.262 117.35C178.262 130.57 173.482 134.78 167.582 134.78C161.682 134.78 156.902 130.56 156.902 117.35C156.902 104.14 161.682 86.9199 167.582 86.9199C173.482 86.9199 178.262 104.13 178.262 117.35L178.262 117.35Z" id="Shape" fill="#FFFFFF" fill-rule="evenodd" stroke="#269FFF" stroke-width="1" stroke-linecap="round" stroke-linejoin="round" />
        <path d="M161.324 109.01C161.104 111.62 162.114 114.24 164.964 114.24" id="Shape" fill="#FFFFFF" fill-rule="evenodd" stroke="#269FFF" stroke-width="1" stroke-linecap="round" stroke-linejoin="round" />
        <path d="M164.963 122.55C167.153 124.28 171.903 125.36 174.053 122.55" id="Shape" fill="#FFFFFF" fill-rule="evenodd" stroke="#269FFF" stroke-width="1" stroke-linecap="round" stroke-linejoin="round" />
        <path d="M169.514 124.271C169.514 124.271 170.514 128.73 166.514 129.88" id="Shape" fill="#FFFFFF" fill-rule="evenodd" stroke="#269FFF" stroke-width="1" stroke-linecap="round" stroke-linejoin="round" />
        <path d="M174.083 139.88L171.803 156.13" id="Line" fill="none" fill-rule="evenodd" stroke="#269FFF" stroke-width="1" stroke-linecap="round" stroke-linejoin="round" />
        <path d="M51.3223 109L53.9123 112.71" id="Line" fill="none" fill-rule="evenodd" stroke="#269FFF" stroke-width="1" stroke-linecap="round" stroke-linejoin="round" />
        <path d="M54.7734 109L57.3634 112.71" id="Line" fill="none" fill-rule="evenodd" stroke="#269FFF" stroke-width="1" stroke-linecap="round" stroke-linejoin="round" />
        <path d="M73.7324 109L76.3224 112.71" id="Line" fill="none" fill-rule="evenodd" stroke="#269FFF" stroke-width="1" stroke-linecap="round" stroke-linejoin="round" />
        <path d="M77.1934 109L79.7734 112.71" id="Line" fill="none" fill-rule="evenodd" stroke="#269FFF" stroke-width="1" stroke-linecap="round" stroke-linejoin="round" />
        <path d="M96.1523 109L98.7423 112.71" id="Line" fill="none" fill-rule="evenodd" stroke="#269FFF" stroke-width="1" stroke-linecap="round" stroke-linejoin="round" />
        <path d="M99.6035 109L102.194 112.71" id="Line" fill="none" fill-rule="evenodd" stroke="#269FFF" stroke-width="1" stroke-linecap="round" stroke-linejoin="round" />
        <path d="M118.563 109L121.153 112.71" id="Line" fill="none" fill-rule="evenodd" stroke="#269FFF" stroke-width="1" stroke-linecap="round" stroke-linejoin="round" />
        <path d="M122.014 109L124.604 112.71" id="Line" fill="none" fill-rule="evenodd" stroke="#269FFF" stroke-width="1" stroke-linecap="round" stroke-linejoin="round" />
        <path d="M42.0039 85.5702L42.0039 79.2402" id="Line" fill="none" fill-rule="evenodd" stroke="#269FFF" stroke-width="1" stroke-linecap="round" stroke-linejoin="round" />
        <path d="M45.2441 79.2402L45.2441 85.5602" id="Line" fill="none" fill-rule="evenodd" stroke="#269FFF" stroke-width="1" stroke-linecap="round" stroke-linejoin="round" />
        <path d="M128.072 85.5702L128.072 79.2402" id="Line" fill="none" fill-rule="evenodd" stroke="#269FFF" stroke-width="1" stroke-linecap="round" stroke-linejoin="round" />
        <path d="M131.313 79.2402L131.313 85.5602" id="Line" fill="none" fill-rule="evenodd" stroke="#269FFF" stroke-width="1" stroke-linecap="round" stroke-linejoin="round" />
        <path d="M85.043 85.5702L85.043 79.2402" id="Line" fill="none" fill-rule="evenodd" stroke="#269FFF" stroke-width="1" stroke-linecap="round" stroke-linejoin="round" />
        <path d="M88.2734 79.2402L88.2734 85.5602" id="Line" fill="none" fill-rule="evenodd" stroke="#269FFF" stroke-width="1" stroke-linecap="round" stroke-linejoin="round" />
        <path d="M21.7234 91.62L19.2734 85.29L27.0434 85.29L27.0434 91.62L21.7234 91.62L21.7234 91.62Z" id="Polygon" fill="#FFFFFF" fill-rule="evenodd" stroke="#269FFF" stroke-width="1" stroke-linecap="round" stroke-linejoin="round" />
        <path d="M21.7227 117.57L27.0427 117.57L27.0427 121.82L21.7227 121.82L21.7227 117.57Z" id="Rectangle" fill="#FFFFFF" fill-opacity="0.68" fill-rule="evenodd" stroke="#269FFF" stroke-opacity="0.68" stroke-width="1" stroke-linecap="round" stroke-linejoin="round" />
        <path d="M120.143 158.38L335.503 158.38" id="Line" fill="none" fill-rule="evenodd" stroke="#269FFF" stroke-width="1" stroke-linecap="round" stroke-linejoin="round" />
        <path d="M151.883 6.79004L305.333 6.79004L305.333 158.02L151.883 158.02L151.883 6.79004Z" id="Rectangle" fill="#FFFFFF" fill-rule="evenodd" stroke="#269FFF" stroke-width="1" stroke-linecap="round" stroke-linejoin="round" />
        <path d="M148.273 0.530273L309.313 0.530273L309.313 7.18027L148.273 7.18027L148.273 0.530273Z" id="Rectangle" fill="#FFFFFF" fill-rule="evenodd" stroke="#269FFF" stroke-width="1" stroke-linecap="round" stroke-linejoin="round" />
        <path d="M182.264 7.18027L182.264 0.530273" id="Line" fill="none" fill-rule="evenodd" stroke="#269FFF" stroke-width="1" stroke-linecap="round" stroke-linejoin="round" />
        <path d="M185.664 0.530273L185.664 7.17027" id="Line" fill="none" fill-rule="evenodd" stroke="#269FFF" stroke-width="1" stroke-linecap="round" stroke-linejoin="round" />
        <path d="M272.732 7.18027L272.732 0.530273" id="Line" fill="none" fill-rule="evenodd" stroke="#269FFF" stroke-width="1" stroke-linecap="round" stroke-linejoin="round" />
        <path d="M276.133 0.530273L276.133 7.17027" id="Line" fill="none" fill-rule="evenodd" stroke="#269FFF" stroke-width="1" stroke-linecap="round" stroke-linejoin="round" />
        <path d="M227.494 7.18027L227.494 0.530273" id="Line" fill="none" fill-rule="evenodd" stroke="#269FFF" stroke-width="1" stroke-linecap="round" stroke-linejoin="round" />
        <path d="M230.902 0.530273L230.902 7.17027" id="Line" fill="none" fill-rule="evenodd" stroke="#269FFF" stroke-width="1" stroke-linecap="round" stroke-linejoin="round" />
        <path d="M196.844 92.5596L260.534 92.5596L260.534 136.81L196.844 136.81L196.844 92.5596Z" id="Rectangle" fill="#FFFFFF" fill-rule="evenodd" stroke="#269FFF" stroke-width="0.98" stroke-linecap="round" stroke-linejoin="round" />
        <path d="M192.844 136.7L264.244 136.7L264.244 143.26L192.844 143.26L192.844 136.7Z" id="Rectangle" fill="#FFFFFF" fill-rule="evenodd" stroke="#269FFF" stroke-width="0.98" stroke-linecap="round" stroke-linejoin="round" />
        <path d="M215.664 100.67L217.974 104.58" id="Line" fill="none" fill-rule="evenodd" stroke="#269FFF" stroke-width="0.98" stroke-linecap="round" stroke-linejoin="round" />
        <path d="M218.744 100.67L221.054 104.58" id="Line" fill="none" fill-rule="evenodd" stroke="#269FFF" stroke-width="0.98" stroke-linecap="round" stroke-linejoin="round" />
        <path d="M248.313 100.67L250.622 104.58" id="Line" fill="none" fill-rule="evenodd" stroke="#269FFF" stroke-width="0.98" stroke-linecap="round" stroke-linejoin="round" />
        <path d="M251.393 100.67L253.703 104.58" id="Line" fill="none" fill-rule="evenodd" stroke="#269FFF" stroke-width="0.98" stroke-linecap="round" stroke-linejoin="round" />
        <path d="M199.703 95.5498L227.413 95.5498L227.413 133.99L199.703 133.99L199.703 95.5498Z" id="Rectangle" fill="#FFFFFF" fill-rule="evenodd" stroke="#269FFF" stroke-width="0.98" stroke-linecap="round" stroke-linejoin="round" />
        <path d="M229.973 95.5498L257.683 95.5498L257.683 133.99L229.973 133.99L229.973 95.5498Z" id="Rectangle" fill="#FFFFFF" fill-rule="evenodd" stroke="#269FFF" stroke-width="0.98" stroke-linecap="round" stroke-linejoin="round" />
        <path d="M146.354 6.54004L151.944 6.54004L151.944 157.1L146.354 157.1L146.354 6.54004Z" id="Rectangle" fill="#FFFFFF" fill-rule="evenodd" stroke="#269FFF" stroke-width="0.98" stroke-linecap="round" stroke-linejoin="round" />
        <path d="M146.353 12.9002L143.783 6.24023L151.953 6.24023L151.953 12.9002L146.353 12.9002L146.353 12.9002Z" id="Polygon" fill="#FFFFFF" fill-rule="evenodd" stroke="#269FFF" stroke-width="0.98" stroke-linecap="round" stroke-linejoin="round" />
        <path d="M146.354 78.7803L151.944 78.7803L151.944 83.2503L146.354 83.2503L146.354 78.7803Z" id="Rectangle" fill="#FFFFFF" fill-rule="evenodd" stroke="#269FFF" stroke-width="0.98" stroke-linecap="round" stroke-linejoin="round" />
        <path d="M146.354 36.6504L151.944 36.6504L151.944 41.1204L146.354 41.1204L146.354 36.6504Z" id="Rectangle" fill="#FFFFFF" fill-rule="evenodd" stroke="#269FFF" stroke-width="0.98" stroke-linecap="round" stroke-linejoin="round" />
        <path d="M146.354 123.73L151.944 123.73L151.944 128.2L146.354 128.2L146.354 123.73Z" id="Rectangle" fill="#FFFFFF" fill-rule="evenodd" stroke="#269FFF" stroke-width="0.98" stroke-linecap="round" stroke-linejoin="round" />
        <path d="M170.334 92.5596L194.824 92.5596L194.824 133.99L170.334 133.99L170.334 92.5596Z" id="Rectangle" fill="#FFFFFF" fill-rule="evenodd" stroke="#269FFF" stroke-width="0.98" stroke-linecap="round" stroke-linejoin="round" />
        <path d="M173.594 97.0996L191.564 97.0996L191.564 101.57L173.594 101.57L173.594 97.0996Z" id="Rectangle" fill="#FFFFFF" fill-rule="evenodd" stroke="#269FFF" stroke-width="0.98" stroke-linecap="round" stroke-linejoin="round" />
        <path d="M173.594 124.65L191.564 124.65L191.564 129.12L173.594 129.12L173.594 124.65Z" id="Rectangle" fill="#FFFFFF" fill-rule="evenodd" stroke="#269FFF" stroke-width="0.98" stroke-linecap="round" stroke-linejoin="round" />
        <path d="M173.594 101.57L186.354 124.55L191.564 124.65L178.594 101.57L173.594 101.57L173.594 101.57Z" id="Polygon" fill="#FFFFFF" fill-rule="evenodd" stroke="#269FFF" stroke-width="0.98" stroke-linecap="round" stroke-linejoin="round" />
        <path d="M286.883 133.99L262.393 133.99L262.393 92.5596L286.883 92.5596L286.883 133.99Z" id="Rectangle" fill="#FFFFFF" fill-rule="evenodd" stroke="#269FFF" stroke-width="0.98" stroke-linecap="round" stroke-linejoin="round" />
        <path d="M283.622 101.57L265.652 101.57L265.652 97.0996L283.622 97.0996L283.622 101.57Z" id="Rectangle" fill="#FFFFFF" fill-rule="evenodd" stroke="#269FFF" stroke-width="0.98" stroke-linecap="round" stroke-linejoin="round" />
        <path d="M283.622 129.12L265.652 129.12L265.652 124.65L283.622 124.65L283.622 129.12Z" id="Rectangle" fill="#FFFFFF" fill-rule="evenodd" stroke="#269FFF" stroke-width="0.98" stroke-linecap="round" stroke-linejoin="round" />
        <path d="M283.622 101.57L270.852 124.55L265.652 124.65L278.622 101.57L283.622 101.57L283.622 101.57Z" id="Polygon" fill="#FFFFFF" fill-rule="evenodd" stroke="#269FFF" stroke-width="0.98" stroke-linecap="round" stroke-linejoin="round" />
        <path d="M438.053 144.47L443.723 144.47L443.723 158.24L438.053 158.24L438.053 144.47Z" id="Rectangle" fill="#FFFFFF" fill-rule="evenodd" stroke="#269FFF" stroke-width="0.98" stroke-linecap="round" stroke-linejoin="round" />
        <path d="M463.134 115.57C464.671 113.015 465.483 110.091 465.484 107.11C465.486 102.03 463.147 97.234 459.143 94.1093C460.614 92.0229 461.404 89.5326 461.404 86.9797C461.402 82.4977 458.987 78.3633 455.084 76.1599C456.136 74.5294 456.695 72.6301 456.694 70.6898C456.696 66.2455 453.806 62.318 449.563 60.9995C449.985 59.9505 450.203 58.8305 450.204 57.6998C450.204 52.7845 446.219 48.7998 441.304 48.7998C436.388 48.7998 432.404 52.7844 432.404 57.6998C432.406 58.641 432.558 59.576 432.854 60.4697C428.34 61.8176 425.246 65.9687 425.244 70.6797C425.241 72.796 425.872 74.8646 427.054 76.6198C422.852 78.5432 420.157 82.7387 420.154 87.3597C420.154 89.6014 420.795 91.7979 422.003 93.6884C417.734 95.9079 415.055 100.318 415.054 105.13C415.053 108.624 416.472 111.966 418.985 114.391C415.494 117.52 413.424 121.39 413.424 125.68C413.424 135.94 425.534 144.27 440.424 144.27C455.314 144.27 467.424 135.95 467.424 125.68C467.354 121.882 465.816 118.259 463.134 115.57L463.134 115.57Z" id="Shape" fill="#FFFFFF" fill-rule="evenodd" stroke="#269FFF" stroke-width="0.98" stroke-linecap="round" stroke-linejoin="round" />
        <path d="M427.934 93.5001C431.17 93.4275 434.122 91.6315 435.674 88.79" id="Shape" fill="#FFFFFF" fill-rule="evenodd" stroke="#269FFF" stroke-width="0.98" stroke-linecap="round" stroke-linejoin="round" />
        <path d="M442.273 91.3305C437.269 91.3305 433.213 87.2742 433.213 82.2705" id="Shape" fill="#FFFFFF" fill-rule="evenodd" stroke="#269FFF" stroke-width="0.98" stroke-linecap="round" stroke-linejoin="round" />
        <path d="M456.233 128.64C453.567 126.801 452.088 123.678 452.353 120.45" id="Shape" fill="#FFFFFF" fill-rule="evenodd" stroke="#269FFF" stroke-width="0.98" stroke-linecap="round" stroke-linejoin="round" />
        <path d="M449.913 68.1699C447.398 70.2104 443.985 70.7519 440.963 69.5899" id="Shape" fill="#FFFFFF" fill-rule="evenodd" stroke="#269FFF" stroke-width="0.98" stroke-linecap="round" stroke-linejoin="round" />
        <path d="M445.443 118.96C449.622 121.704 455.234 120.545 457.983 116.37" id="Shape" fill="#FFFFFF" fill-rule="evenodd" stroke="#269FFF" stroke-width="0.98" stroke-linecap="round" stroke-linejoin="round" />
        <path d="M181.063 131.73L184.023 131.73L184.023 136.81L181.063 136.81L181.063 131.73Z" id="Rectangle" fill="#FFFFFF" fill-rule="evenodd" stroke="#269FFF" stroke-width="0.98" stroke-linecap="round" stroke-linejoin="round" />
        <path d="M272.533 131.73L275.493 131.73L275.493 136.81L272.533 136.81L272.533 131.73Z" id="Rectangle" fill="#FFFFFF" fill-rule="evenodd" stroke="#269FFF" stroke-width="0.98" stroke-linecap="round" stroke-linejoin="round" />
        <path d="M196.844 20.5303L260.534 20.5303L260.534 64.7803L196.844 64.7803L196.844 20.5303Z" id="Rectangle" fill="#FFFFFF" fill-rule="evenodd" stroke="#269FFF" stroke-width="0.98" stroke-linecap="round" stroke-linejoin="round" />
        <path d="M192.844 64.6699L264.244 64.6699L264.244 71.2299L192.844 71.2299L192.844 64.6699Z" id="Rectangle" fill="#FFFFFF" fill-rule="evenodd" stroke="#269FFF" stroke-width="0.98" stroke-linecap="round" stroke-linejoin="round" />
        <path d="M215.664 28.6396L217.974 32.5496" id="Line" fill="none" fill-rule="evenodd" stroke="#269FFF" stroke-width="0.98" stroke-linecap="round" stroke-linejoin="round" />
        <path d="M218.744 28.6396L221.054 32.5496" id="Line" fill="none" fill-rule="evenodd" stroke="#269FFF" stroke-width="0.98" stroke-linecap="round" stroke-linejoin="round" />
        <path d="M248.313 28.6396L250.622 32.5496" id="Line" fill="none" fill-rule="evenodd" stroke="#269FFF" stroke-width="0.98" stroke-linecap="round" stroke-linejoin="round" />
        <path d="M251.393 28.6396L253.703 32.5496" id="Line" fill="none" fill-rule="evenodd" stroke="#269FFF" stroke-width="0.98" stroke-linecap="round" stroke-linejoin="round" />
        <path d="M199.703 23.5205L227.413 23.5205L227.413 61.9605L199.703 61.9605L199.703 23.5205Z" id="Rectangle" fill="#FFFFFF" fill-rule="evenodd" stroke="#269FFF" stroke-width="0.98" stroke-linecap="round" stroke-linejoin="round" />
        <path d="M229.973 23.5205L257.683 23.5205L257.683 61.9605L229.973 61.9605L229.973 23.5205Z" id="Rectangle" fill="#FFFFFF" fill-rule="evenodd" stroke="#269FFF" stroke-width="0.98" stroke-linecap="round" stroke-linejoin="round" />
        <path d="M170.334 20.5303L194.824 20.5303L194.824 61.9603L170.334 61.9603L170.334 20.5303Z" id="Rectangle" fill="#FFFFFF" fill-rule="evenodd" stroke="#269FFF" stroke-width="0.98" stroke-linecap="round" stroke-linejoin="round" />
        <path d="M173.594 25.0703L191.564 25.0703L191.564 29.5403L173.594 29.5403L173.594 25.0703Z" id="Rectangle" fill="#FFFFFF" fill-rule="evenodd" stroke="#269FFF" stroke-width="0.98" stroke-linecap="round" stroke-linejoin="round" />
        <path d="M173.594 52.6201L191.564 52.6201L191.564 57.0901L173.594 57.0901L173.594 52.6201Z" id="Rectangle" fill="#FFFFFF" fill-rule="evenodd" stroke="#269FFF" stroke-width="0.98" stroke-linecap="round" stroke-linejoin="round" />
        <path d="M173.594 29.54L186.354 52.52L191.564 52.62L178.594 29.54L173.594 29.54L173.594 29.54Z" id="Polygon" fill="#FFFFFF" fill-rule="evenodd" stroke="#269FFF" stroke-width="0.98" stroke-linecap="round" stroke-linejoin="round" />
        <path d="M286.883 61.9603L262.393 61.9603L262.393 20.5303L286.883 20.5303L286.883 61.9603Z" id="Rectangle" fill="#FFFFFF" fill-rule="evenodd" stroke="#269FFF" stroke-width="0.98" stroke-linecap="round" stroke-linejoin="round" />
        <path d="M283.622 29.5296L265.652 29.5296L265.652 25.0596L283.622 25.0596L283.622 29.5296Z" id="Rectangle" fill="#FFFFFF" fill-rule="evenodd" stroke="#269FFF" stroke-width="0.98" stroke-linecap="round" stroke-linejoin="round" />
        <path d="M283.622 57.0901L265.652 57.0901L265.652 52.6201L283.622 52.6201L283.622 57.0901Z" id="Rectangle" fill="#FFFFFF" fill-rule="evenodd" stroke="#269FFF" stroke-width="0.98" stroke-linecap="round" stroke-linejoin="round" />
        <path d="M283.622 29.54L270.852 52.52L265.652 52.62L278.622 29.54L283.622 29.54L283.622 29.54Z" id="Polygon" fill="#FFFFFF" fill-rule="evenodd" stroke="#269FFF" stroke-width="0.98" stroke-linecap="round" stroke-linejoin="round" />
        <path d="M181.063 59.7002L184.023 59.7002L184.023 64.7802L181.063 64.7802L181.063 59.7002Z" id="Rectangle" fill="#FFFFFF" fill-rule="evenodd" stroke="#269FFF" stroke-width="0.98" stroke-linecap="round" stroke-linejoin="round" />
        <path d="M272.533 59.7002L275.493 59.7002L275.493 64.7802L272.533 64.7802L272.533 59.7002Z" id="Rectangle" fill="#FFFFFF" fill-rule="evenodd" stroke="#269FFF" stroke-width="0.98" stroke-linecap="round" stroke-linejoin="round" />
        <path d="M227.773 142.11C227.773 139.862 229.596 138.04 231.843 138.04C234.091 138.04 235.913 139.862 235.913 142.11C235.913 144.358 234.091 146.18 231.843 146.18C229.596 146.18 227.773 144.358 227.773 142.11Z" id="Circle" fill="#FFFFFF" fill-rule="evenodd" stroke="none" />
        <path d="M150.393 142.37L313.303 109.63" id="Line" fill="none" fill-rule="evenodd" stroke="#FFFFFF" stroke-width="1" />
        <path d="M150.152 110.12L313.062 77.3799" id="Line" fill="none" fill-rule="evenodd" stroke="#FFFFFF" stroke-width="1" />
        <g id="Group-6-Copy-2" transform="translate(132.95703 -1.9404297)">
          <path d="M0 0L211 -7.97741e-06L211 211L7.97741e-06 211L0 0Z" id="Rectangle" fill="none" fill-rule="evenodd" stroke="none" />
        </g>
        <g id="Group-3" transform="translate(155.7207 30.500977)">
          <path d="M174.632 13.623L174.691 141.335Q174.691 141.346 174.691 141.357L174.651 147.126Q174.65 147.272 174.635 147.418Q174.62 147.564 174.59 147.708Q174.561 147.852 174.517 147.992Q174.474 148.132 174.417 148.267Q174.36 148.402 174.291 148.531Q174.221 148.66 174.139 148.782Q174.057 148.904 173.963 149.017Q173.87 149.13 173.766 149.233Q173.662 149.336 173.548 149.429Q173.434 149.522 173.312 149.603Q173.19 149.684 173.061 149.753Q172.931 149.822 172.795 149.878Q172.66 149.934 172.519 149.976Q172.379 150.019 172.235 150.047Q172.091 150.076 171.945 150.09Q171.799 150.104 171.653 150.104L160.015 150.104L159.742 33.4646L23.8088 33.4646L24.0826 150.104L12.7528 150.104Q12.6055 150.104 12.4589 150.09Q12.3123 150.075 12.1678 150.047Q12.0233 150.018 11.8823 149.975Q11.7414 149.932 11.6052 149.876Q11.4691 149.82 11.3392 149.75Q11.2093 149.681 11.0868 149.599Q10.9643 149.517 10.8504 149.424Q10.7365 149.33 10.6323 149.226Q10.5282 149.122 10.4347 149.008Q10.3412 148.894 10.2594 148.771Q10.1775 148.649 10.1081 148.519Q10.0386 148.389 9.98221 148.253Q9.92582 148.117 9.88304 147.976Q9.84027 147.835 9.81151 147.691Q9.78276 147.546 9.7683 147.399Q9.75385 147.253 9.75383 147.105L9.75319 141.347Q9.75319 141.346 9.75319 141.346L9.69473 13.6257Q9.69466 13.4783 9.70905 13.3317Q9.72343 13.185 9.75212 13.0404Q9.78082 12.8959 9.82355 12.7548Q9.86627 12.6138 9.92262 12.4776Q9.97897 12.3414 10.0484 12.2114Q10.1178 12.0814 10.1997 11.9589Q10.2815 11.8363 10.375 11.7224Q10.4684 11.6084 10.5726 11.5042Q10.6768 11.4 10.7907 11.3065Q10.9046 11.2129 11.0271 11.131Q11.1497 11.0491 11.2796 10.9797Q11.4096 10.9102 11.5457 10.8537Q11.6819 10.7973 11.8229 10.7545Q11.9639 10.7117 12.1085 10.683Q12.253 10.6542 12.3997 10.6398Q12.5463 10.6253 12.6937 10.6253L89.9729 10.625L171.633 10.6253Q171.781 10.6253 171.927 10.6398Q172.074 10.6542 172.218 10.6829Q172.363 10.7117 172.504 10.7544Q172.645 10.7971 172.781 10.8535Q172.917 10.9098 173.047 10.9793Q173.177 11.0487 173.299 11.1305Q173.422 11.2123 173.536 11.3057Q173.649 11.3991 173.754 11.5032Q173.858 11.6074 173.951 11.7212Q174.045 11.835 174.127 11.9575Q174.208 12.0799 174.278 12.2098Q174.347 12.3397 174.404 12.4757Q174.46 12.6118 174.503 12.7527Q174.546 12.8936 174.575 13.0381Q174.603 13.1825 174.618 13.3291Q174.632 13.4757 174.632 13.623L174.632 13.623Z" id="New-shape-2" fill="#CFD3D5" fill-rule="evenodd" stroke="none" />
          <g id="Group-18" transform="translate(23.833984 33.365234)">
            <g id="Group-17" transform="translate(0 0.25878906)">
              <path d="M0.129047 0L66.8487 0L66.8487 111.598Q66.8487 111.721 66.8427 111.844Q66.8367 111.966 66.8246 112.088Q66.8126 112.211 66.7946 112.332Q66.7766 112.453 66.7526 112.574Q66.7287 112.694 66.6989 112.813Q66.6691 112.932 66.6334 113.05Q66.5978 113.167 66.5565 113.283Q66.5151 113.398 66.4682 113.512Q66.4212 113.625 66.3687 113.736Q66.3163 113.847 66.2584 113.955Q66.2006 114.063 66.1375 114.168Q66.0744 114.274 66.0062 114.376Q65.938 114.478 65.8649 114.576Q65.7918 114.675 65.714 114.77Q65.6361 114.865 65.5537 114.956Q65.4713 115.047 65.3845 115.133Q65.2977 115.22 65.2068 115.302Q65.1159 115.385 65.021 115.463Q64.9262 115.541 64.8276 115.614Q64.729 115.687 64.627 115.755Q64.525 115.823 64.4197 115.886Q64.3144 115.949 64.2062 116.007Q64.098 116.065 63.987 116.117Q63.8761 116.17 63.7627 116.217Q63.6494 116.264 63.5338 116.305Q63.4183 116.347 63.3008 116.382Q63.1834 116.418 63.0644 116.448Q62.9453 116.477 62.825 116.501Q62.7046 116.525 62.5832 116.543Q62.4618 116.561 62.3397 116.573Q62.2176 116.585 62.095 116.591Q61.9724 116.597 61.8497 116.597L51.2691 116.597L0 116.598L0.129047 0Z" id="Rectangle-2" fill="#64717C" fill-rule="evenodd" stroke="none" />
              <path d="M14.0117 14.3545L23.2689 14.3545L23.2689 47.2579L14.0117 47.2579L14.0117 14.3545Z" id="Rectangle-3" fill="#889097" fill-rule="evenodd" stroke="none" />
              <path d="M29.957 14.3545L39.2143 14.3545L39.2143 47.2579L29.957 47.2579L29.957 14.3545Z" id="Rectangle-3-Copy" fill="#889097" fill-rule="evenodd" stroke="none" />
              <path d="M45.8984 14.3545L55.1557 14.3545L55.1557 47.2579L45.8984 47.2579L45.8984 14.3545Z" id="Rectangle-3-Copy-2" fill="#889097" fill-rule="evenodd" stroke="none" />
              <path d="M14.0117 69.3408L23.2689 69.3408L23.2689 102.244L14.0117 102.244L14.0117 69.3408Z" id="Rectangle-3-Copy-3" fill="#889097" fill-rule="evenodd" stroke="none" />
              <path d="M29.957 69.3408L39.2143 69.3408L39.2143 102.244L29.957 102.244L29.957 69.3408Z" id="Rectangle-3-Copy-4" fill="#889097" fill-rule="evenodd" stroke="none" />
              <path d="M45.8984 69.3408L55.1557 69.3408L55.1557 102.244L45.8984 102.244L45.8984 69.3408Z" id="Rectangle-3-Copy-5" fill="#889097" fill-rule="evenodd" stroke="none" />
              <path d="M50.2012 58.1066C50.2012 56.139 51.7962 54.5439 53.7639 54.5439C55.7315 54.5439 57.3266 56.139 57.3266 58.1066C57.3266 60.0743 55.7315 61.6693 53.7639 61.6693C51.7962 61.6693 50.2012 60.0743 50.2012 58.1066Z" id="Ellipse" fill="#889097" fill-rule="evenodd" stroke="none" />
            </g>
            <g id="Group-17-Copy" transform="matrix(-1 0 0 1 136.16211 0)">
              <path d="M0.000282178 0L65.4241 0.129467L65.4241 111.728Q65.4241 111.851 65.4181 111.973Q65.4121 112.096 65.4001 112.218Q65.388 112.34 65.37 112.461Q65.352 112.583 65.3281 112.703Q65.3041 112.824 65.2743 112.943Q65.2445 113.062 65.2089 113.179Q65.1733 113.296 65.1319 113.412Q65.0906 113.528 65.0436 113.641Q64.9966 113.754 64.9442 113.865Q64.8917 113.976 64.8338 114.084Q64.776 114.193 64.7129 114.298Q64.6498 114.403 64.5816 114.505Q64.5135 114.607 64.4404 114.706Q64.3673 114.804 64.2894 114.899Q64.2116 114.994 64.1291 115.085Q64.0467 115.176 63.96 115.263Q63.8732 115.35 63.7823 115.432Q63.6913 115.514 63.5965 115.592Q63.5016 115.67 63.403 115.743Q63.3045 115.816 63.2024 115.884Q63.1004 115.953 62.9951 116.016Q62.8899 116.079 62.7816 116.137Q62.6734 116.194 62.5625 116.247Q62.4515 116.299 62.3382 116.346Q62.2248 116.393 62.1092 116.435Q61.9937 116.476 61.8763 116.512Q61.7588 116.547 61.6398 116.577Q61.5207 116.607 61.4004 116.631Q61.28 116.655 61.1586 116.673Q61.0372 116.691 60.9151 116.703Q60.793 116.715 60.6704 116.721Q60.5478 116.727 60.4251 116.727L0 116.727L0.000282178 0Z" id="Rectangle-2" fill="#64717C" fill-rule="evenodd" stroke="none" />
              <path d="M13.8848 14.4834L23.142 14.4834L23.142 47.3868L13.8848 47.3868L13.8848 14.4834Z" id="Rectangle-3" fill="#889097" fill-rule="evenodd" stroke="none" />
              <path d="M29.8281 14.4834L39.0854 14.4834L39.0854 47.3868L29.8281 47.3868L29.8281 14.4834Z" id="Rectangle-3-Copy" fill="#889097" fill-rule="evenodd" stroke="none" />
              <path d="M45.7695 14.4834L55.0268 14.4834L55.0268 47.3868L45.7695 47.3868L45.7695 14.4834Z" id="Rectangle-3-Copy-2" fill="#889097" fill-rule="evenodd" stroke="none" />
              <path d="M13.8848 69.4697L23.142 69.4697L23.142 102.373L13.8848 102.373L13.8848 69.4697Z" id="Rectangle-3-Copy-3" fill="#889097" fill-rule="evenodd" stroke="none" />
              <path d="M29.8281 69.4697L39.0854 69.4697L39.0854 102.373L29.8281 102.373L29.8281 69.4697Z" id="Rectangle-3-Copy-4" fill="#889097" fill-rule="evenodd" stroke="none" />
              <path d="M45.7695 69.4697L55.0268 69.4697L55.0268 102.373L45.7695 102.373L45.7695 69.4697Z" id="Rectangle-3-Copy-5" fill="#889097" fill-rule="evenodd" stroke="none" />
              <path d="M50.4629 58.884C50.4629 56.9164 52.058 55.3213 54.0256 55.3213C55.9932 55.3213 57.5883 56.9164 57.5883 58.884C57.5883 60.8516 55.9932 62.4467 54.0256 62.4467C52.058 62.4467 50.4629 60.8516 50.4629 58.884Z" id="Ellipse" fill="#889097" fill-rule="evenodd" stroke="none" />
            </g>
          </g>
          <path d="M2.999 1.13385e-07L182.74 6.90898e-06Q182.888 6.91455e-06 183.034 0.0144479Q183.181 0.0288889 183.325 0.0576319Q183.47 0.0863748 183.611 0.129143Q183.752 0.171911 183.888 0.228292Q184.024 0.284673 184.154 0.354125Q184.284 0.423577 184.406 0.50543Q184.529 0.587283 184.643 0.680749Q184.757 0.774215 184.861 0.878394Q184.965 0.982573 185.059 1.09646Q185.152 1.21035 185.234 1.33285Q185.316 1.45535 185.385 1.58529Q185.455 1.71522 185.511 1.85134Q185.567 1.98746 185.61 2.12844Q185.653 2.26943 185.682 2.41393Q185.71 2.55843 185.725 2.70505Q185.739 2.85168 185.739 2.99901L185.739 14.6411Q185.739 14.7884 185.725 14.935Q185.71 15.0816 185.682 15.2261Q185.653 15.3706 185.61 15.5116Q185.567 15.6526 185.511 15.7887Q185.455 15.9248 185.385 16.0548Q185.316 16.1847 185.234 16.3072Q185.152 16.4297 185.059 16.5436Q184.965 16.6575 184.861 16.7617Q184.757 16.8658 184.643 16.9593Q184.529 17.0528 184.406 17.1346Q184.284 17.2165 184.154 17.2859Q184.024 17.3554 183.888 17.4118Q183.752 17.4682 183.611 17.5109Q183.47 17.5537 183.325 17.5824Q183.181 17.6112 183.034 17.6256Q182.888 17.6401 182.74 17.6401L2.999 17.64Q2.85167 17.64 2.70505 17.6256Q2.55842 17.6112 2.41392 17.5824Q2.26942 17.5537 2.12844 17.5109Q1.98745 17.4681 1.85133 17.4118Q1.71522 17.3554 1.58528 17.2859Q1.45535 17.2165 1.33284 17.1346Q1.21034 17.0528 1.09645 16.9593Q0.982565 16.8658 0.878386 16.7617Q0.774207 16.6575 0.680741 16.5436Q0.587275 16.4297 0.505422 16.3072Q0.423569 16.1847 0.354117 16.0548Q0.284666 15.9248 0.228285 15.7887Q0.171903 15.6526 0.129135 15.5116Q0.0863673 15.3706 0.0576244 15.2261Q0.0288814 15.0816 0.0144404 14.935Q-5.59114e-07 14.7884 -5.53544e-07 14.641L-1.13385e-07 2.999Q-1.07815e-07 2.85167 0.0144409 2.70505Q0.0288819 2.55842 0.0576248 2.41392Q0.0863678 2.26942 0.129136 2.12844Q0.171904 1.98745 0.228285 1.85133Q0.284667 1.71522 0.354118 1.58528Q0.42357 1.45535 0.505423 1.33284Q0.587276 1.21034 0.680742 1.09645Q0.774208 0.982566 0.878387 0.878387Q0.982566 0.774208 1.09645 0.680742Q1.21034 0.587276 1.33284 0.505423Q1.45535 0.42357 1.58528 0.354118Q1.71522 0.284667 1.85133 0.228285Q1.98745 0.171904 2.12844 0.129136Q2.26942 0.0863679 2.41392 0.057625Q2.55842 0.0288821 2.70505 0.0144411Q2.85167 1.07815e-07 2.999 1.13385e-07L2.999 1.13385e-07Z" id="Rectangle" fill="#1976D2" fill-rule="evenodd" stroke="none" />
        </g>
      </g>
    </g>
  </g>
</svg>