<?xml version="1.0" encoding="utf-8"?>
<svg width="471px" height="228px" viewBox="0 0 471 228" version="1.1" xmlns:xlink="http://www.w3.org/1999/xlink" xmlns="http://www.w3.org/2000/svg">
  <defs>
    <path d="M0 0L469.461 0L469.461 226.36L0 226.36L0 0Z" id="path_1" />
    <path d="M0 0L88.2605 0L88.2605 120.116L0 120.116L0 0Z" id="path_2" />
    <clipPath id="clip_1">
      <use xlink:href="#path_2" />
    </clipPath>
    <clipPath id="mask_1">
      <use xlink:href="#path_1" />
    </clipPath>
  </defs>
  <g id="Group-17-Copy" transform="translate(0.5 0.5)">
    <g id="visuelPG-Copy">
      <path d="M0 0L469.461 0L469.461 226.36L0 226.36L0 0Z" id="Background" fill="none" fill-rule="evenodd" stroke="none" />
      <g clip-path="url(#mask_1)">
        <path d="M257.684 158.071L455.485 158.071" id="Line" fill="none" fill-rule="evenodd" stroke="#269FFF" stroke-width="1" stroke-linecap="round" stroke-linejoin="round" />
        <path d="M305.594 84.9103L423.285 84.9103L423.285 158.08L305.594 158.08L305.594 84.9103Z" id="Rectangle" fill="#FFFFFF" fill-rule="evenodd" stroke="#269FFF" stroke-width="1" stroke-linecap="round" stroke-linejoin="round" />
        <path d="M320.344 97.6701L408.825 97.6701L408.825 158.08L320.344 158.08L320.344 97.6701Z" id="Rectangle" fill="#FFFFFF" fill-rule="evenodd" stroke="#269FFF" stroke-width="1" stroke-linecap="round" stroke-linejoin="round" />
        <path d="M305.594 78.67L427.255 78.67L427.255 84.91L305.594 84.91L305.594 78.67Z" id="Rectangle" fill="#FFFFFF" fill-rule="evenodd" stroke="#269FFF" stroke-width="1" stroke-linecap="round" stroke-linejoin="round" />
        <path d="M305.594 38.96L423.285 38.96L423.285 78.6601L305.594 78.6601L305.594 38.96Z" id="Rectangle" fill="#FFFFFF" fill-rule="evenodd" stroke="#269FFF" stroke-width="1" stroke-linecap="round" stroke-linejoin="round" />
        <path d="M305.924 41.8399C310.114 41.8399 310.114 45.2399 314.314 45.2399C318.515 45.2399 318.504 41.8399 322.694 41.8399C326.885 41.8399 326.884 45.2399 331.075 45.2399C335.265 45.2399 335.264 41.8399 339.465 41.8399C343.665 41.8399 343.654 45.2399 347.855 45.2399C352.055 45.2399 352.045 41.8399 356.245 41.8399C360.445 41.8399 360.435 45.2399 364.635 45.2399C368.835 45.2399 368.825 41.8399 373.015 41.8399C377.205 41.8399 377.205 45.2399 381.395 45.2399C385.585 45.2399 385.585 41.8399 389.785 41.8399C393.985 41.8399 393.975 45.2399 398.175 45.2399C402.375 45.2399 402.365 41.8399 406.565 41.8399C410.765 41.8399 410.765 45.2399 414.955 45.2399C419.145 45.2399 419.155 41.8399 423.345 41.8399" id="Shape" fill="#FFFFFF" fill-rule="evenodd" stroke="#269FFF" stroke-width="1" stroke-linecap="round" stroke-linejoin="round" />
        <path d="M305.924 41.8399C310.114 41.8399 310.114 45.2399 314.314 45.2399C318.515 45.2399 318.504 41.8399 322.694 41.8399C326.885 41.8399 326.884 45.2399 331.075 45.2399C335.265 45.2399 335.264 41.8399 339.465 41.8399C343.665 41.8399 343.654 45.2399 347.855 45.2399C352.055 45.2399 352.045 41.8399 356.245 41.8399C360.445 41.8399 360.435 45.2399 364.635 45.2399C368.835 45.2399 368.825 41.8399 373.015 41.8399C377.205 41.8399 377.205 45.2399 381.395 45.2399C385.585 45.2399 385.585 41.8399 389.785 41.8399C393.985 41.8399 393.975 45.2399 398.175 45.2399C402.375 45.2399 402.365 41.8399 406.565 41.8399C410.765 41.8399 410.765 45.2399 414.955 45.2399C419.145 45.2399 419.155 41.8399 423.345 41.8399" id="Shape" fill="#FFFFFF" fill-rule="evenodd" stroke="#269FFF" stroke-width="1" stroke-linecap="round" stroke-linejoin="round" />
        <path d="M305.924 49.17C310.114 49.17 310.114 52.57 314.314 52.57C318.515 52.57 318.504 49.17 322.694 49.17C326.885 49.17 326.884 52.57 331.075 52.57C335.265 52.57 335.264 49.17 339.465 49.17C343.665 49.17 343.654 52.57 347.855 52.57C352.055 52.57 352.045 49.17 356.245 49.17C360.445 49.17 360.435 52.57 364.635 52.57C368.835 52.57 368.825 49.17 373.015 49.17C377.205 49.17 377.205 52.57 381.395 52.57C385.585 52.57 385.585 49.17 389.785 49.17C393.985 49.17 393.975 52.57 398.175 52.57C402.375 52.57 402.365 49.17 406.565 49.17C410.765 49.17 410.765 52.57 414.955 52.57C419.145 52.57 419.155 49.17 423.345 49.17" id="Shape" fill="#FFFFFF" fill-rule="evenodd" stroke="#269FFF" stroke-width="1" stroke-linecap="round" stroke-linejoin="round" />
        <path d="M305.924 49.17C310.114 49.17 310.114 52.57 314.314 52.57C318.515 52.57 318.504 49.17 322.694 49.17C326.885 49.17 326.884 52.57 331.075 52.57C335.265 52.57 335.264 49.17 339.465 49.17C343.665 49.17 343.654 52.57 347.855 52.57C352.055 52.57 352.045 49.17 356.245 49.17C360.445 49.17 360.435 52.57 364.635 52.57C368.835 52.57 368.825 49.17 373.015 49.17C377.205 49.17 377.205 52.57 381.395 52.57C385.585 52.57 385.585 49.17 389.785 49.17C393.985 49.17 393.975 52.57 398.175 52.57C402.375 52.57 402.365 49.17 406.565 49.17C410.765 49.17 410.765 52.57 414.955 52.57C419.145 52.57 419.155 49.17 423.345 49.17" id="Shape" fill="#FFFFFF" fill-rule="evenodd" stroke="#269FFF" stroke-width="1" stroke-linecap="round" stroke-linejoin="round" />
        <path d="M305.924 56.5401C310.114 56.5401 310.114 59.9401 314.314 59.9401C318.515 59.9401 318.504 56.5401 322.694 56.5401C326.885 56.5401 326.884 59.9401 331.075 59.9401C335.265 59.9401 335.264 56.5401 339.465 56.5401C343.665 56.5401 343.654 59.9401 347.855 59.9401C352.055 59.9401 352.045 56.5401 356.245 56.5401C360.445 56.5401 360.435 59.9401 364.635 59.9401C368.835 59.9401 368.825 56.5401 373.015 56.5401C377.205 56.5401 377.205 59.9401 381.395 59.9401C385.585 59.9401 385.585 56.5401 389.785 56.5401C393.985 56.5401 393.975 59.9401 398.175 59.9401C402.375 59.9401 402.365 56.5401 406.565 56.5401C410.765 56.5401 410.765 59.9401 414.955 59.9401C419.145 59.9401 419.155 56.5401 423.345 56.5401" id="Shape" fill="#FFFFFF" fill-rule="evenodd" stroke="#269FFF" stroke-width="1" stroke-linecap="round" stroke-linejoin="round" />
        <path d="M305.924 56.5401C310.114 56.5401 310.114 59.9401 314.314 59.9401C318.515 59.9401 318.504 56.5401 322.694 56.5401C326.885 56.5401 326.884 59.9401 331.075 59.9401C335.265 59.9401 335.264 56.5401 339.465 56.5401C343.665 56.5401 343.654 59.9401 347.855 59.9401C352.055 59.9401 352.045 56.5401 356.245 56.5401C360.445 56.5401 360.435 59.9401 364.635 59.9401C368.835 59.9401 368.825 56.5401 373.015 56.5401C377.205 56.5401 377.205 59.9401 381.395 59.9401C385.585 59.9401 385.585 56.5401 389.785 56.5401C393.985 56.5401 393.975 59.9401 398.175 59.9401C402.375 59.9401 402.365 56.5401 406.565 56.5401C410.765 56.5401 410.765 59.9401 414.955 59.9401C419.145 59.9401 419.155 56.5401 423.345 56.5401" id="Shape" fill="#FFFFFF" fill-rule="evenodd" stroke="#269FFF" stroke-width="1" stroke-linecap="round" stroke-linejoin="round" />
        <path d="M305.924 63.92C310.114 63.92 310.114 67.32 314.314 67.32C318.515 67.32 318.504 63.92 322.694 63.92C326.885 63.92 326.884 67.32 331.075 67.32C335.265 67.32 335.264 63.92 339.465 63.92C343.665 63.92 343.654 67.32 347.855 67.32C352.055 67.32 352.045 63.92 356.245 63.92C360.445 63.92 360.435 67.32 364.635 67.32C368.835 67.32 368.825 63.92 373.015 63.92C377.205 63.92 377.205 67.32 381.395 67.32C385.585 67.32 385.585 63.92 389.785 63.92C393.985 63.92 393.975 67.32 398.175 67.32C402.375 67.32 402.365 63.92 406.565 63.92C410.765 63.92 410.765 67.32 414.955 67.32C419.145 67.32 419.155 63.92 423.345 63.92" id="Shape" fill="#FFFFFF" fill-rule="evenodd" stroke="#269FFF" stroke-width="1" stroke-linecap="round" stroke-linejoin="round" />
        <path d="M305.924 63.92C310.114 63.92 310.114 67.32 314.314 67.32C318.515 67.32 318.504 63.92 322.694 63.92C326.885 63.92 326.884 67.32 331.075 67.32C335.265 67.32 335.264 63.92 339.465 63.92C343.665 63.92 343.654 67.32 347.855 67.32C352.055 67.32 352.045 63.92 356.245 63.92C360.445 63.92 360.435 67.32 364.635 67.32C368.835 67.32 368.825 63.92 373.015 63.92C377.205 63.92 377.205 67.32 381.395 67.32C385.585 67.32 385.585 63.92 389.785 63.92C393.985 63.92 393.975 67.32 398.175 67.32C402.375 67.32 402.365 63.92 406.565 63.92C410.765 63.92 410.765 67.32 414.955 67.32C419.145 67.32 419.155 63.92 423.345 63.92" id="Shape" fill="#FFFFFF" fill-rule="evenodd" stroke="#269FFF" stroke-width="1" stroke-linecap="round" stroke-linejoin="round" />
        <path d="M305.924 71.2901C310.114 71.2901 310.114 74.6901 314.314 74.6901C318.515 74.6901 318.504 71.2901 322.694 71.2901C326.885 71.2901 326.884 74.6901 331.075 74.6901C335.265 74.6901 335.264 71.2901 339.465 71.2901C343.665 71.2901 343.654 74.6901 347.855 74.6901C352.055 74.6901 352.045 71.2901 356.245 71.2901C360.445 71.2901 360.435 74.6901 364.635 74.6901C368.835 74.6901 368.825 71.2901 373.015 71.2901C377.205 71.2901 377.205 74.6901 381.395 74.6901C385.585 74.6901 385.585 71.2901 389.785 71.2901C393.985 71.2901 393.975 74.6901 398.175 74.6901C402.375 74.6901 402.365 71.2901 406.565 71.2901C410.765 71.2901 410.765 74.6901 414.955 74.6901C419.145 74.6901 419.155 71.2901 423.345 71.2901" id="Shape" fill="#FFFFFF" fill-rule="evenodd" stroke="#269FFF" stroke-width="1" stroke-linecap="round" stroke-linejoin="round" />
        <path d="M305.924 71.2901C310.114 71.2901 310.114 74.6901 314.314 74.6901C318.515 74.6901 318.504 71.2901 322.694 71.2901C326.885 71.2901 326.884 74.6901 331.075 74.6901C335.265 74.6901 335.264 71.2901 339.465 71.2901C343.665 71.2901 343.654 74.6901 347.855 74.6901C352.055 74.6901 352.045 71.2901 356.245 71.2901C360.445 71.2901 360.435 74.6901 364.635 74.6901C368.835 74.6901 368.825 71.2901 373.015 71.2901C377.205 71.2901 377.205 74.6901 381.395 74.6901C385.585 74.6901 385.585 71.2901 389.785 71.2901C393.985 71.2901 393.975 74.6901 398.175 74.6901C402.375 74.6901 402.365 71.2901 406.565 71.2901C410.765 71.2901 410.765 74.6901 414.955 74.6901C419.145 74.6901 419.155 71.2901 423.345 71.2901" id="Shape" fill="#FFFFFF" fill-rule="evenodd" stroke="#269FFF" stroke-width="1" stroke-linecap="round" stroke-linejoin="round" />
        <path d="M320.344 154.45L408.375 154.45" id="Line" fill="none" fill-rule="evenodd" stroke="#269FFF" stroke-width="1" stroke-linecap="round" stroke-linejoin="round" />
        <path d="M320.344 151.1L408.375 151.1" id="Line" fill="none" fill-rule="evenodd" stroke="#269FFF" stroke-width="1" stroke-linecap="round" stroke-linejoin="round" />
        <path d="M320.344 147.75L408.375 147.75" id="Line" fill="none" fill-rule="evenodd" stroke="#269FFF" stroke-width="1" stroke-linecap="round" stroke-linejoin="round" />
        <path d="M320.344 144.39L408.375 144.39" id="Line" fill="none" fill-rule="evenodd" stroke="#269FFF" stroke-width="1" stroke-linecap="round" stroke-linejoin="round" />
        <path d="M320.344 141.04L408.375 141.04" id="Line" fill="none" fill-rule="evenodd" stroke="#269FFF" stroke-width="1" stroke-linecap="round" stroke-linejoin="round" />
        <path d="M320.344 137.691L408.375 137.691" id="Line" fill="none" fill-rule="evenodd" stroke="#269FFF" stroke-width="1" stroke-linecap="round" stroke-linejoin="round" />
        <path d="M320.344 134.33L408.375 134.33" id="Line" fill="none" fill-rule="evenodd" stroke="#269FFF" stroke-width="1" stroke-linecap="round" stroke-linejoin="round" />
        <path d="M320.344 130.981L408.375 130.981" id="Line" fill="none" fill-rule="evenodd" stroke="#269FFF" stroke-width="1" stroke-linecap="round" stroke-linejoin="round" />
        <path d="M320.344 127.63L408.375 127.63" id="Line" fill="none" fill-rule="evenodd" stroke="#269FFF" stroke-width="1" stroke-linecap="round" stroke-linejoin="round" />
        <path d="M320.344 124.271L408.375 124.271" id="Line" fill="none" fill-rule="evenodd" stroke="#269FFF" stroke-width="1" stroke-linecap="round" stroke-linejoin="round" />
        <path d="M320.344 120.92L408.375 120.92" id="Line" fill="none" fill-rule="evenodd" stroke="#269FFF" stroke-width="1" stroke-linecap="round" stroke-linejoin="round" />
        <path d="M320.344 117.57L408.375 117.57" id="Line" fill="none" fill-rule="evenodd" stroke="#269FFF" stroke-width="1" stroke-linecap="round" stroke-linejoin="round" />
        <path d="M320.344 114.21L408.375 114.21" id="Line" fill="none" fill-rule="evenodd" stroke="#269FFF" stroke-width="1" stroke-linecap="round" stroke-linejoin="round" />
        <path d="M320.344 110.861L408.375 110.861" id="Line" fill="none" fill-rule="evenodd" stroke="#269FFF" stroke-width="1" stroke-linecap="round" stroke-linejoin="round" />
        <path d="M320.344 107.51L408.375 107.51" id="Line" fill="none" fill-rule="evenodd" stroke="#269FFF" stroke-width="1" stroke-linecap="round" stroke-linejoin="round" />
        <path d="M320.344 104.151L408.375 104.151" id="Line" fill="none" fill-rule="evenodd" stroke="#269FFF" stroke-width="1" stroke-linecap="round" stroke-linejoin="round" />
        <path d="M320.344 100.8L408.375 100.8" id="Line" fill="none" fill-rule="evenodd" stroke="#269FFF" stroke-width="1" stroke-linecap="round" stroke-linejoin="round" />
        <path d="M320.344 84.9101L320.344 78.67" id="Line" fill="none" fill-rule="evenodd" stroke="#269FFF" stroke-width="1" stroke-linecap="round" stroke-linejoin="round" />
        <path d="M323.534 78.67L323.534 84.8901" id="Line" fill="none" fill-rule="evenodd" stroke="#269FFF" stroke-width="1" stroke-linecap="round" stroke-linejoin="round" />
        <path d="M405.184 84.9101L405.184 78.67" id="Line" fill="none" fill-rule="evenodd" stroke="#269FFF" stroke-width="1" stroke-linecap="round" stroke-linejoin="round" />
        <path d="M408.374 78.67L408.374 84.8901" id="Line" fill="none" fill-rule="evenodd" stroke="#269FFF" stroke-width="1" stroke-linecap="round" stroke-linejoin="round" />
        <path d="M362.764 84.9101L362.764 78.67" id="Line" fill="none" fill-rule="evenodd" stroke="#269FFF" stroke-width="1" stroke-linecap="round" stroke-linejoin="round" />
        <path d="M365.954 78.67L365.954 84.8901" id="Line" fill="none" fill-rule="evenodd" stroke="#269FFF" stroke-width="1" stroke-linecap="round" stroke-linejoin="round" />
        <path d="M429.165 158.08L423.915 158.08L423.915 84.9103L429.165 84.9103L429.165 158.08Z" id="Rectangle" fill="#FFFFFF" fill-rule="evenodd" stroke="#269FFF" stroke-width="1" stroke-linecap="round" stroke-linejoin="round" />
        <path d="M429.165 90.8603L431.575 84.6202L423.915 84.6202L423.915 90.8603L429.165 90.8603L429.165 90.8603Z" id="Polygon" fill="#FFFFFF" fill-rule="evenodd" stroke="#269FFF" stroke-width="1" stroke-linecap="round" stroke-linejoin="round" />
        <path d="M429.165 120.64L423.915 120.64L423.915 116.45L429.165 116.45L429.165 120.64Z" id="Rectangle" fill="#FFFFFF" fill-opacity="0.68" fill-rule="evenodd" stroke="#269FFF" stroke-opacity="0.68" stroke-width="1" stroke-linecap="round" stroke-linejoin="round" />
        <path d="M-0.976564 159.8L199.704 159.8" id="Line" fill="none" fill-rule="evenodd" stroke="#269FFF" stroke-width="1" stroke-linecap="round" stroke-linejoin="round" />
        <path d="M27.043 85.5704L146.443 85.5704L146.443 159.801L27.043 159.801L27.043 85.5704Z" id="Rectangle" fill="#FFFFFF" fill-rule="evenodd" stroke="#269FFF" stroke-width="1" stroke-linecap="round" stroke-linejoin="round" />
        <path d="M42.004 98.5207L131.774 98.5207L131.774 159.801L42.004 159.801L42.004 98.5207Z" id="Rectangle" fill="#FFFFFF" fill-rule="evenodd" stroke="#269FFF" stroke-width="1" stroke-linecap="round" stroke-linejoin="round" />
        <path d="M27.043 79.2404L150.473 79.2404L150.473 85.5704L27.043 85.5704L27.043 79.2404Z" id="Rectangle" fill="#FFFFFF" fill-rule="evenodd" stroke="#269FFF" stroke-width="1" stroke-linecap="round" stroke-linejoin="round" />
        <path d="M27.043 38.96L146.443 38.96L146.443 79.2401L27.043 79.2401L27.043 38.96Z" id="Rectangle" fill="#FFFFFF" fill-rule="evenodd" stroke="#269FFF" stroke-width="1" stroke-linecap="round" stroke-linejoin="round" />
        <path d="M27.3829 41.8399C31.6329 41.8399 31.6329 45.2899 35.8929 45.2899C40.1529 45.2899 40.1429 41.8399 44.4029 41.8399C48.6629 41.8399 48.6529 45.2899 52.9129 45.2899C57.173 45.2899 57.163 41.8399 61.423 41.8399C65.683 41.8399 65.673 45.2899 69.933 45.2899C74.193 45.2899 74.183 41.8399 78.443 41.8399C82.703 41.8399 82.693 45.2899 86.9531 45.2899C91.2131 45.2899 91.2031 41.8399 95.4631 41.8399C99.7231 41.8399 99.7131 45.2899 103.973 45.2899C108.233 45.2899 108.223 41.8399 112.483 41.8399C116.743 41.8399 116.743 45.2899 120.993 45.2899C125.243 45.2899 125.243 41.8399 129.503 41.8399C133.763 41.8399 133.763 45.2899 138.013 45.2899C142.263 45.2899 142.273 41.8399 146.523 41.8399" id="Shape" fill="#FFFFFF" fill-rule="evenodd" stroke="#269FFF" stroke-width="1" stroke-linecap="round" stroke-linejoin="round" />
        <path d="M27.3829 41.8399C31.6329 41.8399 31.6329 45.2899 35.8929 45.2899C40.1529 45.2899 40.1429 41.8399 44.4029 41.8399C48.6629 41.8399 48.6529 45.2899 52.9129 45.2899C57.173 45.2899 57.163 41.8399 61.423 41.8399C65.683 41.8399 65.673 45.2899 69.933 45.2899C74.193 45.2899 74.183 41.8399 78.443 41.8399C82.703 41.8399 82.693 45.2899 86.9531 45.2899C91.2131 45.2899 91.2031 41.8399 95.4631 41.8399C99.7231 41.8399 99.7131 45.2899 103.973 45.2899C108.233 45.2899 108.223 41.8399 112.483 41.8399C116.743 41.8399 116.743 45.2899 120.993 45.2899C125.243 45.2899 125.243 41.8399 129.503 41.8399C133.763 41.8399 133.763 45.2899 138.013 45.2899C142.263 45.2899 142.273 41.8399 146.523 41.8399" id="Shape" fill="#FFFFFF" fill-rule="evenodd" stroke="#269FFF" stroke-width="1" stroke-linecap="round" stroke-linejoin="round" />
        <path d="M27.3829 49.3204C31.6329 49.3204 31.6329 52.7704 35.8929 52.7704C40.1529 52.7704 40.1429 49.3204 44.4029 49.3204C48.6629 49.3204 48.6529 52.7704 52.9129 52.7704C57.173 52.7704 57.163 49.3204 61.423 49.3204C65.683 49.3204 65.673 52.7704 69.933 52.7704C74.193 52.7704 74.183 49.3204 78.443 49.3204C82.703 49.3204 82.693 52.7704 86.9531 52.7704C91.2131 52.7704 91.2031 49.3204 95.4631 49.3204C99.7231 49.3204 99.7131 52.7704 103.973 52.7704C108.233 52.7704 108.223 49.3204 112.483 49.3204C116.743 49.3204 116.743 52.7704 120.993 52.7704C125.243 52.7704 125.243 49.3204 129.503 49.3204C133.763 49.3204 133.763 52.7704 138.013 52.7704C142.263 52.7704 142.273 49.3204 146.523 49.3204" id="Shape" fill="#FFFFFF" fill-rule="evenodd" stroke="#269FFF" stroke-width="1" stroke-linecap="round" stroke-linejoin="round" />
        <path d="M27.3829 49.3204C31.6329 49.3204 31.6329 52.7704 35.8929 52.7704C40.1529 52.7704 40.1429 49.3204 44.4029 49.3204C48.6629 49.3204 48.6529 52.7704 52.9129 52.7704C57.173 52.7704 57.163 49.3204 61.423 49.3204C65.683 49.3204 65.673 52.7704 69.933 52.7704C74.193 52.7704 74.183 49.3204 78.443 49.3204C82.703 49.3204 82.693 52.7704 86.9531 52.7704C91.2131 52.7704 91.2031 49.3204 95.4631 49.3204C99.7231 49.3204 99.7131 52.7704 103.973 52.7704C108.233 52.7704 108.223 49.3204 112.483 49.3204C116.743 49.3204 116.743 52.7704 120.993 52.7704C125.243 52.7704 125.243 49.3204 129.503 49.3204C133.763 49.3204 133.763 52.7704 138.013 52.7704C142.263 52.7704 142.273 49.3204 146.523 49.3204" id="Shape" fill="#FFFFFF" fill-rule="evenodd" stroke="#269FFF" stroke-width="1" stroke-linecap="round" stroke-linejoin="round" />
        <path d="M27.3829 56.8399C31.6329 56.8399 31.6329 60.2899 35.8929 60.2899C40.1529 60.2899 40.1429 56.8399 44.4029 56.8399C48.6629 56.8399 48.6529 60.2899 52.9129 60.2899C57.173 60.2899 57.163 56.8399 61.423 56.8399C65.683 56.8399 65.673 60.2899 69.933 60.2899C74.193 60.2899 74.183 56.8399 78.443 56.8399C82.703 56.8399 82.693 60.2899 86.9531 60.2899C91.2131 60.2899 91.2031 56.8399 95.4631 56.8399C99.7231 56.8399 99.7131 60.2899 103.973 60.2899C108.233 60.2899 108.223 56.8399 112.483 56.8399C116.743 56.8399 116.743 60.2899 120.993 60.2899C125.243 60.2899 125.243 56.8399 129.503 56.8399C133.763 56.8399 133.763 60.2899 138.013 60.2899C142.263 60.2899 142.273 56.8399 146.523 56.8399" id="Shape" fill="#FFFFFF" fill-rule="evenodd" stroke="#269FFF" stroke-width="1" stroke-linecap="round" stroke-linejoin="round" />
        <path d="M27.3829 56.8399C31.6329 56.8399 31.6329 60.2899 35.8929 60.2899C40.1529 60.2899 40.1429 56.8399 44.4029 56.8399C48.6629 56.8399 48.6529 60.2899 52.9129 60.2899C57.173 60.2899 57.163 56.8399 61.423 56.8399C65.683 56.8399 65.673 60.2899 69.933 60.2899C74.193 60.2899 74.183 56.8399 78.443 56.8399C82.703 56.8399 82.693 60.2899 86.9531 60.2899C91.2131 60.2899 91.2031 56.8399 95.4631 56.8399C99.7231 56.8399 99.7131 60.2899 103.973 60.2899C108.233 60.2899 108.223 56.8399 112.483 56.8399C116.743 56.8399 116.743 60.2899 120.993 60.2899C125.243 60.2899 125.243 56.8399 129.503 56.8399C133.763 56.8399 133.763 60.2899 138.013 60.2899C142.263 60.2899 142.273 56.8399 146.523 56.8399" id="Shape" fill="#FFFFFF" fill-rule="evenodd" stroke="#269FFF" stroke-width="1" stroke-linecap="round" stroke-linejoin="round" />
        <path d="M27.3829 64.2804C31.6329 64.2804 31.6329 67.7304 35.8929 67.7304C40.1529 67.7304 40.1429 64.2804 44.4029 64.2804C48.6629 64.2804 48.6529 67.7304 52.9129 67.7304C57.173 67.7304 57.163 64.2804 61.423 64.2804C65.683 64.2804 65.673 67.7304 69.933 67.7304C74.193 67.7304 74.183 64.2804 78.443 64.2804C82.703 64.2804 82.693 67.7304 86.9531 67.7304C91.2131 67.7304 91.2031 64.2804 95.4631 64.2804C99.7231 64.2804 99.7131 67.7304 103.973 67.7304C108.233 67.7304 108.223 64.2804 112.483 64.2804C116.743 64.2804 116.743 67.7304 120.993 67.7304C125.243 67.7304 125.243 64.2804 129.503 64.2804C133.763 64.2804 133.763 67.7304 138.013 67.7304C142.263 67.7304 142.273 64.2804 146.523 64.2804" id="Shape" fill="#FFFFFF" fill-rule="evenodd" stroke="#269FFF" stroke-width="1" stroke-linecap="round" stroke-linejoin="round" />
        <path d="M27.3829 64.2804C31.6329 64.2804 31.6329 67.7304 35.8929 67.7304C40.1529 67.7304 40.1429 64.2804 44.4029 64.2804C48.6629 64.2804 48.6529 67.7304 52.9129 67.7304C57.173 67.7304 57.163 64.2804 61.423 64.2804C65.683 64.2804 65.673 67.7304 69.933 67.7304C74.193 67.7304 74.183 64.2804 78.443 64.2804C82.703 64.2804 82.693 67.7304 86.9531 67.7304C91.2131 67.7304 91.2031 64.2804 95.4631 64.2804C99.7231 64.2804 99.7131 67.7304 103.973 67.7304C108.233 67.7304 108.223 64.2804 112.483 64.2804C116.743 64.2804 116.743 67.7304 120.993 67.7304C125.243 67.7304 125.243 64.2804 129.503 64.2804C133.763 64.2804 133.763 67.7304 138.013 67.7304C142.263 67.7304 142.273 64.2804 146.523 64.2804" id="Shape" fill="#FFFFFF" fill-rule="evenodd" stroke="#269FFF" stroke-width="1" stroke-linecap="round" stroke-linejoin="round" />
        <path d="M27.3829 71.7599C31.6329 71.7599 31.6329 75.2099 35.8929 75.2099C40.1529 75.2099 40.1429 71.7599 44.4029 71.7599C48.6629 71.7599 48.6529 75.2099 52.9129 75.2099C57.173 75.2099 57.163 71.7599 61.423 71.7599C65.683 71.7599 65.673 75.2099 69.933 75.2099C74.193 75.2099 74.183 71.7599 78.443 71.7599C82.703 71.7599 82.693 75.2099 86.9531 75.2099C91.2131 75.2099 91.2031 71.7599 95.4631 71.7599C99.7231 71.7599 99.7131 75.2099 103.973 75.2099C108.233 75.2099 108.223 71.7599 112.483 71.7599C116.743 71.7599 116.743 75.2099 120.993 75.2099C125.243 75.2099 125.243 71.7599 129.503 71.7599C133.763 71.7599 133.763 75.2099 138.013 75.2099C142.263 75.2099 142.273 71.7599 146.523 71.7599" id="Shape" fill="#FFFFFF" fill-rule="evenodd" stroke="#269FFF" stroke-width="1" stroke-linecap="round" stroke-linejoin="round" />
        <path d="M27.3829 71.7599C31.6329 71.7599 31.6329 75.2099 35.8929 75.2099C40.1529 75.2099 40.1429 71.7599 44.4029 71.7599C48.6629 71.7599 48.6529 75.2099 52.9129 75.2099C57.173 75.2099 57.163 71.7599 61.423 71.7599C65.683 71.7599 65.673 75.2099 69.933 75.2099C74.193 75.2099 74.183 71.7599 78.443 71.7599C82.703 71.7599 82.693 75.2099 86.9531 75.2099C91.2131 75.2099 91.2031 71.7599 95.4631 71.7599C99.7231 71.7599 99.7131 75.2099 103.973 75.2099C108.233 75.2099 108.223 71.7599 112.483 71.7599C116.743 71.7599 116.743 75.2099 120.993 75.2099C125.243 75.2099 125.243 71.7599 129.503 71.7599C133.763 71.7599 133.763 75.2099 138.013 75.2099C142.263 75.2099 142.273 71.7599 146.523 71.7599" id="Shape" fill="#FFFFFF" fill-rule="evenodd" stroke="#269FFF" stroke-width="1" stroke-linecap="round" stroke-linejoin="round" />
        <path d="M46.3126 112.17C46.3126 108.127 49.5899 104.85 53.6326 104.85C57.6753 104.85 60.9526 108.127 60.9526 112.17C60.9526 116.213 57.6753 119.49 53.6326 119.49C49.5899 119.49 46.3126 116.213 46.3126 112.17Z" id="Circle" fill="#FFFFFF" fill-rule="evenodd" stroke="#269FFF" stroke-width="1" stroke-linecap="round" stroke-linejoin="round" />
        <path d="M68.6935 112.17C68.6935 108.127 71.9708 104.85 76.0135 104.85C80.0562 104.85 83.3335 108.127 83.3335 112.17C83.3335 116.213 80.0562 119.49 76.0135 119.49C71.9708 119.49 68.6935 116.213 68.6935 112.17Z" id="Circle" fill="#FFFFFF" fill-rule="evenodd" stroke="#269FFF" stroke-width="1" stroke-linecap="round" stroke-linejoin="round" />
        <path d="M91.0627 112.17C91.0627 108.127 94.34 104.85 98.3827 104.85C102.425 104.85 105.703 108.127 105.703 112.17C105.703 116.213 102.425 119.49 98.3827 119.49C94.34 119.49 91.0627 116.213 91.0627 112.17Z" id="Circle" fill="#FFFFFF" fill-rule="evenodd" stroke="#269FFF" stroke-width="1" stroke-linecap="round" stroke-linejoin="round" />
        <path d="M113.444 112.17C113.444 108.127 116.721 104.85 120.764 104.85C124.806 104.85 128.084 108.127 128.084 112.17C128.084 116.213 124.806 119.49 120.764 119.49C116.721 119.49 113.444 116.213 113.444 112.17Z" id="Circle" fill="#FFFFFF" fill-rule="evenodd" stroke="#269FFF" stroke-width="1" stroke-linecap="round" stroke-linejoin="round" />
        <path d="M64.7326 98.5207L64.7326 159.801" id="Line" fill="none" fill-rule="evenodd" stroke="#269FFF" stroke-width="1" stroke-linecap="round" stroke-linejoin="round" />
        <path d="M86.7443 98.5207L86.7443 159.801" id="Line" fill="none" fill-rule="evenodd" stroke="#269FFF" stroke-width="1" stroke-linecap="round" stroke-linejoin="round" />
        <path d="M109.334 98.5207L109.334 159.801" id="Line" fill="none" fill-rule="evenodd" stroke="#269FFF" stroke-width="1" stroke-linecap="round" stroke-linejoin="round" />
        <path d="M21.7227 85.5704L27.0427 85.5704L27.0427 159.801L21.7227 159.801L21.7227 85.5704Z" id="Rectangle" fill="#FFFFFF" fill-rule="evenodd" stroke="#269FFF" stroke-width="1" stroke-linecap="round" stroke-linejoin="round" />
        <path d="M176.133 160.04L159.023 160.04L155.713 136.3L179.453 136.3L176.133 160.04L176.133 160.04Z" id="Polygon" fill="#FFFFFF" fill-rule="evenodd" stroke="#269FFF" stroke-width="1" stroke-linecap="round" stroke-linejoin="round" />
        <path d="M178.263 117.35C178.263 130.57 173.483 134.78 167.583 134.78C161.683 134.78 156.903 130.56 156.903 117.35C156.903 104.14 161.683 86.9201 167.583 86.9201C173.483 86.9201 178.263 104.13 178.263 117.35L178.263 117.35Z" id="Shape" fill="#FFFFFF" fill-rule="evenodd" stroke="#269FFF" stroke-width="1" stroke-linecap="round" stroke-linejoin="round" />
        <path d="M161.324 109.01C161.104 111.62 162.114 114.24 164.964 114.24" id="Shape" fill="#FFFFFF" fill-rule="evenodd" stroke="#269FFF" stroke-width="1" stroke-linecap="round" stroke-linejoin="round" />
        <path d="M164.963 122.55C167.153 124.28 171.903 125.36 174.053 122.55" id="Shape" fill="#FFFFFF" fill-rule="evenodd" stroke="#269FFF" stroke-width="1" stroke-linecap="round" stroke-linejoin="round" />
        <path d="M169.514 124.271C169.514 124.271 170.514 128.731 166.514 129.881" id="Shape" fill="#FFFFFF" fill-rule="evenodd" stroke="#269FFF" stroke-width="1" stroke-linecap="round" stroke-linejoin="round" />
        <path d="M174.083 139.88L171.803 156.13" id="Line" fill="none" fill-rule="evenodd" stroke="#269FFF" stroke-width="1" stroke-linecap="round" stroke-linejoin="round" />
        <path d="M51.3224 109L53.9124 112.71" id="Line" fill="none" fill-rule="evenodd" stroke="#269FFF" stroke-width="1" stroke-linecap="round" stroke-linejoin="round" />
        <path d="M54.7735 109L57.3636 112.71" id="Line" fill="none" fill-rule="evenodd" stroke="#269FFF" stroke-width="1" stroke-linecap="round" stroke-linejoin="round" />
        <path d="M73.7326 109L76.3226 112.71" id="Line" fill="none" fill-rule="evenodd" stroke="#269FFF" stroke-width="1" stroke-linecap="round" stroke-linejoin="round" />
        <path d="M77.1935 109L79.7735 112.71" id="Line" fill="none" fill-rule="evenodd" stroke="#269FFF" stroke-width="1" stroke-linecap="round" stroke-linejoin="round" />
        <path d="M96.1525 109L98.7425 112.71" id="Line" fill="none" fill-rule="evenodd" stroke="#269FFF" stroke-width="1" stroke-linecap="round" stroke-linejoin="round" />
        <path d="M99.6037 109L102.194 112.71" id="Line" fill="none" fill-rule="evenodd" stroke="#269FFF" stroke-width="1" stroke-linecap="round" stroke-linejoin="round" />
        <path d="M118.563 109L121.153 112.71" id="Line" fill="none" fill-rule="evenodd" stroke="#269FFF" stroke-width="1" stroke-linecap="round" stroke-linejoin="round" />
        <path d="M122.014 109L124.604 112.71" id="Line" fill="none" fill-rule="evenodd" stroke="#269FFF" stroke-width="1" stroke-linecap="round" stroke-linejoin="round" />
        <path d="M42.004 85.5704L42.004 79.2404" id="Line" fill="none" fill-rule="evenodd" stroke="#269FFF" stroke-width="1" stroke-linecap="round" stroke-linejoin="round" />
        <path d="M45.2442 79.2404L45.2442 85.5604" id="Line" fill="none" fill-rule="evenodd" stroke="#269FFF" stroke-width="1" stroke-linecap="round" stroke-linejoin="round" />
        <path d="M128.073 85.5704L128.073 79.2404" id="Line" fill="none" fill-rule="evenodd" stroke="#269FFF" stroke-width="1" stroke-linecap="round" stroke-linejoin="round" />
        <path d="M131.313 79.2404L131.313 85.5604" id="Line" fill="none" fill-rule="evenodd" stroke="#269FFF" stroke-width="1" stroke-linecap="round" stroke-linejoin="round" />
        <path d="M85.0431 85.5704L85.0431 79.2404" id="Line" fill="none" fill-rule="evenodd" stroke="#269FFF" stroke-width="1" stroke-linecap="round" stroke-linejoin="round" />
        <path d="M88.2736 79.2404L88.2736 85.5604" id="Line" fill="none" fill-rule="evenodd" stroke="#269FFF" stroke-width="1" stroke-linecap="round" stroke-linejoin="round" />
        <path d="M21.7235 91.6202L19.2735 85.2902L27.0435 85.2902L27.0435 91.6202L21.7235 91.6202L21.7235 91.6202Z" id="Polygon" fill="#FFFFFF" fill-rule="evenodd" stroke="#269FFF" stroke-width="1" stroke-linecap="round" stroke-linejoin="round" />
        <path d="M21.7227 117.57L27.0427 117.57L27.0427 121.821L21.7227 121.821L21.7227 117.57Z" id="Rectangle" fill="#FFFFFF" fill-opacity="0.68" fill-rule="evenodd" stroke="#269FFF" stroke-opacity="0.68" stroke-width="1" stroke-linecap="round" stroke-linejoin="round" />
        <path d="M120.143 158.38L335.503 158.38" id="Line" fill="none" fill-rule="evenodd" stroke="#269FFF" stroke-width="1" stroke-linecap="round" stroke-linejoin="round" />
        <path d="M151.883 6.79005L305.333 6.79005L305.333 158.02L151.883 158.02L151.883 6.79005Z" id="Rectangle" fill="#FFFFFF" fill-rule="evenodd" stroke="#269FFF" stroke-width="1" stroke-linecap="round" stroke-linejoin="round" />
        <path d="M148.274 0.530274L309.314 0.530274L309.314 7.18028L148.274 7.18028L148.274 0.530274Z" id="Rectangle" fill="#FFFFFF" fill-rule="evenodd" stroke="#269FFF" stroke-width="1" stroke-linecap="round" stroke-linejoin="round" />
        <path d="M182.264 7.18028L182.264 0.530274" id="Line" fill="none" fill-rule="evenodd" stroke="#269FFF" stroke-width="1" stroke-linecap="round" stroke-linejoin="round" />
        <path d="M185.664 0.530274L185.664 7.17029" id="Line" fill="none" fill-rule="evenodd" stroke="#269FFF" stroke-width="1" stroke-linecap="round" stroke-linejoin="round" />
        <path d="M272.733 7.18028L272.733 0.530274" id="Line" fill="none" fill-rule="evenodd" stroke="#269FFF" stroke-width="1" stroke-linecap="round" stroke-linejoin="round" />
        <path d="M276.133 0.530274L276.133 7.17029" id="Line" fill="none" fill-rule="evenodd" stroke="#269FFF" stroke-width="1" stroke-linecap="round" stroke-linejoin="round" />
        <path d="M227.495 7.18028L227.495 0.530274" id="Line" fill="none" fill-rule="evenodd" stroke="#269FFF" stroke-width="1" stroke-linecap="round" stroke-linejoin="round" />
        <path d="M230.903 0.530274L230.903 7.17029" id="Line" fill="none" fill-rule="evenodd" stroke="#269FFF" stroke-width="1" stroke-linecap="round" stroke-linejoin="round" />
        <path d="M196.844 92.5597L260.534 92.5597L260.534 136.81L196.844 136.81L196.844 92.5597Z" id="Rectangle" fill="#FFFFFF" fill-rule="evenodd" stroke="#269FFF" stroke-width="0.98" stroke-linecap="round" stroke-linejoin="round" />
        <path d="M192.844 136.7L264.244 136.7L264.244 143.26L192.844 143.26L192.844 136.7Z" id="Rectangle" fill="#FFFFFF" fill-rule="evenodd" stroke="#269FFF" stroke-width="0.98" stroke-linecap="round" stroke-linejoin="round" />
        <path d="M215.665 100.67L217.975 104.58" id="Line" fill="none" fill-rule="evenodd" stroke="#269FFF" stroke-width="0.98" stroke-linecap="round" stroke-linejoin="round" />
        <path d="M218.745 100.67L221.055 104.58" id="Line" fill="none" fill-rule="evenodd" stroke="#269FFF" stroke-width="0.98" stroke-linecap="round" stroke-linejoin="round" />
        <path d="M248.313 100.67L250.623 104.58" id="Line" fill="none" fill-rule="evenodd" stroke="#269FFF" stroke-width="0.98" stroke-linecap="round" stroke-linejoin="round" />
        <path d="M251.393 100.67L253.703 104.58" id="Line" fill="none" fill-rule="evenodd" stroke="#269FFF" stroke-width="0.98" stroke-linecap="round" stroke-linejoin="round" />
        <path d="M199.704 95.5499L227.414 95.5499L227.414 133.99L199.704 133.99L199.704 95.5499Z" id="Rectangle" fill="#FFFFFF" fill-rule="evenodd" stroke="#269FFF" stroke-width="0.98" stroke-linecap="round" stroke-linejoin="round" />
        <path d="M229.973 95.5499L257.683 95.5499L257.683 133.99L229.973 133.99L229.973 95.5499Z" id="Rectangle" fill="#FFFFFF" fill-rule="evenodd" stroke="#269FFF" stroke-width="0.98" stroke-linecap="round" stroke-linejoin="round" />
        <path d="M146.354 6.54005L151.944 6.54005L151.944 157.1L146.354 157.1L146.354 6.54005Z" id="Rectangle" fill="#FFFFFF" fill-rule="evenodd" stroke="#269FFF" stroke-width="0.98" stroke-linecap="round" stroke-linejoin="round" />
        <path d="M146.354 12.9003L143.783 6.24024L151.954 6.24024L151.954 12.9003L146.354 12.9003L146.354 12.9003Z" id="Polygon" fill="#FFFFFF" fill-rule="evenodd" stroke="#269FFF" stroke-width="0.98" stroke-linecap="round" stroke-linejoin="round" />
        <path d="M146.354 78.7804L151.944 78.7804L151.944 83.2504L146.354 83.2504L146.354 78.7804Z" id="Rectangle" fill="#FFFFFF" fill-rule="evenodd" stroke="#269FFF" stroke-width="0.98" stroke-linecap="round" stroke-linejoin="round" />
        <path d="M146.354 36.6504L151.944 36.6504L151.944 41.1205L146.354 41.1205L146.354 36.6504Z" id="Rectangle" fill="#FFFFFF" fill-rule="evenodd" stroke="#269FFF" stroke-width="0.98" stroke-linecap="round" stroke-linejoin="round" />
        <path d="M146.354 123.731L151.944 123.731L151.944 128.201L146.354 128.201L146.354 123.731Z" id="Rectangle" fill="#FFFFFF" fill-rule="evenodd" stroke="#269FFF" stroke-width="0.98" stroke-linecap="round" stroke-linejoin="round" />
        <path d="M170.334 92.5597L194.824 92.5597L194.824 133.99L170.334 133.99L170.334 92.5597Z" id="Rectangle" fill="#FFFFFF" fill-rule="evenodd" stroke="#269FFF" stroke-width="0.98" stroke-linecap="round" stroke-linejoin="round" />
        <path d="M173.594 97.0998L191.564 97.0998L191.564 101.57L173.594 101.57L173.594 97.0998Z" id="Rectangle" fill="#FFFFFF" fill-rule="evenodd" stroke="#269FFF" stroke-width="0.98" stroke-linecap="round" stroke-linejoin="round" />
        <path d="M173.594 124.651L191.564 124.651L191.564 129.121L173.594 129.121L173.594 124.651Z" id="Rectangle" fill="#FFFFFF" fill-rule="evenodd" stroke="#269FFF" stroke-width="0.98" stroke-linecap="round" stroke-linejoin="round" />
        <path d="M173.594 101.57L186.354 124.551L191.564 124.651L178.594 101.57L173.594 101.57L173.594 101.57Z" id="Polygon" fill="#FFFFFF" fill-rule="evenodd" stroke="#269FFF" stroke-width="0.98" stroke-linecap="round" stroke-linejoin="round" />
        <path d="M286.883 133.99L262.393 133.99L262.393 92.5597L286.883 92.5597L286.883 133.99Z" id="Rectangle" fill="#FFFFFF" fill-rule="evenodd" stroke="#269FFF" stroke-width="0.98" stroke-linecap="round" stroke-linejoin="round" />
        <path d="M283.623 101.57L265.653 101.57L265.653 97.0998L283.623 97.0998L283.623 101.57Z" id="Rectangle" fill="#FFFFFF" fill-rule="evenodd" stroke="#269FFF" stroke-width="0.98" stroke-linecap="round" stroke-linejoin="round" />
        <path d="M283.623 129.121L265.653 129.121L265.653 124.651L283.623 124.651L283.623 129.121Z" id="Rectangle" fill="#FFFFFF" fill-rule="evenodd" stroke="#269FFF" stroke-width="0.98" stroke-linecap="round" stroke-linejoin="round" />
        <path d="M283.623 101.57L270.853 124.551L265.653 124.651L278.623 101.57L283.623 101.57L283.623 101.57Z" id="Polygon" fill="#FFFFFF" fill-rule="evenodd" stroke="#269FFF" stroke-width="0.98" stroke-linecap="round" stroke-linejoin="round" />
        <path d="M438.054 144.47L443.724 144.47L443.724 158.24L438.054 158.24L438.054 144.47Z" id="Rectangle" fill="#FFFFFF" fill-rule="evenodd" stroke="#269FFF" stroke-width="0.98" stroke-linecap="round" stroke-linejoin="round" />
        <path d="M463.135 115.57C464.672 113.016 465.484 110.091 465.485 107.11C465.487 102.03 463.148 97.2342 459.144 94.1095C460.615 92.0231 461.405 89.5327 461.405 86.9799C461.403 82.4978 458.988 78.3635 455.085 76.16C456.137 74.5296 456.696 72.6302 456.695 70.6899C456.697 66.2456 453.807 62.3181 449.564 60.9995C449.986 59.9506 450.204 58.8306 450.205 57.6999C450.205 52.7845 446.22 48.7999 441.305 48.7999C436.389 48.7999 432.405 52.7845 432.405 57.6999C432.407 58.6411 432.559 59.5761 432.855 60.4698C428.341 61.8177 425.246 65.9688 425.245 70.6799C425.242 72.7961 425.873 74.8647 427.055 76.6199C422.853 78.5433 420.158 82.7389 420.155 87.3599C420.155 89.6015 420.796 91.798 422.004 93.6885C417.735 95.908 415.056 100.319 415.055 105.13C415.054 108.624 416.473 111.966 418.986 114.391C415.495 117.52 413.425 121.39 413.425 125.68C413.425 135.94 425.535 144.27 440.425 144.27C455.315 144.27 467.425 135.95 467.425 125.68C467.355 121.882 465.817 118.259 463.135 115.57L463.135 115.57Z" id="Shape" fill="#FFFFFF" fill-rule="evenodd" stroke="#269FFF" stroke-width="0.98" stroke-linecap="round" stroke-linejoin="round" />
        <path d="M427.934 93.5002C431.171 93.4277 434.123 91.6316 435.674 88.7902" id="Shape" fill="#FFFFFF" fill-rule="evenodd" stroke="#269FFF" stroke-width="0.98" stroke-linecap="round" stroke-linejoin="round" />
        <path d="M442.274 91.3307C437.27 91.3307 433.214 87.2743 433.214 82.2706" id="Shape" fill="#FFFFFF" fill-rule="evenodd" stroke="#269FFF" stroke-width="0.98" stroke-linecap="round" stroke-linejoin="round" />
        <path d="M456.234 128.64C453.568 126.801 452.088 123.678 452.354 120.45" id="Shape" fill="#FFFFFF" fill-rule="evenodd" stroke="#269FFF" stroke-width="0.98" stroke-linecap="round" stroke-linejoin="round" />
        <path d="M449.914 68.17C447.399 70.2105 443.986 70.752 440.964 69.59" id="Shape" fill="#FFFFFF" fill-rule="evenodd" stroke="#269FFF" stroke-width="0.98" stroke-linecap="round" stroke-linejoin="round" />
        <path d="M445.444 118.96C449.623 121.705 455.235 120.546 457.984 116.37" id="Shape" fill="#FFFFFF" fill-rule="evenodd" stroke="#269FFF" stroke-width="0.98" stroke-linecap="round" stroke-linejoin="round" />
        <path d="M181.063 131.731L184.023 131.731L184.023 136.811L181.063 136.811L181.063 131.731Z" id="Rectangle" fill="#FFFFFF" fill-rule="evenodd" stroke="#269FFF" stroke-width="0.98" stroke-linecap="round" stroke-linejoin="round" />
        <path d="M272.534 131.731L275.494 131.731L275.494 136.811L272.534 136.811L272.534 131.731Z" id="Rectangle" fill="#FFFFFF" fill-rule="evenodd" stroke="#269FFF" stroke-width="0.98" stroke-linecap="round" stroke-linejoin="round" />
        <path d="M196.844 20.5303L260.534 20.5303L260.534 64.7804L196.844 64.7804L196.844 20.5303Z" id="Rectangle" fill="#FFFFFF" fill-rule="evenodd" stroke="#269FFF" stroke-width="0.98" stroke-linecap="round" stroke-linejoin="round" />
        <path d="M192.844 64.67L264.244 64.67L264.244 71.23L192.844 71.23L192.844 64.67Z" id="Rectangle" fill="#FFFFFF" fill-rule="evenodd" stroke="#269FFF" stroke-width="0.98" stroke-linecap="round" stroke-linejoin="round" />
        <path d="M215.665 28.6397L217.975 32.5497" id="Line" fill="none" fill-rule="evenodd" stroke="#269FFF" stroke-width="0.98" stroke-linecap="round" stroke-linejoin="round" />
        <path d="M218.745 28.6397L221.055 32.5497" id="Line" fill="none" fill-rule="evenodd" stroke="#269FFF" stroke-width="0.98" stroke-linecap="round" stroke-linejoin="round" />
        <path d="M248.313 28.6397L250.623 32.5497" id="Line" fill="none" fill-rule="evenodd" stroke="#269FFF" stroke-width="0.98" stroke-linecap="round" stroke-linejoin="round" />
        <path d="M251.393 28.6397L253.703 32.5497" id="Line" fill="none" fill-rule="evenodd" stroke="#269FFF" stroke-width="0.98" stroke-linecap="round" stroke-linejoin="round" />
        <path d="M199.704 23.5205L227.414 23.5205L227.414 61.9606L199.704 61.9606L199.704 23.5205Z" id="Rectangle" fill="#FFFFFF" fill-rule="evenodd" stroke="#269FFF" stroke-width="0.98" stroke-linecap="round" stroke-linejoin="round" />
        <path d="M229.973 23.5205L257.683 23.5205L257.683 61.9606L229.973 61.9606L229.973 23.5205Z" id="Rectangle" fill="#FFFFFF" fill-rule="evenodd" stroke="#269FFF" stroke-width="0.98" stroke-linecap="round" stroke-linejoin="round" />
        <path d="M170.334 20.5303L194.824 20.5303L194.824 61.9604L170.334 61.9604L170.334 20.5303Z" id="Rectangle" fill="#FFFFFF" fill-rule="evenodd" stroke="#269FFF" stroke-width="0.98" stroke-linecap="round" stroke-linejoin="round" />
        <path d="M173.594 25.0704L191.564 25.0704L191.564 29.5404L173.594 29.5404L173.594 25.0704Z" id="Rectangle" fill="#FFFFFF" fill-rule="evenodd" stroke="#269FFF" stroke-width="0.98" stroke-linecap="round" stroke-linejoin="round" />
        <path d="M173.594 52.6202L191.564 52.6202L191.564 57.0902L173.594 57.0902L173.594 52.6202Z" id="Rectangle" fill="#FFFFFF" fill-rule="evenodd" stroke="#269FFF" stroke-width="0.98" stroke-linecap="round" stroke-linejoin="round" />
        <path d="M173.594 29.5401L186.354 52.5201L191.564 52.6201L178.594 29.5401L173.594 29.5401L173.594 29.5401Z" id="Polygon" fill="#FFFFFF" fill-rule="evenodd" stroke="#269FFF" stroke-width="0.98" stroke-linecap="round" stroke-linejoin="round" />
        <path d="M286.883 61.9604L262.393 61.9604L262.393 20.5303L286.883 20.5303L286.883 61.9604Z" id="Rectangle" fill="#FFFFFF" fill-rule="evenodd" stroke="#269FFF" stroke-width="0.98" stroke-linecap="round" stroke-linejoin="round" />
        <path d="M283.623 29.5296L265.653 29.5296L265.653 25.0596L283.623 25.0596L283.623 29.5296Z" id="Rectangle" fill="#FFFFFF" fill-rule="evenodd" stroke="#269FFF" stroke-width="0.98" stroke-linecap="round" stroke-linejoin="round" />
        <path d="M283.623 57.0902L265.653 57.0902L265.653 52.6202L283.623 52.6202L283.623 57.0902Z" id="Rectangle" fill="#FFFFFF" fill-rule="evenodd" stroke="#269FFF" stroke-width="0.98" stroke-linecap="round" stroke-linejoin="round" />
        <path d="M283.623 29.5401L270.853 52.5201L265.653 52.6201L278.623 29.5401L283.623 29.5401L283.623 29.5401Z" id="Polygon" fill="#FFFFFF" fill-rule="evenodd" stroke="#269FFF" stroke-width="0.98" stroke-linecap="round" stroke-linejoin="round" />
        <path d="M181.063 59.7003L184.023 59.7003L184.023 64.7803L181.063 64.7803L181.063 59.7003Z" id="Rectangle" fill="#FFFFFF" fill-rule="evenodd" stroke="#269FFF" stroke-width="0.98" stroke-linecap="round" stroke-linejoin="round" />
        <path d="M272.534 59.7003L275.494 59.7003L275.494 64.7803L272.534 64.7803L272.534 59.7003Z" id="Rectangle" fill="#FFFFFF" fill-rule="evenodd" stroke="#269FFF" stroke-width="0.98" stroke-linecap="round" stroke-linejoin="round" />
        <path d="M227.774 142.11C227.774 139.862 229.596 138.04 231.844 138.04C234.092 138.04 235.914 139.862 235.914 142.11C235.914 144.358 234.092 146.18 231.844 146.18C229.596 146.18 227.774 144.358 227.774 142.11Z" id="Circle" fill="#FFFFFF" fill-rule="evenodd" stroke="none" />
        <path d="M150.393 142.37L313.303 109.63" id="Line" fill="none" fill-rule="evenodd" stroke="#FFFFFF" stroke-width="1" />
        <path d="M150.153 110.12L313.063 77.38" id="Line" fill="none" fill-rule="evenodd" stroke="#FFFFFF" stroke-width="1" />
        <g id="Group-6-Copy-2" transform="translate(132.9573 -1.9404327)">
          <path d="M0 0L211 -7.97743e-06L211 211L7.97743e-06 211L0 0Z" id="Rectangle" fill="none" fill-rule="evenodd" stroke="none" />
        </g>
        <g id="Group-20-Copy-2" transform="translate(160.4593 -21.4014)">
          <g id="Group-19" transform="translate(43.798916 85.825325)">
            <path d="M69.5568 44.5967L75.9864 44.5967L75.9864 75.2834L69.5568 75.2834L69.5568 44.5967Z" id="Rectangle-3" fill="#9BA3AA" fill-rule="evenodd" stroke="none" />
            <g id="Rectangle-2">
              <use stroke="none" fill="#64717C" xlink:href="#path_2" fill-rule="evenodd" />
              <g clip-path="url(#clip_1)">
                <use xlink:href="#path_2" fill="none" stroke="#889097" stroke-width="26" />
              </g>
            </g>
            <g id="Group-18" transform="translate(27.472712 15.080102)">
              <path d="M27.1778 48.8067L33.6074 48.8067L33.6074 55.2363L27.1778 55.2363L27.1778 48.8067Z" id="Rectangle-3-Copy" fill="#889097" fill-rule="evenodd" stroke="none" />
              <path d="M27.1778 60.2042L33.6074 60.2042L33.6074 66.6338L27.1778 66.6338L27.1778 60.2042Z" id="Rectangle-3-Copy-7" fill="#889097" fill-rule="evenodd" stroke="none" />
              <path d="M27.1778 72.4786L33.6074 72.4786L33.6074 78.9082L27.1778 78.9082L27.1778 72.4786Z" id="Rectangle-3-Copy-8" fill="#889097" fill-rule="evenodd" stroke="none" />
              <path d="M27.1778 84.7531L33.6074 84.7531L33.6074 91.1826L27.1778 91.1826L27.1778 84.7531Z" id="Rectangle-3-Copy-9" fill="#889097" fill-rule="evenodd" stroke="none" />
              <path d="M27.1778 36.5313L33.6074 36.5313L33.6074 42.9609L27.1778 42.9609L27.1778 36.5313Z" id="Rectangle-3-Copy-2" fill="#889097" fill-rule="evenodd" stroke="none" />
              <path d="M42.3204 36.2979L47.0009 36.2979L47.0009 57.0257L42.3204 57.0257L42.3204 36.2979Z" id="Rectangle-3-Copy-18" fill="#889097" fill-rule="evenodd" stroke="none" />
              <path d="M27.1778 24.2569L33.6074 24.2569L33.6074 30.6864L27.1778 30.6864L27.1778 24.2569Z" id="Rectangle-3-Copy-3" fill="#889097" fill-rule="evenodd" stroke="none" />
              <path d="M27.1778 12.2754L33.6074 12.2754L33.6074 18.705L27.1778 18.705L27.1778 12.2754Z" id="Rectangle-3-Copy-4" fill="#889097" fill-rule="evenodd" stroke="none" />
              <path d="M27.1778 0L33.6074 0L33.6074 6.42957L27.1778 6.42957L27.1778 0Z" id="Rectangle-3-Copy-5" fill="#889097" fill-rule="evenodd" stroke="none" />
              <path d="M0 48.8067L6.42958 48.8067L6.42958 55.2363L0 55.2363L0 48.8067Z" id="Rectangle-3-Copy-10" fill="#889097" fill-rule="evenodd" stroke="none" />
              <path d="M0 60.2042L6.42958 60.2042L6.42958 66.6338L0 66.6338L0 60.2042Z" id="Rectangle-3-Copy-11" fill="#889097" fill-rule="evenodd" stroke="none" />
              <path d="M0 72.4786L6.42958 72.4786L6.42958 78.9082L0 78.9082L0 72.4786Z" id="Rectangle-3-Copy-12" fill="#889097" fill-rule="evenodd" stroke="none" />
              <path d="M0 84.7531L6.42958 84.7531L6.42958 91.1826L0 91.1826L0 84.7531Z" id="Rectangle-3-Copy-13" fill="#889097" fill-rule="evenodd" stroke="none" />
              <path d="M0 36.5313L6.42958 36.5313L6.42958 42.9609L0 42.9609L0 36.5313Z" id="Rectangle-3-Copy-14" fill="#889097" fill-rule="evenodd" stroke="none" />
              <path d="M0 24.2569L6.42958 24.2569L6.42958 30.6864L0 30.6864L0 24.2569Z" id="Rectangle-3-Copy-15" fill="#889097" fill-rule="evenodd" stroke="none" />
              <path d="M0 12.2754L6.42958 12.2754L6.42958 18.705L0 18.705L0 12.2754Z" id="Rectangle-3-Copy-16" fill="#889097" fill-rule="evenodd" stroke="none" />
              <path d="M0 0L6.42958 0L6.42958 6.42957L0 6.42957L0 0Z" id="Rectangle-3-Copy-17" fill="#889097" fill-rule="evenodd" stroke="none" />
            </g>
          </g>
          <g id="Group-6-Copy-5" transform="matrix(1.0000001 -3.254292E-09 3.254292E-09 1.0000001 0 0)">
            <path d="M0 0L226 -8.08253e-06L226 226L8.08253e-06 226L0 0Z" id="Rectangle" fill="none" fill-rule="evenodd" stroke="none" />
            <g id="Group-5" transform="matrix(1 -3.5763353E-08 3.5763353E-08 1 20.128946 51.479572)">
              <path d="M180.259 13.9658L180.319 145.891Q180.319 145.902 180.319 145.913L180.278 151.964Q180.277 152.11 180.261 152.256Q180.246 152.402 180.217 152.546Q180.187 152.69 180.144 152.83Q180.1 152.97 180.044 153.105Q179.987 153.24 179.917 153.369Q179.847 153.498 179.765 153.62Q179.683 153.742 179.59 153.855Q179.496 153.968 179.392 154.071Q179.288 154.174 179.174 154.267Q179.061 154.36 178.939 154.441Q178.816 154.522 178.687 154.591Q178.557 154.66 178.422 154.716Q178.286 154.772 178.146 154.814Q178.005 154.857 177.861 154.885Q177.717 154.914 177.572 154.928Q177.426 154.942 177.279 154.942L165.17 154.942L164.888 34.5434L24.5743 34.5434L24.857 154.942L13.0654 154.942Q12.918 154.942 12.7714 154.928Q12.6248 154.913 12.4803 154.885Q12.3358 154.856 12.1949 154.813Q12.0539 154.77 11.9178 154.714Q11.7817 154.658 11.6517 154.588Q11.5218 154.519 11.3993 154.437Q11.2768 154.355 11.1629 154.262Q11.049 154.168 10.9449 154.064Q10.8407 153.96 10.7472 153.846Q10.6538 153.732 10.5719 153.609Q10.49 153.487 10.4206 153.357Q10.3511 153.227 10.2947 153.091Q10.2383 152.955 10.1956 152.814Q10.1528 152.673 10.124 152.529Q10.0953 152.384 10.0808 152.237Q10.0664 152.091 10.0664 151.943L10.0657 145.903Q10.0657 145.902 10.0657 145.902L10.0053 13.9685Q10.0052 13.8211 10.0196 13.6745Q10.034 13.5278 10.0627 13.3832Q10.0914 13.2387 10.1341 13.0976Q10.1768 12.9566 10.2332 12.8204Q10.2895 12.6842 10.359 12.5542Q10.4284 12.4243 10.5102 12.3017Q10.5921 12.1791 10.6855 12.0652Q10.779 11.9512 10.8832 11.847Q10.9874 11.7428 11.1013 11.6493Q11.2152 11.5557 11.3377 11.4738Q11.4602 11.3919 11.5902 11.3225Q11.7202 11.253 11.8563 11.1965Q11.9925 11.1401 12.1335 11.0973Q12.2745 11.0545 12.419 11.0258Q12.5636 10.997 12.7102 10.9826Q12.8569 10.9681 13.0043 10.9681L92.8708 10.9678L177.26 10.9681Q177.407 10.9681 177.554 10.9826Q177.7 10.997 177.845 11.0257Q177.989 11.0545 178.13 11.0972Q178.271 11.1399 178.407 11.1963Q178.543 11.2526 178.673 11.3221Q178.803 11.3915 178.926 11.4733Q179.048 11.5551 179.162 11.6485Q179.276 11.7419 179.38 11.846Q179.484 11.9502 179.578 12.064Q179.671 12.1778 179.753 12.3003Q179.835 12.4227 179.904 12.5526Q179.974 12.6825 180.03 12.8185Q180.087 12.9546 180.129 13.0955Q180.172 13.2364 180.201 13.3809Q180.23 13.5253 180.244 13.6719Q180.259 13.8185 180.259 13.9658L180.259 13.9658Z" id="New-shape-2" fill="#CFD3D5" fill-rule="evenodd" stroke="none" />
              <path d="M2.999 1.13385e-07L188.726 7.1353e-06Q188.874 7.14087e-06 189.02 0.0144481Q189.167 0.0288892 189.312 0.0576321Q189.456 0.086375 189.597 0.129143Q189.738 0.171911 189.874 0.228292Q190.01 0.284674 190.14 0.354125Q190.27 0.423577 190.393 0.50543Q190.515 0.587283 190.629 0.680749Q190.743 0.774215 190.847 0.878394Q190.951 0.982573 191.045 1.09646Q191.138 1.21035 191.22 1.33285Q191.302 1.45535 191.371 1.58529Q191.441 1.71522 191.497 1.85134Q191.554 1.98746 191.596 2.12844Q191.639 2.26943 191.668 2.41393Q191.697 2.55843 191.711 2.70505Q191.725 2.85168 191.725 2.99901L191.725 15.2096Q191.725 15.3569 191.711 15.5035Q191.697 15.6501 191.668 15.7946Q191.639 15.9391 191.596 16.0801Q191.554 16.2211 191.497 16.3572Q191.441 16.4933 191.371 16.6233Q191.302 16.7532 191.22 16.8757Q191.138 16.9982 191.045 17.1121Q190.951 17.226 190.847 17.3302Q190.743 17.4344 190.629 17.5278Q190.515 17.6213 190.393 17.7031Q190.27 17.785 190.14 17.8544Q190.01 17.9239 189.874 17.9803Q189.738 18.0367 189.597 18.0794Q189.456 18.1222 189.312 18.1509Q189.167 18.1797 189.02 18.1941Q188.874 18.2086 188.726 18.2086L2.999 18.2086Q2.85167 18.2086 2.70505 18.1941Q2.55842 18.1797 2.41392 18.1509Q2.26942 18.1222 2.12844 18.0794Q1.98745 18.0367 1.85133 17.9803Q1.71522 17.9239 1.58528 17.8544Q1.45535 17.785 1.33284 17.7031Q1.21034 17.6213 1.09645 17.5278Q0.982565 17.4343 0.878386 17.3302Q0.774207 17.226 0.680741 17.1121Q0.587275 16.9982 0.505422 16.8757Q0.423569 16.7532 0.354117 16.6233Q0.284666 16.4933 0.228285 16.3572Q0.171903 16.2211 0.129135 16.0801Q0.0863673 15.9391 0.0576243 15.7946Q0.0288814 15.6501 0.0144404 15.5035Q-5.80608e-07 15.3569 -5.75038e-07 15.2096L-1.13385e-07 2.999Q-1.07815e-07 2.85167 0.0144409 2.70505Q0.0288819 2.55842 0.0576248 2.41392Q0.0863678 2.26942 0.129136 2.12844Q0.171904 1.98745 0.228285 1.85133Q0.284667 1.71522 0.354118 1.58528Q0.42357 1.45535 0.505423 1.33284Q0.587276 1.21034 0.680742 1.09645Q0.774208 0.982566 0.878387 0.878387Q0.982566 0.774208 1.09645 0.680742Q1.21034 0.587276 1.33284 0.505423Q1.45535 0.42357 1.58528 0.354118Q1.71522 0.284667 1.85133 0.228285Q1.98745 0.171904 2.12844 0.129136Q2.26942 0.0863679 2.41392 0.057625Q2.55842 0.0288821 2.70505 0.0144411Q2.85167 1.07815e-07 2.999 1.13385e-07Z" id="Rectangle" fill="#1976D2" fill-rule="evenodd" stroke="none" />
            </g>
          </g>
        </g>
      </g>
    </g>
  </g>
</svg>