<?xml version="1.0" encoding="utf-8"?>
<svg width="464px" height="258px" viewBox="0 0 464 258" version="1.1" xmlns:xlink="http://www.w3.org/1999/xlink" xmlns="http://www.w3.org/2000/svg">
  <defs>
    <filter filterUnits="userSpaceOnUse" color-interpolation-filters="sRGB" id="filter_1">
      <feFlood flood-opacity="0" result="BackgroundImageFix" />
      <feColorMatrix in="SourceAlpha" type="matrix" values="0 0 0 0 0 0 0 0 0 0 0 0 0 0 0 0 0 0 127 0" />
      <feOffset dx="0" dy="2" />
      <feGaussianBlur stdDeviation="3" />
      <feColorMatrix type="matrix" values="0 0 0 0 0 0 0 0 0 0 0 0 0 0 0 0 0 0 0.49803922 0" />
      <feBlend mode="normal" in2="BackgroundImageFix" result="effect0_dropShadow" />
      <feBlend mode="normal" in="SourceGraphic" in2="effect0_dropShadow" result="shape" />
    </filter>
    <path d="M0 0L462.45 0L462.45 256.13L0 256.13L0 0Z" id="path_1" />
    <path d="M17.832 8.40918L131.932 8.40918L131.932 142.931L17.832 142.931L17.832 8.40918Z" id="path_2" />
    <clipPath id="clip_1">
      <use xlink:href="#path_2" />
    </clipPath>
    <clipPath id="mask_1">
      <use xlink:href="#path_1" />
    </clipPath>
  </defs>
  <g id="Group-32" transform="translate(0.57421875 0.5751953)">
    <g id="visuelVB">
      <path d="M0 0L462.45 0L462.45 256.13L0 256.13L0 0Z" id="Background" fill="none" fill-rule="evenodd" stroke="none" />
      <g clip-path="url(#mask_1)">
        <path d="M0.570313 182.49L208.82 182.49" id="Line" fill="none" fill-rule="evenodd" stroke="#1976D2" stroke-width="1.15" stroke-linecap="round" stroke-linejoin="round" />
        <path d="M31.9004 33.1904L164.43 33.1904L164.43 182.5L31.9004 182.5L31.9004 33.1904Z" id="Rectangle" fill="#FFFFFF" fill-rule="evenodd" stroke="#1976D2" stroke-width="1.15" stroke-linecap="round" stroke-linejoin="round" />
        <path d="M28.3398 26.6396L168.56 26.6396L168.56 33.2096L28.3398 33.2096L28.3398 26.6396Z" id="Rectangle" fill="#FFFFFF" fill-rule="evenodd" stroke="#1976D2" stroke-width="1.15" stroke-linecap="round" stroke-linejoin="round" />
        <path d="M52.8809 33.2096L52.8809 26.6396" id="Line" fill="none" fill-rule="evenodd" stroke="#1976D2" stroke-width="1.15" stroke-linecap="round" stroke-linejoin="round" />
        <path d="M56.2402 26.6396L56.2402 33.1896" id="Line" fill="none" fill-rule="evenodd" stroke="#1976D2" stroke-width="1.15" stroke-linecap="round" stroke-linejoin="round" />
        <path d="M142.199 33.2096L142.199 26.6396" id="Line" fill="none" fill-rule="evenodd" stroke="#1976D2" stroke-width="1.15" stroke-linecap="round" stroke-linejoin="round" />
        <path d="M145.561 26.6396L145.561 33.1896" id="Line" fill="none" fill-rule="evenodd" stroke="#1976D2" stroke-width="1.15" stroke-linecap="round" stroke-linejoin="round" />
        <path d="M97.5391 33.2096L97.5391 26.6396" id="Line" fill="none" fill-rule="evenodd" stroke="#1976D2" stroke-width="1.15" stroke-linecap="round" stroke-linejoin="round" />
        <path d="M100.9 26.6396L100.9 33.1896" id="Line" fill="none" fill-rule="evenodd" stroke="#1976D2" stroke-width="1.15" stroke-linecap="round" stroke-linejoin="round" />
        <path d="M62.4805 117.5L136.57 117.5L136.57 161.18L62.4805 161.18L62.4805 117.5Z" id="Rectangle" fill="#FFFFFF" fill-rule="evenodd" stroke="#1976D2" stroke-width="1.15" stroke-linecap="round" stroke-linejoin="round" />
        <path d="M57.8203 161.08L140.88 161.08L140.88 167.56L57.8203 167.56L57.8203 161.08Z" id="Rectangle" fill="#FFFFFF" fill-rule="evenodd" stroke="#1976D2" stroke-width="1.15" stroke-linecap="round" stroke-linejoin="round" />
        <path d="M84.3691 125.51L87.0491 129.37" id="Line" fill="none" fill-rule="evenodd" stroke="#1976D2" stroke-width="1.15" stroke-linecap="round" stroke-linejoin="round" />
        <path d="M87.9492 125.51L90.6392 129.37" id="Line" fill="none" fill-rule="evenodd" stroke="#1976D2" stroke-width="1.15" stroke-linecap="round" stroke-linejoin="round" />
        <path d="M122.34 125.51L125.03 129.37" id="Line" fill="none" fill-rule="evenodd" stroke="#1976D2" stroke-width="1.15" stroke-linecap="round" stroke-linejoin="round" />
        <path d="M125.93 125.51L128.61 129.37" id="Line" fill="none" fill-rule="evenodd" stroke="#1976D2" stroke-width="1.15" stroke-linecap="round" stroke-linejoin="round" />
        <path d="M65.8008 120.45L98.0308 120.45L98.0308 158.41L65.8008 158.41L65.8008 120.45Z" id="Rectangle" fill="#FFFFFF" fill-rule="evenodd" stroke="#1976D2" stroke-width="1.15" stroke-linecap="round" stroke-linejoin="round" />
        <path d="M101.01 120.45L133.24 120.45L133.24 158.41L101.01 158.41L101.01 120.45Z" id="Rectangle" fill="#FFFFFF" fill-rule="evenodd" stroke="#1976D2" stroke-width="1.15" stroke-linecap="round" stroke-linejoin="round" />
        <path d="M43.4902 161.99L62.2702 159.3L62.2702 118.4L43.4902 115.71L43.4902 161.99L43.4902 161.99Z" id="Polygon" fill="#FFFFFF" fill-rule="evenodd" stroke="#1976D2" stroke-width="1.15" stroke-linecap="round" stroke-linejoin="round" />
        <path d="M50.9805 123.05L50.9805 154.48" id="Line" fill="none" fill-rule="evenodd" stroke="#1976D2" stroke-width="1.15" stroke-linecap="round" stroke-linejoin="round" />
        <path d="M57.0098 124.55L57.0098 152.97" id="Line" fill="none" fill-rule="evenodd" stroke="#1976D2" stroke-width="1.15" stroke-linecap="round" stroke-linejoin="round" />
        <path d="M154.95 161.99L136.17 159.3L136.17 118.4L154.95 115.71L154.95 161.99L154.95 161.99Z" id="Polygon" fill="#FFFFFF" fill-rule="evenodd" stroke="#1976D2" stroke-width="1.15" stroke-linecap="round" stroke-linejoin="round" />
        <path d="M147.449 123.05L147.449 154.48" id="Line" fill="none" fill-rule="evenodd" stroke="#1976D2" stroke-width="1.15" stroke-linecap="round" stroke-linejoin="round" />
        <path d="M141.43 124.55L141.43 152.97" id="Line" fill="none" fill-rule="evenodd" stroke="#1976D2" stroke-width="1.15" stroke-linecap="round" stroke-linejoin="round" />
        <path d="M55.1406 42.7695L93.8406 42.7695L93.8406 86.4495L55.1406 86.4495L55.1406 42.7695Z" id="Rectangle" fill="#FFFFFF" fill-rule="evenodd" stroke="#1976D2" stroke-width="1.15" stroke-linecap="round" stroke-linejoin="round" />
        <path d="M51.8691 86.2402L97.4291 86.2402L97.4291 92.7202L51.8691 92.7202L51.8691 86.2402Z" id="Rectangle" fill="#FFFFFF" fill-rule="evenodd" stroke="#1976D2" stroke-width="1.15" stroke-linecap="round" stroke-linejoin="round" />
        <path d="M77.0293 50.7803L79.7093 54.6303" id="Line" fill="none" fill-rule="evenodd" stroke="#1976D2" stroke-width="1.15" stroke-linecap="round" stroke-linejoin="round" />
        <path d="M80.6094 50.7803L83.2994 54.6303" id="Line" fill="none" fill-rule="evenodd" stroke="#1976D2" stroke-width="1.15" stroke-linecap="round" stroke-linejoin="round" />
        <path d="M58.4609 45.7197L90.6909 45.7197L90.6909 83.6797L58.4609 83.6797L58.4609 45.7197Z" id="Rectangle" fill="#FFFFFF" fill-rule="evenodd" stroke="#1976D2" stroke-width="1.15" stroke-linecap="round" stroke-linejoin="round" />
        <path d="M105.34 42.7695L144.04 42.7695L144.04 86.4495L105.34 86.4495L105.34 42.7695Z" id="Rectangle" fill="#FFFFFF" fill-rule="evenodd" stroke="#1976D2" stroke-width="1.15" stroke-linecap="round" stroke-linejoin="round" />
        <path d="M102.08 86.2402L147.64 86.2402L147.64 92.7202L102.08 92.7202L102.08 86.2402Z" id="Rectangle" fill="#FFFFFF" fill-rule="evenodd" stroke="#1976D2" stroke-width="1.15" stroke-linecap="round" stroke-linejoin="round" />
        <path d="M127.23 50.7803L129.92 54.6303" id="Line" fill="none" fill-rule="evenodd" stroke="#1976D2" stroke-width="1.15" stroke-linecap="round" stroke-linejoin="round" />
        <path d="M130.811 50.7803L133.501 54.6303" id="Line" fill="none" fill-rule="evenodd" stroke="#1976D2" stroke-width="1.15" stroke-linecap="round" stroke-linejoin="round" />
        <path d="M108.66 45.7197L140.89 45.7197L140.89 83.6797L108.66 83.6797L108.66 45.7197Z" id="Rectangle" fill="#FFFFFF" fill-rule="evenodd" stroke="#1976D2" stroke-width="1.15" stroke-linecap="round" stroke-linejoin="round" />
        <path d="M54.9902 103.97L62.4802 103.97L62.4802 111.46L54.9902 111.46L54.9902 103.97Z" id="Rectangle" fill="#FFFFFF" fill-rule="evenodd" stroke="#1976D2" stroke-width="1.15" stroke-linecap="round" stroke-linejoin="round" />
        <path d="M151.199 40.0703L158.689 40.0703L158.689 47.5603L151.199 47.5603L151.199 40.0703Z" id="Rectangle" fill="#FFFFFF" fill-rule="evenodd" stroke="#1976D2" stroke-width="1.15" stroke-linecap="round" stroke-linejoin="round" />
        <path d="M78.7793 50.7803L81.4693 54.6303" id="Line" fill="none" fill-rule="evenodd" stroke="#1976D2" stroke-width="1.15" stroke-linecap="round" stroke-linejoin="round" />
        <path d="M82.3594 50.7803L85.0494 54.6303" id="Line" fill="none" fill-rule="evenodd" stroke="#1976D2" stroke-width="1.15" stroke-linecap="round" stroke-linejoin="round" />
        <path d="M130.109 50.7803L132.789 54.6303" id="Line" fill="none" fill-rule="evenodd" stroke="#1976D2" stroke-width="1.15" stroke-linecap="round" stroke-linejoin="round" />
        <path d="M133.689 50.7803L136.379 54.6303" id="Line" fill="none" fill-rule="evenodd" stroke="#1976D2" stroke-width="1.15" stroke-linecap="round" stroke-linejoin="round" />
        <path d="M184.48 168.75L190.08 168.75L190.08 182.35L184.48 182.35L184.48 168.75Z" id="Rectangle" fill="#FFFFFF" fill-rule="evenodd" stroke="#1976D2" stroke-width="1.15" stroke-linecap="round" stroke-linejoin="round" />
        <path d="M209.241 140.22C213.469 133.178 211.778 124.09 205.301 119.04C207.29 116.208 207.989 112.668 207.228 109.293C206.466 105.918 204.313 103.022 201.301 101.32C203.007 98.6889 203.381 95.4101 202.31 92.4629C201.239 89.5157 198.848 87.2414 195.851 86.3197C197.286 82.7187 196.191 78.6025 193.155 76.1919C190.119 73.7814 185.861 73.6472 182.679 75.8618C179.498 78.0763 178.145 82.1154 179.351 85.7996C176.144 86.7542 173.583 89.177 172.452 92.3255C171.321 95.474 171.755 98.9728 173.621 101.75C170.551 103.147 168.238 105.807 167.279 109.04C166.32 112.274 166.809 115.765 168.621 118.61C164.984 120.491 162.475 124.009 161.88 128.06C161.285 132.112 162.678 136.202 165.621 139.05C162.181 142.14 160.131 146.05 160.131 150.19C160.131 160.32 172.131 168.54 186.831 168.54C201.531 168.54 213.531 160.32 213.531 150.19C213.443 146.437 211.906 142.864 209.241 140.22L209.241 140.22Z" id="Shape" fill="#FFFFFF" fill-rule="evenodd" stroke="#1976D2" stroke-width="1.15" stroke-linecap="round" stroke-linejoin="round" />
        <path d="M174.5 118.43C177.695 118.357 180.607 116.584 182.14 113.78" id="Shape" fill="#FFFFFF" fill-rule="evenodd" stroke="#1976D2" stroke-width="1.15" stroke-linecap="round" stroke-linejoin="round" />
        <path d="M188.651 116.29C183.714 116.29 179.711 112.287 179.711 107.35" id="Shape" fill="#FFFFFF" fill-rule="evenodd" stroke="#1976D2" stroke-width="1.15" stroke-linecap="round" stroke-linejoin="round" />
        <path d="M202.43 153.12C199.801 151.304 198.341 148.224 198.6 145.04" id="Shape" fill="#FFFFFF" fill-rule="evenodd" stroke="#1976D2" stroke-width="1.15" stroke-linecap="round" stroke-linejoin="round" />
        <path d="M196.199 93.4199C193.717 95.4305 190.351 95.9642 187.369 94.8199" id="Shape" fill="#FFFFFF" fill-rule="evenodd" stroke="#1976D2" stroke-width="1.15" stroke-linecap="round" stroke-linejoin="round" />
        <path d="M191.779 143.56C193.761 144.865 196.181 145.329 198.505 144.849C200.829 144.368 202.867 142.984 204.169 141" id="Shape" fill="#FFFFFF" fill-rule="evenodd" stroke="#1976D2" stroke-width="1.15" stroke-linecap="round" stroke-linejoin="round" />
        <path d="M26.4492 33.4902L31.9692 33.4902L31.9692 182.13L26.4492 182.13L26.4492 33.4902Z" id="Rectangle" fill="#FFFFFF" fill-rule="evenodd" stroke="#1976D2" stroke-width="1.15" stroke-linecap="round" stroke-linejoin="round" />
        <path d="M26.4502 39.7602L23.9102 33.2002L31.9702 33.2002L31.9702 39.7602L26.4502 39.7602L26.4502 39.7602Z" id="Polygon" fill="#FFFFFF" fill-rule="evenodd" stroke="#1976D2" stroke-width="1.15" stroke-linecap="round" stroke-linejoin="round" />
        <path d="M26.4492 104.81L31.9692 104.81L31.9692 109.22L26.4492 109.22L26.4492 104.81Z" id="Rectangle" fill="#FFFFFF" fill-rule="evenodd" stroke="#1976D2" stroke-width="1.15" stroke-linecap="round" stroke-linejoin="round" />
        <path d="M26.4492 63.2197L31.9692 63.2197L31.9692 67.6297L26.4492 67.6297L26.4492 63.2197Z" id="Rectangle" fill="#FFFFFF" fill-rule="evenodd" stroke="#1976D2" stroke-width="1.15" stroke-linecap="round" stroke-linejoin="round" />
        <path d="M26.4492 149.19L31.9692 149.19L31.9692 153.6L26.4492 153.6L26.4492 149.19Z" id="Rectangle" fill="#FFFFFF" fill-rule="evenodd" stroke="#1976D2" stroke-width="1.15" stroke-linecap="round" stroke-linejoin="round" />
        <path d="M269.971 48.4096L269.971 182.67L446.281 182.67L446.281 50.0296L356.291 10.3896L269.971 48.4096L269.971 48.4096Z" id="Polygon" fill="#FFFFFF" fill-rule="evenodd" stroke="#1976D2" stroke-width="1.15" stroke-linecap="round" stroke-linejoin="round" />
        <path d="M446.28 43.4403L371.25 10.3903L363.77 7.09031L366.04 6.09031L363.61 0.570313L356.29 3.80031L348.97 0.570313L346.54 6.09031L348.81 7.09031L341.32 10.3903L269.97 41.8203L252.32 49.5903L254.76 55.1103L269.97 48.4103L356.29 10.3903L446.28 50.0303L457.82 55.1103L460.25 49.5903L446.28 43.4403L446.28 43.4403Z" id="Polygon" fill="#FFFFFF" fill-rule="evenodd" stroke="#1976D2" stroke-width="1.15" stroke-linecap="round" stroke-linejoin="round" />
        <path d="M398.721 107.28L431.681 107.28L431.681 182.73L398.721 182.73L398.721 107.28Z" id="Rectangle" fill="#FFFFFF" fill-rule="evenodd" stroke="#1976D2" stroke-width="1.15" stroke-linecap="round" stroke-linejoin="round" />
        <path d="M402.289 149.85L428.289 149.85L428.289 179.73L402.289 179.73L402.289 149.85Z" id="Rectangle" fill="#FFFFFF" fill-rule="evenodd" stroke="#1976D2" stroke-width="1.15" stroke-linecap="round" stroke-linejoin="round" />
        <path d="M402.289 111.23L428.289 111.23L428.289 141.11L402.289 141.11L402.289 111.23Z" id="Rectangle" fill="#FFFFFF" fill-rule="evenodd" stroke="#1976D2" stroke-width="1.15" stroke-linecap="round" stroke-linejoin="round" />
        <path d="M402.289 145L407.109 145" id="Line" fill="none" fill-rule="evenodd" stroke="#1976D2" stroke-width="1.15" stroke-linecap="round" stroke-linejoin="round" />
        <path d="M458.72 182.67L442.41 182.67L439.25 160.05L461.87 160.05L458.72 182.67L458.72 182.67Z" id="Polygon" fill="#FFFFFF" fill-rule="evenodd" stroke="#1976D2" stroke-width="1.15" stroke-linecap="round" stroke-linejoin="round" />
        <path d="M460.741 141.99C460.741 154.58 456.181 158.61 450.561 158.61C444.941 158.61 440.381 154.61 440.381 141.99C440.381 129.37 444.941 112.99 450.561 112.99C456.181 112.99 460.741 129.4 460.741 141.99L460.741 141.99Z" id="Shape" fill="#FFFFFF" fill-rule="evenodd" stroke="#1976D2" stroke-width="1.15" stroke-linecap="round" stroke-linejoin="round" />
        <path d="M444.59 134.05C444.38 136.54 445.34 139.05 448.06 139.05" id="Shape" fill="#FFFFFF" fill-rule="evenodd" stroke="#1976D2" stroke-width="1.15" stroke-linecap="round" stroke-linejoin="round" />
        <path d="M448.061 146.95C450.151 148.6 454.671 149.62 456.731 146.95" id="Shape" fill="#FFFFFF" fill-rule="evenodd" stroke="#1976D2" stroke-width="1.15" stroke-linecap="round" stroke-linejoin="round" />
        <path d="M452.389 148.59C452.389 148.59 453.299 152.84 449.529 153.94" id="Shape" fill="#FFFFFF" fill-rule="evenodd" stroke="#1976D2" stroke-width="1.15" stroke-linecap="round" stroke-linejoin="round" />
        <path d="M456.76 163.46L454.58 178.95" id="Line" fill="none" fill-rule="evenodd" stroke="#1976D2" stroke-width="1.15" stroke-linecap="round" stroke-linejoin="round" />
        <path d="M302.57 107.73L360.31 107.73L360.31 147.85L302.57 147.85L302.57 107.73Z" id="Rectangle" fill="#FFFFFF" fill-rule="evenodd" stroke="#1976D2" stroke-width="1.15" stroke-linecap="round" stroke-linejoin="round" />
        <path d="M298.939 147.75L363.679 147.75L363.679 153.7L298.939 153.7L298.939 147.75Z" id="Rectangle" fill="#FFFFFF" fill-rule="evenodd" stroke="#1976D2" stroke-width="1.15" stroke-linecap="round" stroke-linejoin="round" />
        <path d="M319.631 115.08L321.721 118.62" id="Line" fill="none" fill-rule="evenodd" stroke="#1976D2" stroke-width="1.15" stroke-linecap="round" stroke-linejoin="round" />
        <path d="M322.42 115.08L324.52 118.62" id="Line" fill="none" fill-rule="evenodd" stroke="#1976D2" stroke-width="1.15" stroke-linecap="round" stroke-linejoin="round" />
        <path d="M349.23 115.08L351.32 118.62" id="Line" fill="none" fill-rule="evenodd" stroke="#1976D2" stroke-width="1.15" stroke-linecap="round" stroke-linejoin="round" />
        <path d="M352.02 115.08L354.11 118.62" id="Line" fill="none" fill-rule="evenodd" stroke="#1976D2" stroke-width="1.15" stroke-linecap="round" stroke-linejoin="round" />
        <path d="M305.16 110.44L330.28 110.44L330.28 145.3L305.16 145.3L305.16 110.44Z" id="Rectangle" fill="#FFFFFF" fill-rule="evenodd" stroke="#1976D2" stroke-width="1.15" stroke-linecap="round" stroke-linejoin="round" />
        <path d="M332.6 110.44L357.72 110.44L357.72 145.3L332.6 145.3L332.6 110.44Z" id="Rectangle" fill="#FFFFFF" fill-rule="evenodd" stroke="#1976D2" stroke-width="1.15" stroke-linecap="round" stroke-linejoin="round" />
        <path d="M278.529 107.73L300.729 107.73L300.729 145.3L278.529 145.3L278.529 107.73Z" id="Rectangle" fill="#FFFFFF" fill-rule="evenodd" stroke="#1976D2" stroke-width="1.15" stroke-linecap="round" stroke-linejoin="round" />
        <path d="M281.48 111.84L297.77 111.84L297.77 115.89L281.48 115.89L281.48 111.84Z" id="Rectangle" fill="#FFFFFF" fill-rule="evenodd" stroke="#1976D2" stroke-width="1.15" stroke-linecap="round" stroke-linejoin="round" />
        <path d="M281.48 136.82L297.77 136.82L297.77 140.87L281.48 140.87L281.48 136.82Z" id="Rectangle" fill="#FFFFFF" fill-rule="evenodd" stroke="#1976D2" stroke-width="1.15" stroke-linecap="round" stroke-linejoin="round" />
        <path d="M281.48 115.89L293.06 136.73L297.78 136.82L286.02 115.89L281.48 115.89L281.48 115.89Z" id="Polygon" fill="#FFFFFF" fill-rule="evenodd" stroke="#1976D2" stroke-width="1.15" stroke-linecap="round" stroke-linejoin="round" />
        <path d="M384.2 145.3L362 145.3L362 107.73L384.2 107.73L384.2 145.3Z" id="Rectangle" fill="#FFFFFF" fill-rule="evenodd" stroke="#1976D2" stroke-width="1.15" stroke-linecap="round" stroke-linejoin="round" />
        <path d="M381.239 115.89L364.949 115.89L364.949 111.84L381.239 111.84L381.239 115.89Z" id="Rectangle" fill="#FFFFFF" fill-rule="evenodd" stroke="#1976D2" stroke-width="1.15" stroke-linecap="round" stroke-linejoin="round" />
        <path d="M381.239 140.88L364.949 140.88L364.949 136.83L381.239 136.83L381.239 140.88Z" id="Rectangle" fill="#FFFFFF" fill-rule="evenodd" stroke="#1976D2" stroke-width="1.15" stroke-linecap="round" stroke-linejoin="round" />
        <path d="M381.239 115.89L369.669 136.73L364.949 136.82L376.709 115.89L381.239 115.89L381.239 115.89Z" id="Polygon" fill="#FFFFFF" fill-rule="evenodd" stroke="#1976D2" stroke-width="1.15" stroke-linecap="round" stroke-linejoin="round" />
        <path d="M288.26 143.24L290.94 143.24L290.94 147.84L288.26 147.84L288.26 143.24Z" id="Rectangle" fill="#FFFFFF" fill-rule="evenodd" stroke="#1976D2" stroke-width="1.15" stroke-linecap="round" stroke-linejoin="round" />
        <path d="M371.189 143.24L373.869 143.24L373.869 147.84L371.189 147.84L371.189 143.24Z" id="Rectangle" fill="#FFFFFF" fill-rule="evenodd" stroke="#1976D2" stroke-width="1.15" stroke-linecap="round" stroke-linejoin="round" />
        <path d="M302.57 53.4004L360.31 53.4004L360.31 93.5204L302.57 93.5204L302.57 53.4004Z" id="Rectangle" fill="#FFFFFF" fill-rule="evenodd" stroke="#1976D2" stroke-width="1.15" stroke-linecap="round" stroke-linejoin="round" />
        <path d="M298.939 93.4199L363.679 93.4199L363.679 99.3699L298.939 99.3699L298.939 93.4199Z" id="Rectangle" fill="#FFFFFF" fill-rule="evenodd" stroke="#1976D2" stroke-width="1.15" stroke-linecap="round" stroke-linejoin="round" />
        <path d="M319.631 60.75L321.721 64.29" id="Line" fill="none" fill-rule="evenodd" stroke="#1976D2" stroke-width="1.15" stroke-linecap="round" stroke-linejoin="round" />
        <path d="M322.42 60.75L324.52 64.29" id="Line" fill="none" fill-rule="evenodd" stroke="#1976D2" stroke-width="1.15" stroke-linecap="round" stroke-linejoin="round" />
        <path d="M349.23 60.75L351.32 64.29" id="Line" fill="none" fill-rule="evenodd" stroke="#1976D2" stroke-width="1.15" stroke-linecap="round" stroke-linejoin="round" />
        <path d="M352.02 60.75L354.11 64.29" id="Line" fill="none" fill-rule="evenodd" stroke="#1976D2" stroke-width="1.15" stroke-linecap="round" stroke-linejoin="round" />
        <path d="M305.16 56.1104L330.28 56.1104L330.28 90.9704L305.16 90.9704L305.16 56.1104Z" id="Rectangle" fill="#FFFFFF" fill-rule="evenodd" stroke="#1976D2" stroke-width="1.15" stroke-linecap="round" stroke-linejoin="round" />
        <path d="M332.6 56.1104L357.72 56.1104L357.72 90.9704L332.6 90.9704L332.6 56.1104Z" id="Rectangle" fill="#FFFFFF" fill-rule="evenodd" stroke="#1976D2" stroke-width="1.15" stroke-linecap="round" stroke-linejoin="round" />
        <path d="M278.529 53.4004L300.729 53.4004L300.729 90.9704L278.529 90.9704L278.529 53.4004Z" id="Rectangle" fill="#FFFFFF" fill-rule="evenodd" stroke="#1976D2" stroke-width="1.15" stroke-linecap="round" stroke-linejoin="round" />
        <path d="M281.48 57.5098L297.77 57.5098L297.77 61.5598L281.48 61.5598L281.48 57.5098Z" id="Rectangle" fill="#FFFFFF" fill-rule="evenodd" stroke="#1976D2" stroke-width="1.15" stroke-linecap="round" stroke-linejoin="round" />
        <path d="M281.48 82.4902L297.77 82.4902L297.77 86.5402L281.48 86.5402L281.48 82.4902Z" id="Rectangle" fill="#FFFFFF" fill-rule="evenodd" stroke="#1976D2" stroke-width="1.15" stroke-linecap="round" stroke-linejoin="round" />
        <path d="M281.48 61.5596L293.06 82.3996L297.78 82.4896L286.02 61.5596L281.48 61.5596L281.48 61.5596Z" id="Polygon" fill="#FFFFFF" fill-rule="evenodd" stroke="#1976D2" stroke-width="1.15" stroke-linecap="round" stroke-linejoin="round" />
        <path d="M384.2 90.9596L362 90.9596L362 53.3897L384.2 53.3896L384.2 90.9596Z" id="Rectangle" fill="#FFFFFF" fill-rule="evenodd" stroke="#1976D2" stroke-width="1.15" stroke-linecap="round" stroke-linejoin="round" />
        <path d="M381.239 61.5598L364.949 61.5598L364.949 57.5098L381.239 57.5098L381.239 61.5598Z" id="Rectangle" fill="#FFFFFF" fill-rule="evenodd" stroke="#1976D2" stroke-width="1.15" stroke-linecap="round" stroke-linejoin="round" />
        <path d="M381.239 86.5402L364.949 86.5402L364.949 82.4902L381.239 82.4902L381.239 86.5402Z" id="Rectangle" fill="#FFFFFF" fill-rule="evenodd" stroke="#1976D2" stroke-width="1.15" stroke-linecap="round" stroke-linejoin="round" />
        <path d="M381.239 61.5596L369.669 82.3996L364.949 82.4896L376.709 61.5596L381.239 61.5596L381.239 61.5596Z" id="Polygon" fill="#FFFFFF" fill-rule="evenodd" stroke="#1976D2" stroke-width="1.15" stroke-linecap="round" stroke-linejoin="round" />
        <path d="M288.26 88.9102L290.94 88.9102L290.94 93.5102L288.26 93.5102L288.26 88.9102Z" id="Rectangle" fill="#FFFFFF" fill-rule="evenodd" stroke="#1976D2" stroke-width="1.15" stroke-linecap="round" stroke-linejoin="round" />
        <path d="M371.189 88.9102L373.869 88.9102L373.869 93.5102L371.189 93.5102L371.189 88.9102Z" id="Rectangle" fill="#FFFFFF" fill-rule="evenodd" stroke="#1976D2" stroke-width="1.15" stroke-linecap="round" stroke-linejoin="round" />
        <path d="M404.699 57.5098L417.069 57.5098L417.069 62.5198L404.699 62.5198L404.699 57.5098Z" id="Rectangle" fill="#FFFFFF" fill-rule="evenodd" stroke="#1976D2" stroke-width="1.15" stroke-linecap="round" stroke-linejoin="round" />
        <path d="M284.75 166.35L297.12 166.35L297.12 171.36L284.75 171.36L284.75 166.35Z" id="Rectangle" fill="#FFFFFF" fill-rule="evenodd" stroke="#1976D2" stroke-width="1.15" stroke-linecap="round" stroke-linejoin="round" />
        <path d="M296.381 166.35L308.751 166.35L308.751 171.36L296.381 171.36L296.381 166.35Z" id="Rectangle" fill="#FFFFFF" fill-rule="evenodd" stroke="#1976D2" stroke-width="1.15" stroke-linecap="round" stroke-linejoin="round" />
        <path d="M321.721 35.7197L334.091 35.7197L334.091 40.7297L321.721 40.7297L321.721 35.7197Z" id="Rectangle" fill="#FFFFFF" fill-rule="evenodd" stroke="#1976D2" stroke-width="1.15" stroke-linecap="round" stroke-linejoin="round" />
        <path d="M330.141 30.7002L342.511 30.7002L342.511 35.7102L330.141 35.7102L330.141 30.7002Z" id="Rectangle" fill="#FFFFFF" fill-rule="evenodd" stroke="#1976D2" stroke-width="1.15" stroke-linecap="round" stroke-linejoin="round" />
        <path d="M410.18 52.5L422.55 52.5L422.55 57.51L410.18 57.51L410.18 52.5Z" id="Rectangle" fill="#FFFFFF" fill-rule="evenodd" stroke="#1976D2" stroke-width="1.15" stroke-linecap="round" stroke-linejoin="round" />
        <path d="M416.369 57.5098L428.739 57.5098L428.739 62.5198L416.369 62.5198L416.369 57.5098Z" id="Rectangle" fill="#FFFFFF" fill-rule="evenodd" stroke="#1976D2" stroke-width="1.15" stroke-linecap="round" stroke-linejoin="round" />
      </g>
    </g>
    <g filter="url(#filter_1)">
      <g id="Group-24-Copy-4" transform="translate(141.60156 55.125)">
        <g id="Group-4-Copy">
          <path d="M0 0L179 0L179 179L0 179L0 0Z" id="Rectangle" fill="none" fill-rule="evenodd" stroke="none" />
          <g id="Group-25" transform="translate(14.322266 14.3203125)">
            <g id="Rectangle-6">
              <use xlink:href="#path_2" fill="none" stroke="#CFD3D5" stroke-width="6" />
              <use stroke="none" fill="#37474F" xlink:href="#path_2" fill-rule="evenodd" />
              <g clip-path="url(#clip_1)">
                <use xlink:href="#path_2" fill="none" stroke="#0A4E85" stroke-width="10" />
              </g>
            </g>
            <g id="Group-24" transform="translate(114.10547 0)">
              <path d="M33.8735 0L33.8735 147.974L0 126.114L0 21.019L33.8735 0Z" id="New-shape" fill="#0860A8" fill-rule="evenodd" stroke="none" />
              <path d="M28.5243 55.4903L28.5243 15.1338L5.34766 28.586L5.34766 55.4903L28.5243 55.4903Z" id="New-shape-2" fill="#E3F2FD" fill-rule="evenodd" stroke="none" />
              <path d="M28.5243 62.2168L28.5243 136.204L5.34766 121.911L5.34766 62.2168L28.5243 62.2168Z" id="New-shape-3" fill="#E3F2FD" fill-rule="evenodd" stroke="none" />
            </g>
            <g id="Group-24-Copy" transform="matrix(-1 0 0 1 33.873047 0)">
              <path d="M33.8736 0L33.8736 147.974L0 126.114L0 21.019L33.8736 0Z" id="New-shape" fill="#0860A8" fill-rule="evenodd" stroke="none" />
              <path d="M28.5243 55.4903L28.5243 15.1338L5.34766 28.586L5.34766 55.4903L28.5243 55.4903Z" id="New-shape-2" fill="#E3F2FD" fill-rule="evenodd" stroke="none" />
              <path d="M28.5243 62.2168L28.5243 136.204L5.34766 121.911L5.34766 62.2168L28.5243 62.2168Z" id="New-shape-3" fill="#E3F2FD" fill-rule="evenodd" stroke="none" />
            </g>
          </g>
        </g>
      </g>
    </g>
  </g>
</svg>