<?xml version="1.0" encoding="utf-8"?>
<svg width="471px" height="228px" viewBox="0 0 471 228" version="1.1" xmlns:xlink="http://www.w3.org/1999/xlink" xmlns="http://www.w3.org/2000/svg">
  <defs>
    <path d="M0 0L469.46 0L469.46 226.36L0 226.36L0 0Z" id="path_1" />
    <clipPath id="mask_1">
      <use xlink:href="#path_1" />
    </clipPath>
  </defs>
  <g id="visuelPG" transform="translate(0.5 0.5)">
    <path d="M0 0L469.46 0L469.46 226.36L0 226.36L0 0Z" id="Background" fill="none" fill-rule="evenodd" stroke="none" />
    <g clip-path="url(#mask_1)">
      <path d="M257.684 158.07L455.484 158.07" id="Line" fill="none" fill-rule="evenodd" stroke="#269FFF" stroke-width="1" stroke-linecap="round" stroke-linejoin="round" />
      <path d="M305.594 84.9102L423.284 84.9102L423.284 158.08L305.594 158.08L305.594 84.9102Z" id="Rectangle" fill="#FFFFFF" fill-rule="evenodd" stroke="#269FFF" stroke-width="1" stroke-linecap="round" stroke-linejoin="round" />
      <path d="M320.344 97.6699L408.824 97.6699L408.824 158.08L320.344 158.08L320.344 97.6699Z" id="Rectangle" fill="#FFFFFF" fill-rule="evenodd" stroke="#269FFF" stroke-width="1" stroke-linecap="round" stroke-linejoin="round" />
      <path d="M305.594 78.6699L427.254 78.6699L427.254 84.9099L305.594 84.9099L305.594 78.6699Z" id="Rectangle" fill="#FFFFFF" fill-rule="evenodd" stroke="#269FFF" stroke-width="1" stroke-linecap="round" stroke-linejoin="round" />
      <path d="M305.594 38.96L423.284 38.96L423.284 78.66L305.594 78.66L305.594 38.96Z" id="Rectangle" fill="#FFFFFF" fill-rule="evenodd" stroke="#269FFF" stroke-width="1" stroke-linecap="round" stroke-linejoin="round" />
      <path d="M305.924 41.8398C310.114 41.8398 310.114 45.2398 314.314 45.2398C318.514 45.2398 318.504 41.8398 322.694 41.8398C326.884 41.8398 326.884 45.2398 331.074 45.2398C335.264 45.2398 335.264 41.8398 339.464 41.8398C343.664 41.8398 343.654 45.2398 347.854 45.2398C352.054 45.2398 352.044 41.8398 356.244 41.8398C360.444 41.8398 360.434 45.2398 364.634 45.2398C368.834 45.2398 368.824 41.8398 373.014 41.8398C377.204 41.8398 377.204 45.2398 381.394 45.2398C385.584 45.2398 385.584 41.8398 389.784 41.8398C393.984 41.8398 393.974 45.2398 398.174 45.2398C402.374 45.2398 402.364 41.8398 406.564 41.8398C410.764 41.8398 410.764 45.2398 414.954 45.2398C419.144 45.2398 419.154 41.8398 423.344 41.8398" id="Shape" fill="#FFFFFF" fill-rule="evenodd" stroke="#269FFF" stroke-width="1" stroke-linecap="round" stroke-linejoin="round" />
      <path d="M305.924 41.8398C310.114 41.8398 310.114 45.2398 314.314 45.2398C318.514 45.2398 318.504 41.8398 322.694 41.8398C326.884 41.8398 326.884 45.2398 331.074 45.2398C335.264 45.2398 335.264 41.8398 339.464 41.8398C343.664 41.8398 343.654 45.2398 347.854 45.2398C352.054 45.2398 352.044 41.8398 356.244 41.8398C360.444 41.8398 360.434 45.2398 364.634 45.2398C368.834 45.2398 368.824 41.8398 373.014 41.8398C377.204 41.8398 377.204 45.2398 381.394 45.2398C385.584 45.2398 385.584 41.8398 389.784 41.8398C393.984 41.8398 393.974 45.2398 398.174 45.2398C402.374 45.2398 402.364 41.8398 406.564 41.8398C410.764 41.8398 410.764 45.2398 414.954 45.2398C419.144 45.2398 419.154 41.8398 423.344 41.8398" id="Shape" fill="#FFFFFF" fill-rule="evenodd" stroke="#269FFF" stroke-width="1" stroke-linecap="round" stroke-linejoin="round" />
      <path d="M305.924 49.1699C310.114 49.1699 310.114 52.5699 314.314 52.5699C318.514 52.5699 318.504 49.1699 322.694 49.1699C326.884 49.1699 326.884 52.5699 331.074 52.5699C335.264 52.5699 335.264 49.1699 339.464 49.1699C343.664 49.1699 343.654 52.5699 347.854 52.5699C352.054 52.5699 352.044 49.1699 356.244 49.1699C360.444 49.1699 360.434 52.5699 364.634 52.5699C368.834 52.5699 368.824 49.1699 373.014 49.1699C377.204 49.1699 377.204 52.5699 381.394 52.5699C385.584 52.5699 385.584 49.1699 389.784 49.1699C393.984 49.1699 393.974 52.5699 398.174 52.5699C402.374 52.5699 402.364 49.1699 406.564 49.1699C410.764 49.1699 410.764 52.5699 414.954 52.5699C419.144 52.5699 419.154 49.1699 423.344 49.1699" id="Shape" fill="#FFFFFF" fill-rule="evenodd" stroke="#269FFF" stroke-width="1" stroke-linecap="round" stroke-linejoin="round" />
      <path d="M305.924 49.1699C310.114 49.1699 310.114 52.5699 314.314 52.5699C318.514 52.5699 318.504 49.1699 322.694 49.1699C326.884 49.1699 326.884 52.5699 331.074 52.5699C335.264 52.5699 335.264 49.1699 339.464 49.1699C343.664 49.1699 343.654 52.5699 347.854 52.5699C352.054 52.5699 352.044 49.1699 356.244 49.1699C360.444 49.1699 360.434 52.5699 364.634 52.5699C368.834 52.5699 368.824 49.1699 373.014 49.1699C377.204 49.1699 377.204 52.5699 381.394 52.5699C385.584 52.5699 385.584 49.1699 389.784 49.1699C393.984 49.1699 393.974 52.5699 398.174 52.5699C402.374 52.5699 402.364 49.1699 406.564 49.1699C410.764 49.1699 410.764 52.5699 414.954 52.5699C419.144 52.5699 419.154 49.1699 423.344 49.1699" id="Shape" fill="#FFFFFF" fill-rule="evenodd" stroke="#269FFF" stroke-width="1" stroke-linecap="round" stroke-linejoin="round" />
      <path d="M305.924 56.54C310.114 56.54 310.114 59.94 314.314 59.94C318.514 59.94 318.504 56.54 322.694 56.54C326.884 56.54 326.884 59.94 331.074 59.94C335.264 59.94 335.264 56.54 339.464 56.54C343.664 56.54 343.654 59.94 347.854 59.94C352.054 59.94 352.044 56.54 356.244 56.54C360.444 56.54 360.434 59.94 364.634 59.94C368.834 59.94 368.824 56.54 373.014 56.54C377.204 56.54 377.204 59.94 381.394 59.94C385.584 59.94 385.584 56.54 389.784 56.54C393.984 56.54 393.974 59.94 398.174 59.94C402.374 59.94 402.364 56.54 406.564 56.54C410.764 56.54 410.764 59.94 414.954 59.94C419.144 59.94 419.154 56.54 423.344 56.54" id="Shape" fill="#FFFFFF" fill-rule="evenodd" stroke="#269FFF" stroke-width="1" stroke-linecap="round" stroke-linejoin="round" />
      <path d="M305.924 56.54C310.114 56.54 310.114 59.94 314.314 59.94C318.514 59.94 318.504 56.54 322.694 56.54C326.884 56.54 326.884 59.94 331.074 59.94C335.264 59.94 335.264 56.54 339.464 56.54C343.664 56.54 343.654 59.94 347.854 59.94C352.054 59.94 352.044 56.54 356.244 56.54C360.444 56.54 360.434 59.94 364.634 59.94C368.834 59.94 368.824 56.54 373.014 56.54C377.204 56.54 377.204 59.94 381.394 59.94C385.584 59.94 385.584 56.54 389.784 56.54C393.984 56.54 393.974 59.94 398.174 59.94C402.374 59.94 402.364 56.54 406.564 56.54C410.764 56.54 410.764 59.94 414.954 59.94C419.144 59.94 419.154 56.54 423.344 56.54" id="Shape" fill="#FFFFFF" fill-rule="evenodd" stroke="#269FFF" stroke-width="1" stroke-linecap="round" stroke-linejoin="round" />
      <path d="M305.924 63.9199C310.114 63.9199 310.114 67.3199 314.314 67.3199C318.514 67.3199 318.504 63.9199 322.694 63.9199C326.884 63.9199 326.884 67.3199 331.074 67.3199C335.264 67.3199 335.264 63.9199 339.464 63.9199C343.664 63.9199 343.654 67.3199 347.854 67.3199C352.054 67.3199 352.044 63.9199 356.244 63.9199C360.444 63.9199 360.434 67.3199 364.634 67.3199C368.834 67.3199 368.824 63.9199 373.014 63.9199C377.204 63.9199 377.204 67.3199 381.394 67.3199C385.584 67.3199 385.584 63.9199 389.784 63.9199C393.984 63.9199 393.974 67.3199 398.174 67.3199C402.374 67.3199 402.364 63.9199 406.564 63.9199C410.764 63.9199 410.764 67.3199 414.954 67.3199C419.144 67.3199 419.154 63.9199 423.344 63.9199" id="Shape" fill="#FFFFFF" fill-rule="evenodd" stroke="#269FFF" stroke-width="1" stroke-linecap="round" stroke-linejoin="round" />
      <path d="M305.924 63.9199C310.114 63.9199 310.114 67.3199 314.314 67.3199C318.514 67.3199 318.504 63.9199 322.694 63.9199C326.884 63.9199 326.884 67.3199 331.074 67.3199C335.264 67.3199 335.264 63.9199 339.464 63.9199C343.664 63.9199 343.654 67.3199 347.854 67.3199C352.054 67.3199 352.044 63.9199 356.244 63.9199C360.444 63.9199 360.434 67.3199 364.634 67.3199C368.834 67.3199 368.824 63.9199 373.014 63.9199C377.204 63.9199 377.204 67.3199 381.394 67.3199C385.584 67.3199 385.584 63.9199 389.784 63.9199C393.984 63.9199 393.974 67.3199 398.174 67.3199C402.374 67.3199 402.364 63.9199 406.564 63.9199C410.764 63.9199 410.764 67.3199 414.954 67.3199C419.144 67.3199 419.154 63.9199 423.344 63.9199" id="Shape" fill="#FFFFFF" fill-rule="evenodd" stroke="#269FFF" stroke-width="1" stroke-linecap="round" stroke-linejoin="round" />
      <path d="M305.924 71.29C310.114 71.29 310.114 74.69 314.314 74.69C318.514 74.69 318.504 71.29 322.694 71.29C326.884 71.29 326.884 74.69 331.074 74.69C335.264 74.69 335.264 71.29 339.464 71.29C343.664 71.29 343.654 74.69 347.854 74.69C352.054 74.69 352.044 71.29 356.244 71.29C360.444 71.29 360.434 74.69 364.634 74.69C368.834 74.69 368.824 71.29 373.014 71.29C377.204 71.29 377.204 74.69 381.394 74.69C385.584 74.69 385.584 71.29 389.784 71.29C393.984 71.29 393.974 74.69 398.174 74.69C402.374 74.69 402.364 71.29 406.564 71.29C410.764 71.29 410.764 74.69 414.954 74.69C419.144 74.69 419.154 71.29 423.344 71.29" id="Shape" fill="#FFFFFF" fill-rule="evenodd" stroke="#269FFF" stroke-width="1" stroke-linecap="round" stroke-linejoin="round" />
      <path d="M305.924 71.29C310.114 71.29 310.114 74.69 314.314 74.69C318.514 74.69 318.504 71.29 322.694 71.29C326.884 71.29 326.884 74.69 331.074 74.69C335.264 74.69 335.264 71.29 339.464 71.29C343.664 71.29 343.654 74.69 347.854 74.69C352.054 74.69 352.044 71.29 356.244 71.29C360.444 71.29 360.434 74.69 364.634 74.69C368.834 74.69 368.824 71.29 373.014 71.29C377.204 71.29 377.204 74.69 381.394 74.69C385.584 74.69 385.584 71.29 389.784 71.29C393.984 71.29 393.974 74.69 398.174 74.69C402.374 74.69 402.364 71.29 406.564 71.29C410.764 71.29 410.764 74.69 414.954 74.69C419.144 74.69 419.154 71.29 423.344 71.29" id="Shape" fill="#FFFFFF" fill-rule="evenodd" stroke="#269FFF" stroke-width="1" stroke-linecap="round" stroke-linejoin="round" />
      <path d="M320.344 154.45L408.374 154.45" id="Line" fill="none" fill-rule="evenodd" stroke="#269FFF" stroke-width="1" stroke-linecap="round" stroke-linejoin="round" />
      <path d="M320.344 151.1L408.374 151.1" id="Line" fill="none" fill-rule="evenodd" stroke="#269FFF" stroke-width="1" stroke-linecap="round" stroke-linejoin="round" />
      <path d="M320.344 147.75L408.374 147.75" id="Line" fill="none" fill-rule="evenodd" stroke="#269FFF" stroke-width="1" stroke-linecap="round" stroke-linejoin="round" />
      <path d="M320.344 144.39L408.374 144.39" id="Line" fill="none" fill-rule="evenodd" stroke="#269FFF" stroke-width="1" stroke-linecap="round" stroke-linejoin="round" />
      <path d="M320.344 141.04L408.374 141.04" id="Line" fill="none" fill-rule="evenodd" stroke="#269FFF" stroke-width="1" stroke-linecap="round" stroke-linejoin="round" />
      <path d="M320.344 137.69L408.374 137.69" id="Line" fill="none" fill-rule="evenodd" stroke="#269FFF" stroke-width="1" stroke-linecap="round" stroke-linejoin="round" />
      <path d="M320.344 134.33L408.374 134.33" id="Line" fill="none" fill-rule="evenodd" stroke="#269FFF" stroke-width="1" stroke-linecap="round" stroke-linejoin="round" />
      <path d="M320.344 130.98L408.374 130.98" id="Line" fill="none" fill-rule="evenodd" stroke="#269FFF" stroke-width="1" stroke-linecap="round" stroke-linejoin="round" />
      <path d="M320.344 127.63L408.374 127.63" id="Line" fill="none" fill-rule="evenodd" stroke="#269FFF" stroke-width="1" stroke-linecap="round" stroke-linejoin="round" />
      <path d="M320.344 124.271L408.374 124.271" id="Line" fill="none" fill-rule="evenodd" stroke="#269FFF" stroke-width="1" stroke-linecap="round" stroke-linejoin="round" />
      <path d="M320.344 120.92L408.374 120.92" id="Line" fill="none" fill-rule="evenodd" stroke="#269FFF" stroke-width="1" stroke-linecap="round" stroke-linejoin="round" />
      <path d="M320.344 117.57L408.374 117.57" id="Line" fill="none" fill-rule="evenodd" stroke="#269FFF" stroke-width="1" stroke-linecap="round" stroke-linejoin="round" />
      <path d="M320.344 114.21L408.374 114.21" id="Line" fill="none" fill-rule="evenodd" stroke="#269FFF" stroke-width="1" stroke-linecap="round" stroke-linejoin="round" />
      <path d="M320.344 110.86L408.374 110.86" id="Line" fill="none" fill-rule="evenodd" stroke="#269FFF" stroke-width="1" stroke-linecap="round" stroke-linejoin="round" />
      <path d="M320.344 107.51L408.374 107.51" id="Line" fill="none" fill-rule="evenodd" stroke="#269FFF" stroke-width="1" stroke-linecap="round" stroke-linejoin="round" />
      <path d="M320.344 104.15L408.374 104.15" id="Line" fill="none" fill-rule="evenodd" stroke="#269FFF" stroke-width="1" stroke-linecap="round" stroke-linejoin="round" />
      <path d="M320.344 100.8L408.374 100.8" id="Line" fill="none" fill-rule="evenodd" stroke="#269FFF" stroke-width="1" stroke-linecap="round" stroke-linejoin="round" />
      <path d="M320.344 84.9099L320.344 78.6699" id="Line" fill="none" fill-rule="evenodd" stroke="#269FFF" stroke-width="1" stroke-linecap="round" stroke-linejoin="round" />
      <path d="M323.533 78.6699L323.533 84.8899" id="Line" fill="none" fill-rule="evenodd" stroke="#269FFF" stroke-width="1" stroke-linecap="round" stroke-linejoin="round" />
      <path d="M405.184 84.9099L405.184 78.6699" id="Line" fill="none" fill-rule="evenodd" stroke="#269FFF" stroke-width="1" stroke-linecap="round" stroke-linejoin="round" />
      <path d="M408.373 78.6699L408.373 84.8899" id="Line" fill="none" fill-rule="evenodd" stroke="#269FFF" stroke-width="1" stroke-linecap="round" stroke-linejoin="round" />
      <path d="M362.764 84.9099L362.764 78.6699" id="Line" fill="none" fill-rule="evenodd" stroke="#269FFF" stroke-width="1" stroke-linecap="round" stroke-linejoin="round" />
      <path d="M365.953 78.6699L365.953 84.8899" id="Line" fill="none" fill-rule="evenodd" stroke="#269FFF" stroke-width="1" stroke-linecap="round" stroke-linejoin="round" />
      <path d="M429.164 158.08L423.914 158.08L423.914 84.9102L429.164 84.9102L429.164 158.08Z" id="Rectangle" fill="#FFFFFF" fill-rule="evenodd" stroke="#269FFF" stroke-width="1" stroke-linecap="round" stroke-linejoin="round" />
      <path d="M429.164 90.8601L431.574 84.6201L423.914 84.6201L423.914 90.8601L429.164 90.8601L429.164 90.8601Z" id="Polygon" fill="#FFFFFF" fill-rule="evenodd" stroke="#269FFF" stroke-width="1" stroke-linecap="round" stroke-linejoin="round" />
      <path d="M429.164 120.64L423.914 120.64L423.914 116.45L429.164 116.45L429.164 120.64Z" id="Rectangle" fill="#FFFFFF" fill-opacity="0.68" fill-rule="evenodd" stroke="#269FFF" stroke-opacity="0.68" stroke-width="1" stroke-linecap="round" stroke-linejoin="round" />
      <path d="M-0.976563 159.8L199.703 159.8" id="Line" fill="none" fill-rule="evenodd" stroke="#269FFF" stroke-width="1" stroke-linecap="round" stroke-linejoin="round" />
      <path d="M27.043 85.5703L146.443 85.5703L146.443 159.8L27.043 159.8L27.043 85.5703Z" id="Rectangle" fill="#FFFFFF" fill-rule="evenodd" stroke="#269FFF" stroke-width="1" stroke-linecap="round" stroke-linejoin="round" />
      <path d="M42.0039 98.5205L131.774 98.5205L131.774 159.801L42.0039 159.801L42.0039 98.5205Z" id="Rectangle" fill="#FFFFFF" fill-rule="evenodd" stroke="#269FFF" stroke-width="1" stroke-linecap="round" stroke-linejoin="round" />
      <path d="M27.043 79.2402L150.473 79.2402L150.473 85.5702L27.043 85.5702L27.043 79.2402Z" id="Rectangle" fill="#FFFFFF" fill-rule="evenodd" stroke="#269FFF" stroke-width="1" stroke-linecap="round" stroke-linejoin="round" />
      <path d="M27.043 38.96L146.443 38.96L146.443 79.24L27.043 79.24L27.043 38.96Z" id="Rectangle" fill="#FFFFFF" fill-rule="evenodd" stroke="#269FFF" stroke-width="1" stroke-linecap="round" stroke-linejoin="round" />
      <path d="M27.3828 41.8398C31.6328 41.8398 31.6328 45.2899 35.8928 45.2899C40.1528 45.2899 40.1428 41.8398 44.4028 41.8398C48.6628 41.8398 48.6528 45.2899 52.9128 45.2899C57.1729 45.2899 57.1628 41.8398 61.4228 41.8398C65.6829 41.8398 65.6729 45.2899 69.9329 45.2899C74.1929 45.2899 74.1829 41.8398 78.4429 41.8398C82.7029 41.8398 82.6929 45.2899 86.9529 45.2899C91.2129 45.2899 91.2029 41.8398 95.4629 41.8398C99.7229 41.8398 99.7129 45.2899 103.973 45.2899C108.233 45.2899 108.223 41.8398 112.483 41.8398C116.743 41.8398 116.743 45.2899 120.993 45.2899C125.243 45.2899 125.243 41.8398 129.503 41.8398C133.763 41.8398 133.763 45.2899 138.013 45.2899C142.263 45.2899 142.273 41.8398 146.523 41.8398" id="Shape" fill="#FFFFFF" fill-rule="evenodd" stroke="#269FFF" stroke-width="1" stroke-linecap="round" stroke-linejoin="round" />
      <path d="M27.3828 41.8398C31.6328 41.8398 31.6328 45.2899 35.8928 45.2899C40.1528 45.2899 40.1428 41.8398 44.4028 41.8398C48.6628 41.8398 48.6528 45.2899 52.9128 45.2899C57.1729 45.2899 57.1628 41.8398 61.4228 41.8398C65.6829 41.8398 65.6729 45.2899 69.9329 45.2899C74.1929 45.2899 74.1829 41.8398 78.4429 41.8398C82.7029 41.8398 82.6929 45.2899 86.9529 45.2899C91.2129 45.2899 91.2029 41.8398 95.4629 41.8398C99.7229 41.8398 99.7129 45.2899 103.973 45.2899C108.233 45.2899 108.223 41.8398 112.483 41.8398C116.743 41.8398 116.743 45.2899 120.993 45.2899C125.243 45.2899 125.243 41.8398 129.503 41.8398C133.763 41.8398 133.763 45.2899 138.013 45.2899C142.263 45.2899 142.273 41.8398 146.523 41.8398" id="Shape" fill="#FFFFFF" fill-rule="evenodd" stroke="#269FFF" stroke-width="1" stroke-linecap="round" stroke-linejoin="round" />
      <path d="M27.3828 49.3203C31.6328 49.3203 31.6328 52.7703 35.8928 52.7703C40.1528 52.7703 40.1428 49.3203 44.4028 49.3203C48.6628 49.3203 48.6528 52.7703 52.9128 52.7703C57.1729 52.7703 57.1628 49.3203 61.4228 49.3203C65.6829 49.3203 65.6729 52.7703 69.9329 52.7703C74.1929 52.7703 74.1829 49.3203 78.4429 49.3203C82.7029 49.3203 82.6929 52.7703 86.9529 52.7703C91.2129 52.7703 91.2029 49.3203 95.4629 49.3203C99.7229 49.3203 99.7129 52.7703 103.973 52.7703C108.233 52.7703 108.223 49.3203 112.483 49.3203C116.743 49.3203 116.743 52.7703 120.993 52.7703C125.243 52.7703 125.243 49.3203 129.503 49.3203C133.763 49.3203 133.763 52.7703 138.013 52.7703C142.263 52.7703 142.273 49.3203 146.523 49.3203" id="Shape" fill="#FFFFFF" fill-rule="evenodd" stroke="#269FFF" stroke-width="1" stroke-linecap="round" stroke-linejoin="round" />
      <path d="M27.3828 49.3203C31.6328 49.3203 31.6328 52.7703 35.8928 52.7703C40.1528 52.7703 40.1428 49.3203 44.4028 49.3203C48.6628 49.3203 48.6528 52.7703 52.9128 52.7703C57.1729 52.7703 57.1628 49.3203 61.4228 49.3203C65.6829 49.3203 65.6729 52.7703 69.9329 52.7703C74.1929 52.7703 74.1829 49.3203 78.4429 49.3203C82.7029 49.3203 82.6929 52.7703 86.9529 52.7703C91.2129 52.7703 91.2029 49.3203 95.4629 49.3203C99.7229 49.3203 99.7129 52.7703 103.973 52.7703C108.233 52.7703 108.223 49.3203 112.483 49.3203C116.743 49.3203 116.743 52.7703 120.993 52.7703C125.243 52.7703 125.243 49.3203 129.503 49.3203C133.763 49.3203 133.763 52.7703 138.013 52.7703C142.263 52.7703 142.273 49.3203 146.523 49.3203" id="Shape" fill="#FFFFFF" fill-rule="evenodd" stroke="#269FFF" stroke-width="1" stroke-linecap="round" stroke-linejoin="round" />
      <path d="M27.3828 56.8398C31.6328 56.8398 31.6328 60.2899 35.8928 60.2899C40.1528 60.2899 40.1428 56.8398 44.4028 56.8398C48.6628 56.8398 48.6528 60.2899 52.9128 60.2899C57.1729 60.2899 57.1628 56.8398 61.4228 56.8398C65.6829 56.8398 65.6729 60.2899 69.9329 60.2899C74.1929 60.2899 74.1829 56.8398 78.4429 56.8398C82.7029 56.8398 82.6929 60.2899 86.9529 60.2899C91.2129 60.2899 91.2029 56.8398 95.4629 56.8398C99.7229 56.8398 99.7129 60.2899 103.973 60.2899C108.233 60.2899 108.223 56.8398 112.483 56.8398C116.743 56.8398 116.743 60.2899 120.993 60.2899C125.243 60.2899 125.243 56.8398 129.503 56.8398C133.763 56.8398 133.763 60.2899 138.013 60.2899C142.263 60.2899 142.273 56.8398 146.523 56.8398" id="Shape" fill="#FFFFFF" fill-rule="evenodd" stroke="#269FFF" stroke-width="1" stroke-linecap="round" stroke-linejoin="round" />
      <path d="M27.3828 56.8398C31.6328 56.8398 31.6328 60.2899 35.8928 60.2899C40.1528 60.2899 40.1428 56.8398 44.4028 56.8398C48.6628 56.8398 48.6528 60.2899 52.9128 60.2899C57.1729 60.2899 57.1628 56.8398 61.4228 56.8398C65.6829 56.8398 65.6729 60.2899 69.9329 60.2899C74.1929 60.2899 74.1829 56.8398 78.4429 56.8398C82.7029 56.8398 82.6929 60.2899 86.9529 60.2899C91.2129 60.2899 91.2029 56.8398 95.4629 56.8398C99.7229 56.8398 99.7129 60.2899 103.973 60.2899C108.233 60.2899 108.223 56.8398 112.483 56.8398C116.743 56.8398 116.743 60.2899 120.993 60.2899C125.243 60.2899 125.243 56.8398 129.503 56.8398C133.763 56.8398 133.763 60.2899 138.013 60.2899C142.263 60.2899 142.273 56.8398 146.523 56.8398" id="Shape" fill="#FFFFFF" fill-rule="evenodd" stroke="#269FFF" stroke-width="1" stroke-linecap="round" stroke-linejoin="round" />
      <path d="M27.3828 64.2803C31.6328 64.2803 31.6328 67.7303 35.8928 67.7303C40.1528 67.7303 40.1428 64.2803 44.4028 64.2803C48.6628 64.2803 48.6528 67.7303 52.9128 67.7303C57.1729 67.7303 57.1628 64.2803 61.4228 64.2803C65.6829 64.2803 65.6729 67.7303 69.9329 67.7303C74.1929 67.7303 74.1829 64.2803 78.4429 64.2803C82.7029 64.2803 82.6929 67.7303 86.9529 67.7303C91.2129 67.7303 91.2029 64.2803 95.4629 64.2803C99.7229 64.2803 99.7129 67.7303 103.973 67.7303C108.233 67.7303 108.223 64.2803 112.483 64.2803C116.743 64.2803 116.743 67.7303 120.993 67.7303C125.243 67.7303 125.243 64.2803 129.503 64.2803C133.763 64.2803 133.763 67.7303 138.013 67.7303C142.263 67.7303 142.273 64.2803 146.523 64.2803" id="Shape" fill="#FFFFFF" fill-rule="evenodd" stroke="#269FFF" stroke-width="1" stroke-linecap="round" stroke-linejoin="round" />
      <path d="M27.3828 64.2803C31.6328 64.2803 31.6328 67.7303 35.8928 67.7303C40.1528 67.7303 40.1428 64.2803 44.4028 64.2803C48.6628 64.2803 48.6528 67.7303 52.9128 67.7303C57.1729 67.7303 57.1628 64.2803 61.4228 64.2803C65.6829 64.2803 65.6729 67.7303 69.9329 67.7303C74.1929 67.7303 74.1829 64.2803 78.4429 64.2803C82.7029 64.2803 82.6929 67.7303 86.9529 67.7303C91.2129 67.7303 91.2029 64.2803 95.4629 64.2803C99.7229 64.2803 99.7129 67.7303 103.973 67.7303C108.233 67.7303 108.223 64.2803 112.483 64.2803C116.743 64.2803 116.743 67.7303 120.993 67.7303C125.243 67.7303 125.243 64.2803 129.503 64.2803C133.763 64.2803 133.763 67.7303 138.013 67.7303C142.263 67.7303 142.273 64.2803 146.523 64.2803" id="Shape" fill="#FFFFFF" fill-rule="evenodd" stroke="#269FFF" stroke-width="1" stroke-linecap="round" stroke-linejoin="round" />
      <path d="M27.3828 71.7598C31.6328 71.7598 31.6328 75.2098 35.8928 75.2098C40.1528 75.2098 40.1428 71.7598 44.4028 71.7598C48.6628 71.7598 48.6528 75.2098 52.9128 75.2098C57.1729 75.2098 57.1628 71.7598 61.4228 71.7598C65.6829 71.7598 65.6729 75.2098 69.9329 75.2098C74.1929 75.2098 74.1829 71.7598 78.4429 71.7598C82.7029 71.7598 82.6929 75.2098 86.9529 75.2098C91.2129 75.2098 91.2029 71.7598 95.4629 71.7598C99.7229 71.7598 99.7129 75.2098 103.973 75.2098C108.233 75.2098 108.223 71.7598 112.483 71.7598C116.743 71.7598 116.743 75.2098 120.993 75.2098C125.243 75.2098 125.243 71.7598 129.503 71.7598C133.763 71.7598 133.763 75.2098 138.013 75.2098C142.263 75.2098 142.273 71.7598 146.523 71.7598" id="Shape" fill="#FFFFFF" fill-rule="evenodd" stroke="#269FFF" stroke-width="1" stroke-linecap="round" stroke-linejoin="round" />
      <path d="M27.3828 71.7598C31.6328 71.7598 31.6328 75.2098 35.8928 75.2098C40.1528 75.2098 40.1428 71.7598 44.4028 71.7598C48.6628 71.7598 48.6528 75.2098 52.9128 75.2098C57.1729 75.2098 57.1628 71.7598 61.4228 71.7598C65.6829 71.7598 65.6729 75.2098 69.9329 75.2098C74.1929 75.2098 74.1829 71.7598 78.4429 71.7598C82.7029 71.7598 82.6929 75.2098 86.9529 75.2098C91.2129 75.2098 91.2029 71.7598 95.4629 71.7598C99.7229 71.7598 99.7129 75.2098 103.973 75.2098C108.233 75.2098 108.223 71.7598 112.483 71.7598C116.743 71.7598 116.743 75.2098 120.993 75.2098C125.243 75.2098 125.243 71.7598 129.503 71.7598C133.763 71.7598 133.763 75.2098 138.013 75.2098C142.263 75.2098 142.273 71.7598 146.523 71.7598" id="Shape" fill="#FFFFFF" fill-rule="evenodd" stroke="#269FFF" stroke-width="1" stroke-linecap="round" stroke-linejoin="round" />
      <path d="M46.3125 112.17C46.3125 108.127 49.5898 104.85 53.6325 104.85C57.6752 104.85 60.9525 108.127 60.9525 112.17C60.9525 116.212 57.6752 119.49 53.6325 119.49C49.5898 119.49 46.3125 116.212 46.3125 112.17Z" id="Circle" fill="#FFFFFF" fill-rule="evenodd" stroke="#269FFF" stroke-width="1" stroke-linecap="round" stroke-linejoin="round" />
      <path d="M68.6934 112.17C68.6934 108.127 71.9706 104.85 76.0134 104.85C80.0561 104.85 83.3334 108.127 83.3334 112.17C83.3334 116.212 80.0561 119.49 76.0134 119.49C71.9706 119.49 68.6934 116.212 68.6934 112.17Z" id="Circle" fill="#FFFFFF" fill-rule="evenodd" stroke="#269FFF" stroke-width="1" stroke-linecap="round" stroke-linejoin="round" />
      <path d="M91.0625 112.17C91.0625 108.127 94.3398 104.85 98.3825 104.85C102.425 104.85 105.702 108.127 105.702 112.17C105.702 116.212 102.425 119.49 98.3825 119.49C94.3398 119.49 91.0625 116.212 91.0625 112.17Z" id="Circle" fill="#FFFFFF" fill-rule="evenodd" stroke="#269FFF" stroke-width="1" stroke-linecap="round" stroke-linejoin="round" />
      <path d="M113.443 112.17C113.443 108.127 116.721 104.85 120.763 104.85C124.806 104.85 128.083 108.127 128.083 112.17C128.083 116.212 124.806 119.49 120.763 119.49C116.721 119.49 113.443 116.212 113.443 112.17Z" id="Circle" fill="#FFFFFF" fill-rule="evenodd" stroke="#269FFF" stroke-width="1" stroke-linecap="round" stroke-linejoin="round" />
      <path d="M64.7324 98.5205L64.7324 159.801" id="Line" fill="none" fill-rule="evenodd" stroke="#269FFF" stroke-width="1" stroke-linecap="round" stroke-linejoin="round" />
      <path d="M86.7441 98.5205L86.7441 159.801" id="Line" fill="none" fill-rule="evenodd" stroke="#269FFF" stroke-width="1" stroke-linecap="round" stroke-linejoin="round" />
      <path d="M109.334 98.5205L109.334 159.801" id="Line" fill="none" fill-rule="evenodd" stroke="#269FFF" stroke-width="1" stroke-linecap="round" stroke-linejoin="round" />
      <path d="M21.7227 85.5703L27.0427 85.5703L27.0427 159.8L21.7227 159.8L21.7227 85.5703Z" id="Rectangle" fill="#FFFFFF" fill-rule="evenodd" stroke="#269FFF" stroke-width="1" stroke-linecap="round" stroke-linejoin="round" />
      <path d="M176.133 160.04L159.023 160.04L155.713 136.3L179.453 136.3L176.133 160.04L176.133 160.04Z" id="Polygon" fill="#FFFFFF" fill-rule="evenodd" stroke="#269FFF" stroke-width="1" stroke-linecap="round" stroke-linejoin="round" />
      <path d="M178.262 117.35C178.262 130.57 173.482 134.78 167.582 134.78C161.682 134.78 156.902 130.56 156.902 117.35C156.902 104.14 161.682 86.9199 167.582 86.9199C173.482 86.9199 178.262 104.13 178.262 117.35L178.262 117.35Z" id="Shape" fill="#FFFFFF" fill-rule="evenodd" stroke="#269FFF" stroke-width="1" stroke-linecap="round" stroke-linejoin="round" />
      <path d="M161.324 109.01C161.104 111.62 162.114 114.24 164.964 114.24" id="Shape" fill="#FFFFFF" fill-rule="evenodd" stroke="#269FFF" stroke-width="1" stroke-linecap="round" stroke-linejoin="round" />
      <path d="M164.963 122.55C167.153 124.28 171.903 125.36 174.053 122.55" id="Shape" fill="#FFFFFF" fill-rule="evenodd" stroke="#269FFF" stroke-width="1" stroke-linecap="round" stroke-linejoin="round" />
      <path d="M169.514 124.271C169.514 124.271 170.514 128.73 166.514 129.88" id="Shape" fill="#FFFFFF" fill-rule="evenodd" stroke="#269FFF" stroke-width="1" stroke-linecap="round" stroke-linejoin="round" />
      <path d="M174.083 139.88L171.803 156.13" id="Line" fill="none" fill-rule="evenodd" stroke="#269FFF" stroke-width="1" stroke-linecap="round" stroke-linejoin="round" />
      <path d="M51.3223 109L53.9123 112.71" id="Line" fill="none" fill-rule="evenodd" stroke="#269FFF" stroke-width="1" stroke-linecap="round" stroke-linejoin="round" />
      <path d="M54.7734 109L57.3634 112.71" id="Line" fill="none" fill-rule="evenodd" stroke="#269FFF" stroke-width="1" stroke-linecap="round" stroke-linejoin="round" />
      <path d="M73.7324 109L76.3224 112.71" id="Line" fill="none" fill-rule="evenodd" stroke="#269FFF" stroke-width="1" stroke-linecap="round" stroke-linejoin="round" />
      <path d="M77.1934 109L79.7734 112.71" id="Line" fill="none" fill-rule="evenodd" stroke="#269FFF" stroke-width="1" stroke-linecap="round" stroke-linejoin="round" />
      <path d="M96.1523 109L98.7423 112.71" id="Line" fill="none" fill-rule="evenodd" stroke="#269FFF" stroke-width="1" stroke-linecap="round" stroke-linejoin="round" />
      <path d="M99.6035 109L102.194 112.71" id="Line" fill="none" fill-rule="evenodd" stroke="#269FFF" stroke-width="1" stroke-linecap="round" stroke-linejoin="round" />
      <path d="M118.563 109L121.153 112.71" id="Line" fill="none" fill-rule="evenodd" stroke="#269FFF" stroke-width="1" stroke-linecap="round" stroke-linejoin="round" />
      <path d="M122.014 109L124.604 112.71" id="Line" fill="none" fill-rule="evenodd" stroke="#269FFF" stroke-width="1" stroke-linecap="round" stroke-linejoin="round" />
      <path d="M42.0039 85.5702L42.0039 79.2402" id="Line" fill="none" fill-rule="evenodd" stroke="#269FFF" stroke-width="1" stroke-linecap="round" stroke-linejoin="round" />
      <path d="M45.2441 79.2402L45.2441 85.5602" id="Line" fill="none" fill-rule="evenodd" stroke="#269FFF" stroke-width="1" stroke-linecap="round" stroke-linejoin="round" />
      <path d="M128.072 85.5702L128.072 79.2402" id="Line" fill="none" fill-rule="evenodd" stroke="#269FFF" stroke-width="1" stroke-linecap="round" stroke-linejoin="round" />
      <path d="M131.313 79.2402L131.313 85.5602" id="Line" fill="none" fill-rule="evenodd" stroke="#269FFF" stroke-width="1" stroke-linecap="round" stroke-linejoin="round" />
      <path d="M85.043 85.5702L85.043 79.2402" id="Line" fill="none" fill-rule="evenodd" stroke="#269FFF" stroke-width="1" stroke-linecap="round" stroke-linejoin="round" />
      <path d="M88.2734 79.2402L88.2734 85.5602" id="Line" fill="none" fill-rule="evenodd" stroke="#269FFF" stroke-width="1" stroke-linecap="round" stroke-linejoin="round" />
      <path d="M21.7234 91.62L19.2734 85.29L27.0434 85.29L27.0434 91.62L21.7234 91.62L21.7234 91.62Z" id="Polygon" fill="#FFFFFF" fill-rule="evenodd" stroke="#269FFF" stroke-width="1" stroke-linecap="round" stroke-linejoin="round" />
      <path d="M21.7227 117.57L27.0427 117.57L27.0427 121.82L21.7227 121.82L21.7227 117.57Z" id="Rectangle" fill="#FFFFFF" fill-opacity="0.68" fill-rule="evenodd" stroke="#269FFF" stroke-opacity="0.68" stroke-width="1" stroke-linecap="round" stroke-linejoin="round" />
      <path d="M120.143 158.38L335.503 158.38" id="Line" fill="none" fill-rule="evenodd" stroke="#269FFF" stroke-width="1" stroke-linecap="round" stroke-linejoin="round" />
      <path d="M151.883 6.79004L305.333 6.79004L305.333 158.02L151.883 158.02L151.883 6.79004Z" id="Rectangle" fill="#FFFFFF" fill-rule="evenodd" stroke="#269FFF" stroke-width="1" stroke-linecap="round" stroke-linejoin="round" />
      <path d="M148.273 0.530273L309.313 0.530273L309.313 7.18027L148.273 7.18027L148.273 0.530273Z" id="Rectangle" fill="#FFFFFF" fill-rule="evenodd" stroke="#269FFF" stroke-width="1" stroke-linecap="round" stroke-linejoin="round" />
      <path d="M182.264 7.18027L182.264 0.530273" id="Line" fill="none" fill-rule="evenodd" stroke="#269FFF" stroke-width="1" stroke-linecap="round" stroke-linejoin="round" />
      <path d="M185.664 0.530273L185.664 7.17027" id="Line" fill="none" fill-rule="evenodd" stroke="#269FFF" stroke-width="1" stroke-linecap="round" stroke-linejoin="round" />
      <path d="M272.732 7.18027L272.732 0.530273" id="Line" fill="none" fill-rule="evenodd" stroke="#269FFF" stroke-width="1" stroke-linecap="round" stroke-linejoin="round" />
      <path d="M276.133 0.530273L276.133 7.17027" id="Line" fill="none" fill-rule="evenodd" stroke="#269FFF" stroke-width="1" stroke-linecap="round" stroke-linejoin="round" />
      <path d="M227.494 7.18027L227.494 0.530273" id="Line" fill="none" fill-rule="evenodd" stroke="#269FFF" stroke-width="1" stroke-linecap="round" stroke-linejoin="round" />
      <path d="M230.902 0.530273L230.902 7.17027" id="Line" fill="none" fill-rule="evenodd" stroke="#269FFF" stroke-width="1" stroke-linecap="round" stroke-linejoin="round" />
      <path d="M196.844 92.5596L260.534 92.5596L260.534 136.81L196.844 136.81L196.844 92.5596Z" id="Rectangle" fill="#FFFFFF" fill-rule="evenodd" stroke="#269FFF" stroke-width="0.98" stroke-linecap="round" stroke-linejoin="round" />
      <path d="M192.844 136.7L264.244 136.7L264.244 143.26L192.844 143.26L192.844 136.7Z" id="Rectangle" fill="#FFFFFF" fill-rule="evenodd" stroke="#269FFF" stroke-width="0.98" stroke-linecap="round" stroke-linejoin="round" />
      <path d="M215.664 100.67L217.974 104.58" id="Line" fill="none" fill-rule="evenodd" stroke="#269FFF" stroke-width="0.98" stroke-linecap="round" stroke-linejoin="round" />
      <path d="M218.744 100.67L221.054 104.58" id="Line" fill="none" fill-rule="evenodd" stroke="#269FFF" stroke-width="0.98" stroke-linecap="round" stroke-linejoin="round" />
      <path d="M248.313 100.67L250.622 104.58" id="Line" fill="none" fill-rule="evenodd" stroke="#269FFF" stroke-width="0.98" stroke-linecap="round" stroke-linejoin="round" />
      <path d="M251.393 100.67L253.703 104.58" id="Line" fill="none" fill-rule="evenodd" stroke="#269FFF" stroke-width="0.98" stroke-linecap="round" stroke-linejoin="round" />
      <path d="M199.703 95.5498L227.413 95.5498L227.413 133.99L199.703 133.99L199.703 95.5498Z" id="Rectangle" fill="#FFFFFF" fill-rule="evenodd" stroke="#269FFF" stroke-width="0.98" stroke-linecap="round" stroke-linejoin="round" />
      <path d="M229.973 95.5498L257.683 95.5498L257.683 133.99L229.973 133.99L229.973 95.5498Z" id="Rectangle" fill="#FFFFFF" fill-rule="evenodd" stroke="#269FFF" stroke-width="0.98" stroke-linecap="round" stroke-linejoin="round" />
      <path d="M146.354 6.54004L151.944 6.54004L151.944 157.1L146.354 157.1L146.354 6.54004Z" id="Rectangle" fill="#FFFFFF" fill-rule="evenodd" stroke="#269FFF" stroke-width="0.98" stroke-linecap="round" stroke-linejoin="round" />
      <path d="M146.353 12.9002L143.783 6.24023L151.953 6.24023L151.953 12.9002L146.353 12.9002L146.353 12.9002Z" id="Polygon" fill="#FFFFFF" fill-rule="evenodd" stroke="#269FFF" stroke-width="0.98" stroke-linecap="round" stroke-linejoin="round" />
      <path d="M146.354 78.7803L151.944 78.7803L151.944 83.2503L146.354 83.2503L146.354 78.7803Z" id="Rectangle" fill="#FFFFFF" fill-rule="evenodd" stroke="#269FFF" stroke-width="0.98" stroke-linecap="round" stroke-linejoin="round" />
      <path d="M146.354 36.6504L151.944 36.6504L151.944 41.1204L146.354 41.1204L146.354 36.6504Z" id="Rectangle" fill="#FFFFFF" fill-rule="evenodd" stroke="#269FFF" stroke-width="0.98" stroke-linecap="round" stroke-linejoin="round" />
      <path d="M146.354 123.73L151.944 123.73L151.944 128.2L146.354 128.2L146.354 123.73Z" id="Rectangle" fill="#FFFFFF" fill-rule="evenodd" stroke="#269FFF" stroke-width="0.98" stroke-linecap="round" stroke-linejoin="round" />
      <path d="M170.334 92.5596L194.824 92.5596L194.824 133.99L170.334 133.99L170.334 92.5596Z" id="Rectangle" fill="#FFFFFF" fill-rule="evenodd" stroke="#269FFF" stroke-width="0.98" stroke-linecap="round" stroke-linejoin="round" />
      <path d="M173.594 97.0996L191.564 97.0996L191.564 101.57L173.594 101.57L173.594 97.0996Z" id="Rectangle" fill="#FFFFFF" fill-rule="evenodd" stroke="#269FFF" stroke-width="0.98" stroke-linecap="round" stroke-linejoin="round" />
      <path d="M173.594 124.65L191.564 124.65L191.564 129.12L173.594 129.12L173.594 124.65Z" id="Rectangle" fill="#FFFFFF" fill-rule="evenodd" stroke="#269FFF" stroke-width="0.98" stroke-linecap="round" stroke-linejoin="round" />
      <path d="M173.594 101.57L186.354 124.55L191.564 124.65L178.594 101.57L173.594 101.57L173.594 101.57Z" id="Polygon" fill="#FFFFFF" fill-rule="evenodd" stroke="#269FFF" stroke-width="0.98" stroke-linecap="round" stroke-linejoin="round" />
      <path d="M286.883 133.99L262.393 133.99L262.393 92.5596L286.883 92.5596L286.883 133.99Z" id="Rectangle" fill="#FFFFFF" fill-rule="evenodd" stroke="#269FFF" stroke-width="0.98" stroke-linecap="round" stroke-linejoin="round" />
      <path d="M283.622 101.57L265.652 101.57L265.652 97.0996L283.622 97.0996L283.622 101.57Z" id="Rectangle" fill="#FFFFFF" fill-rule="evenodd" stroke="#269FFF" stroke-width="0.98" stroke-linecap="round" stroke-linejoin="round" />
      <path d="M283.622 129.12L265.652 129.12L265.652 124.65L283.622 124.65L283.622 129.12Z" id="Rectangle" fill="#FFFFFF" fill-rule="evenodd" stroke="#269FFF" stroke-width="0.98" stroke-linecap="round" stroke-linejoin="round" />
      <path d="M283.622 101.57L270.852 124.55L265.652 124.65L278.622 101.57L283.622 101.57L283.622 101.57Z" id="Polygon" fill="#FFFFFF" fill-rule="evenodd" stroke="#269FFF" stroke-width="0.98" stroke-linecap="round" stroke-linejoin="round" />
      <path d="M438.053 144.47L443.723 144.47L443.723 158.24L438.053 158.24L438.053 144.47Z" id="Rectangle" fill="#FFFFFF" fill-rule="evenodd" stroke="#269FFF" stroke-width="0.98" stroke-linecap="round" stroke-linejoin="round" />
      <path d="M463.134 115.57C464.671 113.015 465.483 110.091 465.484 107.11C465.486 102.03 463.147 97.234 459.143 94.1093C460.614 92.0229 461.404 89.5326 461.404 86.9797C461.402 82.4977 458.987 78.3633 455.084 76.1599C456.136 74.5294 456.695 72.6301 456.694 70.6898C456.696 66.2455 453.806 62.318 449.563 60.9995C449.985 59.9505 450.203 58.8305 450.204 57.6998C450.204 52.7845 446.219 48.7998 441.304 48.7998C436.388 48.7998 432.404 52.7844 432.404 57.6998C432.406 58.641 432.558 59.576 432.854 60.4697C428.34 61.8176 425.246 65.9687 425.244 70.6797C425.241 72.796 425.872 74.8646 427.054 76.6198C422.852 78.5432 420.157 82.7387 420.154 87.3597C420.154 89.6014 420.795 91.7979 422.003 93.6884C417.734 95.9079 415.055 100.318 415.054 105.13C415.053 108.624 416.472 111.966 418.985 114.391C415.494 117.52 413.424 121.39 413.424 125.68C413.424 135.94 425.534 144.27 440.424 144.27C455.314 144.27 467.424 135.95 467.424 125.68C467.354 121.882 465.816 118.259 463.134 115.57L463.134 115.57Z" id="Shape" fill="#FFFFFF" fill-rule="evenodd" stroke="#269FFF" stroke-width="0.98" stroke-linecap="round" stroke-linejoin="round" />
      <path d="M427.934 93.5001C431.17 93.4275 434.122 91.6315 435.674 88.79" id="Shape" fill="#FFFFFF" fill-rule="evenodd" stroke="#269FFF" stroke-width="0.98" stroke-linecap="round" stroke-linejoin="round" />
      <path d="M442.273 91.3305C437.269 91.3305 433.213 87.2742 433.213 82.2705" id="Shape" fill="#FFFFFF" fill-rule="evenodd" stroke="#269FFF" stroke-width="0.98" stroke-linecap="round" stroke-linejoin="round" />
      <path d="M456.233 128.64C453.567 126.801 452.088 123.678 452.353 120.45" id="Shape" fill="#FFFFFF" fill-rule="evenodd" stroke="#269FFF" stroke-width="0.98" stroke-linecap="round" stroke-linejoin="round" />
      <path d="M449.913 68.1699C447.398 70.2104 443.985 70.7519 440.963 69.5899" id="Shape" fill="#FFFFFF" fill-rule="evenodd" stroke="#269FFF" stroke-width="0.98" stroke-linecap="round" stroke-linejoin="round" />
      <path d="M445.443 118.96C449.622 121.704 455.234 120.545 457.983 116.37" id="Shape" fill="#FFFFFF" fill-rule="evenodd" stroke="#269FFF" stroke-width="0.98" stroke-linecap="round" stroke-linejoin="round" />
      <path d="M181.063 131.73L184.023 131.73L184.023 136.81L181.063 136.81L181.063 131.73Z" id="Rectangle" fill="#FFFFFF" fill-rule="evenodd" stroke="#269FFF" stroke-width="0.98" stroke-linecap="round" stroke-linejoin="round" />
      <path d="M272.533 131.73L275.493 131.73L275.493 136.81L272.533 136.81L272.533 131.73Z" id="Rectangle" fill="#FFFFFF" fill-rule="evenodd" stroke="#269FFF" stroke-width="0.98" stroke-linecap="round" stroke-linejoin="round" />
      <path d="M196.844 20.5303L260.534 20.5303L260.534 64.7803L196.844 64.7803L196.844 20.5303Z" id="Rectangle" fill="#FFFFFF" fill-rule="evenodd" stroke="#269FFF" stroke-width="0.98" stroke-linecap="round" stroke-linejoin="round" />
      <path d="M192.844 64.6699L264.244 64.6699L264.244 71.2299L192.844 71.2299L192.844 64.6699Z" id="Rectangle" fill="#FFFFFF" fill-rule="evenodd" stroke="#269FFF" stroke-width="0.98" stroke-linecap="round" stroke-linejoin="round" />
      <path d="M215.664 28.6396L217.974 32.5496" id="Line" fill="none" fill-rule="evenodd" stroke="#269FFF" stroke-width="0.98" stroke-linecap="round" stroke-linejoin="round" />
      <path d="M218.744 28.6396L221.054 32.5496" id="Line" fill="none" fill-rule="evenodd" stroke="#269FFF" stroke-width="0.98" stroke-linecap="round" stroke-linejoin="round" />
      <path d="M248.313 28.6396L250.622 32.5496" id="Line" fill="none" fill-rule="evenodd" stroke="#269FFF" stroke-width="0.98" stroke-linecap="round" stroke-linejoin="round" />
      <path d="M251.393 28.6396L253.703 32.5496" id="Line" fill="none" fill-rule="evenodd" stroke="#269FFF" stroke-width="0.98" stroke-linecap="round" stroke-linejoin="round" />
      <path d="M199.703 23.5205L227.413 23.5205L227.413 61.9605L199.703 61.9605L199.703 23.5205Z" id="Rectangle" fill="#FFFFFF" fill-rule="evenodd" stroke="#269FFF" stroke-width="0.98" stroke-linecap="round" stroke-linejoin="round" />
      <path d="M229.973 23.5205L257.683 23.5205L257.683 61.9605L229.973 61.9605L229.973 23.5205Z" id="Rectangle" fill="#FFFFFF" fill-rule="evenodd" stroke="#269FFF" stroke-width="0.98" stroke-linecap="round" stroke-linejoin="round" />
      <path d="M170.334 20.5303L194.824 20.5303L194.824 61.9603L170.334 61.9603L170.334 20.5303Z" id="Rectangle" fill="#FFFFFF" fill-rule="evenodd" stroke="#269FFF" stroke-width="0.98" stroke-linecap="round" stroke-linejoin="round" />
      <path d="M173.594 25.0703L191.564 25.0703L191.564 29.5403L173.594 29.5403L173.594 25.0703Z" id="Rectangle" fill="#FFFFFF" fill-rule="evenodd" stroke="#269FFF" stroke-width="0.98" stroke-linecap="round" stroke-linejoin="round" />
      <path d="M173.594 52.6201L191.564 52.6201L191.564 57.0901L173.594 57.0901L173.594 52.6201Z" id="Rectangle" fill="#FFFFFF" fill-rule="evenodd" stroke="#269FFF" stroke-width="0.98" stroke-linecap="round" stroke-linejoin="round" />
      <path d="M173.594 29.54L186.354 52.52L191.564 52.62L178.594 29.54L173.594 29.54L173.594 29.54Z" id="Polygon" fill="#FFFFFF" fill-rule="evenodd" stroke="#269FFF" stroke-width="0.98" stroke-linecap="round" stroke-linejoin="round" />
      <path d="M286.883 61.9603L262.393 61.9603L262.393 20.5303L286.883 20.5303L286.883 61.9603Z" id="Rectangle" fill="#FFFFFF" fill-rule="evenodd" stroke="#269FFF" stroke-width="0.98" stroke-linecap="round" stroke-linejoin="round" />
      <path d="M283.622 29.5296L265.652 29.5296L265.652 25.0596L283.622 25.0596L283.622 29.5296Z" id="Rectangle" fill="#FFFFFF" fill-rule="evenodd" stroke="#269FFF" stroke-width="0.98" stroke-linecap="round" stroke-linejoin="round" />
      <path d="M283.622 57.0901L265.652 57.0901L265.652 52.6201L283.622 52.6201L283.622 57.0901Z" id="Rectangle" fill="#FFFFFF" fill-rule="evenodd" stroke="#269FFF" stroke-width="0.98" stroke-linecap="round" stroke-linejoin="round" />
      <path d="M283.622 29.54L270.852 52.52L265.652 52.62L278.622 29.54L283.622 29.54L283.622 29.54Z" id="Polygon" fill="#FFFFFF" fill-rule="evenodd" stroke="#269FFF" stroke-width="0.98" stroke-linecap="round" stroke-linejoin="round" />
      <path d="M181.063 59.7002L184.023 59.7002L184.023 64.7802L181.063 64.7802L181.063 59.7002Z" id="Rectangle" fill="#FFFFFF" fill-rule="evenodd" stroke="#269FFF" stroke-width="0.98" stroke-linecap="round" stroke-linejoin="round" />
      <path d="M272.533 59.7002L275.493 59.7002L275.493 64.7802L272.533 64.7802L272.533 59.7002Z" id="Rectangle" fill="#FFFFFF" fill-rule="evenodd" stroke="#269FFF" stroke-width="0.98" stroke-linecap="round" stroke-linejoin="round" />
      <path d="M227.773 142.11C227.773 139.862 229.596 138.04 231.843 138.04C234.091 138.04 235.913 139.862 235.913 142.11C235.913 144.358 234.091 146.18 231.843 146.18C229.596 146.18 227.773 144.358 227.773 142.11Z" id="Circle" fill="#FFFFFF" fill-rule="evenodd" stroke="none" />
      <path d="M150.393 142.37L313.303 109.63" id="Line" fill="none" fill-rule="evenodd" stroke="#FFFFFF" stroke-width="1" />
      <path d="M150.152 110.12L313.062 77.3799" id="Line" fill="none" fill-rule="evenodd" stroke="#FFFFFF" stroke-width="1" />
      <g id="Group-6-Copy-2" transform="translate(132.95703 -1.9404297)">
        <path d="M0 0L211 -7.97741e-06L211 211L7.97741e-06 211L0 0Z" id="Rectangle" fill="none" fill-rule="evenodd" stroke="none" />
        <g id="Group-5" transform="matrix(1 -3.7807645E-08 3.7807645E-08 1 18.791016 48.060547)">
          <path d="M154.309 121.036L154.309 54.5105Q154.309 54.2158 154.251 53.9267Q154.194 53.6377 154.081 53.3653Q153.969 53.093 153.806 52.8477Q153.642 52.6025 153.434 52.3937L150.968 49.9184Q150.759 49.7086 150.513 49.5438Q150.267 49.379 149.993 49.2655Q149.72 49.1519 149.43 49.094Q149.139 49.0361 148.843 49.0361L28.7113 49.0361Q28.4689 49.0361 28.2296 49.0751Q27.9903 49.114 27.7604 49.1909Q27.5305 49.2677 27.3159 49.3805Q27.1014 49.4933 26.9077 49.6391L23.2775 52.3716Q23.1387 52.4761 23.0129 52.5958Q22.8872 52.7156 22.776 52.8491Q22.6649 52.9826 22.57 53.128Q22.475 53.2734 22.3975 53.4288Q22.3199 53.5842 22.2609 53.7475Q22.2018 53.9109 22.162 54.0799Q22.1221 54.249 22.1021 54.4215Q22.082 54.594 22.082 54.7677L22.082 121.036L69.9087 121.036L84.7491 121.036L107.889 121.036L154.309 121.036Z" id="New-shape-3" fill="#64717C" fill-rule="evenodd" stroke="none" />
          <path d="M80.7109 114.239L94.7109 114.239L94.7109 117.239L80.7109 117.239L80.7109 114.239Z" id="Rectangle-2" fill="#D3D3D3" fill-rule="evenodd" stroke="none" />
          <path d="M22.082 57.4766L154.309 57.4766L154.309 65.9166L22.082 65.9166L22.082 57.4766Z" id="New-shape-4" fill="#889097" fill-rule="evenodd" stroke="none" />
          <path d="M22.082 74.3564L154.309 74.3564L154.309 82.7964L22.082 82.7964L22.082 74.3564Z" id="New-shape-4-Copy" fill="#889097" fill-rule="evenodd" stroke="none" />
          <path d="M22.4824 88.8359L154.709 88.8359L154.709 95.8359L22.4824 95.8359L22.4824 88.8359Z" id="New-shape-4-Copy-2" fill="#889097" fill-rule="evenodd" stroke="none" />
          <path d="M22.082 103.239L154.309 103.239L154.309 110.239L22.082 110.239L22.082 103.239Z" id="New-shape-4-Copy-3" fill="#889097" fill-rule="evenodd" stroke="none" />
          <path d="M168.298 13.2372L168.355 136.207Q168.355 136.218 168.355 136.229L168.317 141.679Q168.316 141.826 168.301 141.972Q168.286 142.118 168.256 142.261Q168.227 142.405 168.183 142.545Q168.14 142.685 168.083 142.82Q168.026 142.956 167.957 143.085Q167.887 143.214 167.805 143.335Q167.723 143.457 167.629 143.57Q167.536 143.683 167.432 143.786Q167.328 143.89 167.214 143.983Q167.1 144.075 166.978 144.156Q166.856 144.238 166.726 144.307Q166.597 144.375 166.461 144.431Q166.326 144.487 166.185 144.53Q166.045 144.572 165.901 144.6Q165.757 144.629 165.611 144.643Q165.465 144.658 165.318 144.658L154.211 144.658L154.211 52.7952L23.2109 52.7952L23.2109 144.658L12.401 144.658Q12.2537 144.658 12.1071 144.643Q11.9605 144.629 11.816 144.6Q11.6715 144.571 11.5305 144.528Q11.3895 144.486 11.2534 144.429Q11.1173 144.373 10.9874 144.304Q10.8575 144.234 10.735 144.152Q10.6125 144.07 10.4986 143.977Q10.3847 143.883 10.2805 143.779Q10.1763 143.675 10.0829 143.561Q9.98941 143.447 9.90755 143.325Q9.8257 143.202 9.75624 143.073Q9.68678 142.943 9.63039 142.806Q9.57401 142.67 9.53123 142.529Q9.48845 142.388 9.45969 142.244Q9.43094 142.099 9.41648 141.953Q9.40203 141.806 9.40201 141.659L9.40141 136.218L9.34512 13.2399Q9.34506 13.0926 9.35944 12.9459Q9.37382 12.7992 9.40251 12.6547Q9.43121 12.5101 9.47393 12.3691Q9.51666 12.228 9.57301 12.0919Q9.62936 11.9557 9.69879 11.8257Q9.76823 11.6957 9.85007 11.5731Q9.93191 11.4506 10.0254 11.3366Q10.1188 11.2227 10.223 11.1184Q10.3272 11.0142 10.4411 10.9207Q10.555 10.8272 10.6775 10.7453Q10.8001 10.6634 10.93 10.5939Q11.06 10.5244 11.1961 10.468Q11.3323 10.4116 11.4733 10.3688Q11.6143 10.326 11.7589 10.2972Q11.9034 10.2685 12.0501 10.254Q12.1967 10.2396 12.3441 10.2396L86.7104 10.2393L165.299 10.2396Q165.447 10.2396 165.593 10.254Q165.74 10.2684 165.884 10.2972Q166.029 10.3259 166.17 10.3686Q166.311 10.4114 166.447 10.4677Q166.583 10.5241 166.713 10.5935Q166.843 10.6629 166.965 10.7447Q167.088 10.8265 167.201 10.9199Q167.315 11.0134 167.419 11.1175Q167.524 11.2216 167.617 11.3354Q167.711 11.4493 167.792 11.5717Q167.874 11.6942 167.944 11.824Q168.013 11.9539 168.07 12.09Q168.126 12.226 168.169 12.367Q168.212 12.5079 168.24 12.6523Q168.269 12.7968 168.284 12.9433Q168.298 13.0899 168.298 13.2372Z" id="New-shape-2" fill="#CFD3D5" fill-rule="evenodd" stroke="none" />
          <path d="M2.999 1.13385e-07L176.001 6.65418e-06Q176.148 6.65975e-06 176.295 0.0144477Q176.442 0.0288887 176.586 0.0576316Q176.731 0.0863745 176.872 0.129143Q177.013 0.171911 177.149 0.228292Q177.285 0.284673 177.415 0.354125Q177.545 0.423576 177.667 0.505429Q177.79 0.587282 177.904 0.680748Q178.017 0.774214 178.122 0.878393Q178.226 0.982572 178.319 1.09646Q178.413 1.21035 178.495 1.33285Q178.576 1.45535 178.646 1.58529Q178.715 1.71522 178.772 1.85134Q178.828 1.98746 178.871 2.12844Q178.914 2.26943 178.942 2.41393Q178.971 2.55843 178.986 2.70505Q179 2.85168 179 2.99901L179 14.001Q179 14.1483 178.986 14.295Q178.971 14.4416 178.942 14.5861Q178.914 14.7306 178.871 14.8716Q178.828 15.0126 178.772 15.1487Q178.715 15.2848 178.646 15.4147Q178.576 15.5447 178.495 15.6672Q178.413 15.7897 178.319 15.9036Q178.226 16.0174 178.122 16.1216Q178.017 16.2258 177.904 16.3193Q177.79 16.4127 177.667 16.4946Q177.545 16.5764 177.415 16.6459Q177.285 16.7153 177.149 16.7717Q177.013 16.8281 176.872 16.8709Q176.731 16.9136 176.586 16.9424Q176.442 16.9711 176.295 16.9856Q176.148 17 176.001 17L2.999 17Q2.85167 17 2.70505 16.9856Q2.55842 16.9711 2.41392 16.9424Q2.26942 16.9136 2.12844 16.8709Q1.98745 16.8281 1.85133 16.7717Q1.71522 16.7153 1.58528 16.6459Q1.45535 16.5764 1.33284 16.4946Q1.21034 16.4127 1.09645 16.3193Q0.982565 16.2258 0.878386 16.1216Q0.774207 16.0174 0.680741 15.9035Q0.587275 15.7897 0.505422 15.6672Q0.423569 15.5447 0.354118 15.4147Q0.284666 15.2848 0.228285 15.1487Q0.171903 15.0126 0.129135 14.8716Q0.0863673 14.7306 0.0576244 14.5861Q0.0288815 14.4416 0.0144405 14.295Q-5.34915e-07 14.1483 -5.29345e-07 14.001L-1.13385e-07 2.999Q-1.07815e-07 2.85167 0.0144409 2.70505Q0.0288819 2.55842 0.0576248 2.41392Q0.0863678 2.26942 0.129136 2.12844Q0.171904 1.98745 0.228285 1.85133Q0.284667 1.71522 0.354118 1.58528Q0.42357 1.45535 0.505423 1.33284Q0.587276 1.21034 0.680742 1.09645Q0.774208 0.982566 0.878387 0.878387Q0.982566 0.774208 1.09645 0.680742Q1.21034 0.587276 1.33284 0.505423Q1.45535 0.42357 1.58528 0.354118Q1.71522 0.284667 1.85133 0.228285Q1.98745 0.171904 2.12844 0.129136Q2.26942 0.0863679 2.41392 0.057625Q2.55842 0.0288821 2.70505 0.0144411Q2.85167 1.07815e-07 2.999 1.13385e-07L2.999 1.13385e-07Z" id="Rectangle" fill="#1976D2" fill-rule="evenodd" stroke="none" />
        </g>
      </g>
    </g>
  </g>
</svg>