<?xml version="1.0" encoding="utf-8"?>
<svg width="78px" height="78px" viewBox="0 0 78 78" version="1.1" xmlns:xlink="http://www.w3.org/1999/xlink" xmlns="http://www.w3.org/2000/svg">
  <g id="Group-6-Copy" transform="translate(1.5 1.5)">
    <path d="M0 0L75 0L75 75L0 75L0 0Z" id="Rectangle" fill="none" fill-rule="evenodd" stroke="none" />
    <g id="Group-5" transform="translate(6.998047 6)">
      <path d="M59.541 20.3252L59.541 58.2578Q59.541 58.5532 59.4834 58.8429Q59.4258 59.1326 59.3127 59.4055Q59.1997 59.6783 59.0356 59.9239Q58.8715 60.1695 58.6626 60.3784L57.4194 61.6216Q57.2105 61.8305 56.9649 61.9946Q56.7193 62.1587 56.4465 62.2717Q56.1736 62.3848 55.8839 62.4424Q55.5942 62.5 55.2988 62.5L7.28324 62.5Q6.98787 62.5 6.69817 62.4424Q6.40847 62.3848 6.13557 62.2717Q5.86268 62.1587 5.61709 61.9946Q5.37149 61.8305 5.16263 61.6216L3.9194 60.3784Q3.71054 60.1695 3.54644 59.9239Q3.38234 59.6783 3.2693 59.4055Q3.15627 59.1326 3.09864 58.8429Q3.04102 58.5532 3.04102 58.2578L3.04102 20.2803Q3.04102 20.0792 3.06787 19.8799Q3.09473 19.6805 3.14796 19.4866Q3.2012 19.2926 3.27985 19.1075Q3.35851 18.9224 3.46118 18.7494Q3.56385 18.5765 3.68869 18.4188Q3.81354 18.2611 3.95832 18.1215Q4.10311 17.9819 4.26524 17.8628Q4.42737 17.7438 4.60394 17.6475L29.1423 4.26294Q29.3032 4.17517 29.4736 4.10765Q29.644 4.04012 29.8214 3.99386Q29.9987 3.94759 30.1804 3.92327Q30.3621 3.89895 30.5454 3.89693Q30.7287 3.89491 30.9108 3.91523Q31.093 3.93555 31.2713 3.97791Q31.4497 4.02026 31.6215 4.08402Q31.7934 4.14777 31.9562 4.23198L57.9198 17.6615Q58.1021 17.7558 58.2699 17.874Q58.4377 17.9923 58.5878 18.1323Q58.7379 18.2724 58.8675 18.4315Q58.9971 18.5907 59.1039 18.7661Q59.2106 18.9414 59.2924 19.1297Q59.3742 19.3179 59.4297 19.5156Q59.4851 19.7132 59.513 19.9166Q59.541 20.1199 59.541 20.3252Z" id="New-shape-2" fill="#CFD3D5" fill-rule="evenodd" stroke="none" />
      <path d="M60.541 17C62.4023 17.9688 59.541 22.5 59.541 22.5L31.041 7C31.041 7 2.541 22.5 2.541 22.5C2.541 22.5 -0.377122 18.4428 0.0409929 17.5C0.459108 16.5572 28.0471 1.69008 28.0471 1.69008L29.0907 1.10095Q29.3133 0.975325 29.55 0.879049Q29.7867 0.782774 30.0337 0.71741Q30.2808 0.652046 30.5341 0.618657Q30.7874 0.585268 31.043 0.584396Q31.2985 0.583524 31.5521 0.615184Q31.8057 0.646844 32.0531 0.710521Q32.3006 0.774198 32.538 0.868856Q32.7753 0.963514 32.9987 1.08761C31.041 0 33.948 1.61499 33.948 1.61499C33.948 1.61499 58.6797 16.0313 60.541 17Z" id="New-shape" fill="#0C64AC" fill-rule="evenodd" stroke="none" />
    </g>
    <g id="Group-6" transform="translate(20 33)">
      <path d="M36 7.49415C36 7.49415 18.375 -9.36769 0 7.49415" id="New-shape-2" fill="none" fill-rule="evenodd" stroke="#269FFF" stroke-width="3" />
      <path d="M31.8466 12.2266C31.8466 12.2266 18.2889 -0.744 4.1543 12.2266" id="New-shape-2-Copy" fill="none" fill-rule="evenodd" stroke="#269FFF" stroke-width="3" />
      <path d="M26.3087 17.6522C26.3087 17.6522 18.1741 9.86981 9.69336 17.6522" id="New-shape-2-Copy-2" fill="none" fill-rule="evenodd" stroke="#269FFF" stroke-width="3" />
      <path d="M14.7695 22.8226C14.7695 21.0383 16.216 19.5918 18.0003 19.5918C19.7846 19.5918 21.2311 21.0383 21.2311 22.8226C21.2311 24.6069 19.7846 26.0533 18.0003 26.0533C16.216 26.0533 14.7695 24.6069 14.7695 22.8226Z" id="Ellipse" fill="#269FFF" fill-rule="evenodd" stroke="none" />
    </g>
  </g>
</svg>