<?xml version="1.0" encoding="utf-8"?>
<svg width="68px" height="75px" viewBox="0 0 68 75" version="1.1" xmlns:xlink="http://www.w3.org/1999/xlink" xmlns="http://www.w3.org/2000/svg">
  <defs>
    <path d="M0 0L67.75 0L67.75 74.8L0 74.8L0 0Z" id="path_1" />
    <clipPath id="mask_1">
      <use xlink:href="#path_1" />
    </clipPath>
  </defs>
  <g id="jalousies">
    <path d="M0 0L67.75 0L67.75 74.8L0 74.8L0 0Z" id="Background" fill="none" fill-rule="evenodd" stroke="none" />
    <g clip-path="url(#mask_1)">
      <path d="M67.6595 0.170274L67.6595 0.0302734L47.4595 4.18027L47.2395 4.18027L16.7395 10.4503L16.5895 10.3803L16.5895 10.4803L14.9995 10.8103L14.6195 10.8903L0.0195313 13.8903L0.0195313 70.3303L0.109528 70.3303L0.109528 70.4603L9.35953 74.7403L9.35953 68.5303L11.1595 68.1803L11.1595 74.8003L14.5595 67.5303L16.9795 67.0603L25.8595 71.1603L25.8595 65.3503L42.6895 62.1103L42.6895 68.9603L47.1495 61.2503L47.5795 61.1703L49.5795 60.7303L60.8995 65.0303L60.8995 58.2203L62.9595 57.7703L62.9595 65.0303L67.7495 56.7503L67.7495 0.0302734L67.6595 0.170274ZM8.34978 41.47C8.23244 41.717 7.93839 41.8239 7.68978 41.71L2.01978 39.09C1.85718 39.015 1.74694 38.8589 1.73061 38.6806C1.71428 38.5023 1.79436 38.3288 1.94065 38.2255C2.08693 38.1222 2.27721 38.1049 2.43978 38.18L8.10977 40.8C8.2293 40.8581 8.32073 40.9615 8.36389 41.0872C8.40705 41.2129 8.39836 41.3507 8.33977 41.47L8.34978 41.47ZM8.35027 37.1106C8.23293 37.3576 7.93888 37.4646 7.69026 37.3506L2.00026 34.7306C1.83765 34.6556 1.7274 34.4995 1.71108 34.3212C1.69475 34.1429 1.77483 33.9694 1.92111 33.8661C2.0674 33.7629 2.25768 33.7455 2.42024 33.8206L8.09026 36.4406C8.2133 36.4951 8.30921 36.5969 8.35625 36.723C8.40331 36.8491 8.39754 36.9888 8.34026 37.1106L8.35027 37.1106ZM8.34978 32.7502C8.23244 32.9973 7.93839 33.1042 7.68978 32.9902L2.01978 30.3702C1.85718 30.2953 1.74694 30.1392 1.73061 29.9609C1.71428 29.7826 1.79436 29.6091 1.94065 29.5058C2.08693 29.4025 2.27721 29.3852 2.43978 29.4603L8.10977 32.0802C8.35301 32.2012 8.45514 32.4943 8.33978 32.7402L8.34978 32.7502ZM8.35027 28.3904C8.23293 28.6374 7.93888 28.7444 7.69026 28.6304L2.00026 26.0304C1.83765 25.9554 1.7274 25.7994 1.71108 25.621C1.69475 25.4427 1.77483 25.2692 1.92111 25.166C2.0674 25.0627 2.25768 25.0453 2.42024 25.1204L8.09026 27.7404C8.33019 27.8536 8.43991 28.1345 8.34026 28.3804L8.35027 28.3904ZM8.34978 24.0305C8.23244 24.2776 7.93839 24.3845 7.68978 24.2705L2.01978 21.6505C1.85718 21.5755 1.74694 21.4195 1.73061 21.2411C1.71428 21.0628 1.79436 20.8893 1.94065 20.7861C2.08693 20.6828 2.27721 20.6654 2.43978 20.7405L8.10977 23.3605C8.2293 23.4187 8.32073 23.522 8.36389 23.6478C8.40705 23.7735 8.39836 23.9112 8.33977 24.0305L8.34978 24.0305ZM11.1493 67.1703L9.3493 67.5203L9.3493 18.3004L1.5293 14.6904L14.0693 12.1104L11.1393 18.3804L11.1393 67.1603L11.1493 67.1703ZM14.5292 37.27L13.1692 40.16C13.0504 40.4112 12.7505 40.5185 12.4993 40.3998C12.2481 40.2811 12.1406 39.9812 12.2592 39.7299L13.6192 36.84C13.738 36.5888 14.0379 36.4814 14.2892 36.6001C14.5404 36.7189 14.6479 37.0187 14.5292 37.27L14.5292 37.27ZM14.53 32.9107L13.17 35.8007C13.0888 35.9763 12.9135 36.0893 12.72 36.0907C12.6508 36.1059 12.5792 36.1059 12.51 36.0907C12.3887 36.0344 12.2951 35.9318 12.25 35.8059C12.2049 35.68 12.2121 35.5413 12.27 35.4207L13.63 32.5307C13.7652 32.3425 14.012 32.2717 14.2263 32.3599C14.4407 32.448 14.5664 32.6718 14.53 32.9007L14.53 32.9107ZM14.5292 28.5503L13.1692 31.4403C13.0504 31.6915 12.7505 31.7989 12.4993 31.6802C12.2481 31.5615 12.1406 31.2616 12.2592 31.0103L13.6192 28.1203C13.7352 27.8691 14.0328 27.7594 14.2841 27.8753C14.5354 27.9912 14.6452 28.2888 14.5293 28.5401L14.5292 28.5503ZM14.5292 24.1903L13.1691 27.0303C13.0532 27.2815 12.7555 27.3912 12.5043 27.2753C12.253 27.1594 12.1432 26.8618 12.259 26.6105L13.6191 23.7203C13.7013 23.5577 13.864 23.4513 14.0458 23.4412C14.2277 23.4311 14.4011 23.5188 14.5008 23.6712C14.6005 23.8237 14.6113 24.0177 14.5291 24.1803L14.5292 24.1903ZM14.5291 19.8306L13.1691 22.7206C13.0532 22.9718 12.7555 23.0815 12.5043 22.9656C12.253 22.8497 12.1432 22.5521 12.259 22.3008L13.6191 19.4106C13.7423 19.1768 14.026 19.0793 14.2669 19.1878C14.5077 19.2963 14.6226 19.5735 14.5291 19.8206L14.5291 19.8306ZM33.18 8.19043L33.18 35.8204L25.83 37.1704L25.83 14.7504L18.25 11.2504L33.18 8.19043ZM24.2991 28.3904C24.1817 28.6374 23.8877 28.7444 23.6391 28.6304L17.9591 26.0304C17.7079 25.9144 17.5983 25.6167 17.7142 25.3655C17.8302 25.1142 18.1278 25.0045 18.3791 25.1204L24.0491 27.7404C24.289 27.8536 24.3987 28.1345 24.2991 28.3804L24.2991 28.3904ZM24.2989 32.7502C24.1815 32.9973 23.8875 33.1042 23.6388 32.9902L17.9688 30.3702C17.7176 30.2542 17.608 29.9565 17.724 29.7053C17.8399 29.4541 18.1376 29.3444 18.3888 29.4602L24.0588 32.0802C24.3059 32.1976 24.4128 32.4916 24.2988 32.7402L24.2989 32.7502ZM24.2989 24.0207C24.1815 24.2678 23.8875 24.3747 23.6388 24.2607L17.9688 21.6408C17.7176 21.5247 17.608 21.2271 17.724 20.9758C17.8399 20.7246 18.1376 20.6149 18.3888 20.7308L24.0588 23.3507C24.1827 23.407 24.2784 23.5113 24.3237 23.6396C24.369 23.768 24.36 23.9092 24.2988 24.0308L24.2989 24.0207ZM17.7194 34.02C17.8368 33.7729 18.1308 33.666 18.3794 33.78L24.0494 36.4C24.3006 36.516 24.4102 36.8137 24.2943 37.0649C24.1783 37.3161 23.8807 37.4259 23.6294 37.31L17.9594 34.69C17.7124 34.5726 17.6055 34.2786 17.7194 34.03L17.7194 34.02ZM24.2989 19.6106C24.1815 19.8576 23.8875 19.9646 23.6388 19.8506L17.9688 17.2306C17.7176 17.1146 17.608 16.8169 17.724 16.5657C17.8399 16.3144 18.1376 16.2047 18.3888 16.3206L24.0588 19.0306C24.2897 19.147 24.3937 19.4201 24.2989 19.6606L24.2989 19.6106ZM14.9902 11.87L16.5802 11.54L16.5802 66.12L14.9902 66.43L14.9902 11.92L14.9902 11.87ZM29.3998 63.6498L25.8398 64.3398L25.8398 38.1898L33.1898 36.8398L33.1898 62.9198L29.3998 63.6498ZM42.6694 61.0998L34.1895 62.7298L34.1895 36.6498L42.6694 35.0898L42.6694 61.0898L42.6694 61.0998ZM42.6694 34.0999L34.1895 35.6599L34.1895 7.96992L46.5695 5.41992L42.6695 12.1599L42.6695 34.0299L42.6694 34.0999ZM46.7492 31.2499L45.0592 34.1599C44.9805 34.3338 44.8098 34.4478 44.619 34.4537C44.4283 34.4597 44.2508 34.3565 44.1615 34.1877C44.0723 34.019 44.0869 33.8142 44.1991 33.6599L45.8992 30.7199C45.9701 30.5344 46.1441 30.4084 46.3425 30.399C46.5409 30.3896 46.7261 30.4985 46.8142 30.6765C46.9024 30.8545 46.8769 31.0678 46.7492 31.2199L46.7492 31.2499ZM46.7492 26.8602L45.0592 29.7702C44.9805 29.9442 44.8098 30.0582 44.619 30.0641C44.4283 30.07 44.2508 29.9668 44.1615 29.7981C44.0723 29.6294 44.0869 29.4246 44.1991 29.2702L45.8992 26.3302C45.9701 26.1447 46.1441 26.0188 46.3425 26.0094C46.5409 25.9999 46.7261 26.1089 46.8142 26.2868C46.9024 26.4648 46.8769 26.6781 46.7492 26.8302L46.7492 26.8602ZM46.7492 22.4706L45.0592 25.3806C44.9805 25.5545 44.8098 25.6685 44.619 25.6744C44.4283 25.6804 44.2508 25.5772 44.1615 25.4085C44.0723 25.2397 44.0869 25.035 44.1991 24.8806L45.8992 21.9406C45.9701 21.7551 46.1441 21.6291 46.3425 21.6197C46.5409 21.6103 46.7261 21.7192 46.8142 21.8972C46.9024 22.0752 46.8769 22.2885 46.7492 22.4406L46.7492 22.4706ZM46.7492 18.0799L45.0592 20.9899C44.9805 21.1639 44.8098 21.2779 44.619 21.2838C44.4283 21.2897 44.2508 21.1865 44.1615 21.0178C44.0723 20.8491 44.0869 20.6443 44.1991 20.4899L45.8992 17.5399C45.9643 17.3487 46.1381 17.2155 46.3397 17.2023C46.5413 17.189 46.731 17.2984 46.8206 17.4795C46.9102 17.6605 46.882 17.8777 46.7492 18.0299L46.7492 18.0799ZM46.7492 13.6906L45.0592 16.6006C44.9805 16.7745 44.8098 16.8885 44.619 16.8944C44.4283 16.9003 44.2508 16.7971 44.1615 16.6284C44.0723 16.4597 44.0869 16.2549 44.1991 16.1006L45.8992 13.1506C45.9701 12.965 46.1441 12.8391 46.3425 12.8297C46.5409 12.8203 46.7261 12.9292 46.8142 13.1072C46.9024 13.2851 46.8769 13.4984 46.7492 13.6506L46.7492 13.6906ZM49.3792 59.7798L47.4492 60.2098L47.4492 5.23984L49.3792 4.83984L49.3792 59.7398L49.3792 59.7798ZM59.5588 31.5206C59.4608 31.7761 59.1756 31.9053 58.9188 31.8106L51.8988 29.1406C51.6393 29.0439 51.5073 28.7551 51.6039 28.4956C51.7005 28.2361 51.9892 28.104 52.2487 28.2005L59.3188 30.8406C59.5603 30.9577 59.6662 31.2446 59.5588 31.4906L59.5588 31.5206ZM59.5588 27.1299C59.4608 27.3855 59.1756 27.5147 58.9188 27.4199L51.8988 24.7499C51.6393 24.6532 51.5073 24.3645 51.6039 24.105C51.7005 23.8455 51.9892 23.7134 52.2487 23.8099L59.3188 26.4499C59.5549 26.5667 59.6599 26.8467 59.5588 27.0899L59.5588 27.1299ZM59.5587 22.7403C59.5119 22.868 59.415 22.9711 59.2905 23.0258C59.1659 23.0805 59.0245 23.0821 58.8987 23.0303L51.8987 20.3603C51.6393 20.2635 51.5073 19.9748 51.6039 19.7153C51.7006 19.4558 51.9892 19.3237 52.2488 19.4203L59.2687 22.0303C59.399 22.0769 59.5041 22.1754 59.559 22.3024C59.614 22.4293 59.6139 22.5734 59.5587 22.7003L59.5587 22.7403ZM59.5597 18.3507C59.4617 18.6063 59.1764 18.7355 58.9197 18.6407L51.8996 15.9707C51.6816 15.8594 51.5763 15.6066 51.6507 15.3734C51.7251 15.1402 51.9574 14.9952 52.1996 15.0307L59.2696 17.6707C59.5252 17.7687 59.6544 18.054 59.5596 18.3107L59.5597 18.3507ZM59.5588 13.9602C59.4608 14.2158 59.1755 14.345 58.9188 14.2502L51.8987 11.5702C51.6393 11.4735 51.5073 11.1848 51.6039 10.9253C51.7006 10.6658 51.9892 10.5337 52.2488 10.6302L59.3187 13.2702C59.5602 13.3873 59.6662 13.6743 59.5588 13.9202L59.5588 13.9602ZM62.9693 56.7801L60.9093 57.2301L60.9093 8.23008L51.0293 4.54008L66.6493 1.33008L66.6493 1.94008L62.9593 8.32008L62.9593 56.7401L62.9693 56.7801ZM67.0603 27.3707L66.6603 28.0507L65.3703 30.2807C65.281 30.4361 65.1155 30.532 64.9363 30.5324C64.7571 30.5327 64.5912 30.4374 64.5013 30.2824C64.4114 30.1273 64.411 29.9361 64.5003 29.7807L66.1903 26.8707C66.2886 26.7078 66.4707 26.6147 66.6603 26.6307C66.7374 26.6327 66.8128 26.6533 66.8803 26.6907C67.0904 26.8305 67.1633 27.105 67.0503 27.3307L67.0603 27.3707ZM67.0603 22.98L66.6603 23.66L65.3703 25.89C65.281 26.0455 65.1155 26.1414 64.9363 26.1418C64.7571 26.1421 64.5912 26.0468 64.5013 25.8918C64.4114 25.7367 64.411 25.5455 64.5003 25.39L66.1903 22.48C66.2886 22.3171 66.4707 22.2241 66.6603 22.24C66.7373 22.2425 66.8127 22.263 66.8803 22.3C67.0904 22.4399 67.1633 22.7144 67.0503 22.94L67.0603 22.98ZM67.0603 18.5898L66.6603 19.2698L65.3703 21.4998C65.281 21.6553 65.1155 21.7512 64.9363 21.7516C64.7571 21.7519 64.5912 21.6566 64.5013 21.5016C64.4114 21.3465 64.411 21.1553 64.5003 20.9998L66.1903 18.0299C66.2886 17.867 66.4707 17.7739 66.6603 17.7898C66.7373 17.7923 66.8127 17.8128 66.8803 17.8498C66.9977 17.9183 67.0821 18.0316 67.1142 18.1637C67.1463 18.2957 67.1232 18.4352 67.0504 18.5499L67.0603 18.5898ZM67.0605 14.2007L66.6605 14.8807L65.3605 17.0307C65.2712 17.1861 65.1058 17.282 64.9266 17.2824C64.7473 17.2827 64.5815 17.1874 64.4915 17.0324C64.4016 16.8773 64.4012 16.6861 64.4905 16.5307L66.1805 13.6207C66.2788 13.4578 66.461 13.3647 66.6506 13.3807C66.7275 13.3831 66.8029 13.4036 66.8705 13.4407C66.9924 13.5073 67.0811 13.6218 67.1152 13.7564C67.1494 13.8911 67.126 14.034 67.0506 14.1507L67.0605 14.2007ZM67.0603 9.81012L66.6603 10.4901L65.3703 12.7201C65.281 12.8755 65.1155 12.9715 64.9363 12.9718C64.7571 12.9722 64.5912 12.8769 64.5013 12.7218C64.4114 12.5668 64.411 12.3755 64.5003 12.2201L66.1903 9.31012C66.2886 9.14723 66.4707 9.0542 66.6603 9.07012C66.7373 9.07254 66.8127 9.09309 66.8803 9.13012C67.0851 9.2691 67.1574 9.53698 67.0504 9.76012L67.0603 9.81012Z" id="Shape" fill="#002153" fill-rule="evenodd" stroke="none" />
    </g>
  </g>
</svg>