<?xml version="1.0" encoding="utf-8"?>
<svg width="13239px" height="4192px" viewBox="0 0 13239 4192" version="1.1" xmlns:xlink="http://www.w3.org/1999/xlink" xmlns="http://www.w3.org/2000/svg">
  <g id="Group">
    <path d="M5432.1 1052.66L3980.03 611.473Q3979.7 611.371 3979.36 611.289Q3979.02 611.207 3978.67 611.145Q3978.33 611.083 3977.98 611.041Q3977.63 610.999 3977.28 610.977Q3976.93 610.956 3976.58 610.955Q3976.23 610.953 3975.88 610.973Q3975.53 610.992 3975.19 611.031Q3974.84 611.071 3974.5 611.131Q3974.15 611.19 3973.81 611.27Q3973.47 611.35 3973.13 611.449Q3972.8 611.549 3972.47 611.667Q3972.14 611.786 3971.82 611.924Q3971.5 612.062 3971.18 612.218Q3970.87 612.374 3970.57 612.549Q3970.26 612.723 3969.97 612.914Q3969.68 613.106 3969.4 613.314Q3969.12 613.523 3968.85 613.747Q3968.58 613.971 3968.32 614.211Q3968.07 614.451 3967.83 614.705Q3967.59 614.959 3967.36 615.227Q3967.14 615.495 3966.93 615.775Q3966.72 616.055 3966.53 616.347Q3966.33 616.639 3966.16 616.942Q3965.98 617.245 3965.83 617.558Q3965.67 617.87 3965.53 618.191Q3965.39 618.512 3965.27 618.841Q3965.15 619.17 3965.05 619.505Q3964.95 619.84 3964.87 620.181Q3964.79 620.521 3964.73 620.865Q3964.67 621.21 3964.62 621.558Q3964.58 621.905 3964.56 622.254Q3964.54 622.604 3964.54 622.954L3964.54 3194.14Q3964.54 3194.38 3964.55 3194.61Q3964.56 3194.84 3964.58 3195.07Q3964.6 3195.3 3964.62 3195.53Q3964.65 3195.76 3964.69 3195.99Q3964.72 3196.22 3964.77 3196.45Q3964.81 3196.68 3964.86 3196.9Q3964.92 3197.13 3964.98 3197.35Q3965.04 3197.57 3965.11 3197.79Q3965.18 3198.02 3965.26 3198.23Q3965.34 3198.45 3965.43 3198.67Q3965.52 3198.88 3965.61 3199.09Q3965.71 3199.3 3965.81 3199.51Q3965.92 3199.72 3966.03 3199.92Q3966.14 3200.13 3966.26 3200.32Q3966.38 3200.52 3966.51 3200.72Q3966.63 3200.91 3966.77 3201.1Q3966.9 3201.29 3967.04 3201.47Q3967.18 3201.66 3967.33 3201.83Q3967.48 3202.01 3967.64 3202.19Q3967.79 3202.36 3967.95 3202.52Q3968.12 3202.69 3968.28 3202.85Q3968.45 3203.01 3968.63 3203.16Q3968.8 3203.31 3968.98 3203.46Q3969.16 3203.61 3969.35 3203.75Q3969.53 3203.89 3969.72 3204.02Q3969.92 3204.15 3970.11 3204.27Q3970.31 3204.4 3970.51 3204.51Q3970.71 3204.63 3970.91 3204.74Q3971.12 3204.85 3971.33 3204.95Q3971.54 3205.05 3971.75 3205.14Q3971.96 3205.24 3972.18 3205.32Q3972.39 3205.4 3972.61 3205.48L5424.68 3708.95Q5425.02 3709.07 5425.36 3709.17Q5425.7 3709.27 5426.05 3709.34Q5426.4 3709.42 5426.76 3709.47Q5427.11 3709.53 5427.46 3709.56Q5427.82 3709.6 5428.18 3709.61Q5428.53 3709.62 5428.89 3709.61Q5429.25 3709.61 5429.6 3709.58Q5429.96 3709.55 5430.31 3709.5Q5430.67 3709.45 5431.02 3709.37Q5431.37 3709.3 5431.71 3709.21Q5432.06 3709.12 5432.4 3709Q5432.73 3708.89 5433.07 3708.76Q5433.4 3708.63 5433.72 3708.47Q5434.04 3708.32 5434.36 3708.15Q5434.67 3707.98 5434.97 3707.79Q5435.28 3707.6 5435.57 3707.39Q5435.86 3707.19 5436.14 3706.96Q5436.42 3706.74 5436.68 3706.5Q5436.94 3706.26 5437.19 3706Q5437.44 3705.75 5437.68 3705.48Q5437.91 3705.21 5438.13 3704.92Q5438.35 3704.64 5438.55 3704.34Q5438.75 3704.05 5438.93 3703.74Q5439.11 3703.44 5439.28 3703.12Q5439.44 3702.8 5439.58 3702.47Q5439.73 3702.15 5439.85 3701.81Q5439.98 3701.48 5440.08 3701.14Q5440.19 3700.79 5440.27 3700.45Q5440.36 3700.1 5440.42 3699.75Q5440.48 3699.4 5440.52 3699.04Q5440.57 3698.69 5440.59 3698.33Q5440.61 3697.98 5440.61 3697.62L5440.61 1064.14Q5440.61 1063.9 5440.6 1063.67Q5440.59 1063.43 5440.57 1063.19Q5440.55 1062.95 5440.52 1062.71Q5440.49 1062.47 5440.46 1062.24Q5440.42 1062 5440.37 1061.77Q5440.32 1061.53 5440.27 1061.3Q5440.21 1061.07 5440.14 1060.84Q5440.08 1060.61 5440 1060.38Q5439.93 1060.15 5439.84 1059.93Q5439.76 1059.71 5439.67 1059.49Q5439.58 1059.26 5439.47 1059.05Q5439.37 1058.83 5439.26 1058.62Q5439.15 1058.41 5439.03 1058.2Q5438.91 1057.99 5438.79 1057.79Q5438.66 1057.59 5438.53 1057.39Q5438.39 1057.19 5438.25 1057Q5438.11 1056.81 5437.96 1056.62Q5437.81 1056.43 5437.65 1056.25Q5437.49 1056.07 5437.33 1055.9Q5437.16 1055.72 5436.99 1055.56Q5436.82 1055.39 5436.64 1055.23Q5436.47 1055.07 5436.28 1054.92Q5436.1 1054.76 5435.91 1054.62Q5435.72 1054.47 5435.52 1054.34Q5435.33 1054.2 5435.13 1054.07Q5434.93 1053.94 5434.72 1053.82Q5434.51 1053.69 5434.3 1053.58Q5434.09 1053.47 5433.88 1053.36Q5433.66 1053.26 5433.44 1053.16Q5433.22 1053.06 5433 1052.98Q5432.78 1052.89 5432.55 1052.81Q5432.33 1052.73 5432.1 1052.66ZM4148.01 775.609L4148.01 1857.24L4581.66 2010.25L4581.66 918.067L4148.01 775.609ZM4673.39 955.001L4673.39 2048.02L5257.14 2263.51L5257.14 1143.84L4673.39 955.001ZM4148.01 1994.42L4148.01 3033.84L4581.66 3192.13L4581.66 2149.94L4148.01 1994.42ZM4673.39 2189.64L4673.39 3223.79L5257.14 3445.39L5257.14 2411.25L4673.39 2189.64Z" id="Rectangle-Difference" fill="#CE1126" fill-rule="evenodd" stroke="none" />
    <path d="M2430.27 1047.39L3882.34 606.196Q3882.68 606.095 3883.02 606.013Q3883.36 605.93 3883.7 605.868Q3884.04 605.806 3884.39 605.764Q3884.74 605.723 3885.09 605.701Q3885.44 605.679 3885.79 605.678Q3886.14 605.677 3886.49 605.696Q3886.84 605.715 3887.18 605.755Q3887.53 605.794 3887.88 605.854Q3888.22 605.914 3888.56 605.993Q3888.9 606.073 3889.24 606.173Q3889.57 606.272 3889.9 606.391Q3890.23 606.51 3890.55 606.647Q3890.88 606.785 3891.19 606.941Q3891.5 607.098 3891.81 607.272Q3892.11 607.446 3892.4 607.638Q3892.69 607.829 3892.98 608.038Q3893.26 608.246 3893.52 608.471Q3893.79 608.695 3894.05 608.935Q3894.3 609.174 3894.54 609.428Q3894.78 609.682 3895.01 609.95Q3895.24 610.218 3895.44 610.498Q3895.65 610.779 3895.85 611.071Q3896.04 611.363 3896.21 611.666Q3896.39 611.968 3896.55 612.281Q3896.7 612.594 3896.84 612.915Q3896.98 613.236 3897.1 613.565Q3897.22 613.893 3897.32 614.228Q3897.42 614.564 3897.5 614.904Q3897.58 615.244 3897.65 615.589Q3897.71 615.933 3897.75 616.281Q3897.79 616.628 3897.81 616.978Q3897.83 617.327 3897.83 617.677L3897.83 3188.87Q3897.83 3189.1 3897.82 3189.33Q3897.81 3189.56 3897.79 3189.79Q3897.78 3190.02 3897.75 3190.25Q3897.72 3190.49 3897.69 3190.71Q3897.65 3190.94 3897.61 3191.17Q3897.56 3191.4 3897.51 3191.62Q3897.45 3191.85 3897.39 3192.07Q3897.33 3192.3 3897.26 3192.52Q3897.19 3192.74 3897.11 3192.96Q3897.03 3193.18 3896.94 3193.39Q3896.86 3193.61 3896.76 3193.82Q3896.66 3194.03 3896.56 3194.24Q3896.46 3194.44 3896.35 3194.65Q3896.23 3194.85 3896.11 3195.05Q3895.99 3195.25 3895.87 3195.44Q3895.74 3195.64 3895.61 3195.82Q3895.47 3196.01 3895.33 3196.2Q3895.19 3196.38 3895.04 3196.56Q3894.89 3196.74 3894.74 3196.91Q3894.58 3197.08 3894.42 3197.25Q3894.26 3197.41 3894.09 3197.57Q3893.92 3197.73 3893.75 3197.88Q3893.57 3198.04 3893.39 3198.18Q3893.21 3198.33 3893.02 3198.47Q3892.84 3198.61 3892.65 3198.74Q3892.46 3198.87 3892.26 3199Q3892.07 3199.12 3891.87 3199.24Q3891.67 3199.35 3891.46 3199.46Q3891.26 3199.57 3891.05 3199.67Q3890.84 3199.77 3890.62 3199.87Q3890.41 3199.96 3890.2 3200.04Q3889.98 3200.13 3889.76 3200.2L2437.69 3703.68Q2437.35 3703.8 2437.01 3703.89Q2436.67 3703.99 2436.32 3704.06Q2435.97 3704.14 2435.62 3704.2Q2435.26 3704.25 2434.91 3704.29Q2434.55 3704.32 2434.19 3704.33Q2433.84 3704.34 2433.48 3704.34Q2433.12 3704.33 2432.77 3704.3Q2432.41 3704.27 2432.06 3704.22Q2431.7 3704.17 2431.35 3704.1Q2431 3704.02 2430.66 3703.93Q2430.31 3703.84 2429.98 3703.73Q2429.64 3703.61 2429.31 3703.48Q2428.97 3703.35 2428.65 3703.2Q2428.33 3703.05 2428.01 3702.87Q2427.7 3702.7 2427.4 3702.51Q2427.09 3702.32 2426.8 3702.12Q2426.51 3701.91 2426.23 3701.69Q2425.96 3701.46 2425.69 3701.22Q2425.43 3700.98 2425.18 3700.73Q2424.93 3700.47 2424.69 3700.2Q2424.46 3699.93 2424.24 3699.65Q2424.03 3699.36 2423.83 3699.07Q2423.63 3698.77 2423.44 3698.47Q2423.26 3698.16 2423.1 3697.84Q2422.93 3697.52 2422.79 3697.2Q2422.64 3696.87 2422.52 3696.54Q2422.39 3696.2 2422.29 3695.86Q2422.18 3695.52 2422.1 3695.17Q2422.02 3694.82 2421.95 3694.47Q2421.89 3694.12 2421.85 3693.77Q2421.8 3693.41 2421.78 3693.06Q2421.76 3692.7 2421.76 3692.34L2421.76 1058.87Q2421.76 1058.63 2421.77 1058.39Q2421.78 1058.15 2421.8 1057.91Q2421.82 1057.67 2421.85 1057.43Q2421.88 1057.2 2421.91 1056.96Q2421.95 1056.73 2422 1056.49Q2422.05 1056.26 2422.1 1056.02Q2422.16 1055.79 2422.23 1055.56Q2422.29 1055.33 2422.37 1055.1Q2422.44 1054.88 2422.53 1054.65Q2422.61 1054.43 2422.7 1054.21Q2422.8 1053.99 2422.9 1053.77Q2423 1053.55 2423.11 1053.34Q2423.22 1053.13 2423.34 1052.92Q2423.46 1052.71 2423.58 1052.51Q2423.71 1052.31 2423.84 1052.11Q2423.98 1051.91 2424.12 1051.72Q2424.26 1051.53 2424.41 1051.34Q2424.56 1051.16 2424.72 1050.98Q2424.88 1050.8 2425.04 1050.62Q2425.21 1050.45 2425.38 1050.28Q2425.55 1050.11 2425.73 1049.95Q2425.91 1049.79 2426.09 1049.64Q2426.27 1049.49 2426.46 1049.34Q2426.65 1049.2 2426.85 1049.06Q2427.04 1048.92 2427.24 1048.79Q2427.45 1048.66 2427.65 1048.54Q2427.86 1048.42 2428.07 1048.3Q2428.28 1048.19 2428.49 1048.09Q2428.71 1047.98 2428.93 1047.88Q2429.15 1047.79 2429.37 1047.7Q2429.59 1047.61 2429.82 1047.53Q2430.04 1047.46 2430.27 1047.39ZM3714.36 770.331L3714.36 1851.96L3280.72 2004.97L3280.72 912.79L3714.36 770.331ZM3188.98 949.723L3188.98 2042.74L2605.23 2258.23L2605.23 1138.56L3188.98 949.723ZM3714.36 1989.14L3714.36 3028.57L3280.72 3186.85L3280.72 2144.66L3714.36 1989.14ZM3188.98 2184.37L3188.98 3218.51L2605.23 3440.11L2605.23 2405.97L3188.98 2184.37Z" id="Rectangle-Difference-Copy" fill="#CE1126" fill-rule="evenodd" stroke="none" />
    <path d="M2818.83 3809.45L5118.16 3809.45Q5118.42 3809.45 5118.68 3809.43Q5118.94 3809.41 5119.19 3809.36Q5119.45 3809.32 5119.7 3809.25Q5119.95 3809.19 5120.19 3809.1Q5120.43 3809.01 5120.67 3808.9Q5120.9 3808.8 5121.13 3808.67Q5121.35 3808.54 5121.56 3808.4Q5121.78 3808.25 5121.98 3808.08Q5122.17 3807.92 5122.36 3807.74Q5122.54 3807.56 5122.71 3807.36Q5122.88 3807.17 5123.03 3806.96Q5123.18 3806.75 5123.31 3806.53Q5123.45 3806.3 5123.56 3806.07Q5123.67 3805.84 5123.77 3805.6Q5123.86 3805.36 5123.93 3805.11Q5124 3804.86 5124.05 3804.61Q5124.1 3804.35 5124.13 3804.1Q5124.16 3803.84 5124.16 3803.58Q5124.17 3803.32 5124.15 3803.07Q5124.13 3802.81 5124.1 3802.55Q5124.06 3802.3 5124 3802.05Q5123.94 3801.79 5123.85 3801.55Q5123.77 3801.31 5123.67 3801.07Q5123.57 3800.83 5123.44 3800.6Q5123.32 3800.38 5123.18 3800.16Q5123.04 3799.94 5122.88 3799.74Q5122.72 3799.54 5122.54 3799.35Q5122.36 3799.16 5122.17 3798.99Q5121.98 3798.82 5121.77 3798.66Q5121.57 3798.51 5121.35 3798.37Q5121.13 3798.23 5120.9 3798.11Q5120.67 3798 5120.43 3797.9L3961.96 3324.97Q3961.68 3324.86 3961.4 3324.78Q3961.12 3324.69 3960.84 3324.64Q3960.55 3324.58 3960.26 3324.55Q3959.96 3324.52 3959.67 3324.53Q3959.38 3324.53 3959.09 3324.56Q3958.8 3324.58 3958.51 3324.64Q3958.22 3324.7 3957.94 3324.79Q3957.66 3324.87 3957.39 3324.98L2816.53 3797.91Q2816.3 3798.01 2816.07 3798.13Q2815.84 3798.25 2815.62 3798.39Q2815.4 3798.52 2815.2 3798.68Q2814.99 3798.84 2814.8 3799.01Q2814.61 3799.18 2814.43 3799.37Q2814.26 3799.56 2814.1 3799.76Q2813.94 3799.97 2813.8 3800.18Q2813.66 3800.4 2813.54 3800.63Q2813.42 3800.85 2813.32 3801.09Q2813.22 3801.33 2813.13 3801.57Q2813.05 3801.82 2812.99 3802.07Q2812.93 3802.32 2812.9 3802.57Q2812.86 3802.83 2812.84 3803.09Q2812.83 3803.34 2812.83 3803.6Q2812.84 3803.86 2812.87 3804.12Q2812.9 3804.37 2812.95 3804.62Q2813 3804.88 2813.07 3805.12Q2813.14 3805.37 2813.23 3805.61Q2813.33 3805.85 2813.44 3806.08Q2813.55 3806.32 2813.69 3806.54Q2813.82 3806.76 2813.97 3806.97Q2814.12 3807.18 2814.29 3807.37Q2814.46 3807.57 2814.64 3807.75Q2814.83 3807.93 2815.03 3808.09Q2815.22 3808.25 2815.44 3808.4Q2815.65 3808.55 2815.87 3808.67Q2816.1 3808.8 2816.33 3808.91Q2816.57 3809.01 2816.81 3809.1Q2817.05 3809.19 2817.3 3809.25Q2817.55 3809.32 2817.8 3809.36Q2818.06 3809.41 2818.32 3809.43Q2818.57 3809.45 2818.83 3809.45Z" id="New-shape" fill="#142751" fill-rule="evenodd" stroke="none" />
    <path d="M20.0246 2754.2C-9.16324 2543.15 -4.06504 2470.34 20.0245 2279.34C44.114 2088.34 76.9569 2048.71 111.758 1968.04C146.558 1887.38 236.739 1734.89 320.242 1635.64C426.385 1509.47 507.018 1412.26 595.441 1319.06C817.9 1084.59 1025.45 942.207 1270.93 786.162C1613.98 568.092 2168.71 371.547 2275.82 342.956C2335.32 327.077 2611.73 237.525 2876.26 168.84C3088 113.861 3292.68 76.6614 3368.28 68.5913C3538.32 50.4391 3940.96 0.0293522 4318.97 0C4318.97 0 4900.09 37.6706 5052.83 68.5913C5205.57 99.5119 5569.3 208.78 5690.79 306.022C5812.28 403.266 5870.09 495.967 5870.09 495.967C5870.09 495.967 5512.43 279.707 5052.83 211.05C4593.24 142.394 3840.81 136.807 3130.61 342.956C2420.4 549.106 1909.77 691.897 1404.36 1071.08C898.953 1450.26 531.22 1909.96 449.502 2194.92C367.783 2479.88 397.523 2547.74 395.296 2685.61C392.74 2843.83 509.779 3111.52 637.137 3281.83C764.496 3452.13 1147.79 3831.43 1633.69 3999.4C2119.59 4167.37 2144.61 4188.48 2144.61 4188.48C2144.61 4188.48 1774.12 4206.96 1537.79 4147.13C1301.45 4087.3 1134.6 4038.3 979.051 3941.36C823.502 3844.42 720.287 3787.84 595.441 3682.82C341.271 3469.02 189.862 3248.2 136.776 3123.54C63.054 2950.42 49.2124 2965.25 20.0246 2754.2Z" id="New-shape-2" fill="#142751" fill-rule="evenodd" stroke="none" />
    <path d="M2830.39 664.807C2830.39 664.807 2466.38 770.598 2084.02 997.211C1701.66 1223.82 1459.38 1422.48 1308.46 1603.98C950.307 2034.71 891.509 2210.3 862.302 2427.07C833.095 2643.85 892.214 3041.96 1037.43 3244.89C1182.64 3447.83 1426.09 3683.59 1729.6 3830.56C2033.1 3977.53 2024.76 3988.08 2024.76 3988.08C2024.76 3988.08 1602.66 3955.91 1308.46 3777.79C1014.26 3599.68 998.836 3569.89 862.302 3424.29C728.016 3281.08 628.041 3089.13 599.612 2944.15C542.277 2651.75 578.78 2366.21 599.612 2258.23C620.444 2150.26 766.342 1865.77 1008.24 1603.98C1250.14 1342.19 1546.65 1104.81 1879.7 933.896C2212.76 762.982 2367.63 694.364 2496.82 664.807C2626.01 635.25 2646.92 627.874 2730.32 627.874C2813.71 627.874 2830.39 664.807 2830.39 664.807Z" id="New-shape-3" fill="#CE1126" fill-rule="evenodd" stroke="none" />
    <g id="La-Française--Du-PVC" transform="translate(5440.5854 759.0725)">
      <g id="La-Française-" fill="#142751">
        <path d="M5679.47 581.352Q5706.03 606.156 5742.75 606.156Q5779.86 606.156 5806.42 581.352Q5832.98 556.547 5832.98 521.781Q5832.98 487.016 5806.42 462.406Q5779.86 437.797 5742.75 437.797Q5706.03 437.797 5679.47 462.406Q5652.91 487.016 5652.91 521.781Q5652.91 556.547 5679.47 581.352ZM445.094 1283.5L445.094 483.5L614.234 483.5L614.234 1144.05L957.203 1144.05L957.203 1283.5L445.094 1283.5ZM1962.67 483.5L1962.67 1283.5L2131.81 1283.5L2131.81 953.031L2457.2 953.031L2457.2 813.578L2131.81 813.578L2131.81 622.953L2492.36 622.953L2492.36 483.5L1962.67 483.5ZM2602.91 1283.5L2602.91 683.5L2764.23 683.5L2764.23 788.188L2770.48 788.188Q2786.89 732.328 2825.56 703.617Q2864.23 674.906 2914.63 674.906Q2942.36 674.906 2966.97 680.766L2966.97 828.422Q2955.25 824.516 2934.55 821.977Q2913.84 819.438 2896.66 819.438Q2841.58 819.438 2805.45 854.008Q2769.31 888.578 2769.31 944.047L2769.31 1283.5L2602.91 1283.5ZM1237.28 1294.83Q1151.34 1294.83 1094.7 1249.91Q1038.06 1204.98 1038.06 1115.92Q1038.06 1048.73 1069.7 1010.45Q1101.34 972.172 1152.71 954.398Q1204.08 936.625 1263.45 931.156Q1341.58 923.344 1375.17 914.75Q1408.77 906.156 1408.77 877.25L1408.77 874.906Q1408.77 837.797 1385.52 817.484Q1362.28 797.172 1319.7 797.172Q1274.78 797.172 1248.22 816.703Q1221.66 836.234 1213.06 866.313L1059.16 853.813Q1076.34 771.781 1144.51 723.734Q1212.67 675.688 1320.48 675.688Q1387.28 675.688 1445.48 696.781Q1503.69 717.875 1539.43 762.602Q1575.17 807.328 1575.17 878.813L1575.17 1283.5L1417.36 1283.5L1417.36 1200.3L1412.67 1200.3Q1390.8 1242.09 1347.24 1268.46Q1303.69 1294.83 1237.28 1294.83ZM3081.03 1249.91Q3137.67 1294.83 3223.61 1294.83Q3290.02 1294.83 3333.57 1268.46Q3377.13 1242.09 3399 1200.3L3403.69 1200.3L3403.69 1283.5L3561.5 1283.5L3561.5 878.813Q3561.5 807.328 3525.76 762.602Q3490.02 717.875 3431.81 696.781Q3373.61 675.688 3306.81 675.688Q3199 675.688 3130.84 723.734Q3062.67 771.781 3045.48 853.813L3199.39 866.313Q3207.98 836.234 3234.55 816.703Q3261.11 797.172 3306.03 797.172Q3348.61 797.172 3371.85 817.484Q3395.09 837.797 3395.09 874.906L3395.09 877.25Q3395.09 906.156 3361.5 914.75Q3327.91 923.344 3249.78 931.156Q3190.41 936.625 3139.04 954.398Q3087.67 972.172 3056.03 1010.45Q3024.39 1048.73 3024.39 1115.92Q3024.39 1204.98 3081.03 1249.91ZM3857.2 936.625L3857.2 1283.5L3690.8 1283.5L3690.8 683.5L3849.39 683.5L3849.39 789.359L3856.42 789.359Q3876.73 737.016 3923.41 706.352Q3970.09 675.688 4036.89 675.688Q4130.64 675.688 4187.28 736.039Q4243.92 796.391 4243.92 901.469L4243.92 1283.5L4077.52 1283.5L4077.52 931.156Q4077.91 876.078 4049.39 845.023Q4020.88 813.969 3970.88 813.969Q3920.48 813.969 3889.04 846.195Q3857.59 878.422 3857.2 936.625ZM4604 1293.05Q4538.14 1286 4487.48 1255.96Q4421.27 1216.7 4385.91 1146.78Q4350.56 1076.86 4350.56 985.844Q4350.56 893.656 4386.3 823.93Q4422.05 754.203 4488.06 714.945Q4554.08 675.688 4645.09 675.688Q4723.61 675.688 4782.79 704.203Q4841.97 732.719 4876.15 784.281Q4910.33 835.844 4913.84 905.375L4756.81 905.375Q4750.17 860.453 4721.85 832.914Q4693.53 805.375 4647.83 805.375Q4590.02 805.375 4554.86 851.859Q4519.7 898.344 4519.7 983.5Q4519.7 1069.44 4554.66 1116.51Q4589.63 1163.58 4647.83 1163.58Q4690.8 1163.58 4720.09 1137.6Q4749.39 1111.63 4756.81 1063.58L4913.84 1063.58Q4909.94 1132.33 4876.54 1184.67Q4843.14 1237.02 4784.55 1266.12Q4739.17 1288.65 4680.92 1293.74L4677.13 1314.36Q4717.36 1320.61 4742.95 1344.44Q4768.53 1368.27 4768.92 1409.28Q4769.31 1467.48 4715.02 1502.05Q4660.72 1536.63 4562.67 1536.63L4561.11 1462.41Q4610.33 1462.41 4638.45 1450.49Q4666.58 1438.58 4667.36 1413.58Q4668.14 1389.36 4649 1377.05Q4629.86 1364.75 4589.23 1359.67L4604 1293.05ZM5191.97 1294.83Q5106.03 1294.83 5049.39 1249.91Q4992.75 1204.98 4992.75 1115.92Q4992.75 1048.73 5024.39 1010.45Q5056.03 972.172 5107.4 954.398Q5158.77 936.625 5218.14 931.156Q5296.27 923.344 5329.86 914.75Q5363.45 906.156 5363.45 877.25L5363.45 874.906Q5363.45 837.797 5340.21 817.484Q5316.97 797.172 5274.39 797.172Q5229.47 797.172 5202.91 816.703Q5176.34 836.234 5167.75 866.313L5013.84 853.813Q5031.03 771.781 5099.2 723.734Q5167.36 675.688 5275.17 675.688Q5341.97 675.688 5400.17 696.781Q5458.38 717.875 5494.12 762.602Q5529.86 807.328 5529.86 878.813L5529.86 1283.5L5372.05 1283.5L5372.05 1200.3L5367.36 1200.3Q5345.48 1242.09 5301.93 1268.46Q5258.38 1294.83 5191.97 1294.83ZM6457.59 854.594L6305.25 863.969Q6299 835.063 6273.61 814.359Q6248.22 793.656 6204.86 793.656Q6166.19 793.656 6139.43 809.867Q6112.67 826.078 6113.06 853.031Q6112.67 874.516 6130.05 889.359Q6147.44 904.203 6189.23 913.188L6297.83 935.063Q6470.88 970.609 6471.27 1097.56Q6471.27 1156.55 6436.7 1201.08Q6402.13 1245.61 6341.97 1270.41Q6281.81 1295.22 6204.08 1295.22Q6084.94 1295.22 6014.23 1245.41Q5943.53 1195.61 5931.81 1109.67L6095.48 1101.08Q6103.3 1137.8 6131.62 1156.55Q6159.94 1175.3 6204.47 1175.3Q6248.22 1175.3 6274.98 1158.11Q6301.73 1140.92 6302.13 1114.36Q6300.95 1069.83 6225.17 1054.59L6121.27 1033.89Q5947.05 999.125 5947.83 862.406Q5947.44 775.688 6017.16 725.687Q6086.89 675.688 6202.13 675.688Q6315.8 675.688 6381.23 723.734Q6446.66 771.781 6457.59 854.594ZM6690.8 1257.52Q6757.59 1295.22 6849.78 1295.22Q6961.11 1295.22 7032.59 1245.22Q7104.08 1195.22 7121.66 1111.63L6967.75 1101.47Q6955.25 1135.84 6924.78 1153.42Q6894.31 1171 6852.52 1171Q6790.02 1171 6753.3 1132.33Q6716.58 1093.66 6716.58 1026.47L6716.58 1026.08L7125.17 1026.08L7125.17 980.375Q7125.17 878.422 7087.67 810.648Q7050.17 742.875 6986.3 709.281Q6922.44 675.688 6843.14 675.688Q6754.86 675.688 6689.43 714.75Q6624 753.813 6588.06 823.734Q6552.13 893.656 6552.13 986.234Q6552.13 1081.16 6588.06 1150.49Q6624 1219.83 6690.8 1257.52ZM5825.56 683.5L5659.16 683.5L5659.16 1283.5L5825.56 1283.5L5825.56 683.5ZM6968.53 922.953L6716.58 922.953Q6719.31 871.781 6754.86 835.844Q6790.41 799.906 6845.88 799.906Q6900.17 799.906 6934.16 834.672Q6968.14 869.437 6968.53 922.953ZM1284.94 1179.98Q1339.63 1179.98 1374.78 1148.15Q1409.94 1116.31 1409.94 1069.05L1409.94 1005.38Q1400.17 1012.02 1379.66 1017.09Q1359.16 1022.17 1335.91 1025.88Q1312.67 1029.59 1294.31 1032.33Q1250.56 1038.58 1223.8 1056.94Q1197.05 1075.3 1197.05 1110.45Q1197.05 1144.83 1221.85 1162.41Q1246.66 1179.98 1284.94 1179.98ZM3361.11 1148.15Q3325.95 1179.98 3271.27 1179.98Q3232.98 1179.98 3208.18 1162.41Q3183.38 1144.83 3183.38 1110.45Q3183.38 1075.3 3210.13 1056.94Q3236.89 1038.58 3280.64 1032.33Q3299 1029.59 3322.24 1025.88Q3345.48 1022.17 3365.99 1017.09Q3386.5 1012.02 3396.27 1005.38L3396.27 1069.05Q3396.27 1116.31 3361.11 1148.15ZM5239.63 1179.98Q5294.31 1179.98 5329.47 1148.15Q5364.63 1116.31 5364.63 1069.05L5364.63 1005.38Q5354.86 1012.02 5334.35 1017.09Q5313.84 1022.17 5290.6 1025.88Q5267.36 1029.59 5249 1032.33Q5205.25 1038.58 5178.49 1056.94Q5151.73 1075.3 5151.73 1110.45Q5151.73 1144.83 5176.54 1162.41Q5201.34 1179.98 5239.63 1179.98Z" />
      </g>
      <g id="Du-PVC" fill="#142751">
        <path d="M5726.73 2094.58L5897.83 2094.58Q5886.89 2002 5839.43 1936.96Q5791.97 1871.92 5717.55 1837.74Q5643.14 1803.56 5550.56 1803.56Q5445.09 1803.56 5360.72 1851.8Q5276.34 1900.05 5227.13 1991.84Q5177.91 2083.64 5177.91 2214.5Q5177.91 2344.97 5226.54 2436.77Q5275.17 2528.56 5359.35 2577Q5443.53 2625.44 5550.56 2625.44Q5653.3 2625.44 5727.71 2585.2Q5802.13 2544.97 5845.48 2480.13Q5888.84 2415.28 5897.83 2341.84L5726.73 2341.06Q5714.63 2405.13 5667.75 2440.48Q5620.88 2475.83 5553.3 2475.83Q5462.28 2475.83 5405.84 2409.23Q5349.39 2342.63 5349.39 2214.5Q5349.39 2089.5 5405.45 2021.34Q5461.5 1953.17 5554.47 1953.17Q5624 1953.17 5670.48 1990.87Q5716.97 2028.56 5726.73 2094.58ZM2201.34 2614.5L1917.75 2614.5L1917.75 1814.5L2203.69 1814.5Q2324.39 1814.5 2411.7 1862.35Q2499 1910.2 2545.88 1999.66Q2592.75 2089.11 2592.75 2213.72Q2592.75 2338.72 2545.68 2428.56Q2498.61 2518.41 2410.91 2566.45Q2323.22 2614.5 2201.34 2614.5ZM3656.81 1814.5L3656.81 2614.5L3825.95 2614.5L3825.95 2355.13L3968.14 2355.13Q4060.33 2355.13 4125.37 2320.95Q4190.41 2286.77 4224.78 2226.02Q4259.16 2165.28 4259.16 2085.59Q4259.16 2005.91 4225.37 1944.77Q4191.58 1883.64 4127.52 1849.07Q4063.45 1814.5 3972.44 1814.5L3656.81 1814.5ZM4513.84 1814.5L4707.2 2422.31L4714.63 2422.31L4908.38 1814.5L5095.88 1814.5L4820.09 2614.5L4602.13 2614.5L4325.95 1814.5L4513.84 1814.5ZM3940.8 2219.58L3825.95 2219.58L3825.95 1952.78L3940.02 1952.78Q4013.45 1952.78 4049.2 1989.3Q4084.94 2025.83 4084.94 2085.59Q4084.94 2144.97 4049.2 2182.27Q4013.45 2219.58 3940.8 2219.58ZM2086.89 2469.58L2194.31 2469.58Q2307.2 2469.58 2365.6 2408.64Q2424 2347.7 2424 2213.72Q2424 2080.52 2365.6 2019.97Q2307.2 1959.42 2194.7 1959.42L2086.89 1959.42L2086.89 2469.58ZM3099.39 2359.03L3099.39 2014.5L3265.8 2014.5L3265.8 2614.5L3106.03 2614.5L3106.03 2505.52L3099.78 2505.52Q3079.47 2558.25 3032.4 2590.28Q2985.33 2622.31 2917.75 2622.31Q2827.13 2622.31 2771.07 2561.96Q2715.02 2501.61 2714.63 2396.53L2714.63 2014.5L2881.03 2014.5L2881.03 2366.84Q2881.42 2419.97 2909.55 2450.83Q2937.67 2481.69 2984.94 2481.69Q3029.86 2481.69 3064.82 2450.44Q3099.78 2419.19 3099.39 2359.03Z" />
      </g>
    </g>
  </g>
</svg>