<?xml version="1.0" encoding="utf-8"?>
<svg width="55px" height="64px" viewBox="0 0 55 64" version="1.1" xmlns:xlink="http://www.w3.org/1999/xlink" xmlns="http://www.w3.org/2000/svg">
  <defs>
    <path d="M0 0L54.9 0L54.9 63.9L0 63.9L0 0Z" id="path_1" />
    <clipPath id="mask_1">
      <use xlink:href="#path_1" />
    </clipPath>
  </defs>
  <g id="pictoSavoirFaire">
    <path d="M0 0L54.9 0L54.9 63.9L0 63.9L0 0Z" id="Background" fill="none" fill-rule="evenodd" stroke="none" />
    <g clip-path="url(#mask_1)">
      <path d="M11.2 44.6996C11.1 44.6996 11 44.6996 10.9 44.5996C10.5 44.3996 10.4 43.8996 10.6 43.5996L15.2 34.4996C15.4 34.0996 15.8 33.9996 16.2 34.1996C16.6 34.3996 16.7 34.8996 16.5 35.1996L11.9 44.2996C11.8 44.5996 11.5 44.6996 11.2 44.6996L11.2 44.6996Z" id="Shape" fill="#002153" fill-rule="evenodd" stroke="none" />
      <path d="M43.1004 14.7C43.1004 8.1 39.6004 4.6 36.7004 2.8C34.7004 1.6 31.7004 0.6 31.0004 0.9C30.8004 1 30.6004 1.3 30.6004 1.6C30.6004 3.2 29.3004 4.5 27.7004 4.5C26.1004 4.5 24.8004 3.2 24.8004 1.6C24.8004 1.2 24.5004 0.8 24.0004 0.8C23.5004 0.8 23.2004 1.1 23.2004 1.6C23.2004 3.2 21.9004 4.5 20.3004 4.5C18.7004 4.5 17.4004 3.2 17.4004 1.6C17.4004 1.2 17.1004 0.8 16.6004 0.8C16.1004 0.8 15.8004 1.1 15.8004 1.6C15.8004 3.2 14.5004 4.5 12.9004 4.5C11.4004 4.5 10.0004 2.4 10.0004 0.8C10.3004 0.3 10.0004 0 9.60044 0L9.30044 0C9.20044 0 9.10044 0 9.00044 0.1C4.90044 2 1.90044 7 1.90044 11.9C1.90044 15.3 3.50044 18.3 6.10044 19.9C8.60044 21.4 11.7004 21.5 15.1004 20.2L0.900442 44.1C0.100442 45.3 -0.199558 46.7 0.100442 48.1C0.400442 49.5 1.20044 50.7 2.40044 51.5C3.60044 52.3 5.00044 52.6 6.40044 52.3C7.20044 52.1 8.00044 51.8 8.60044 51.3C8.70044 51.7 8.80044 52.2 8.90044 52.6C9.40044 53.9 10.4004 55 11.7004 55.5C13.4004 56.3 15.3004 56 16.8004 55.1C16.9004 55.6 17.0004 56.1 17.2004 56.6C17.8004 57.9 18.8004 58.9 20.1004 59.4C21.7004 60.1 23.5004 59.8 24.9004 59C25.1004 60.9 26.3004 62.7 28.2004 63.4C28.8004 63.7 29.5004 63.8 30.2004 63.8C32.3004 63.8 34.3004 62.5 35.1004 60.5C35.3004 59.9 35.5004 59.2 35.5004 58.6C35.5004 58.2 36.2004 52.8 37.0004 46.3C38.1004 46 39.0004 45.3 39.8004 44.4C42.0004 41.4 41.9004 35.6 39.6004 27C44.2004 28.2 49.3004 29 50.2004 27.2C50.4004 26.8 50.2004 26.4 49.9004 26.2C49.9004 26.2 46.4004 24.1 42.2004 22.1L54.4004 20C54.8004 19.9 55.0004 19.6 55.0004 19.2C54.9004 16.3 47.2004 15.1 43.1004 14.7L43.1004 14.7ZM39.7004 20.9C39.4004 20.8 39.0004 20.8 38.8004 21.1C38.6004 21.4 38.6004 21.8 38.8004 22L38.9004 22.1C39.0004 22.3 39.3004 22.4 39.5004 22.4C42.7004 23.9 45.8004 25.6 47.5004 26.6C45.7004 26.6 42.4004 26 39.0004 25.1C38.8004 25 38.6004 25.1 38.4004 25.2C38.3004 25.3 38.3004 25.3 38.2004 25.4C37.9004 25.6 37.7004 25.9 37.8004 26.3C37.8004 26.4 37.9004 26.5 37.9004 26.6C37.9004 26.7 37.9004 26.7 37.9004 26.8C38.3004 28.2 38.6004 29.6 38.9004 30.9C40.2004 36.9 40.0004 41.2 38.5004 43.3C38.1004 43.8 37.7004 44.1 37.2004 44.4C36.7004 44.6 36.2004 44.8 35.6004 44.8C35.4004 44.8 35.2004 44.9 35.0004 44.9C33.5004 44.9 32.4004 44.5 31.6004 43.5C30.1004 41.8 29.8004 38.4 30.5004 33.8C30.5004 33.6 30.5004 33.4 30.3004 33.2C30.2004 33.1 30.0004 33 29.8004 32.9C29.4004 32.8 29.0004 33.1 28.9004 33.5C28.1004 38.7 28.6004 42.4 30.3004 44.5C31.4004 45.8 32.9004 46.4 34.8004 46.4C34.9004 46.4 35.1004 46.4 35.2004 46.4C34.4004 52.8 33.7004 58.1 33.7004 58.4C33.7004 58.9 33.6004 59.4 33.4004 59.8C33.0004 60.7 32.3004 61.5 31.4004 61.9C30.5004 62.3 29.4004 62.3 28.5004 61.9C26.6004 61.1 25.6004 58.9 26.4004 57C26.5004 56.6 26.4004 56.2 26.0004 56C25.9004 55.9 25.8004 55.9 25.7004 55.9C25.4004 55.9 25.2004 56 25.0004 56.3C24.0004 57.9 22.1004 58.6 20.4004 57.9C19.5004 57.5 18.7004 56.8 18.3004 55.9C17.9004 55 17.9004 53.9 18.3004 53C18.4004 52.6 18.3004 52.2 17.9004 52C17.5004 51.8 17.1004 52 16.9004 52.3C16.0004 54 13.9004 54.7 12.1004 53.9C11.2004 53.5 10.5004 52.8 10.1004 51.8C9.70039 50.9 9.80039 49.8 10.2004 48.9C10.4004 48.5 10.2004 48.1 9.90039 47.9L9.80039 47.8C9.60039 47.7 9.40039 47.7 9.20039 47.8C9.00039 47.9 8.80039 48 8.80039 48.2C8.70039 48.5 8.60039 48.7 8.40039 48.9C7.80039 49.7 7.00039 50.3 6.00039 50.5C5.00039 50.7 4.00039 50.5 3.20039 49.9C2.40039 49.3 1.80039 48.5 1.60039 47.5C1.40039 46.5 1.60039 45.5 2.20039 44.6L17.7004 18.6C17.9004 18.3 17.8004 17.9 17.6004 17.7C17.4004 17.5 17.0004 17.4 16.7004 17.6C12.9004 19.6 9.40039 19.9 6.90039 18.3C4.70039 17 3.40039 14.5 3.40039 11.6C3.40039 7.5 5.70039 3.4 8.80039 1.5C9.40039 3.90001 11.1004 6 13.2004 6C14.7004 6 16.0004 5.2 16.8004 4.1C17.6004 5.2 19.0004 6 20.5004 6C22.0004 6 23.3004 5.2 24.1004 4.1C24.9004 5.2 26.2004 6 27.8004 6C29.9004 6 31.7004 4.5 32.1004 2.5C34.5004 3.1 41.9004 5.80001 41.6004 15.4C41.6004 15.8 41.9004 16.1 42.3004 16.2C47.1004 16.6 51.6004 17.7 53.0004 18.7L39.7004 20.9L39.7004 20.9Z" id="Shape" fill="#002153" fill-rule="evenodd" stroke="none" />
      <path d="M28.9008 46.2997C28.5008 46.1997 28.1008 46.4997 28.0008 46.8997L26.7008 52.1997C26.6008 52.5997 26.8008 52.9997 27.3008 53.0997C27.4008 53.0997 27.4008 53.0997 27.5008 53.0997C27.8008 53.0997 28.2008 52.8997 28.2008 52.4997L29.5008 47.1997C29.6008 46.7997 29.4008 46.3997 28.9008 46.2997L28.9008 46.2997Z" id="Shape" fill="#FF4500" fill-rule="evenodd" stroke="none" />
      <path d="M22.4999 39.8997C22.0999 39.6997 21.6999 39.8997 21.4999 40.2998L18.5999 47.5998C18.3999 47.9998 18.5999 48.3997 18.9999 48.5998C19.0999 48.5998 19.1999 48.6997 19.2999 48.6997C19.5999 48.6997 19.8999 48.4997 19.9999 48.1997L22.8999 40.8997C23.0999 40.4997 22.8999 40.0997 22.4999 39.8997L22.4999 39.8997Z" id="Shape" fill="#FF4500" fill-rule="evenodd" stroke="none" />
      <path d="M22.4999 39.8997C22.0999 39.6997 21.6999 39.8997 21.4999 40.2998L18.5999 47.5998C18.3999 47.9998 18.5999 48.3997 18.9999 48.5998C19.0999 48.5998 19.1999 48.6997 19.2999 48.6997C19.5999 48.6997 19.8999 48.4997 19.9999 48.1997L22.8999 40.8997C23.0999 40.4997 22.8999 40.0997 22.4999 39.8997L22.4999 39.8997Z" id="Shape" fill="#002153" fill-rule="evenodd" stroke="none" />
      <path d="M28.9008 46.2997C28.5008 46.1997 28.1008 46.4997 28.0008 46.8997L26.7008 52.1997C26.6008 52.5997 26.8008 52.9997 27.3008 53.0997C27.4008 53.0997 27.4008 53.0997 27.5008 53.0997C27.8008 53.0997 28.2008 52.8997 28.2008 52.4997L29.5008 47.1997C29.6008 46.7997 29.4008 46.3997 28.9008 46.2997L28.9008 46.2997Z" id="Shape" fill="#002153" fill-rule="evenodd" stroke="none" />
      <path d="M34.6008 17.9996C34.6008 19.0996 33.7008 19.8996 32.7008 19.8996C31.7008 19.8996 30.8008 18.9996 30.8008 17.9996C30.8008 16.9996 31.7008 16.0996 32.7008 16.0996C33.7008 16.0996 34.6008 16.9996 34.6008 17.9996L34.6008 17.9996ZM32.8008 18.5996C33.0508 18.5996 33.3008 18.3496 33.3008 18.0996C33.3008 17.8496 33.0508 17.5996 32.8008 17.5996C32.5508 17.5996 32.3008 17.8496 32.3008 18.0996C32.3008 18.3496 32.5508 18.5996 32.8008 18.5996L32.8008 18.5996Z" id="Shape" fill="#002153" fill-rule="evenodd" stroke="none" />
    </g>
  </g>
</svg>