<?xml version="1.0" encoding="utf-8"?>
<svg width="62px" height="64px" viewBox="0 0 62 64" version="1.1" xmlns:xlink="http://www.w3.org/1999/xlink" xmlns="http://www.w3.org/2000/svg">
  <defs>
    <path d="M0 0L61.2 0L61.2 63.7L0 63.7L0 0Z" id="path_1" />
    <clipPath id="mask_1">
      <use xlink:href="#path_1" />
    </clipPath>
  </defs>
  <g id="pictoInstallateurs">
    <path d="M0 0L61.2 0L61.2 63.7L0 63.7L0 0Z" id="Background" fill="none" fill-rule="evenodd" stroke="none" />
    <g clip-path="url(#mask_1)">
      <g id="Group" transform="translate(0.07421875 -0.041015625)">
        <path d="M36.426 63.7414C36.426 63.7414 36.326 63.7414 36.326 63.7414L29.526 62.7414L17.926 60.4414C17.826 60.4414 17.626 60.3414 17.526 60.2414L12.826 55.5414C12.526 55.2414 12.526 54.7414 12.826 54.4414L15.026 52.0414L16.326 37.0414L12.326 34.0414C12.226 33.9414 12.126 33.8414 12.026 33.7414L10.026 28.4414L1.72601 25.9414C1.42601 25.8414 1.22601 25.6414 1.22601 25.3414L0.026013 20.3414C-0.0739871 20.0414 0.126013 19.6414 0.426013 19.4414L5.32601 16.8414C5.52601 16.7414 5.72601 16.7414 6.02601 16.8414L10.626 18.7414L13.526 18.5414L12.826 10.7414C12.826 10.5414 12.926 10.3414 13.026 10.1414C13.226 9.94142 13.426 9.94142 13.626 9.94142L16.626 10.0414C16.826 10.0414 17.026 10.1414 17.126 10.2414L19.526 12.5414L22.926 12.3414L24.726 9.84142C24.826 9.74142 24.826 9.64142 24.926 9.64142L29.126 7.04142L29.926 2.04142C30.026 1.74142 30.126 1.54142 30.426 1.54142L34.526 0.0414214C34.726 -0.0585786 35.026 0.0414214 35.226 0.141421L42.726 6.14142L46.726 7.04142C46.926 7.14142 47.126 7.24142 47.226 7.44142L48.426 10.1414L53.226 11.2414C53.426 11.2414 53.626 11.4414 53.726 11.5414L55.126 13.8414L60.626 14.8414C60.826 14.8414 61.026 15.0414 61.126 15.1414C61.226 15.3414 61.326 15.5414 61.226 15.7414L58.826 26.1414C58.826 26.2414 58.726 26.3414 58.726 26.4414L52.526 34.7414L55.626 37.4414C55.826 37.5414 55.926 37.7414 55.926 38.0414L56.326 48.7414L58.526 49.7414C58.726 49.8414 58.826 49.9414 58.926 50.1414L59.726 52.1414C59.826 52.4414 59.726 52.8414 59.426 53.0414L52.426 58.0414C52.226 58.1414 52.026 58.2414 51.826 58.1414L40.126 55.3414L37.126 58.1414L37.226 62.9414C37.226 63.1414 37.126 63.3414 36.926 63.5414C36.726 63.6414 36.526 63.7414 36.426 63.7414L36.426 63.7414ZM18.4266 58.9412L29.6266 61.1412L35.5266 62.0412L35.4266 57.8412C35.4266 57.6412 35.5266 57.4412 35.6266 57.2412L39.2266 53.9412C39.4266 53.7412 39.7266 53.7412 39.9266 53.7412L51.7266 56.5412L57.9266 52.1412L57.5266 51.0412L55.2266 49.9412C54.9266 49.8412 54.8266 49.5412 54.8266 49.2412L54.4266 38.4412L50.9266 35.5412C50.6266 35.2412 50.5266 34.8412 50.8266 34.5412L57.3266 25.8412L59.5266 16.3412L54.5266 15.4412C54.3266 15.4412 54.1266 15.2412 54.0266 15.0412L52.6266 12.6412L47.8266 11.5412C47.6266 11.4412 47.4266 11.3412 47.3266 11.1412L45.9266 8.44121L42.2266 7.64121C42.1266 7.64121 42.0266 7.54121 41.9266 7.54121L34.6266 1.74121L31.3266 2.94121L30.2266 7.64121C30.2266 7.84121 30.0266 8.04121 29.9266 8.14121L25.6266 10.8412L23.7266 13.4412C23.6266 13.6412 23.4266 13.7412 23.1266 13.7412L19.0266 14.0412C18.8266 14.0412 18.6266 13.9412 18.4266 13.8412L16.0266 11.5412L14.1266 11.4412L14.9266 19.0412C14.9266 19.2412 14.9266 19.4412 14.7266 19.6412C14.6266 19.8412 14.4266 19.9412 14.2266 19.9412L10.4266 20.2412C10.3266 20.2412 10.2266 20.2412 10.1266 20.1412L5.72656 18.3412L1.72656 20.5412L2.72656 24.5412L11.0266 27.0412C11.2266 27.1412 11.4266 27.2412 11.5266 27.5412L13.5266 33.0412L17.7266 36.2412C17.9266 36.4412 18.0266 36.6412 18.0266 36.9412L16.7266 52.6412C16.7266 52.8412 16.6266 52.9412 16.5266 53.0412L14.6266 55.1412L18.4266 58.9412L18.4266 58.9412Z" id="Shape" fill="#002153" fill-rule="evenodd" stroke="none" />
      </g>
    </g>
  </g>
</svg>