<?xml version="1.0" encoding="utf-8"?>
<svg width="41px" height="81px" viewBox="0 0 41 81" version="1.1" xmlns:xlink="http://www.w3.org/1999/xlink" xmlns="http://www.w3.org/2000/svg">
  <defs>
    <path d="M0 0L40.8 0L40.8 80.4L0 80.4L0 0Z" id="path_1" />
    <clipPath id="mask_1">
      <use xlink:href="#path_1" />
    </clipPath>
  </defs>
  <g id="pictoNormes">
    <path d="M0 0L40.8 0L40.8 80.4L0 80.4L0 0Z" id="Background" fill="none" fill-rule="evenodd" stroke="none" />
    <g clip-path="url(#mask_1)">
      <g id="Group" transform="translate(0.20117188 0.0009765625)">
        <path d="M35.0992 45.7L6.09922 45.7C5.69922 45.7 5.29922 45.4 5.29922 44.9C5.29922 44.4 5.59922 44.1 6.09922 44.1L35.0992 44.1C35.4992 44.1 35.8992 44.4 35.8992 44.9C35.8992 45.4 35.4992 45.7 35.0992 45.7L35.0992 45.7ZM10.4992 40.9C10.4992 40.5 10.7992 40.1 11.2992 40.1L28.5992 40.1C28.9992 40.1 29.3992 40.4 29.3992 40.9C29.3992 41.3 29.0992 41.7 28.5992 41.7L11.1992 41.7C10.7992 41.7 10.4992 41.3 10.4992 40.9L10.4992 40.9ZM35.0992 37.9L6.09922 37.9C5.69922 37.9 5.29922 37.6 5.29922 37.1C5.29922 36.6 5.59922 36.3 6.09922 36.3L35.0992 36.3C35.4992 36.3 35.8992 36.6 35.8992 37.1C35.8992 37.6 35.4992 37.9 35.0992 37.9L35.0992 37.9ZM8.99922 33.3C8.99922 32.9 9.29922 32.5 9.79922 32.5L28.7992 32.5C29.1992 32.5 29.5992 32.8 29.5992 33.3C29.5992 33.8 29.2992 34.1 28.7992 34.1L9.79922 34.1C9.39922 34.1 8.99922 33.7 8.99922 33.3L8.99922 33.3ZM35.7992 29.5C35.7992 29.9 35.4992 30.3 34.9992 30.3L5.99922 30.3C5.59922 30.3 5.19922 30 5.19922 29.5C5.19922 29 5.49922 28.7 5.99922 28.7L34.9992 28.7C35.4992 28.7 35.7992 29.1 35.7992 29.5L35.7992 29.5ZM5.69922 19.1C5.69922 18.7 5.99922 18.3 6.49922 18.3L34.7992 18.3C35.1992 18.3 35.5992 18.6 35.5992 19.1C35.5992 19.6 35.2992 19.9 34.7992 19.9L6.49922 19.9C5.99922 19.9 5.69922 19.6 5.69922 19.1L5.69922 19.1ZM35.4992 15.8C35.4992 16.2 35.1992 16.6 34.6992 16.6L6.49922 16.6C6.09922 16.6 5.69922 16.3 5.69922 15.8C5.69922 15.3 5.99922 15 6.49922 15L34.7992 15C35.1992 15 35.4992 15.4 35.4992 15.8L35.4992 15.8Z" id="Shape" fill="none" fill-rule="evenodd" stroke="none" />
        <path d="M37.7996 9.1998L31.5996 2.7998L31.5996 9.1998L37.7996 9.1998Z" id="Polygon" fill="none" fill-rule="evenodd" stroke="none" />
        <path d="M5.69922 15.8C5.69922 16.2 5.99922 16.6 6.49922 16.6L34.7992 16.6C35.1992 16.6 35.5992 16.3 35.5992 15.8C35.5992 15.3 35.1992 15 34.7992 15L6.49922 15C5.99922 15 5.69922 15.4 5.69922 15.8L5.69922 15.8Z" id="Shape" fill="#002153" fill-rule="evenodd" stroke="none" />
        <path d="M34.7992 19.8998C35.1992 19.8998 35.5992 19.5998 35.5992 19.0998C35.5992 18.5998 35.2992 18.2998 34.7992 18.2998L6.49922 18.2998C6.09922 18.2998 5.69922 18.5998 5.69922 19.0998C5.69922 19.5998 5.99922 19.8998 6.49922 19.8998L34.7992 19.8998L34.7992 19.8998Z" id="Shape" fill="#002153" fill-rule="evenodd" stroke="none" />
        <path d="M6.10078 28.7002C5.70078 28.7002 5.30078 29.0002 5.30078 29.5002C5.30078 30.0002 5.60078 30.3002 6.10078 30.3002L35.1008 30.3002C35.5008 30.3002 35.9008 30.0002 35.9008 29.5002C35.9008 29.0002 35.6008 28.7002 35.1008 28.7002L6.10078 28.7002L6.10078 28.7002Z" id="Shape" fill="#002153" fill-rule="evenodd" stroke="none" />
        <path d="M28.8 34.1C29.2 34.1 29.6 33.8 29.6 33.3C29.6 32.8 29.3 32.5 28.8 32.5L9.8 32.5C9.4 32.5 9 32.8 9 33.3C9 33.8 9.3 34.1 9.8 34.1L28.8 34.1L28.8 34.1Z" id="Shape" fill="#002153" fill-rule="evenodd" stroke="none" />
        <path d="M35.1008 36.2998L6.10078 36.2998C5.70078 36.2998 5.30078 36.5998 5.30078 37.0998C5.30078 37.5998 5.60078 37.8998 6.10078 37.8998L35.1008 37.8998C35.5008 37.8998 35.9008 37.5998 35.9008 37.0998C35.9008 36.5998 35.5008 36.2998 35.1008 36.2998L35.1008 36.2998Z" id="Shape" fill="#002153" fill-rule="evenodd" stroke="none" />
        <path d="M28.5004 41.6996C28.9004 41.6996 29.3004 41.3996 29.3004 40.8996C29.3004 40.4996 29.0004 40.0996 28.5004 40.0996L11.2004 40.0996C10.8004 40.0996 10.4004 40.3996 10.4004 40.8996C10.4004 41.2996 10.7004 41.6996 11.2004 41.6996L28.5004 41.6996L28.5004 41.6996Z" id="Shape" fill="#002153" fill-rule="evenodd" stroke="none" />
        <path d="M35.1008 44.2002L6.10078 44.2002C5.70078 44.2002 5.30078 44.5002 5.30078 45.0002C5.30078 45.5002 5.60078 45.8002 6.10078 45.8002L35.1008 45.8002C35.5008 45.8002 35.9008 45.5002 35.9008 45.0002C35.9008 44.5002 35.5008 44.2002 35.1008 44.2002L35.1008 44.2002Z" id="Shape" fill="#002153" fill-rule="evenodd" stroke="none" />
        <path d="M25.3 68C24.9 68 24.5 68.3 24.5 68.8L24.5 71.3C24.5 71.7 24.8 72.1 25.3 72.1C25.8 72.1 26.1 71.8 26.1 71.3L26.1 68.8C26.1 68.4 25.7 68 25.3 68L25.3 68Z" id="Shape" fill="#002153" fill-rule="evenodd" stroke="none" />
        <path d="M40.7 10.2C40.8 9.9 40.7 9.6 40.5 9.4L31.3 0.2C31.2 0.1 31 0 30.8 0L30.8 0L0.799999 0C0.3 0 0 0.3 0 0.8L0 59.5C0 59.9 0.3 60.3 0.8 60.3L18.5 60.3L18.5 60.3L20.7 61.1L20 63.3C19.9 63.5 20 63.8 20.1 64C20.3 64.2 20.5 64.3 20.8 64.3L22 64.2L22 79.6C22 79.9 22.2 80.2 22.5 80.3C22.8 80.4 23.1 80.3 23.4 80.1L28.5 73.7L33.4 80.2C33.5 80.4 33.8 80.5 34 80.5L34.2 80.5C34.6 80.5 35 80.2 35 79.7L35 64.2L36.2 64.3C36.5 64.3 36.7 64.2 36.9 64C37.1 63.8 37.1 63.5 37 63.3L36.3 61.1L38.5 60.2L38.5 60.2L40 60.2C40.4 60.2 40.8 59.9 40.8 59.4L40.8 10.4C40.8 10.3 40.8 10.2 40.7 10.2L40.7 10.2ZM31.5996 2.7998L37.7996 9.1998L31.5996 9.1998C31.5996 9.1998 31.5996 2.7998 31.5996 2.7998L31.5996 2.7998ZM33.5 77.6998L29.1 71.9998C29 71.7998 28.7 71.6998 28.5 71.6998C28.2 71.6998 28 71.7998 27.9 71.9998L23.5 77.4998L23.5 66.6998C23.6 66.7998 23.7 66.9998 23.8 66.9998C24 67.0998 24.3 67.0998 24.5 66.9998L26.5 65.7998L27.8 67.6998C27.9 67.8998 28.2 67.9998 28.4 67.9998C28.6 67.9998 28.9 67.8998 29 67.6998L30.3 65.7998L32.3 66.9998C32.5 67.0998 32.8 67.0998 33 66.9998C33.1 66.8998 33.2 66.7998 33.3 66.6998L33.3 77.6998L33.5 77.6998L33.5 77.6998ZM35.0996 60.0002C35.0996 60.0002 34.9996 60.0002 35.0996 60.0002C34.8996 60.2002 34.7996 60.2002 34.7996 60.3002C34.6996 60.5002 34.5996 60.7002 34.6996 61.0002L34.9996 62.0002L35.1996 62.8002L34.9996 62.8002L34.1996 62.7002L33.3996 62.6002L33.2996 62.6002C32.8996 62.6002 32.4996 62.9002 32.4996 63.2002L32.1996 65.1002L30.4996 64.2002C30.1996 64.0002 29.6996 64.1002 29.4996 64.4002L28.4996 66.0002L27.3996 64.4002C27.2996 64.2002 26.9996 64.1002 26.7996 64.1002C26.6996 64.1002 26.4996 64.1002 26.3996 64.2002L24.6996 65.1002L24.3996 63.2002C24.2996 62.8002 23.9996 62.5002 23.5996 62.6002L23.4996 62.6002L22.6996 62.7002L21.9996 62.7002L21.7996 62.7002L21.9996 62.0002L22.2996 60.9002C22.3996 60.7002 22.2996 60.4002 22.1996 60.2002C22.0996 60.1002 22.0996 60.0002 21.9996 60.0002L21.8996 59.9002L20.0996 59.2002L20.5996 58.7002L21.3996 57.8002C21.6996 57.5002 21.6996 57.1002 21.3996 56.8002L20.0996 55.4002L21.8996 54.7002C22.2996 54.6002 22.4996 54.1002 22.3996 53.8002L21.7996 52.0002L23.6996 52.1002C24.0996 52.1002 24.4996 51.8002 24.4996 51.5002L24.7996 49.6002L26.4996 50.5002C26.7996 50.7002 27.2996 50.6002 27.4996 50.3002L28.5996 48.7002L29.6996 50.3002C29.8996 50.6002 30.3996 50.7002 30.6996 50.5002L32.3996 49.6002L32.6996 51.5002C32.7996 51.9002 33.0996 52.2002 33.4996 52.1002L35.3996 52.0002L34.7996 53.8002C34.6996 54.2002 34.8996 54.6002 35.2996 54.7002L37.0996 55.4002L35.7996 56.8002C35.4996 57.1002 35.4996 57.5002 35.7996 57.8002L36.5996 58.7002L37.0996 59.2002L35.0996 60.0002L35.0996 60.0002ZM39.3 58.7L38.5 58.7L37.2 57.3L38.8 55.6C39 55.4 39 55.2 39 54.9C38.9 54.7 38.8 54.5 38.5 54.4L36.3 53.5L37 51.3C37.1 51.1 37 50.8 36.9 50.6C36.8 50.4 36.5 50.3 36.2 50.3L33.9 50.5L33.6 48.2C33.6 48 33.4 47.7 33.2 47.6C33 47.5 32.7 47.5 32.5 47.6L30.5 48.8L29.2 46.9C28.9 46.5 28.2 46.5 27.9 46.9L26.6 48.8L24.6 47.6C24.4 47.5 24.1 47.5 23.9 47.6C23.7 47.7 23.5 47.9 23.5 48.2L23.1 50.5L20.8 50.3C20.6 50.3 20.3 50.4 20.1 50.6C19.9 50.8 19.9 51.1 20 51.3L20.7 53.5L18.5 54.3C18.3 54.4 18.1 54.6 18 54.8C17.9 55 18 55.3 18.2 55.5L19.8 57.2L18.5 58.6L1.5 58.6L1.5 1.5L30.1 1.5L30.1 9.9C30.1 10.3 30.4 10.7 30.9 10.7L39.3 10.7L39.3 10.7C39.3 10.7 39.3 58.7 39.3 58.7L39.3 58.7Z" id="Shape" fill="#002153" fill-rule="evenodd" stroke="none" />
      </g>
    </g>
  </g>
</svg>