<svg xmlns="http://www.w3.org/2000/svg" data-name="Calque 1" viewBox="0 0 67.65 70.26"><path d="M273.16 28.52v56.35l67.65-13.6V14.61Zm58.36 29.06-3.41.75-8.11-.16 9.83-4.47 8.25.17v.71Zm6.56-2.34v.9l-3.78.83Zm-9.35-33.69L318.85 26l-9.91-.29 8.17-3.71 3.54-.73Zm-5.27-.83 13.35-2.78-6.68 3Zm-47.37 42V62l8.49-3.83 10 .19-10 4.54Zm7 .79-7.05 3.19v-3.27Zm22.92-26.48-10 4.48-10-.24 10-4.49Zm-20-1.19 10.09-4.44 10 .27-10 4.47Zm20 6.58-10 4.49-10-.22 10-4.5Zm0 5.38-10 4.5-10-.21 10-4.51Zm0 5.37-10 4.51-10-.19L296 53Zm-8.53-.84 10-4.5 9.88.22-9.91 4.48Zm0-5.39 10-4.49 9.89.24-9.91 4.47Zm0-5.4 10-4.48 9.9.26-9.92 4.46Zm0-5.41 10-4.47 9.93.34-9.93 4.45Zm0-5.42 10-4.46 9.91.29L307.5 31Zm-1.42 0-10-.28 8.27-3.68 3.58-.74 8.2.24Zm-11.49-.32-6.87-.19 13.72-2.85Zm-1.44.64-7.09 3.15v-3.33Zm1.44 0 10.06.28-10.07 4.49-8.51-.22v-.71Zm-1.44 5.4-7.08 3.16V36.3Zm1.43 0 10 .26-9.96 4.58-8.51-.2v-.76Zm-1.44 5.4-7.07 3.16v-3.25Zm1.43 0 10 .24-10 4.51-8.5-.19v-.64Zm-1.44 5.39-7.07 3.17v-3.21Zm1.43 0 10 .22-10 4.52-8.49-.18v-.6Zm-1.44 5.38-7.06 3.18v-3.17Zm1.43 0 10 .2-10 4.53-8.49-.16v-.57Zm-1.44 5.38-7.06 3.18V58Zm12.91.41 10 .19-10 4.52-10-.17Zm1.42-.64 10-4.51 9.88.2-9.9 4.49Zm21.23-4.28 9.8.2-9.83 4.48-9.85-.15Zm-9.86-.87 9.9-4.48 9.81.22-9.84 4.47Zm0-5.37 9.91-4.47 9.85.24-9.85 4.46Zm0-5.38 9.92-4.46 9.82.25-9.86 4.45Zm0-5.39L318.81 32l9.83.27-9.87 4.44Zm0-5.4 9.93-4.44 9.84.29-9.87 4.43Zm-1.38-5.45-6.77-.2 13.53-2.81Zm-31.45 43.2 3.86.06-3.86.85v-.9Zm0-.67v-.73l8.48-3.84 10 .17-8.27 3.75-3.5.77ZM296 63.77l6.79.11-13.63 3Zm1.42-.64 9.95-4.52 9.87.18-8.16 3.72-3.46.76Zm21.21-4.31 6.7.12-13.45 2.95Zm12.62-5.75 6.89-3.14v3.28Zm-1.39 0-9.79-.2 9.83-4.46 8.25.18v.71Zm1.43-5.3 6.9-3.13v3.28Zm-1.39 0-9.8-.22 9.84-4.55 8.26.2v.71Zm1.44-5.31 6.9-3.12v3.29Zm-1.39 0-9.81-.24 9.86-4.53 8.26.21v.71Zm1.44-5.31 6.91-3.12v3.29ZM330 37l-9.82-.25 9.82-4.42 8.27.23v.72Zm1.44-5.32 6.91-3.11v3.3Zm-1.39 0-9.82-.27 9.85-4.41 8.28.24v.72Zm1.44-5.32 6.92-3.1v3.31Zm-1.39 0-9.85-.36 9.87-4.41 8.29.26v.72Zm1.43-5.36 6.92-3.1v3.31Zm8.28 36.71v12.75l-65.65 13.2V72.11h-.12.12l65.65-14.44Z" transform="translate(-273.16 -14.61)" /></svg>