<svg xmlns="http://www.w3.org/2000/svg" data-name="Calque 1" viewBox="0 0 82.08 70.84"><path d="M448.08 29.46 433.89 4.73l-1.35.27L366 18.72v56.84L433.25 62l.4-.08V43a4.09 4.09 0 0 0 .85.1 4.82 4.82 0 0 0 1-.12 5.63 5.63 0 0 0 3.79-3 3 3 0 0 0 .59.66 3.55 3.55 0 0 0 2.24.74 4.59 4.59 0 0 0 1-.12 5.22 5.22 0 0 0 4.13-4.75v-6.88l.28-.06ZM418.39 9.09l.19.33 12.84 22.39-6.51 1.31-1.89.33-12.94-22.28-.18-.32Zm12.66 24v6.78a4.46 4.46 0 0 1-3.56 3.92 3.08 3.08 0 0 1-2.6-.45 2.13 2.13 0 0 1-.79-1.72v-7.21l4.42-.91ZM402.28 12.5l.14.25 12.8 22.32.08.13-6.3 1.29-2.12.37-.07-.11-12.9-22.26-.13-.23Zm-4.41 34.6c0 1.83-1.81 3.73-4 4.23a3.59 3.59 0 0 1-3-.51A2.19 2.19 0 0 1 390 49v-7.57l2-.42 5.86-1.21v7.3Zm9.65-1.89v-7.39l1.68-.35 5.73-1.18v7.07c0 1.77-1.7 3.6-3.78 4.07a3.33 3.33 0 0 1-2.81-.48 2.16 2.16 0 0 1-.81-1.74Zm-22.87-29.1.15.25 12.76 22.25.12.21-5.85 1.18-2.55.45-.1-.18-12.89-22.16-.14-.24ZM379.78 43v8.09a3.22 3.22 0 0 0 1.22 2.53 4.28 4.28 0 0 0 2.7.87 6 6 0 0 0 1.32-.15 6.64 6.64 0 0 0 4.5-3.46 3.18 3.18 0 0 0 .64.72 4.16 4.16 0 0 0 2.62.85 5.82 5.82 0 0 0 1.27-.14 6.45 6.45 0 0 0 4.37-3.38 3.14 3.14 0 0 0 .64.71 3.66 3.66 0 0 0 1.27.64v17.36L367 74.34V21Zm52.87 18.18-31.33 6.3v-17h.29a5.6 5.6 0 0 0 1.22-.14 6.27 6.27 0 0 0 4.24-3.3 3.12 3.12 0 0 0 .63.7 3.94 3.94 0 0 0 2.48.81 5.34 5.34 0 0 0 1.17-.13 6.1 6.1 0 0 0 4.12-3.22 3.08 3.08 0 0 0 .62.69 3.84 3.84 0 0 0 2.42.79 5.17 5.17 0 0 0 1.13-.13 5.94 5.94 0 0 0 4-3.14 3.05 3.05 0 0 0 .61.68 3.73 3.73 0 0 0 2.36.77 5 5 0 0 0 1.09-.12 5.79 5.79 0 0 0 3.89-3.07 3 3 0 0 0 .6.67 3.21 3.21 0 0 0 .44.29v18.51Zm13.66-24.68a4.25 4.25 0 0 1-3.31 3.77 2.82 2.82 0 0 1-2.4-.43 2.12 2.12 0 0 1-.77-1.7v-7l6.53-1.34v6.7Zm-.31-7.66-7.09 1.37-5.27-9.07-1-1.72L426 7.9l-.17-.29 7-1.6.62-.14.26.45 12.87 22.43Z" transform="translate(-366 -4.73)" /></svg>