<?xml version="1.0" encoding="utf-8"?>
<svg width="68px" height="71px" viewBox="0 0 68 71" version="1.1" xmlns:xlink="http://www.w3.org/1999/xlink" xmlns="http://www.w3.org/2000/svg">
  <defs>
    <path d="M0 0L67.65 0L67.65 70.26L0 70.26L0 0Z" id="path_1" />
    <clipPath id="mask_1">
      <use xlink:href="#path_1" />
    </clipPath>
  </defs>
  <g id="volets-r">
    <path d="M0 0L67.65 0L67.65 70.26L0 70.26L0 0Z" id="Background" fill="none" fill-rule="evenodd" stroke="none" />
    <g clip-path="url(#mask_1)">
      <path d="M0.0507813 13.9105L0.0507813 70.2605L67.7008 56.6605L67.7008 -0.0195313L0.0507813 13.9105ZM58.7809 20.6807L58.6309 19.9507L62.2209 19.2207L62.3708 19.9507L58.7809 20.6807ZM62.3708 26.4507L58.7809 27.1807L58.6309 26.4507L62.2209 25.7207L62.3708 26.4507ZM58.7809 14.1905L58.6309 13.4605L62.2209 12.7305L62.3708 13.4605L58.7809 14.1905ZM58.7809 7.70026L58.6309 6.97025L62.2209 6.24023L62.3708 6.97025L58.7809 7.70026ZM52.0504 21.9805L51.9004 21.2505L55.4904 20.5205L55.6404 21.2505L52.0504 21.9805ZM55.6404 27.7505L52.0504 28.4805L51.9004 27.7505L55.4904 27.0205L55.6404 27.7505ZM52.0504 15.5303L51.9004 14.8003L55.4904 14.0703L55.6404 14.8003L52.0504 15.5303ZM52.0504 9.0401L51.9004 8.31009L55.4904 7.58008L55.6404 8.31009L52.0504 9.0401ZM45.3902 23.3809L45.2402 22.6509L48.8302 21.9209L48.9802 22.6509L45.3902 23.3809ZM48.9802 29.1509L45.3902 29.8809L45.2402 29.1509L48.8302 28.4209L48.9802 29.1509ZM45.3902 16.8907L45.2402 16.1607L48.8302 15.4307L48.9802 16.1607L45.3902 16.8907ZM45.3902 10.4005L45.2402 9.67044L48.8302 8.94043L48.9802 9.67044L45.3902 10.4005ZM38.7301 24.7403L38.5801 24.0103L42.1701 23.2803L42.3501 23.9803L38.7301 24.7403ZM42.3201 30.5103L38.7301 31.2403L38.5801 30.5103L42.1701 29.7803L42.3201 30.5103ZM38.7301 18.2501L38.5801 17.5201L42.1701 16.79L42.3201 17.5201L38.7301 18.2501ZM38.7301 11.7608L38.5801 11.0308L42.1701 10.3008L42.3501 10.9808L38.7301 11.7608ZM32.0699 26.1006L31.9199 25.3706L35.5099 24.6406L35.6599 25.3706L32.0699 26.1006ZM35.6599 31.8706L32.0699 32.6006L31.9199 31.8706L35.5099 31.1406L35.6599 31.8706ZM32.0699 19.6104L31.9199 18.8804L35.5099 18.1504L35.6599 18.8804L32.0699 19.6104ZM32.0699 13.1202L31.9199 12.3902L35.5099 11.6602L35.6599 12.3902L32.0699 13.1202ZM25.4117 27.46L25.2617 26.73L28.8517 26L29.0017 26.73L25.4117 27.46ZM29.0017 33.23L25.4117 33.96L25.2617 33.23L28.8517 32.5L29.0017 33.23ZM25.4508 20.9805L25.3008 20.2505L28.8908 19.5205L29.0408 20.2505L25.4508 20.9805ZM25.4508 14.4903L25.3008 13.7603L28.8908 13.0303L29.0408 13.7603L25.4508 14.4903ZM18.7906 28.8301L18.6406 28.1001L22.2306 27.3701L22.3806 28.1001L18.7906 28.8301ZM22.3806 34.6001L18.7906 35.3301L18.6406 34.6001L22.2306 33.8701L22.3806 34.6001ZM18.7906 22.3409L18.6406 21.6109L22.2306 20.8809L22.3806 21.6109L18.7906 22.3409ZM18.7906 15.8506L18.6406 15.1206L22.2306 14.3906L22.3806 15.1206L18.7906 15.8506ZM12.1305 30.1905L11.9805 29.4605L15.5705 28.7305L15.7205 29.4605L12.1305 30.1905ZM15.7205 35.9605L12.1305 36.6905L11.9805 35.9605L15.5705 35.2305L15.7205 35.9605ZM12.1305 23.7003L11.9805 22.9702L15.5705 22.2402L15.7205 22.9702L12.1305 23.7003ZM12.1305 17.21L11.9805 16.48L15.5705 15.75L15.7205 16.48L12.1305 17.21ZM5.47031 31.5508L5.32031 30.8208L8.91031 30.0908L9.0603 30.8208L5.47031 31.5508ZM9.0603 37.3208L5.47031 38.0508L5.32031 37.3208L8.91031 36.5908L9.0603 37.3208ZM5.48007 24.9805L5.33008 24.2505L8.92007 23.5205L9.07007 24.2505L5.48007 24.9805ZM5.48007 18.4903L5.33008 17.7603L8.92007 17.0303L9.07007 17.7603L5.48007 18.4903ZM1.05078 32.3904L1.05078 31.6204L2.31079 31.3604L2.46078 32.0904L1.05078 32.3904ZM2.46078 38.6003L1.05078 38.8904L1.05078 38.1204L2.31079 37.8604L2.46078 38.6003ZM1.05078 25.8904L1.05078 25.1204L2.31079 24.8604L2.46078 25.5904L1.05078 25.8904ZM1.05078 19.4001L1.05078 18.6301L2.31079 18.3701L2.46078 19.1001L1.05078 19.4001ZM65.441 19.3306L65.291 18.6006L66.701 18.3105L66.701 19.0805L65.441 19.3306ZM66.701 24.8008L66.701 25.5708L65.441 25.8308L65.291 25.1008L66.701 24.8008ZM65.441 12.8003L65.291 12.0703L66.701 11.7803L66.701 12.5503L65.441 12.8003ZM65.441 6.31006L65.291 5.58005L66.701 5.29004L66.701 6.06003L65.441 6.31006ZM34.3808 62.31L34.3808 38.63L33.3808 38.84L33.3808 62.54L1.05078 69.04L1.05078 44.81L66.7008 31.5L66.7008 55.85L34.3808 62.31Z" id="Shape" fill="#002153" fill-rule="evenodd" stroke="none" />
    </g>
  </g>
</svg>