<svg xmlns="http://www.w3.org/2000/svg" viewBox="0 0 75.74 75.7"><defs></defs><g id="Calque_2" data-name="Calque 2"><g id="Calque_1-2" data-name="Calque 1"><path class="cls-1" d="M75.74 0 0 15.66v4.55L75.73 4.55 75.74 0zM49.08 10.72v1.06l8.29-1.68v27.22L49.08 39v1l8.29-1.68V65.4l-8.29 1.68v1l8.56-1.73.73-.15 17.33-3.64V5.23Zm25.66 51-16.38 3.47V38.14l16.38-3.46Zm0-28.08-16.38 3.47V9.91l16.38-3.46ZM48.48 10.84l-12.37 2.55-23.8 4.94V75.7l31.31-6.5 4.86-1V10.85ZM36 66.68l-21.4 4.48v-1.23L36 65.46Zm0-5.2L14.6 66v-1.27L36 60.25Zm0-5.2-21.4 4.48v-1.23L36 55.05Zm0-5.2-21.4 4.47v-1.22L36 49.85Zm0-5.2-21.4 4.47v-1.22L36 44.65Zm0-5.2-21.4 4.47v-1.23L36 39.45Zm0-5.2-21.4 4.47v-1.23L36 34.25Zm0-5.2-21.4 4.47v-1.23L36 29Zm0-5.2-21.4 4.47v-1.23L36 23.84Zm0-5.2-21.4 4.46v-1.22L36 18.64Zm10.14 44.7L37 66.47v-1.22l9.14-1.91Zm0-5.2L37 61.27V60l9.14-1.91Zm0-5.2L37 56.07v-1.23l9.14-1.91Zm0-5.2L37 50.87v-1.23l9.14-1.91Zm0-5.2L37 45.67v-1.23l9.14-1.91Zm0-5.2L37 40.46v-1.22l9.14-1.91Zm0-5.2L37 35.26V34l9.14-1.91Zm0-5.2L37 30.06v-1.22l9.14-1.91Zm0-5.2L37 24.86v-1.23l9.14-1.91Zm0-5.2L37 19.66v-1.23l9.14-1.91Z"/></g></g></svg>