<?xml version="1.0" encoding="utf-8"?>
<svg width="68px" height="81px" viewBox="0 0 68 81" version="1.1" xmlns:xlink="http://www.w3.org/1999/xlink" xmlns="http://www.w3.org/2000/svg">
  <defs>
    <path d="M0 0L67.67 0L67.67 80.67L0 80.67L0 0Z" id="path_1" />
    <clipPath id="mask_1">
      <use xlink:href="#path_1" />
    </clipPath>
  </defs>
  <g id="volets-b">
    <path d="M0 0L67.67 0L67.67 80.67L0 80.67L0 0Z" id="Background" fill="none" fill-rule="evenodd" stroke="none" />
    <g clip-path="url(#mask_1)">
      <path d="M67.65 56.66L67.65 0.0400391L0 13.95L0 70.3L27.24 80.6901L27.24 24.3201L1.69 14.5801L36 7.53009L36 34.9101L27.85 36.5801L27.85 37.5801L36 35.9101L36 61.9901L27.85 63.6301L27.85 64.6301L46.1 60.9601L46.1 59.9601L37 61.7901L37 35.7201L46.1 33.8501L46.1 32.8501L37 34.7201L37 7.32007L65.38 1.49008L46.75 13.2401L46.75 69.85L67.65 56.65L67.65 56.66ZM19.12 68.12L1 61.12L1 59L19.13 66L19.13 68.12L19.12 68.12ZM19.12 33.12L1 26.12L1 24L19.13 31L19.13 33.13L19.12 33.12ZM53.5293 17.8501L66.6593 10.1201L66.6593 12.2401L53.5393 19.9701L53.5393 17.8501L53.5293 17.8501ZM53.5293 53.2596L66.6593 45.1396L66.6593 47.2596L53.5393 55.3796L53.5393 53.2496L53.5293 53.2596Z" id="Shape" fill="#002153" fill-rule="evenodd" stroke="none" />
    </g>
  </g>
</svg>